<svg xmlns="http://www.w3.org/2000/svg" viewBox="0 0 165.11 1176.29"><defs><style>.cls-1{fill:#ef5255;}.cls-2{fill:#79cfe8;}</style></defs><title>actrivities</title><g id="Layer_2" data-name="Layer 2"><g id="Layer_1-2" data-name="Layer 1"><path class="cls-1" d="M2.8,1124.29v-38.4l140-52v34.2l-28,9.7v55l28,9.7v33.8Zm84.61-38.5-52.51,19.4,52.51,19.5Z"/><path class="cls-1" d="M73.4,1021.39c-39.8,0-73.4-30.2-73.4-74,0-13.4,3.1-29.8,8.9-39.2H41.1c-6.9,8-11.1,21.6-11.1,35.4,0,29.2,18.6,44.6,42,44.6,24.11,0,43.61-16.2,43.61-45.8,0-12.1-3.4-24.8-8.9-34.2h31.6c5.1,9.1,7.9,26,7.9,39C146.21,991.39,113,1021.39,73.4,1021.39Z"/><path class="cls-1" d="M32.4,844.2v37.6H2.8V775H32.4v37.6H142.81V844.2Z"/><path class="cls-1" d="M2.8,743V711.2h140V743Z"/><path class="cls-1" d="M2.8,686.2V650l102.91-36.4L2.8,580.79v-36.2l140,52.81v36Z"/><path class="cls-1" d="M2.8,517.6V485.8h140v31.8Z"/><path class="cls-1" d="M32.4,416.2v37.6H2.8V347H32.4v37.6H142.81v31.6Z"/><path class="cls-1" d="M2.8,315V283.2h140V315Z"/><path class="cls-1" d="M2.8,242.21V149.8H31.2V211H57V159.2H86.21V211H114V147h28.8v95.21Z"/><path class="cls-1" d="M135.11,116.91h-33.3c7.2-11.1,13-24.1,13-41.41,0-10.6-3.2-25.4-12.4-25.4C82.6,50.1,92,118.31,45.2,118.31c-26,0-44.8-21-44.8-52.81,0-12.8,3.1-28.2,8.2-38.8H40.7C34.6,36.6,30,50.3,30,62.1c0,14.8,5.4,24.81,12.8,24.81,19.6,0,9.6-69.61,57-69.61,26.2,0,45.4,21.2,45.4,53.2C145.21,92.91,140,106.71,135.11,116.91Z"/><path class="cls-2" d="M85.6,1114.59v-3.4H82.1v3.5h3.4v3.5H82v-3.4H78.5v3.5H75v1.8l-7.5-2.8v-2.2H64.7v1.2l-8.1-3v-1.5H54.2v.6l-8.8-3.3v-.6H43.8l-8.9-3.3,9.2-3.4v.9h1.2v-1.2h-.4l20-7.4v2.1h2.2v-1.3l8.3,3v2.1H78v-1.1l7.8,2.9v2.1h1.61v3.7h-1.7v3.5h1.7v3.5Zm-43.9-9.4H40.5v1.2h1.2Zm7.3-.2H47.4v1.6H49Zm3.8,3.4h-2v2h2Zm-.2-6.9H51v1.6h1.6Zm3.8,3.4h-2v2h2Zm-.3-6.9H54.5v1.6h1.6Zm4,10.2H57.7v2.4h2.4Zm-.2-6.9h-2v2h2Zm3.9,10.3H61.1v2.7h2.7Zm-.2-7H61.3v2.4h2.3Zm-.1-6.9h-2v2h2Zm3.8,10.4H64.7v2.6h2.6Zm-.1-7H64.8v2.3h2.4Zm3.8,10.4H68.1v2.9H71Zm-.1-7H68.3v2.6h2.6Zm-.1-7H68.4v2.4h2.4Zm3.9,17.4H71.5v3.2h3.2Zm-.1-7H71.7v2.9h2.9Zm-.1-7H71.8v2.7h2.7Zm3.8,10.4H75.1v3.2h3.2Zm-.1-6.9H75.3v2.9h2.9Zm1.4,17.4-1.1-.4v-3.1H82v3.5Zm2.3-14H78.7v3.2h3.2Zm-.19-7H78.8v2.9h2.91Zm.29,21.9v-.9h3.5v2.2Zm3.41-18.5h-3.2v3.2h3.2Zm.19,17.5v-3.4h1.81v3.4Zm52.21,4.6v3.5h-3.5v3.6h-3.6v-3.1h-3.1v3.1h3.1v3.6h-3.6v-3.1h-3v2.1l-9.3-3.2v-55l19.9-6.9v47l5,1.7h-1.4v3.1h3.1v3.6Zm-19.4-46h-2.3v2.4h2.3Zm0,7.5h-2.3v2.4h2.3Zm0,7.5h-2.3v2.4h2.3Zm0,7.5h-2.3v2.4h2.3Zm0,7.5h-2.3v2.4h2.3Zm0,7.5h-2.3v2.4h2.3Zm0,7.6h-2.3v2.4h2.3Zm3.7-48.8h-2.3v2.4h2.3Zm0,7.5h-2.3v2.4h2.3Zm0,7.5h-2.3v2.4h2.3Zm0,7.5h-2.3v2.4h2.3Zm0,7.5h-2.3v2.4h2.3Zm0,7.5h-2.3v2.4h2.3Zm0,7.6h-2.3v2.4h2.3Zm.9,9.1h-2v2.1h2Zm2.9-50.5h-2.4v2.5h2.4Zm0,7.5h-2.4v2.5h2.4Zm0,7.5h-2.4v2.5h2.4Zm0,7.5h-2.4v2.5h2.4Zm0,7.5h-2.4v2.5h2.4Zm0,7.6h-2.4v2.5h2.4Zm.7,9.3h-2.1v2.1h2.1Zm3-50.5h-2.4v2.4h2.4Zm0,7.5h-2.4v2.4h2.4Zm0,7.5h-2.4v2.4h2.4Zm0,7.5h-2.4v2.4h2.4Zm0,7.5h-2.4v2.4h2.4Zm0,7.6h-2.4v2.4h2.4Zm.6,9.4h-2.1v2h2.1Zm3.1-50.8h-2.4v2.4h2.4Zm0,7.5h-2.4v2.4h2.4Zm0,7.5h-2.4v2.4h2.4Zm0,7.5h-2.4v2.4h2.4Zm0,7.5h-2.4v2.4h2.4Zm0,7.6h-2.4v2.4h2.4Zm-2.4,27.9v-1.2H134v2.2Zm3.3-11.6h-3v3h3Zm-.5-6.7h-2v2.1h2Zm.8,16.6v-3.1h3.1v3.1Zm3.3-13.5h-3v3h3Zm.3,9.9v-3h3v3Zm0,7.1v-2.9h3v2.9Zm3.3-17.5v-2.5l3.6,1.3v1.2Zm.2,6.9v-3.1h3.1v3.1Zm1.2,46.7v-33.8l-1.1-.4v-1.2h2.9v.3l1.5-1.1h-.8v-2.8h2.8v1.3l2.6-2h-1.8v-2.8h2.8v2.1l11-8.3v30.8Zm-1.1-39.7v-2.9h2.9v2.9Zm1.1-68.5v-34.2l19.9-25.91v36.21Zm2.4,57.9v-3.1h3v3.1Zm.1,7.1v-3h2.9v3Zm3.5-3.6v-2.9h2.9v2.9Zm3.6-3.6V1124l2.9,1v.9Zm0,7.1v-2.8h2.9v2.8Zm3.6-3.6v-2.8h2.8v2.8Z"/><path class="cls-2" d="M46.9,925.69a54.46,54.46,0,0,0,3.4,19.7H48.5v2.5H51V947l.8,1.7v3h1.6l1.7,2.5v1.3h1a20.94,20.94,0,0,0,2.4,2.8v.6H55.1v-3.3H51.6v3.5h3.3v3.4H51.5v-3.4H48v3.6H44.4v3.5h3.4v3.4H44.4v-3.3H40.9v3.5h3.3v3.4H40.8v-3.4H37.3v1l-.8-1.2H37v-3.1H34.8a48.46,48.46,0,0,1-3-8.1H33v-2.1H31.3a62.73,62.73,0,0,1-1.3-12.7c0-13.8,4.2-27.4,11.1-35.4L61,888.29C53.2,896.79,46.9,911.89,46.9,925.69Zm-14.2,23.7H31.2V951h1.5Zm-.2-6.8H31.4v1h1.1Zm4.3,17H34.2v2.6h2.6Zm-.3-6.9h-2v2.1h2Zm-.2-6.8H34.7v1.5h1.6ZM36,939H35v1.1h1Zm4.6,24h-3v3h3Zm-.2-6.9H37.8v2.5h2.6Zm-.3-6.9H38v2.1h2.1Zm-.2-6.9H38.3v1.6h1.6Zm-.3-6.8h-1v1h1Zm-.5,37.9h1.5v1.8Zm5.1-14H41.1v3h3.1Zm-.3-6.9H41.4v2.6h2.5Zm-.2-6.9H41.6v2.1h2.1Zm-.3-6.8H41.9v1.5h1.5Zm-.2-6.9H42.1v1h1.1Zm-.7,45.2H44v1.4Zm2.1-.6v-2.9h3v2.9Zm3.1-20.7h-3v3.1h3Zm-.2-6.9H44.9v2.6h2.6Zm-.3-6.8h-2v2h2Zm-.2-6.9H45.4v1.6H47Zm-.3-6.9h-1v1.1h1ZM48,966v-3.3h3.3V966Zm3.3-13.7H48.2v3h3.1ZM48.2,973v-3h2.9v3Zm.2,6.9v-2.6h2.5v2.6Zm3.3-10.5v-3h3v3Zm.2,6.9v-2.5h2.6v2.5Zm.3,6.9v-2.1h2.1v2.1Zm3.1-17.4v-2.9h2.9v2.9Zm.2,6.9v-2.5H58v2.5Zm.2,6.9v-2h2.1v2Zm.2,5.9v-.6h1.7v1.2Zm3-23.2v-3h.6l2.3,2.1v.9Zm.2,6.9v-2.5h2.5v2.5Zm.2,6.9V974h2.1v2.1Zm.2,6.9v-1.7h1.7V983Zm3.1-17.4v-2.5h1.5l1.1.7v1.8Zm.3,6.9v-2.1h2v2.1Zm.1,7v-1.7h1.8v1.7Zm.2,6.9v-1.3h1.4v1.3ZM66.4,969v-2.1h2.1V969Zm.2,6.9v-1.7h1.7v1.7Zm.2,6.9v-1.3h1.3v1.3Zm3.4-10.5v-1.7h1.7v1.7Zm.2,7v-1.4h1.3v1.4Zm.1,6.9v-1h1v1Zm3.2-17.4v-.9l1.7.6v.3Zm.2,6.9v-1.3h1.4v1.3Zm.2,7v-1h1v1Zm3.4-10.5v-1.4h1.3v1.4Zm.2,6.9v-1h1v1Zm3.5-3.6v-1h1v1Zm3.6-3.5v-1h1v1Zm57.71,11-16.3,16.3c12.4-13,20-31,20-52.1a109.48,109.48,0,0,0-4.3-30.1h1.6v-2.2h-2.3a34.62,34.62,0,0,0-2.9-6.7l19.9-19.9c3.2,6.5,5.4,17,6.3,27.2h-.7v1h.8c.3,3.7.5,7.4.5,10.8C165.11,951.89,155.71,969.79,142.51,983Zm1.2-75.6H141V910h2.7Zm3.7-3.7h-2.7v2.7h2.7Zm-.3,7.5h-2.2v2.3h2.2Zm-.2,7.5h-1.8v1.9h1.8Zm-.2,7.6h-1.3v1.4h1.3ZM151,900h-2.6v2.7H151Zm-.2,7.6h-2.2v2.2h2.2Zm-.2,7.5h-1.8v1.8h1.8Zm-.2,7.5H149V924h1.4Zm-.2,7.6h-1v.9h1Zm4.5-33.8H152V899h2.7Zm-.2,7.5h-2.3v2.2h2.3Zm-.2,7.5h-1.9v1.9h1.9ZM154,919h-1.4v1.3H154Zm-.2,7.5h-.9v.9h.9Zm4.5-33.8h-2.6v2.7h2.6Zm-.2,7.5h-2.2v2.3h2.2Zm-.2,7.6h-1.8v1.8h1.8Zm-.2,7.5h-1.4v1.4h1.4Zm-.2,7.5h-1v1h1Zm3.7-26.2h-1.7v2.2h2.3Zm.4,7.5h-1.8v1.8h1.8Zm-.2,7.5H160V913h1.4Zm-.3,7.6h-.9v.9h.9Z"/><path class="cls-2" d="M52.2,798.49v-3.3H49.8l-1.1,1.1v2.3H52v3.5H48.6v-3.3H46.2l-1.1,1.1v2.3h3.4v3.5H45v-3.4H42.7l-1.1,1.1v2.4h3.3v3.4H41.5v-3.3H39.1L38,807v2.3h3.3v3.3H37.9v-3.2H35.6l-1.2,1.2v2h-2V775l19.9-19.9v40h3.3v3.4ZM32.4,881.8V844.2H52.3v17.7Zm4-106.31H33.7v2.7h2.7Zm0,97.81H33.7V876h2.7ZM36.2,783H33.9v2.3h2.3Zm0,83.21H33.9v2.3h2.3Zm-.2-7.1H34v2h2Zm0-68.71H34.1v2H36ZM35.8,852H34.2v1.6h1.6Zm.1-54.11H34.3v1.6h1.6Zm-.3,46.9H34.4v1.3h1.2Zm.1-39.4H34.5v1.3h1.2ZM40,869.7H37.3v2.7H40Zm.1-97.91H37.4v2.7h2.7Zm-.2,7.5H37.5v2.4h2.4Zm0,83.21H37.5v2.4h2.4Zm-.2-75.71h-2v2h2Zm0,68.61h-2v2h2Zm-.2-61.11H37.9v1.6h1.6Zm0,54H37.9v1.6h1.6Zm-.2-46.5H38.1V803h1.2Zm4.4-33.6H41v2.7h2.7Zm0,97.81H41v2.7h2.7Zm-.2-90.31H41.2V778h2.3Zm0,83.21H41.2v2.3h2.3Zm-.2-7.11h-2v2h2Zm.1-68.7h-2v2h2Zm-.3,61.61H41.5v1.59h1.6Zm.1-54.11H41.6v1.6h1.6Zm-.2,7.5H41.8v1.3H43Zm4.3,64.31H44.6v2.7h2.7Zm.1-97.91H44.7v2.7h2.7Zm-.2,7.5H44.8v2.4h2.4Zm0,83.21H44.8v2.4h2.4ZM47,779.49H45v2h2Zm0,68.61H45v2h2ZM46.8,787H45.2v1.6h1.6Zm-.2,7.5H45.4v1.2h1.2Zm-1.2,17.8v-2.9h2.9v2.9Zm5.6-51.4H48.3v2.7H51Zm0,97.81H48.3v2.7H51Zm-.2-90.31H48.5v2.3h2.3Zm0,83.21H48.5v2.3h2.3Zm-.1-75.81h-2v2h2Zm-.1,68.71H48.7v2h1.9ZM48.8,809v-3h3v3Zm1.7-25.7H48.9v1.6h1.6Zm-.2,7.5H49.1v1.3h1.2Zm2.1,14.6v-2.9h2.9v2.9Zm.2,6.9v-2.5h2.5v2.5ZM55.7,795v-3.3h3.5V795Zm.3,6.8v-2.9h2.9v2.9Zm.2,6.9v-2.4h2.5v2.4Zm3.3-10.4v-3h3v3Zm.3,6.9v-2.5h2.4v2.5ZM60,812v-1.9h2V812Zm3.1-17.3v-2.9H66v2.9Zm.2,6.9v-2.5h2.5v2.5Zm.3,6.9v-2h1.9v2ZM66.9,798v-2.4h2.5V798Zm.3,6.9V803h1.9v1.9Zm.2,6.9v-1.5h1.5v1.5Zm3.1-17.3V792h2.4v2.5Zm.2,6.8v-1.9h2v1.9Zm.3,6.9v-1.4h1.4v1.4Zm3.3-10.4v-2h1.9v2Zm.2,6.9v-1.5H76v1.5Zm.3,6.8v-.9h.9v.9Zm3-17.3v-1.9h2v1.9Zm.3,6.9v-1.5h1.5v1.5Zm.2,6.9v-1h1v1Zm3.41-10.5v-1.4H83.1v1.4Zm.19,6.9v-.9h1v.9ZM85.21,794v-1.5h1.5V794Zm.29,6.8v-.9h.91v.9Zm3.5-3.5v-1h1v1Zm3.61-3.6v-.9h.89v.9Zm50.2,50.51V812.59l19.9-20.9v32.6Z"/><path class="cls-2" d="M42.1,693v3.6H38.5v3.6H34.9v3.6H31.3v3.6H27.7v3.8H2.8l19.9-20.9h2.1v2.1h2.4v-2.1h4.5v2.3h2.9v-2.3h4.1v2.6H42v-2.6h3.7V693ZM9.2,707.9H6.8v2.5H9.2Zm3.6-3.6H10.4v2.6h2.4Zm3.8,3.4H13.7v2.9h2.9Zm-.2-7H14v2.5h2.4Zm3.8,3.4H17.3v3h2.9Zm-.2-7H17.6v2.5H20Zm4,10.4H20.7v3.4H24Zm-.2-7H20.9v2.9h2.9Zm-.2-7H21.2V696h2.4Zm4,10.4H24.3v3.4h3.3Zm-.2-7H24.5v2.9h2.9Zm3.8,3.4H27.9v3.4h3.3Zm-.2-7H28.1v2.9H31Zm.4,17.6v-3.3h3.3v3.3Zm3.4-14.2H31.5v3.4h3.3Zm.2,10.5v-3.3h3.3v3.3Zm3.4-14.1H35.1v3.4h3.3Zm.2,10.5v-3.3h3.3v3.3Zm.1,7v-3h3v3ZM42.2,700v-3.3h3.3V700Zm.1,7v-3h2.9v3Zm3.5-10.6v-3.3h3.3v3.3Zm0,7v-2.9h3v2.9Zm.2,7v-2.6h2.6v2.6Zm3.4-17.6v-2.5h3.3v2.5Zm0,7.1v-3h3v3Zm.2,6.9v-2.6h2.6v2.6ZM53,696.3v-2.9h2.9v2.9Zm.2,6.9v-2.5h2.5v2.5Zm.1,7V708h2.2v2.2Zm3.2-17.5v-2.4h3v2.4Zm.2,7v-2.6h2.6v2.6Zm.2,6.9v-2.2h2.2v2.2Zm3.4-10.5v-2.6h2.6v2.6Zm.2,7v-2.2h2.2v2.2Zm.2,6.9v-1.8h1.8V710Zm3.1-17.4v-2.3h2.6v2.3Zm.2,6.9v-2.2h2.2v2.2Zm.2,6.9v-1.8H66v1.8Zm3.4-10.5v-2.2h2.2v2.2Zm.2,7v-1.8h1.8v1.8Zm.2,6.9v-1.4h1.4v1.4Zm3.2-17.4v-2.1h2.2v2.1Zm.2,6.9v-1.8h1.8v1.8Zm.2,6.9v-1.4H73v1.4Zm3.3-10.5v-1.8h1.8v1.8Zm.2,7v-1.4h1.4v1.4Zm.2,6.9v-1h1v1Zm3.2-17.4v-1.8h1.8v1.8Zm.2,6.9v-1.4h1.4v1.4Zm.2,6.9v-1h1v1Zm3.4-10.5v-1.4h1.41v1.4Zm.2,7v-1h1v1ZM85.8,692v-1.4h1.41V692Zm.2,6.9v-1h1v1Zm3.61-3.6v-1h1v1Zm3.5-3.5v-1h1v1Zm49.7,51.2V711.2l19.9-20.9v32.8Z"/><path class="cls-2" d="M63.1,549.69v3.6H59.5v3.5H55.9v-3.5H52.4v3.5h3.5v3.6H52.4v2.9l-3.6-1.4v-1.5H45.3v.2l-.8-.3h.7v-3.4H41.8v2.4l-3.8-1.4v-1H35.5l-1.1-.4v-3.1H31.1v1.9l-3.8-1.5v-.4H26.2l-2.5-.9v-2.6H20.5v1.4l-7.6-2.9v-2h-3v.9l-7.1-2.7,17.9-17.4,7,2.6v1.8h3V531l3.1,1.1H31.2v3.1h3.1v-2.9l4,1.5v1.4h3.2V535l1.6.6H41.9v3.2h3.2v-2.4l3.9,1.4v1.1h2.8l.7.2v3.4h3.3v-2.1l3.8,1.4v.7h1.9l1.6.6v3h3.5v3.6Zm-53.8-6.8H6.4v2.9H9.3Zm3.6-3.6h-3v3h3Zm3.5-3.5H13.5v2.9h2.9Zm.1,7h-3v3.1h3Zm3.5-3.5H17v3h3Zm.1,7.1H17v3.1h3.1Zm-.1-14.2H17.1v2.9H20Zm3.6-3.6h-3v3h3Zm0,7.1h-3v3h3Zm0,7.1h-3v3.1h3Zm3.6-10.6H24.1v3h3.1Zm0,7.1H24.1v3h3.1Zm0,7H24.1v3.2h3.1Zm3.6-3.5H27.6v3.1h3.2Zm0,7.1H27.6v3.2h3.2Zm0-14.2H27.7v3.1h3.1Zm3.6,3.5H31.2v3.2h3.2Zm0,7.1H31.2v3.2h3.2Zm3.6-3.5H34.7V546H38Zm0,7H34.7v3.3H38Zm-.1-14.1H34.8v3.1h3.1Zm3.7,17.7H38.2v3.3h3.4Zm-.1-14.2H38.3v3.2h3.2Zm0,7.1H38.3v3.3h3.2Zm3.6-3.6H41.8V546h3.3Zm.1,7.1H41.8v3.4h3.4Zm3.5,3.5H45.3v3.5h3.4Zm0-14.2H45.4v3.3h3.3Zm0,7.1H45.4v3.4h3.3Zm3.6-3.5H48.9V546h3.4Zm0,7.1H48.9v3.4h3.4Zm0,7.1H48.9v3.5h3.4Zm3.6-10.7H52.5v3.4h3.4Zm-1.8,17.7h1.8v.7Zm1.8,0v-3.5h3.6v3.5Zm3.5-21.3H56v3.5h3.4Zm.1,7.1H56v3.5h3.5Zm0,10.7v-3.6h3.6v3.6Zm0,5.6v-2H63v3.3Zm3.5-19.8H59.6v3.5H63Zm.1,10.6v-3.5h3.5v3.5Zm0,7.1v-3.5h3.5v3.5Zm.6,3.7h2.8v1Zm2.9-21.5v-1.7l3.6,1.4v.3Zm0,7.1v-3.5h3.6v3.5Zm.1,7.1v-3.4h3.4v3.4Zm0,7.1V564h3.4v3.4Zm3.5-17.7v-3.6h.9l2.6,1v2.6Zm0,7.1v-3.5h3.5v3.5Zm.1,7.1v-3.4h3.4v3.4Zm2.4,7.1-2.4-.9v-2.5h3.3V571Zm1.1-17.8v-3.5h3.5v3.5Zm0,7.1v-3.4h3.4v3.4Zm.1,7.1v-3.3h3.3v3.3Zm0,4v-.2h3.3v1.4Zm3.5-21.8v-1.1l3.1,1.1Zm0,7.1v-3.4h3.4v3.4Zm0,7.1v-3.3h3.4v3.3Zm.1,7.1v-3.3h3.2v3.3Zm3.5-17.7v-3.4l3.4,1.3v2.1Zm0,7.1v-3.4h3.3v3.4Zm0,7.1v-3.3h3.3v3.3Zm.9,7-.8-.3v-2.8h3.2v3.1Zm2.7-17.7v-3.3h3.31v3.3Zm0,7.1v-3.3h3.31v3.3Zm0,7.1v-3.2h3.2v3.2Zm.11,4.6v-.7H87.8v1.9Zm3.4-22.4v-.6l1.69.6Zm0,7.1V557h3.3v3.2Zm.1,7.1v-3.2h3.2v3.2Zm0,7.1v-3.1h3.2v3.1Zm3.5-17.7v-2.8l3.3,1.2v1.6Zm.1,7.1v-3.2h3.1v3.2Zm0,7.1v-3.2h3.1v3.2Zm0,7v-3h3.1v3Zm3.5-17.7V557h3.2v3.2Zm0,7.1v-3.1h3.2v3.1Zm.1,7.1v-3.1h3v3.1Zm0,5.1v-1h3v2.2Zm3.5-15.8v-3.1H102v3.1Zm0,7.1v-3H102v3Zm.1,7.1v-3h3v3Zm3.5-17.7v-2.3l3.1,1.2v1.1Zm0,7.1v-3.1h3.1v3.1Zm0,7.1v-3.1h3v3.1Zm.1,7.1v-3h2.9v3Zm3.5-17.8v-3.1h3v3.1Zm0,7.1v-3h3v3Zm0,7.1v-3h3v3Zm.1,5.7v-1.5H109v2.6Zm3.5-16.4v-3h3v3Zm0,7.1v-2.9h2.9v2.9Zm0,7.1v-2.9h2.9v2.9Zm2.1,4.3h.8V586Zm1.4-22v-1.8l3,1.2v.6Zm.1,7.1v-3h2.9v3Zm0,7V575h2.9v2.8Zm0,7.1v-2.8h2.8v2.8Zm3.5-17.7v-3h2.6l.4.2v2.8Zm.1,7.1v-2.9h2.8v2.9Zm0,7.1v-2.8h2.8v2.8Zm2.2,7.11-2.2-.91v-1.9h2.8v2.81Zm1.3-17.81v-2.8h2.9v2.8Zm.1,7.1V575h2.8v2.8Zm0,7.1v-2.7h2.7v2.7Zm.9,4.4h1.8V590Zm2.6-22.1V566l2.9,1v.2Zm0,7.1v-2.9h2.8v2.9Zm.1,7v-2.7h2.7v2.7Zm0,7.1v-2.6h2.7v2.6Zm3.5-17.7v-2.8h1.5l1.3.5v2.3Zm0,7.1V575h2.8v2.8Zm0,7.1v-2.7h2.7v2.7Zm.8,7.11-.7-.3v-2.31h2.6V592Zm2.8-17.81v-2.7h2.7v2.7Zm0,7.1v-2.7h2.7v2.7Zm.1,7.1v-2.6h2.6v2.6Zm0,4.71V593h2.5v1Zm3.4-22.41V570l1.8.7Zm.1,7.1v-2.7h2.7v2.7Zm0,7v-2.6h2.6v2.6Zm0,7.11v-2.51h2.6v2.51Zm3.5-17.71v-2.7h.4l2.3.9v1.8Zm.1,7.1v-2.6H141v2.6Zm0,7.1v-2.6H141v2.6Zm0,7.11V593h2.5v2.5Zm4.4,37.9v-36l-1.8-.7h2.6l2-1.7v-2H148l1.3-1.1h-.1v-2.4h2.4v.39l1.9-1.6h-.8v-2.4h2.4v1l2.6-2.2h-1.4v-2.4h2.4v1.6l3.2-2.7h-2v-1.8l2.4.9v.5l.4-.3v33Zm-.9-55.71v-2.6h2.6v2.6Zm.1,7.1v-2.5h2.5v2.5Zm0,7.11v-2.51h2.5v2.51Zm3.5-10.71v-2.5h2.6v2.5Zm.1,7.2v-2.5h2.5v2.5Zm3.5-10.7v-2.3l2.5,1v1.3Zm0,7.1v-2.5h2.5v2.5Zm3.6-3.6v-2.5h2.5v2.5Z"/><path class="cls-2" d="M42.1,467.6v3.6H38.5v3.6H34.9v3.6H31.3V482H27.7v3.8H2.8l19.9-20.9h2.1V467h2.4v-2.1h4.5v2.3h2.9v-2.3h4.1v2.6H42v-2.6h3.7v2.7ZM9.2,482.5H6.8V485H9.2Zm3.6-3.6H10.4v2.6h2.4Zm3.8,3.4H13.7v2.9h2.9Zm-.2-7H14v2.5h2.4Zm3.8,3.4H17.3v3h2.9Zm-.2-7H17.6v2.5H20Zm4,10.4H20.7v3.4H24Zm-.2-7H20.9V478h2.9Zm-.2-7H21.2v2.5h2.4Zm4,10.4H24.3v3.4h3.3Zm-.2-7H24.5v2.9h2.9Zm3.8,3.4H27.9v3.4h3.3Zm-.2-7H28.1v2.9H31Zm.4,17.6v-3.3h3.3v3.3Zm3.4-14.2H31.5v3.4h3.3Zm.2,10.5v-3.3h3.3v3.3Zm3.4-14.1H35.1v3.4h3.3Zm.2,10.5v-3.3h3.3v3.3Zm.1,7v-3h3v3Zm3.5-10.6v-3.3h3.3v3.3Zm.1,7v-3h2.9v3ZM45.8,471v-3.3h3.3V471Zm0,7v-2.9h3V478Zm.2,7v-2.6h2.6V485Zm3.4-17.6v-2.5h3.3v2.5Zm0,7.1v-3h3v3Zm.2,6.9v-2.6h2.6v2.6ZM53,470.9V468h2.9v2.9Zm.2,6.9v-2.5h2.5v2.5Zm.1,7v-2.2h2.2v2.2Zm3.2-17.5v-2.4h3v2.4Zm.2,7v-2.6h2.6v2.6Zm.2,6.9V479h2.2v2.2Zm3.4-10.5v-2.6h2.6v2.6Zm.2,7v-2.2h2.2v2.2Zm.2,6.9v-1.8h1.8v1.8Zm3.1-17.4v-2.3h2.6v2.3Zm.2,6.9v-2.2h2.2v2.2Zm.2,6.9v-1.8H66V481Zm3.4-10.5v-2.2h2.2v2.2Zm.2,7v-1.8h1.8v1.8Zm.2,6.9V483h1.4v1.4ZM71.2,467v-2.1h2.2V467Zm.2,6.9v-1.8h1.8v1.8Zm.2,6.9v-1.4H73v1.4Zm3.3-10.5v-1.8h1.8v1.8Zm.2,7v-1.4h1.4v1.4Zm.2,6.9v-1h1v1Zm3.2-17.4V465h1.8v1.8Zm.2,6.9v-1.4h1.4v1.4Zm.2,6.9v-1h1v1Zm3.4-10.5v-1.4h1.41v1.4Zm.2,7v-1h1v1Zm3.3-10.5v-1.4h1.41v1.4Zm.2,6.9v-1h1v1Zm3.61-3.6v-1h1v1Zm3.5-3.5v-1h1v1Zm49.7,51.2V485.8l19.9-20.9v32.8Z"/><path class="cls-2" d="M52.2,370.5v-3.3H49.8l-1.1,1.1v2.3H52v3.5H48.6v-3.3H46.2l-1.1,1.1v2.3h3.4v3.5H45v-3.4H42.7l-1.1,1.1v2.4h3.3v3.4H41.5v-3.3H39.1L38,379v2.3h3.3v3.3H37.9v-3.2H35.6l-1.2,1.2v2h-2V347l19.9-19.9v40h3.3v3.4ZM32.4,453.8V416.2H52.3v17.7Zm4-106.3H33.7v2.7h2.7Zm0,97.8H33.7V448h2.7ZM36.2,355H33.9v2.3h2.3Zm0,83.2H33.9v2.3h2.3Zm-.2-7.1H34v2h2Zm0-68.7H34.1v2H36ZM35.8,424H34.2v1.6h1.6Zm.1-54.1H34.3v1.6h1.6Zm-.3,46.9H34.4v1.3h1.2Zm.1-39.4H34.5v1.3h1.2ZM40,441.7H37.3v2.7H40Zm.1-97.9H37.4v2.7h2.7Zm-.2,7.5H37.5v2.4h2.4Zm0,83.2H37.5v2.4h2.4Zm-.2-75.7h-2v2h2Zm0,68.6h-2v2h2Zm-.2-61.1H37.9v1.6h1.6Zm0,54H37.9v1.6h1.6Zm-.2-46.5H38.1V375h1.2Zm4.4-33.6H41v2.7h2.7Zm0,97.8H41v2.7h2.7Zm-.2-90.3H41.2V350h2.3Zm0,83.2H41.2v2.3h2.3Zm-.2-7.1h-2v2h2Zm.1-68.7h-2v2h2Zm-.3,61.6H41.5v1.6h1.6Zm.1-54.1H41.6v1.6h1.6Zm-.2,7.5H41.8v1.3H43Zm4.3,64.3H44.6v2.7h2.7Zm.1-97.9H44.7v2.7h2.7Zm-.2,7.5H44.8v2.4h2.4Zm0,83.2H44.8v2.4h2.4ZM47,351.5H45v2h2Zm0,68.6H45v2h2ZM46.8,359H45.2v1.6h1.6Zm-.2,7.5H45.4v1.2h1.2Zm-1.2,17.8v-2.9h2.9v2.9ZM51,332.9H48.3v2.7H51Zm0,97.8H48.3v2.7H51Zm-.2-90.3H48.5v2.3h2.3Zm0,83.2H48.5v2.3h2.3Zm-.1-75.8h-2v2h2Zm-.1,68.7H48.7v2h1.9ZM48.8,381v-3h3v3Zm1.7-25.7H48.9v1.6h1.6Zm-.2,7.5H49.1v1.3h1.2Zm2.1,14.6v-2.9h2.9v2.9Zm.2,6.9v-2.5h2.5v2.5ZM55.7,367v-3.3h3.5V367Zm.3,6.8v-2.9h2.9v2.9Zm.2,6.9v-2.4h2.5v2.4Zm3.3-10.4v-3h3v3Zm.3,6.9v-2.5h2.4v2.5ZM60,384v-1.9h2V384Zm3.1-17.3v-2.9H66v2.9Zm.2,6.9v-2.5h2.5v2.5Zm.3,6.9v-2h1.9v2ZM66.9,370v-2.4h2.5V370Zm.3,6.9V375h1.9v1.9Zm.2,6.9v-1.5h1.5v1.5Zm3.1-17.3V364h2.4v2.5Zm.2,6.8v-1.9h2v1.9Zm.3,6.9v-1.4h1.4v1.4Zm3.3-10.4v-2h1.9v2Zm.2,6.9v-1.5H76v1.5Zm.3,6.8v-.9h.9v.9Zm3-17.3v-1.9h2v1.9Zm.3,6.9v-1.5h1.5v1.5Zm.2,6.9v-1h1v1Zm3.41-10.5v-1.4H83.1v1.4Zm.19,6.9v-.9h1v.9ZM85.21,366v-1.5h1.5V366Zm.29,6.8v-.9h.91v.9Zm3.5-3.5v-1h1v1Zm3.61-3.6v-.9h.89v.9Zm50.2,50.5V384.6l19.9-20.9v32.6Z"/><path class="cls-2" d="M42.1,265v3.6H38.5v3.6H34.9v3.6H31.3v3.6H27.7v3.8H2.8l19.9-20.9h2.1v2.1h2.4v-2.1h4.5v2.3h2.9v-2.3h4.1v2.6H42v-2.6h3.7V265ZM9.2,279.9H6.8v2.5H9.2Zm3.6-3.6H10.4v2.6h2.4Zm3.8,3.4H13.7v2.9h2.9Zm-.2-7H14v2.5h2.4Zm3.8,3.4H17.3v3h2.9Zm-.2-7H17.6v2.5H20Zm4,10.4H20.7v3.4H24Zm-.2-7H20.9v2.9h2.9Zm-.2-7H21.2V268h2.4Zm4,10.4H24.3v3.4h3.3Zm-.2-7H24.5v2.9h2.9Zm3.8,3.4H27.9v3.4h3.3Zm-.2-7H28.1v2.9H31Zm.4,17.6v-3.3h3.3v3.3Zm3.4-14.2H31.5v3.4h3.3Zm.2,10.5v-3.3h3.3v3.3Zm3.4-14.1H35.1v3.4h3.3Zm.2,10.5v-3.3h3.3v3.3Zm.1,7v-3h3v3ZM42.2,272v-3.3h3.3V272Zm.1,7v-3h2.9v3Zm3.5-10.6v-3.3h3.3v3.3Zm0,7v-2.9h3v2.9Zm.2,7v-2.6h2.6v2.6Zm3.4-17.6v-2.5h3.3v2.5Zm0,7.1v-3h3v3Zm.2,6.9v-2.6h2.6v2.6ZM53,268.3v-2.9h2.9v2.9Zm.2,6.9v-2.5h2.5v2.5Zm.1,7V280h2.2v2.2Zm3.2-17.5v-2.4h3v2.4Zm.2,7v-2.6h2.6v2.6Zm.2,6.9v-2.2h2.2v2.2Zm3.4-10.5v-2.6h2.6v2.6Zm.2,7v-2.2h2.2v2.2Zm.2,6.9v-1.8h1.8V282Zm3.1-17.4v-2.3h2.6v2.3Zm.2,6.9v-2.2h2.2v2.2Zm.2,6.9v-1.8H66v1.8Zm3.4-10.5v-2.2h2.2v2.2Zm.2,7v-1.8h1.8v1.8Zm.2,6.9v-1.4h1.4v1.4Zm3.2-17.4v-2.1h2.2v2.1Zm.2,6.9v-1.8h1.8v1.8Zm.2,6.9v-1.4H73v1.4Zm3.3-10.5v-1.8h1.8v1.8Zm.2,7v-1.4h1.4v1.4Zm.2,6.9v-1h1v1Zm3.2-17.4v-1.8h1.8v1.8Zm.2,6.9v-1.4h1.4v1.4Zm.2,6.9v-1h1v1Zm3.4-10.5v-1.4h1.41v1.4Zm.2,7v-1h1v1ZM85.8,264v-1.4h1.41V264Zm.2,6.9v-1h1v1Zm3.61-3.6v-1h1v1Zm3.5-3.5v-1h1v1ZM142.81,315V283.2l19.9-20.9v32.8Z"/><path class="cls-2" d="M52.2,194.1v3.5H48.7v3.6H45.1v3.6H41.6v3.5H38V211H34.2v-2.1H31.6V211h-.4V149.8l18.1-19.9v64H52v-2.8h3.8v3ZM34.3,149.9H31.6v2.7h2.7Zm0,7.3H31.6v2.7h2.7Zm0,7.3H31.6v2.7h2.7Zm-.2,7.5H31.8v2.3h2.3Zm-.2,7.4H32v2h1.9Zm-.1,7.5H32.2v1.6h1.6Zm-.2,7.5H32.4v1.3h1.2Zm-.1,7.5h-1v1h1Zm4.3,3.5H35.1l-.1,2.7h2.8Zm.2-59.2H35.3v2.7H38Zm0,7.3H35.3v2.7H38Zm0,7.3H35.3v2.7H38Zm-.2,7.5H35.4v2.4h2.4Zm-.2,7.5h-2v2h2Zm-.2,7.5H35.8v1.6h1.6Zm-.2,7.5H36V192h1.2Zm0,7.4h-1v1h1Zm4.2,3.6H38.6v2.8h2.8Zm.2-59.2H38.9v2.7h2.7Zm0,7.3H38.9v2.7h2.7Zm0,7.3H38.9v2.7h2.7Zm-.2,7.5H39.1V167h2.3Zm-.1,7.4h-2v2h2Zm-.2,7.5H39.5v1.6h1.6Zm-.2,7.5H39.7v1.3h1.2Zm-.1,7.5h-1v1h1ZM42,211v-2.3h2.5V211Zm2.9-12.8H42.2l-.1,2.8h2.8Zm.4-59.3H42.6v2.7h2.7Zm0,7.3H42.6v2.7h2.7Zm0,7.3H42.6v2.7h2.7Zm-.2,7.5H42.7v2.4h2.4Zm-.2,7.5h-2v2h2Zm-.2,7.5H43.1v1.6h1.6Zm-.2,7.5H43.3v1.2h1.2Zm0,7.4h-1v1h1Zm1,16.8v-2.5h2.6v2.5Zm3-13H45.7v2.7h2.8Zm.4-59.4H46.2V138h2.7Zm0,7.3H46.2v2.7h2.7Zm0,7.3H46.2v2.7h2.7Zm-.2,7.5H46.4v2.3h2.3Zm-.1,7.4h-2v2h2Zm-.2,7.5H46.8v1.6h1.6Zm-.2,7.5H47v1.3h1.2Zm-.1,7.5h-1v1h1Zm1,16.8v-2.5h2.5v2.5Zm.7,6.5v-1.2H51v1.2Zm2.9-10v-2.5h2.5v2.5Zm.6,6.5v-1.3h1.2v1.3Zm53.91-13v3.5h-3.5v3.6h-3.6v3.6h-3.5v3.5H93V211H89.21v-2.1H86.6V211h-.39V159.2l18.1-19.9v54.6H107v-2.8h3.8v3ZM89.3,159.2H86.6v2.7h2.7Zm0,7.3H86.6v2.7h2.7Zm-.19,7.5H86.8v2.3h2.31Zm-.2,7.4H87v2h1.91Zm-.11,7.5H87.21v1.6H88.8Zm-.19,7.5h-1.2v1.3h1.2Zm-.11,7.5h-1v1h1Zm4.31,1.5H90v2.7h2.81ZM93,155.5H90.3v2.7H93Zm0,7.3H90.3v2.7H93Zm-.19,7.5h-2.4v2.4h2.4Zm-.2,7.5h-2v2h2Zm-.2,7.5H90.8v1.6h1.61Zm-.2,7.5H91V194h1.21Zm0,7.4h-1v1h1Zm4.2,1.6h-2.8v2.8h2.8Zm.2-49.9h-2.7v2.7h2.7Zm0,7.3h-2.7v2.7h2.7Zm-.2,7.5h-2.3V169h2.3Zm-.1,7.4h-2v2h2Zm-.2,7.5h-1.6v1.6h1.6Zm-.2,7.5h-1.2v1.3h1.2Zm-.1,7.5h-1v1h1ZM97,211v-2.3h2.5V211Zm2.9-12.8h-2.8V201h2.8Zm.4-50h-2.7v2.7h2.7Zm0,7.3h-2.7v2.7h2.7Zm-.2,7.5h-2.4v2.4h2.4Zm-.2,7.5h-2v2h2Zm-.2,7.5h-1.6v1.6h1.6Zm-.2,7.5h-1.2v1.2h1.2Zm0,7.4h-1v1h1Zm1,14.8v-2.5h2.6v2.5Zm3-13h-2.8v2.7h2.8Zm.4-50.1h-2.7v2.7h2.7Zm0,7.3h-2.7v2.7h2.7Zm-.2,7.5h-2.3v2.3h2.3Zm-.1,7.4h-2v2h2Zm-.2,7.5h-1.6v1.6h1.6Zm-.2,7.5H102v1.3h1.2Zm-.1,7.5h-1v1h1Zm1,14.8v-2.5h2.5v2.5Zm.7,6.5v-1.2H106v1.2Zm2.9-10v-2.5h2.5v2.5Zm.6,6.5v-1.3h1.2v1.3Zm2.9-10.1v-2.5h2.5V197Zm.7,6.5v-1.2h1.2v1.2Zm30.9,38.71V147l19.9-19.9v95.2Zm3.9-94.91H144V150h2.7Zm0,7.2H144v2.7h2.7Zm0,7.3H144v2.7h2.7Zm0,7.2H144v2.7h2.7Zm0,7.3H144V179h2.7Zm0,7.2H144v2.7h2.7Zm-.2,7.5h-2.3v2.3h2.3Zm-.1,7.4h-2v2h2Zm-.2,7.5h-1.6v1.6h1.6Zm-.2,7.5h-1.2v1.3H146Zm0,7.4h-1v1h1Zm4.4-77.2h-2.7v2.7h2.7Zm0,7.2h-2.7v2.7h2.7Zm0,7.3h-2.7v2.7h2.7Zm0,7.2h-2.7V168h2.7Zm0,7.3h-2.7v2.7h2.7Zm0,7.2h-2.7v2.7h2.7Zm-.2,7.5h-2.4v2.4h2.4Zm-.2,7.5h-2v2h2Zm-.2,7.5h-1.6v1.6h1.6Zm-.2,7.5h-1.2V211h1.2Zm0,7.4h-1v1h1ZM154,140h-2.7v2.7H154Zm0,7.2h-2.7v2.7H154Zm0,7.3h-2.7v2.7H154Zm0,7.2h-2.7v2.7H154Zm0,7.3h-2.7v2.7H154Zm0,7.2h-2.7v2.7H154Zm-.2,7.5h-2.3V186h2.3Zm-.1,7.4h-2v2h2Zm-.2,7.5h-1.6v1.6h1.6Zm-.2,7.5h-1.2v1.3h1.2Zm-.1,7.5h-1v1h1Zm4.5-77.3H155V139h2.7Zm0,7.2H155v2.7h2.7Zm0,7.3H155v2.7h2.7Zm0,7.2H155v2.7h2.7Zm0,7.3H155V168h2.7Zm0,7.2H155v2.7h2.7Zm-.2,7.5h-2.4v2.4h2.4Zm-.2,7.5h-2v2h2Zm-.2,7.5h-1.6v1.6h1.6Zm-.2,7.5h-1.2v1.2h1.2Zm0,7.4h-1v1h1Zm4.4-77.2h-2.7v2.7h2.7Zm0,7.2h-2.7v2.7h2.7Zm0,7.3h-2.7v2.7h2.7Zm0,7.2h-2.7v2.7h2.7Zm0,7.3h-2.7v2.7h2.7Zm0,7.2h-2.7v2.7h2.7Zm-.2,7.5h-2.3v2.3h2.3Zm-.1,7.4h-2v2h2Zm-.2,7.5h-1.6v1.6h1.6Zm-.2,7.5h-1.2v1.3h1.2Zm-.1,7.5h-1v1h1Z"/><path class="cls-2" d="M37.6,81v2.91H36.3l-1.6-2V81.3h-.4a24.14,24.14,0,0,1-2.2-4.9h1.6V74.3H31.6v.6A49.2,49.2,0,0,1,30,62.1c0-11.8,4.6-25.5,10.7-35.4L60.6,6.8C54,16.5,48.9,30.9,48.9,41.6a41.09,41.09,0,0,0,2.3,15H49.4v2h2.1V57.4c.4.9.8,1.8,1.3,2.7v3h2.1l.5.6V66H52.5V63.5H49.3v3.2h2.5v2.9H48.9V67H45.7v3.3h2.6v2.9H45.4V70.6H42.1v3.2h2.6v2.91H41.8V74.1H38.6v3.3h2.6v2.9H38.3V77.71H35V81Zm-4-11.8V67.3H31.7v1.9Zm-.2-7.3v-1h-.9v1Zm3.9,11V70.7H35.1v2.2Zm-.2-7.3V63.7H35.3v1.9ZM37,58.3v-.9H36v.9Zm3.8,11V67.2H38.7v2.1ZM40.7,62V60.2H38.8V62Zm-.3,23.3v1.2L39.2,86v-.7Zm.2-30.5v-1h-1v1Zm3.8,10.9V63.6H42.3v2.1Zm-.1-7.2V56.6H42.4v1.9ZM43.9,83H42.7V81.8h1.2Zm.2-31.8v-1h-.9v1Zm3.9,11V60H45.8v2.2Zm-.2-7.3V53H46v1.9Zm-.4,24.5H46.3V78.3h1.1Zm.3-31.8v-.9h-1v.9ZM51,75.9H49.8V74.7H51Zm3.5-3.6H53.4V71.1h1.1Zm13.7,38.11.8-.7A5,5,0,0,1,68.2,110.41Zm.8-.7a42.51,42.51,0,0,0,8.5-11v.2h1.4v-1.4h-.7c5.4-10.1,8.1-20.91,11.1-30.31H90V65.1c.5-1.3.91-2.5,1.41-3.6v2.2h2.2V61.5h-2.2a26.77,26.77,0,0,1,4.7-8.4h1.2V52a7.65,7.65,0,0,1,5.1-1.9,8.26,8.26,0,0,1,6.2,2.8l-.5,1.3h-2.6v2.5h1.7l-3,8.3H102v2.3h1.4c-.9,2.8-2.1,5.8-3.2,8.5h-1.6v2.1h.7a48.08,48.08,0,0,1-8,12.11C84.4,97.11,75.4,104,69,109.71Zm12-15.8v1.5h1.6v-1.5Zm5.21-9.11V83.11H84.5V84.8Zm0,7.11v-1.6H84.5v1.6Zm3.7-17.71V72.3h-2v1.9Zm-.11,7.1V79.5H88v1.8Zm0,7.11v-1.8H88.11v1.8ZM93.5,70.7V68.6h-2v2.1Zm0,7.1v-2h-2v2Zm-.09,7.11V83h-1.8v1.91Zm3.8-24.71V57.8h-2.3v2.4Zm-.1,7V65H95v2.2Zm0,7.1V72.2H95v2.1ZM97,81.41v-2h-1.9v2Zm3.8-24.81V54.2h-2.4v2.4Zm0,7.1V61.4h-2.3v2.3Zm-.1,7.1V68.6h-2.2v2.2Zm3.7-17.7V50.6h-2.5v2.5Zm0,7.1V57.8H102v2.4Zm-.9-45.8h.9v.9h-.9Zm3.6-3.6h.9v.9h-.9Zm3.4,4.7V14.3h1.2v1.2Zm.2-8.2h.9v.9h-.9Zm3.2,10.4h1.5v1.5h-1.5Zm.2-5.8V10.7h1.2v1.2Zm1-8.2v.9h-.9V3.7Zm2.4,11.9V14.1H119v1.5Zm.1-7.3V7.1h1.2V8.3Zm0,12.7h1.5v.7ZM118.71.2v.9h-.9V.2Zm2.2,19.1V17.5h1.8v1.8Zm.1-7.2V10.5h1.6v1.6Zm1.4-8.5V4.8h-1.2V3.6Zm1.9,19.5V20.9h2.1v2.2Zm.1-7.3V13.9h1.9v1.9Zm.2-7.3V7h1.5V8.5Zm.2-8.5H126V1.2h-1.2Zm2.8,24.3h2.6v2.5h-2.6Zm.2-4.8V17.3H130v2.2Zm.2-7.3V10.4h1.8v1.8Zm1.7-8.8V4.9h-1.5V3.4Zm1.5,19.9V20.7h2.6v2.6Zm3,7.3h-2.9V27.7h2.9Zm-2.8-14.7V13.8h2.2v2.1Zm.2-7.2V6.8h1.8V8.7Zm.1-7.3V1l1.4.4Zm6,32.9h-3.3V31h3.3Zm-3.1-7.3V24.1h2.9V27Zm.2-7.3V17.1h2.5v2.6Zm.2-7.3V10.2h2.1v2.2Zm.1-7.3V3.2H137V5.1ZM152,23.7V20.1h3.6V18.3l1.2,2h-1.1v3.2h2.9l.9,1.8v1.5h.7c.6,1.5,1.2,3,1.7,4.6h-2.2v2.3H162V31.8a68.57,68.57,0,0,1,2.4,10.7h-.7V44h.9a76.63,76.63,0,0,1,.5,8.6c0,21.4-5.2,34.61-10.1,44.41l-19.9,19.9c4.9-10.2,10.1-24,10.1-46.41a72.12,72.12,0,0,0-2.5-19h1.5V49.2H142a67.56,67.56,0,0,0-3.3-7.8h2.4V38.1h-3.2v1.8l-1.2-2h1.1V34.4h3.5V30.8h3.6V27.2h3.5V23.7Zm-10.7,3.8v3.3H138V27.5Zm-3.2-4v-3h3v3Zm.2-7.4V13.6h2.6v2.5Zm.2-7.3V6.6h2.2V8.8Zm3,18.4V23.9h3.3v3.3Zm0,7.3v3.2h3.2V34.5Zm.2-14.6v-3h3v3Zm0,22v2.7h2.7V41.9Zm.2-29.3V10h2.6v2.6Zm6.5,7.7v3.4h-3.3V20.3ZM145.11,31v3.2h3.1V31Zm.2-14.7V13.4h2.9v2.9Zm0,22v2.8H148V38.3Zm.2-29.3V7.7l1.7,1.3Zm0,36.7V48h2.3V45.7Zm.2,7.3v1.9h1.9V53Zm.2,7.4v1.4h1.4V60.4Zm.3,7.3v1h.9v-1Zm2.4-47.6V16.8H152v3.3Zm0,7.3v3.2h3.2V27.4Zm.2-14.6V10.5l2.4,2.3Zm0,22v2.7h2.8V34.8Zm.2,7.3v2.3h2.4V42.1Zm.3,7.4v1.8h1.8V49.5Zm.2,7.3v1.4h1.4V56.8Zm.2,7.4v.9h1v-.9Zm2.5-47.7V13.9l2.1,2.6Zm0,7.4V27h3.2V23.9Zm.2,7.3v2.7h2.7V31.2Zm.2,7.3v2.4h2.3V38.5Zm.2,7.4v1.9h1.9V45.9Zm.2,7.3v1.4h1.5V53.2Zm.3,7.4v.9h.9v-.9Zm2.7-33v2.8h2.7V27.6Zm.2,7.4v2.3h2.3V35Zm.2,7.3v1.9h1.9V42.3Zm.2,7.4v1.4H158V49.7Zm.3,7.3v1h.9V57ZM160,38.8v1.8h1.8V38.8Zm.2,7.3v1.4h1.4V46.1Zm.2,7.4v.9h.9v-.9Zm3.6-3.6v.9h.9v-.9Z"/></g></g></svg>