<svg xmlns="http://www.w3.org/2000/svg" viewBox="0 0 165.11 808.3"><defs><style>.cls-1{fill:#ef5255;}.cls-2{fill:#79cfe8;}</style></defs><title>create</title><g id="Layer_2" data-name="Layer 2"><g id="Layer_1-2" data-name="Layer 1"><path class="cls-1" d="M73.4,808.3c-39.8,0-73.4-30.2-73.4-74,0-13.4,3.1-29.8,8.9-39.2H41.1c-6.9,8-11.1,21.6-11.1,35.4,0,29.21,18.6,44.61,42,44.61,24.11,0,43.61-16.21,43.61-45.81,0-12.1-3.4-24.8-8.9-34.2h31.6c5.1,9.1,7.9,26,7.9,39C146.21,778.3,113,808.3,73.4,808.3Z"/><path class="cls-1" d="M2.8,659.7V604.9c0-30.41,20-52.21,46.6-52.21,16.8,0,32.2,10.3,41.21,25.1l52.2-32.5V582.7l-45.2,27.1v18.7h45.2v31.2Zm68.6-54.4c0-12.6-9.2-21-20-21s-20,8.41-20,21v23.2h40Z"/><path class="cls-1" d="M2.8,514.8V422.4H31.2v61.2H57V431.8H86.21v51.8H114v-64h28.8v95.2Z"/><path class="cls-1" d="M2.8,345.3V306.9l140-52V289.1l-28,9.7v55l28,9.7v33.8Zm84.61-38.5L34.9,326.2l52.51,19.5Z"/><path class="cls-1" d="M32.4,216.3v37.61H2.8V147.1H32.4v37.6H142.81v31.6Z"/><path class="cls-1" d="M2.8,115.11V22.7H31.2V83.91H57V32.1H86.21V83.91H114v-64h28.8v95.21Z"/><path class="cls-2" d="M142.51,769.9l-16.3,16.3c12.4-13,20-31,20-52.11a109.48,109.48,0,0,0-4.3-30.1h1.6v-2.2h-2.3a34.62,34.62,0,0,0-2.9-6.7l19.9-19.9c3.2,6.5,5.4,17,6.3,27.2h-.7v1h.8c.3,3.7.5,7.4.5,10.8C165.11,738.79,155.71,756.7,142.51,769.9ZM63.2,773.3V772h1.4v1.3Zm7.3-.2v-1h1v1Zm-14.6-.7v-.6h1.7V773Zm-3.7-2.3V768h2.1v2.1Zm7.3-.2v-1.7h1.7v1.7Zm7.3-.2v-1.3h1.3v1.3Zm7.3-.1v-1h1v1Zm-25.7-2.81V764.2h2.5v2.59Zm7.3-.29v-2h2.1v2Zm7.3-.1v-1.7h1.8v1.7Zm7.4-.2v-1.41h1.3v1.41Zm7.3-.2v-1h1v1Zm-35.2-2H44v1.4Zm2.1-.6v-2.9h3v2.9Zm7.3-.2v-2.5h2.6v2.5Zm7.4-.2v-2.11h2.1V763Zm7.3-.21V761.1h1.7v1.69Zm7.3-.19v-1.31h1.4v1.31Zm7.3-.21v-1h1v1Zm-42.1-2.1h1.5v1.81Zm7.8-47.7a54.46,54.46,0,0,0,3.4,19.7H48.5v2.5H51v-.9l.8,1.7v3h1.6l1.7,2.5v1.3h1a20.94,20.94,0,0,0,2.4,2.8v.6H55.1v-3.3H51.6V746h3.3v3.4H51.5V746H48v3.6H44.4v3.5h3.4v3.41H44.4v-3.3H40.9v3.5h3.3v3.4H40.8v-3.4H37.3v1l-.8-1.2H37v-3.11H34.8a48.46,48.46,0,0,1-3-8.1H33v-2.1H31.3a62.73,62.73,0,0,1-1.3-12.7c0-13.8,4.2-27.4,11.1-35.4L61,675.19C53.2,683.69,46.9,698.79,46.9,712.59Zm1.3,47.3v-3h2.9v3Zm7.3-.29v-2.51H58v2.51Zm7.4-.21v-2.1h2v2.1Zm7.3-.19v-1.7h1.7v1.7Zm7.3-.1v-1.4h1.3v1.4Zm7.31-.21v-1h1v1Zm-33.11-2.6v-3h3v3Zm7.4-.2v-2.5h2.5v2.5Zm7.3-.2v-2.1h2.1v2.1Zm7.3-.19v-.91l1.7.6v.31Zm-33.1-5.81h-3v3h3Zm7.4,3v-3.3h3.3v3.3Zm7.3-.19v-2.91h2.9v2.91Zm7.3-.21V750h1.5l1.1.7v1.8Zm-18.4-6.2H41.1v3h3.1Zm14.7,2.9v-3h.6l2.3,2.1v.9Zm-22.1-2.7H34.2v2.6h2.6Zm10.9-3.8h-3v3.1h3Zm-7.3.3H37.8v2.5h2.6Zm10.9-3.8H48.2v3h3.1Zm-7.4.2H41.4V742h2.5Zm-7.4.2h-2v2.1h2Zm11-3.8H44.9v2.6h2.6Zm-7.4.3H38v2.1h2.1Zm-7.4.2H31.2v1.6h1.5Zm11-3.8H41.6v2.1h2.1Zm-7.4.3H34.7v1.5h1.6ZM47.2,729h-2v2h2Zm-7.3.2H38.3v1.6h1.6Zm-7.4.3H31.4v1h1.1Zm10.9-3.8H41.9v1.5h1.5Zm-7.4.2H35V727h1Zm11-3.8H45.4v1.6H47Zm-7.4.3h-1v1h1Zm3.6-3.6H42.1v1h1.1Zm107-1.7h-1v.9h1ZM46.7,715.19h-1v1.1h1Zm100-2h-1.3v1.4h1.3Zm7.1.2h-.9v.9h.9Zm-3.4-3.9H149v1.4h1.4Zm7.1.2h-1v1h1Zm-10.6-4.1h-1.8v1.9h1.8Zm7.1.3h-1.4v1.3H154Zm7.1.2h-.9v.9h.9Zm-10.5-4.1h-1.8v1.8h1.8Zm7.1.2h-1.4v1.4h1.4Zm-10.6-4.1h-2.2v2.3h2.2Zm7.2.2h-1.9v1.9h1.9Zm7.1.2H160v1.4h1.4Zm-17.7-4.2H141v2.6h2.7Zm7.1.2h-2.2v2.2h2.2Zm7.1.2h-1.8v1.8h1.8Zm-10.5-4.1h-2.7v2.7h2.7Zm7.1.2h-2.3V693h2.3Zm7.1.2h-1.8v1.8h1.8Zm-10.6-4.1h-2.6v2.7H151Zm7.1.2h-2.2v2.3h2.2Zm-3.4-3.8H152v2.6h2.7Zm6.5.2h-1.7v2.2h2.3Zm-2.9-3.9h-2.6v2.7h2.6Z"/><path class="cls-2" d="M142.81,659.7V628.5l19.9-20.9v30.7ZM52.3,612.5v3.6H48.7v3.6H45.1v3.5H41.6v3.6H38v1.7H34.3v-1.1H31.4V605.3c0-11.8,8-19.91,17.9-20.91V612.3h2.8v-2.7h3.7v2.9ZM42,628.5v-1.3h2.5v1.3Zm7.8,0v-.6H51v.6Zm71-18v3.6h-3.6v3.6h-3.5v3.5h-3.6v3.7h-3.5v3.4h-3.7v-3h-3.3v3.2h-2V609.8l16.9-10.2v8h3.3v2.7h2.8v-2.7h3.7v2.9Zm-10.3,17.2v-2.5H113v2.5Zm7.8-.6v-1.2h1.2v1.2ZM37.8,623.8H35v2.8h2.8Zm7.8,2.4v-2.6h2.5v2.6Zm7.7-.7v-1.2h1.3v1.2Zm53-3.7h-2.8v2.9h2.8Zm7.8,2.4v-2.5h2.5v2.5Zm7.8-.7v-1.2h1.2v1.2ZM41.4,620.2H38.6V623h2.8Zm-7.6.4h-2v2h2Zm15.3,2v-2.5h2.6v2.5Zm7.8-.7v-1.2h1.2v1.2Zm53-3.6h-2.8V621h2.8Zm7.7,2.3v-2.5h2.6v2.5Zm7.8-.6v-1.3h1.2V620ZM44.9,616.7H42.2v2.8h2.7Zm-7.1.3h-2v2h2Zm14.9,2v-2.5h2.5V619Zm7.8-.6v-1.2h1.2v1.2Zm53-3.7h-2.8v2.8h2.8Zm7.7,2.4v-2.6h2.5v2.6Zm7.8-.7v-1.2h1.2v1.2ZM48.5,613.1H45.7v2.8h2.8Zm7.8,2.4v-2.6h2.5v2.6Zm-22.5-2.3h-2v2h2Zm7.5,0h-2v2h2ZM64,614.8v-1.2h1.3v1.2Zm53-3.7h-2.7v2.8H117Zm7.8,2.4V611h2.5v2.5Zm7.7-.7v-1.2h1.3v1.2Zm-72.71-.9v-2.3h2.5v2.3Zm-22-2.3h-2v2h2Zm7.4-.2h-2v2h2Zm22.4,1.9V610h1.2v1.3Zm60.71-1.4v-2.3h2.6v2.3Zm7.8-.6v-1.2h1.2v1.2ZM41.3,605.8h-2v2h2Zm7.5,0h-2v2h2Zm-15.3.3H32.1v1.4h1.4ZM45.2,602h-2v2h2Zm-7.7.5H36.1v1.4h1.4Zm11.3-4.1h-2v2h2Zm-7.8.4H39.7v1.3H41Zm3.9-3.9H43.5v1.39h1.4Zm-7.7.3h-1v1h1Zm11.3-3.8H47.2v1.3h1.3Zm-7.7,0h-1v1h1Zm3.9-3.8h-1v1h1Zm98.11-4.9V545.29l19.9-30.9v36.4Zm-36.3-29.31v4.1H103v3.6h-3.3v3.7h-2.9v3.8h-3v3.9h-3.5v3.6h3l-2.7,1.7a58,58,0,0,0-8-10.3h2.61v-2.8H82.4v2.6c-1.1-1.1-2.2-2.1-3.3-3.1h2.8v-3.4H78.6v-3.5h3.5v3.3h3.31v-3.3h-3.2v-3.5h3.5v3.3H89v-3.4h-3.3v-3.5h3.5v3.3h3.4v-3.4h-3.3v-3.4h3.5v3.2h3.3v-3.3h-3.2v-3.5h2.9l.6.5v2.8h2.8l1,1.1v2.2H102c.7.9,1.3,1.7,1.9,2.6v1.2h2.4v-1.9l2.5-1.6h.2v3.4Zm-12.6,22.3v-2.8h3.3v.8Zm5.7-3.5H97v-3h3v2.7Zm-11.1-3.4h-2.2V571h2.2Zm11.7-.6v-2.7h2.7v2.7Zm6.8-.6v-1.3h2Zm-14.9-2.4h-2.2v2.1h2.2Zm11.5-.8V562H106v2.4Zm6.4-.2v-1.6h1.6v1.6Zm-21.3-3.1h-2.8v2.8h2.8Zm-13.91-.2h3.7v2.8C77.5,562.89,75.6,561.49,74.8,560.89Zm20.81.6h-2.1v2.2h2.1Zm11.1-.8v-2.2h2.2v2.2Zm-32.41-.1L71.8,559v-1.4h2.9v3Zm18-3h-2.8v2.7h2.8Zm6.8.2h-2.3v2.4h2.3Zm13.7,2.1v-1.1h1.1v1.1ZM75.3,557v-2.9h2.9V557Zm20.61-3h-2.8v2.8h2.8Zm-27.41,2.7v-2.3h2.3v2.3Zm34.21-2.6h-2.4v2.5h2.4Zm7,2.3v-1.9h1.9v1.9Zm-47.81-1.8h1.5v.5Zm17-1.2v-2.9h2.9v2.9Zm20.51-3h-2.8v2.8h2.8ZM72,553.09v-2.3h2.4v2.3Zm-6.8-.2v-1.8H67v1.8Zm-6.9-.3v-1.3h1.3v1.3Zm54.21-.1v-1.6h1.6v1.6Zm-61-.1v-.8h.8v.8Zm31-2.5v-3h2.91v3Zm-6.9-.3v-2.4H78v2.4Zm34-.2,2.1-1.4v1.5Zm-40.81-.1v-1.8h1.8v1.8Zm-6.9-.3v-1.2h1.3V549Zm-6.9-.2v-.9h.9v.9Zm60.31-.6v-1.1h1.1v1.1ZM86,546.29v-2.9h2.9v2.9ZM79.2,546v-2.3h2.3V546Zm-6.9-.3v-1.8h1.8v1.8Zm-6.8-.2v-1.3h1.2v1.3Zm-7-.2v-.9h.9v.9Zm31.11-2.6v-2.9h1.9l1,.7v2.2Zm-6.9-.2v-2.4H85.1v2.4Zm-6.81-.3v-1.8h1.8v1.8Zm-6.9-.3v-1.2h1.3v1.2Zm-6.9-.2v-.9H63v.9Zm24.21-2.8v-2.1l2.4,1.3v.8Zm-6.81-.3v-1.8h1.7v1.8Zm-6.9-.3v-1.2h1.2v1.2Zm-6.9-.2v-.8h.8v.8Zm10.5-3.3v-1.3l1.2.2v1.1Zm-7-.2v-.9h.9v.9Z"/><path class="cls-2" d="M142.81,514.8V419.6l19.9-19.9v95.2Zm3.2-21.4h-1v1h1Zm3.6-3.6h-1v1h1ZM146,486h-1.2v1.3H146Zm7.2.2h-1v1h1Zm-101-19.5v3.5H48.7v3.6H45.1v3.6H41.6v3.5H38v2.7H34.2v-2.1H31.6v2.1h-.4V422.4l18.1-19.9v64H52v-2.8h3.8v3ZM42,483.6v-2.3h2.5v2.3Zm65.21-16.9v3.5h-3.5v3.6h-3.6v3.6h-3.5v3.5H93v2.7h-3.8v-2.1H86.6v2.1h-.39V431.8l18.1-19.9v54.6H107v-2.8h3.8v3ZM97,483.6v-2.3h2.5v2.3Zm52.6-1.2h-1.2v1.2h1.2Zm7.3.1h-1v1h1Zm-107.11.7V482H51v1.2Zm55,0V482H106v1.2Zm-67-5.2H35.1l-.1,2.7h2.8Zm55,0H90v2.7h2.8ZM45.5,480.3v-2.5h2.6v2.5Zm55,0v-2.5h2.6v2.5Zm45.7-1.8h-1.6v1.6h1.6Zm7.1.2h-1.2V480h1.2Zm7.2.2h-1v1h1Zm-107.21.8v-1.3h1.2v1.3Zm55,0v-1.3h1.2v1.3Zm-19.8-3.2h-1v1h1ZM41.4,474.4H38.6v2.8h2.8Zm55,0h-2.8v2.8h2.8ZM49.1,476.7v-2.5h2.5v2.5Zm55,0v-2.5h2.5v2.5Zm45.7-1.8h-1.6v1.6h1.6Zm7.1.2h-1.2v1.2h1.2Zm-45,1v-1.2h1.2v1.2ZM33.5,474.5h-1v1h1Zm58.71-1.7h-1v1h1Zm-47.31-2H42.2l-.1,2.8h2.8Zm55,0h-2.8v2.8h2.8ZM52.7,473.2v-2.5h2.5v2.5Zm55,0v-2.5h2.5v2.5Zm38.7-2.2h-2v2h2Zm7.1.2h-1.6v1.6h1.6Zm7.1.2h-1.2v1.3h1.2ZM37.2,470.8h-1v1h1ZM88.61,469h-1.2v1.3h1.2Zm7.2.2h-1v1h1ZM48.5,467.3H45.7V470h2.8Zm55,0h-2.8V470h2.8Zm7.7,2.3v-2.5h2.5v2.5Zm38.8-2.2h-2v2h2Zm7.1.2h-1.6v1.6h1.6ZM33.6,467H32.4v1.3h1.2Zm7.2.2h-1v1h1Zm51.41-1.8H91v1.2h1.2Zm7.3.1h-1v1h1Zm47-1.9h-2.3v2.3h2.3Zm7.2.1h-2v2h2Zm7.1.2h-1.6v1.6h1.6ZM37.2,463.4H36v1.2h1.2Zm7.3.1h-1v1h1Zm44.31-2h-1.6v1.6h1.6Zm7.1.2h-1.2V463h1.2Zm7.2.2h-1v1h1Zm47.1-2h-2.4v2.4h2.4Zm7.1.2h-2v2h2ZM33.8,459.5H32.2v1.6h1.6Zm7.1.2H39.7V461h1.2Zm7.2.2h-1v1h1Zm44.31-2h-1.6v1.6h1.6Zm7.1.2h-1.2v1.2h1.2Zm47.2-2H144v2.7h2.7Zm7.1.2h-2.3v2.3h2.3Zm7.2.1h-2v2h2ZM37.4,455.9H35.8v1.6h1.6Zm7.1.2H43.3v1.2h1.2ZM88.91,454H87v2h1.9Zm7.2.2h-1.6v1.6h1.6Zm7.1.2H102v1.3h1.2Zm47.2-2h-2.7v2.7h2.7Zm7.1.2h-2.4V455h2.4ZM33.9,452H32v2h1.9Zm7.2.2H39.5v1.6h1.6Zm7.1.2H47v1.3h1.2Zm44.41-2h-2v2h2Zm7.1.2h-1.6v1.6h1.6Zm47-1.7H144v2.7h2.7Zm7.3-.1h-2.7v2.7H154Zm7.1.2h-2.3v2.3h2.3ZM37.6,448.4h-2v2h2Zm7.1.2H43.1v1.6h1.6Zm44.41-2h-2.3v2.3h2.3Zm7.2.1h-2v2h2Zm7.1.2h-1.6v1.6h1.6Zm47-1.7h-2.7v2.7h2.7Zm7.3-.1H155v2.7h2.7ZM34.1,444.6H31.8v2.3h2.3Zm7.2.1h-2v2h2Zm7.1.2H46.8v1.6h1.6Zm44.41-2h-2.4v2.4h2.4Zm7.1.2h-2v2h2Zm46.8-1.5H144v2.7h2.7Zm7.3,0h-2.7v2.7H154Zm7.3-.1h-2.7v2.7h2.7ZM37.8,440.9H35.4v2.4h2.4Zm7.1.2h-2v2h2Zm44.41-2H86.6v2.7h2.71Zm7.1.2h-2.3v2.3h2.3Zm7.2.1h-2v2h2Zm46.8-1.5h-2.7v2.7h2.7Zm7.3,0H155v2.7h2.7ZM34.3,437.1H31.6v2.7h2.7Zm7.1.2H39.1v2.3h2.3Zm7.2.1h-2v2h2Zm44.41-2h-2.7v2.7H93Zm7.1.2h-2.4V438h2.4Zm46.6-1.2H144v2.7h2.7Zm7.3-.1h-2.7V437H154Zm7.3,0h-2.7V437h2.7ZM38,433.4H35.3v2.7H38Zm7.1.2H42.7V436h2.4Zm44.21-1.8H86.6v2.7h2.71Zm7.3,0h-2.7v2.7h2.7Zm7.1.2h-2.3v2.3h2.3Zm46.7-1.3h-2.7v2.7h2.7Zm7.3-.1H155v2.7h2.7ZM34.3,429.8H31.6v2.7h2.7Zm7.3,0H38.9v2.7h2.7Zm7.1.2H46.4v2.3h2.3ZM93,428.1h-2.7v2.7H93Zm7.3,0h-2.7v2.7h2.7Zm46.4-1H144v2.7h2.7Zm7.3,0h-2.7v2.7H154Zm7.3-.1h-2.7v2.7h2.7ZM38,426.1H35.3v2.7H38Zm7.3,0H42.6v2.7h2.7Zm51.31-1.6h-2.7v2.7h2.7Zm7.3,0h-2.7v2.7h2.7Zm46.5-1.1h-2.7v2.7h2.7Zm7.3,0H155v2.7h2.7ZM34.3,422.5H31.6v2.7h2.7Zm7.3,0H38.9v2.7h2.7Zm7.3,0H46.2v2.7h2.7Zm51.41-1.7h-2.7v2.7h2.7Zm46.4-.9H144v2.7h2.7Zm7.3-.1h-2.7v2.7H154Zm7.3,0h-2.7v2.7h2.7ZM38,418.8H35.3v2.7H38Zm7.3,0H42.6v2.7h2.7Zm58.61-1.6h-2.7v2.7h2.7Zm46.5-1h-2.7v2.7h2.7Zm7.3-.1H155v2.7h2.7ZM41.6,415.2H38.9v2.7h2.7Zm7.3,0H46.2v2.7h2.7ZM154,412.6h-2.7v2.7H154Zm7.3-.1h-2.7v2.7h2.7Zm-116-1H42.6v2.7h2.7Zm112.41-2.6H155v2.7h2.7Zm-108.81-1H46.2v2.7h2.7Zm112.41-2.61h-2.7V408h2.7Z"/><path class="cls-2" d="M142.81,397.3V363.5l-1.1-.4v-1.2h2.9v.3l1.5-1.1h-.8v-2.8h2.8v1.3l2.6-2h-1.8v-2.8h2.8v2.1l11-8.3v30.8Zm-4.7-36.1v-2.9h3v2.9Zm-7.2-1.8v-1.2H134v2.2Zm6.9-12.1v3.5h-3.5v3.6h-3.6v-3.1h-3.1v3.1h3.1V358h-3.6v-3.1h-3V357l-9.3-3.2v-55l19.9-6.9v47l5,1.7h-1.4v3.1h3.1v3.6Zm-3.3,10.4v-3.1h3.1v3.1Zm7.2-.1v-2.9h2.9v2.9Zm-3.6-3.5v-3h3v3Zm7.2,0v-3h2.9v3Zm7.1-.1v-2.8h2.9V354ZM123,351.8h-2v2.1h2Zm11.2-4h-3v3h3Zm7.4,2.8v-3.1h3.1v3.1Zm7.2-.1v-2.9h2.9v2.9Zm7.2-.1v-2.8h2.8v2.8Zm-29.4-2.2h-2.1v2.1h2.1Zm-8.2-1.8h-2.3v2.4h2.3Zm19.4-2.2h-3v3h3Zm7.4,2.8v-3.1h3V347Zm7.2-.1V345l2.9,1v.9Zm-22.2-2.2h-2.1v2h2.1Zm-8.1-2h-2.3v2.4h2.3ZM82,343.7v-.9h3.5V345Zm59.41,0v-2.5l3.6,1.3v1.2Zm-7.7-2.6h-2v2.1h2ZM79.6,342.8l-1.1-.4v-3.1H82v3.5Zm6-.1v-3.4h1.81v3.4Zm40.31-3.8h-2.4v2.5h2.4Zm-7.5-.1h-2.3v2.4h2.3ZM85.6,335.6v-3.4H82.1v3.5h3.4v3.5H82v-3.4H78.5v3.5H75v1.8l-7.5-2.8v-2.2H64.7v1.2l-8.1-3v-1.5H54.2v.6l-8.8-3.3v-.6H43.8l-8.9-3.3,9.2-3.4v.9h1.2v-1.2h-.4l20-7.4v2.1h2.2v-1.3l8.3,3V321H78v-1.1l7.81,2.9v2.1h1.6v3.7h-1.7v3.5h1.7v3.5Zm-10.9.3H71.5v3.2h3.2Zm54.91-.6h-2.4v2.4h2.4Zm-7.5-.2h-2.3v2.4h2.3ZM78.3,332.3H75.1v3.2h3.2Zm-7.3.2H68.1v2.9H71Zm-7.2.1H61.1v2.7h2.7Zm69.51-1.1h-2.4v2.4h2.4Zm-7.4-.2h-2.4v2.5h2.4Zm-7.5,0h-2.3v2.4h2.3ZM81.9,328.8H78.7V332h3.2Zm-7.3.1H71.7v2.9h2.9Zm-7.3.2H64.7v2.6h2.6Zm-7.2.1H57.7v2.4h2.4Zm-7.3.2h-2v2h2Zm76.81-1.7h-2.4v2.4h2.4Zm-7.5-.1h-2.3V330h2.3Zm-36.7-2.4h-3.2v3.2h3.2Zm-7.21.2H75.3v2.9h2.9Zm-7.3.1H68.3v2.6h2.6Zm-7.3.1H61.3V328h2.3Zm-7.2.3h-2v2h2ZM49,326H47.4v1.6H49Zm-7.3.2H40.5v1.2h1.2Zm84.21-2.4h-2.4v2.5h2.4Zm7.4.1h-2.4v2.4h2.4Zm-14.9-.1h-2.3v2.4h2.3Zm-36.7-2H78.8v2.9h2.91Zm-7.21.1H71.8v2.7h2.7Zm-7.3.2H64.8v2.3h2.4Zm-7.3.2h-2v2h2Zm-7.3.2H51v1.6h1.6Zm77-2.3h-2.4v2.4h2.4Zm-7.5-.1h-2.3v2.4h2.3ZM70.8,318.5H68.4v2.4h2.4Zm-7.3.2h-2v2h2Zm-7.4.3H54.5v1.6h1.6Zm69.81-2.7h-2.4v2.5h2.4Zm7.4.1h-2.4v2.4h2.4Zm-14.9-.1h-2.3v2.4h2.3Zm11.2-3.6h-2.4v2.4h2.4Zm-7.5-.1h-2.3V315h2.3Zm3.8-3.8h-2.4v2.5h2.4Zm7.4.1h-2.4v2.4h2.4Zm-14.9-.1h-2.3v2.4h2.3Zm11.2-3.6h-2.4v2.4h2.4Zm-7.5-.1h-2.3v2.4h2.3Zm3.8-3.8h-2.4v2.5h2.4Zm7.4.1h-2.4v2.4h2.4Zm-14.9-.1h-2.3v2.4h2.3Zm11.2-3.6h-2.4v2.4h2.4Zm-7.5-.1h-2.3V300h2.3Zm11.2-3.7h-2.4v2.4h2.4Zm9.5-4.8V254.89l19.9-25.9V265.2Z"/><path class="cls-2" d="M32.4,253.91V216.3H52.3V234Zm4-8.5H33.7v2.7h2.7ZM40,241.8H37.3v2.7H40Zm3.7-3.7H41v2.7h2.7Zm-7.5.2H33.9v2.3h2.3Zm11.1-3.8H44.6v2.7h2.7Zm-7.4.1H37.5V237h2.4ZM51,230.8H48.3v2.7H51Zm-7.5.2H41.2v2.3h2.3Zm-7.5.2H34v2h2Zm11.2-3.9H44.8v2.4h2.4Zm-7.5.2h-2v2h2Zm11.1-3.8H48.5V226h2.3Zm-7.5.2h-2v2h2Zm-7.5.2H34.2v1.6h1.6ZM47,220.2H45v2h2Zm-7.5.2H37.9V222h1.6Zm11.1-3.8H48.7v2h1.9Zm-7.5.2H41.5v1.6h1.6Zm-7.5.1H34.4v1.3h1.2Zm107.21-.6V184.7l19.9-20.9v32.6ZM52.2,170.6v-3.3H49.8l-1.1,1.1v2.3H52v3.5H48.6v-3.3H46.2L45.1,172v2.3h3.4v3.5H45v-3.4H42.7l-1.1,1.1v2.4h3.3v3.4H41.5V178H39.1L38,179.1v2.3h3.3v3.3H37.9v-3.2H35.6l-1.2,1.2v2h-2V147.1l19.9-19.9v40h3.3v3.4Zm-6.8,13.8v-2.9h2.9v2.9Zm7.2,0v-2.5h2.5v2.5Zm7.4-.3v-1.9h2v1.9Zm7.4-.2v-1.5h1.5v1.5Zm7.4-.3v-.9h.9v.9Zm-26-2.5v-3h3v3Zm7.4-.3v-2.4h2.5v2.4Zm7.4-.2v-2h1.9v2Zm7.4-.3v-1.4h1.4v1.4Zm7.3-.2v-1h1v1Zm-42.6-2.6H34.5v1.3h1.2Zm16.7,0v-2.9h2.9v2.9Zm7.4-.2v-2.5h2.4v2.5Zm7.4-.3v-1.9h1.9V177Zm7.3-.2v-1.5H76v1.5Zm7.4-.3v-.9h1v.9Zm-42.6-2.6H38.1v1.2h1.2Zm16.7,0V171h2.9v2.9Zm7.3-.2v-2.5h2.5v2.5Zm7.4-.3v-1.9h2v1.9Zm7.4-.2v-1.5h1.5v1.5Zm7.4-.3V172h.91v.9ZM35.9,170H34.3v1.6h1.6Zm7.1.2H41.8v1.3H43Zm16.5.2v-3h3v3Zm7.4-.3v-2.4h2.5v2.4Zm7.4-.2v-2h1.9v2Zm7.41-.3v-1.4H83.1v1.4Zm7.3-.2v-1h1v1Zm-49.51-3H37.9V168h1.6Zm7.1.2H45.4v1.2h1.2Zm9.1.5v-3.3h3.5v3.3Zm7.4-.3v-2.9H66v2.9Zm7.4-.2v-2.5h2.4v2.5Zm7.3-.3v-1.9h2v1.9Zm7.41-.2v-1.5h1.5v1.5Zm7.4-.3v-.9h.9v.9ZM36,162.5H34.1v2H36Zm7.2.2H41.6v1.6h1.6Zm7.1.2H49.1v1.3h1.2Zm-10.6-4h-2v2h2Zm7.1.2H45.2v1.6h1.6Zm-10.6-4H33.9v2.3h2.3Zm7.2.1h-2v2h2Zm7.1.2H48.9V157h1.6Zm-10.6-4H37.5v2.4h2.4Zm7.1.2H45v2h2Zm-10.6-4H33.7v2.7h2.7Zm7.1.2H41.2v2.3h2.3Zm7.2.1h-2v2h2Zm-10.6-4H37.4v2.7h2.7Zm7.1.2H44.8v2.4h2.4Zm-3.5-3.8H41V143h2.7Zm7.1.2H48.5v2.3h2.3Zm-3.4-3.9H44.7v2.7h2.7ZM51,133H48.3v2.7H51Z"/><path class="cls-2" d="M142.81,115.11V19.9L162.71,0V95.21Zm3.2-21.4h-1v1h1Zm3.6-3.6h-1v1h1Zm-3.6-3.8h-1.2v1.3H146Zm7.2.2h-1v1h1ZM52.2,67v3.5H48.7v3.6H45.1v3.61H41.6v3.5H38v2.7H34.2V81.8H31.6v2.11h-.4V22.7L49.3,2.8v64H52V64h3.8v3ZM42,83.91v-2.3h2.5v2.3ZM107.21,67v3.5h-3.5v3.6h-3.6v3.61h-3.5v3.5H93v2.7h-3.8V81.8H86.6v2.11h-.39V32.1l18.1-19.9V66.8H107V64h3.8v3ZM97,83.91v-2.3h2.5v2.3Zm52.6-1.2h-1.2v1.2h1.2Zm7.3.09h-1v1h1ZM49.8,83.5V82.3H51v1.2Zm55,0V82.3H106v1.2Zm-67-5.2H35.1L35,81h2.8Zm55,0H90V81h2.8ZM45.5,80.61V78.1h2.6v2.51Zm55,0V78.1h2.6v2.51Zm45.7-1.81h-1.6v1.61h1.6Zm7.1.2h-1.2v1.3h1.2Zm7.2.21h-1v1h1ZM53.3,80V78.71h1.2V80Zm55,0V78.71h1.2V80Zm-19.8-3.2h-1v1h1ZM41.4,74.71H38.6V77.5h2.8Zm55,0h-2.8V77.5h2.8ZM49.1,77V74.5h2.5V77Zm55,0V74.5h2.5V77Zm45.7-1.79h-1.6V76.8h1.6Zm7.1.19h-1.2v1.2h1.2Zm-45,1V75.21h1.2V76.4ZM33.5,74.8h-1v1h1Zm58.71-1.7h-1v1h1Zm-47.31-2H42.2l-.1,2.8h2.8Zm55,0h-2.8v2.8h2.8ZM52.7,73.5V71h2.5v2.5Zm55,0V71h2.5v2.5Zm38.7-2.2h-2v2h2Zm7.1.2h-1.6v1.6h1.6Zm7.1.2h-1.2V73h1.2ZM37.2,71.1h-1v1h1Zm51.41-1.8h-1.2v1.3h1.2Zm7.2.2h-1v1h1ZM48.5,67.6H45.7v2.7h2.8Zm55,0h-2.8v2.7h2.8Zm7.7,2.3V67.4h2.5v2.5ZM150,67.7h-2v2h2Zm7.1.2h-1.6v1.6h1.6ZM33.6,67.3H32.4v1.3h1.2Zm7.2.2h-1v1h1Zm51.41-1.8H91v1.2h1.2Zm7.3.1h-1v1h1Zm47-1.9h-2.3v2.3h2.3Zm7.2.1h-2v2h2Zm7.1.2h-1.6v1.6h1.6ZM37.2,63.7H36v1.2h1.2Zm7.3.1h-1v1h1Zm44.31-2h-1.6v1.6h1.6Zm7.1.2h-1.2v1.3h1.2Zm7.2.2h-1v1h1Zm47.1-2h-2.4v2.4h2.4Zm7.1.2h-2v2h2ZM33.8,59.8H32.2v1.6h1.6Zm7.1.2H39.7v1.3h1.2Zm7.2.2h-1v1h1Zm44.31-2h-1.6v1.6h1.6Zm7.1.2h-1.2v1.2h1.2Zm47.2-2H144v2.7h2.7Zm7.1.2h-2.3v2.3h2.3Zm7.2.1h-2v2h2ZM37.4,56.2H35.8v1.6h1.6Zm7.1.2H43.3v1.2h1.2Zm44.41-2.1H87v2h1.9Zm7.2.2h-1.6v1.6h1.6Zm7.1.2H102V56h1.2Zm47.2-2h-2.7v2.7h2.7Zm7.1.2h-2.4v2.4h2.4ZM33.9,52.3H32v2h1.9Zm7.2.2H39.5v1.6h1.6Zm7.1.2H47V54h1.2Zm44.41-2h-2v2h2Zm7.1.2h-1.6v1.6h1.6Zm47-1.7H144v2.7h2.7Zm7.3-.1h-2.7v2.7H154Zm7.1.2h-2.3v2.3h2.3ZM37.6,48.7h-2v2h2Zm7.1.2H43.1v1.6h1.6Zm44.41-2h-2.3v2.3h2.3Zm7.2.1h-2v2h2Zm7.1.2h-1.6v1.6h1.6Zm47-1.7h-2.7v2.7h2.7Zm7.3-.1H155v2.7h2.7ZM34.1,44.9H31.8v2.3h2.3Zm7.2.1h-2v2h2Zm7.1.2H46.8v1.6h1.6Zm44.41-2h-2.4v2.4h2.4Zm7.1.2h-2v2h2Zm46.8-1.5H144v2.7h2.7Zm7.3,0h-2.7v2.7H154Zm7.3-.1h-2.7v2.7h2.7ZM37.8,41.2H35.4v2.4h2.4Zm7.1.2h-2v2h2Zm44.41-2H86.6v2.7h2.71Zm7.1.2h-2.3v2.3h2.3Zm7.2.1h-2v2h2Zm46.8-1.5h-2.7v2.7h2.7Zm7.3,0H155v2.7h2.7ZM34.3,37.4H31.6v2.7h2.7Zm7.1.2H39.1v2.3h2.3Zm7.2.1h-2v2h2ZM93,35.7h-2.7v2.7H93Zm7.1.2h-2.4v2.4h2.4Zm46.6-1.2H144v2.7h2.7Zm7.3-.1h-2.7v2.7H154Zm7.3,0h-2.7v2.7h2.7ZM38,33.7H35.3v2.7H38Zm7.1.2H42.7v2.4h2.4Zm44.21-1.8H86.6v2.7h2.71Zm7.3,0h-2.7v2.7h2.7Zm7.1.2h-2.3v2.3h2.3Zm46.7-1.3h-2.7v2.7h2.7Zm7.3-.1H155v2.7h2.7ZM34.3,30.1H31.6v2.7h2.7Zm7.3,0H38.9v2.7h2.7Zm7.1.2H46.4v2.3h2.3ZM93,28.4h-2.7v2.7H93Zm7.3,0h-2.7v2.7h2.7Zm46.4-1H144v2.7h2.7Zm7.3,0h-2.7v2.7H154Zm7.3-.1h-2.7V30h2.7ZM38,26.4H35.3v2.7H38Zm7.3,0H42.6v2.7h2.7Zm51.31-1.6h-2.7v2.7h2.7Zm7.3,0h-2.7v2.7h2.7Zm46.5-1.1h-2.7v2.7h2.7Zm7.3,0H155v2.7h2.7ZM34.3,22.8H31.6v2.7h2.7Zm7.3,0H38.9v2.7h2.7Zm7.3,0H46.2v2.7h2.7Zm51.41-1.7h-2.7v2.7h2.7Zm46.4-.9H144v2.7h2.7Zm7.3-.1h-2.7v2.7H154Zm7.3,0h-2.7v2.7h2.7ZM38,19.1H35.3v2.7H38Zm7.3,0H42.6v2.7h2.7Zm58.61-1.6h-2.7v2.7h2.7Zm46.5-1h-2.7v2.7h2.7Zm7.3-.1H155v2.7h2.7ZM41.6,15.5H38.9v2.7h2.7Zm7.3,0H46.2v2.7h2.7ZM154,12.9h-2.7v2.7H154Zm7.3-.1h-2.7v2.7h2.7Zm-116-1H42.6v2.7h2.7ZM157.71,9.2H155v2.7h2.7ZM48.9,8.2H46.2v2.7h2.7ZM161.31,5.6h-2.7V8.3h2.7Z"/></g></g></svg>