<svg xmlns="http://www.w3.org/2000/svg" viewBox="0 0 159.91 472.3"><defs><style>.cls-1{fill:#ef5255;}.cls-2{fill:#79cfe8;}</style></defs><title>edit</title><g id="Layer_2" data-name="Layer 2"><g id="Layer_1-2" data-name="Layer 1"><path class="cls-1" d="M0,472.3V379.9H28.4v61.2H54.2V389.3H83.4v51.8h27.81v-64H140v95.2Z"/><path class="cls-1" d="M0,341.8V294.6c0-40.4,27.2-73.2,70.2-73.2,43.61,0,69.81,32.8,69.81,73.2v47.2Zm110.71-47.2c0-23-13.6-41.2-40.51-41.2-26.5,0-39.9,18.2-39.9,41.2v15.6h80.41Z"/><path class="cls-1" d="M0,190.51V158.7H140v31.81Z"/><path class="cls-1" d="M29.6,89.11v37.6H0V19.9H29.6V57.5H140V89.11Z"/><path class="cls-2" d="M140,472.3V377.1l19.9-19.9v95.2Zm3.2-21.4h-1v1h1Zm3.6-3.6h-1v1h1Zm-3.6-3.8H142v1.3h1.2Zm7.2.2h-1v1h1Zm-101-19.5v3.5H45.9v3.6H42.3v3.6H38.8v3.5H35.2v2.7H31.4V439H28.8v2.1h-.4V379.9L46.5,360v64h2.7v-2.8H53v3ZM39.2,441.1v-2.3h2.5v2.3Zm65.21-16.9v3.5h-3.5v3.6h-3.6v3.6h-3.5v3.5h-3.6v2.7h-3.8V439H83.8v2.1h-.4V389.3l18.11-19.9V424h2.7v-2.8H108v3Zm-10.2,16.9v-2.3h2.5v2.3Zm52.6-1.2h-1.2v1.2h1.2Zm7.3.1h-1v1h1ZM47,440.7v-1.2h1.2v1.2Zm55,0v-1.2h1.2v1.2Zm-67-5.2H32.3l-.1,2.7H35Zm55,0h-2.8v2.7H90ZM42.7,437.8v-2.5h2.6v2.5Zm55,0v-2.5h2.6v2.5Zm45.7-1.8h-1.6v1.6h1.6Zm7.1.2h-1.2v1.3h1.2Zm7.2.2h-1v1h1Zm-107.21.8v-1.3h1.2v1.3Zm55,0v-1.3h1.2v1.3ZM85.71,434h-1v1h1ZM38.6,431.9H35.8v2.8h2.8Zm55,0h-2.8v2.8h2.8ZM46.3,434.2v-2.5h2.5v2.5Zm55,0v-2.5h2.5v2.5Zm45.7-1.8h-1.6V434H147Zm7.1.2h-1.2v1.2h1.2Zm-45,1v-1.2h1.2v1.2ZM30.7,432h-1v1h1Zm58.71-1.7h-1v1h1Zm-47.31-2H39.4l-.1,2.8h2.8Zm55,0h-2.8v2.8h2.8ZM49.9,430.7v-2.5h2.5v2.5Zm55,0v-2.5h2.5v2.5Zm38.7-2.2h-2v2h2Zm7.1.2h-1.6v1.6h1.6Zm7.1.2h-1.2v1.3h1.2ZM34.4,428.3h-1v1h1Zm51.41-1.8H84.6v1.3h1.21Zm7.2.2H92v1h1ZM45.7,424.8H42.9v2.7h2.8Zm55,0h-2.8v2.7h2.8Zm7.7,2.3v-2.5h2.5v2.5Zm38.8-2.2h-2v2h2Zm7.1.2h-1.6v1.6h1.6ZM30.8,424.5H29.6v1.3h1.2Zm7.2.2H37v1h1Zm51.41-1.8h-1.2v1.2h1.2Zm7.3.1h-1v1h1Zm47-1.9h-2.3v2.3h2.3Zm7.2.1h-2v2h2Zm7.1.2h-1.6V423H158ZM34.4,420.9H33.2v1.2h1.2Zm7.3.1h-1v1h1ZM86,419H84.4v1.6H86Zm7.11.2h-1.2v1.3h1.2Zm7.2.2h-1v1h1Zm47.1-2H145v2.4h2.4Zm7.1.2h-2v2h2ZM31,417H29.4v1.6H31Zm7.1.2H36.9v1.3h1.2Zm7.2.2h-1v1h1Zm44.31-2H88V417h1.61Zm7.1.2h-1.2v1.2h1.2Zm47.2-2h-2.7v2.7h2.7Zm7.1.2h-2.3v2.3H151Zm7.2.1h-2v2h2ZM34.6,413.4H33V415h1.6Zm7.1.2H40.5v1.2h1.2Zm44.4-2.1H84.21v2H86.1Zm7.21.2h-1.6v1.6h1.6Zm7.1.2h-1.2v1.3h1.2Zm47.2-2h-2.7v2.7h2.7Zm7.1.2h-2.4v2.4h2.4ZM31.1,409.5H29.2v2h1.9Zm7.2.2H36.7v1.6h1.6Zm7.1.2H44.2v1.3h1.2Zm44.41-2h-2v2h2Zm7.1.2h-1.6v1.6h1.6Zm47-1.7h-2.7v2.7h2.7Zm7.3-.1h-2.7V409h2.7Zm7.1.2H156v2.3h2.3ZM34.8,405.9h-2v2h2Zm7.1.2H40.3v1.6h1.6Zm44.41-2H84v2.3h2.31Zm7.2.1h-2v2h2Zm7.1.2H99V406h1.6Zm47-1.7h-2.7v2.7h2.7Zm7.3-.1h-2.7v2.7h2.7ZM31.3,402.1H29v2.3h2.3Zm7.2.1h-2v2h2Zm7.1.2H44V404h1.6Zm44.41-2H87.6v2.4H90Zm7.1.2h-2v2h2Zm46.8-1.5h-2.7v2.7h2.7Zm7.3,0h-2.7v2.7h2.7Zm7.3-.1h-2.7v2.7h2.7ZM35,398.4H32.6v2.4H35Zm7.1.2h-2v2h2Zm44.4-2H83.8v2.7h2.7Zm7.11.2h-2.3v2.3h2.3Zm7.2.1h-2v2h2Zm46.8-1.5h-2.7v2.7h2.7Zm7.3,0h-2.7v2.7h2.7ZM31.5,394.6H28.8v2.7h2.7Zm7.1.2H36.3v2.3h2.3Zm7.2.1h-2v2h2Zm44.41-2H87.5v2.7h2.71Zm7.1.2h-2.4v2.4h2.4Zm46.6-1.2h-2.7v2.7h2.7Zm7.3-.1h-2.7v2.7h2.7Zm7.3,0h-2.7v2.7h2.7ZM35.2,390.9H32.5v2.7h2.7Zm7.1.2H39.9v2.4h2.4Zm44.2-1.8H83.8V392h2.7Zm7.31,0h-2.7V392h2.7Zm7.1.2h-2.3v2.3h2.3Zm46.7-1.3h-2.7v2.7h2.7Zm7.3-.1h-2.7v2.7h2.7ZM31.5,387.3H28.8V390h2.7Zm7.3,0H36.1V390h2.7Zm7.1.2H43.6v2.3h2.3Zm44.31-1.9H87.5v2.7h2.71Zm7.3,0h-2.7v2.7h2.7Zm46.4-1h-2.7v2.7h2.7Zm7.3,0h-2.7v2.7h2.7Zm7.3-.1h-2.7v2.7h2.7ZM35.2,383.6H32.5v2.7h2.7Zm7.3,0H39.8v2.7h2.7ZM93.81,382h-2.7v2.7h2.7Zm7.3,0h-2.7v2.7h2.7Zm46.5-1.1h-2.7v2.7h2.7Zm7.3,0h-2.7v2.7h2.7ZM31.5,380H28.8v2.7h2.7Zm7.3,0H36.1v2.7h2.7Zm7.3,0H43.4v2.7h2.7Zm51.41-1.7h-2.7V381h2.7Zm46.4-.9h-2.7v2.7h2.7Zm7.3-.1h-2.7V380h2.7Zm7.3,0h-2.7V380h2.7Zm-123.31-1H32.5V379h2.7Zm7.3,0H39.8V379h2.7Zm58.61-1.6h-2.7v2.7h2.7Zm46.5-1h-2.7v2.7h2.7Zm7.3-.1h-2.7v2.7h2.7ZM38.8,372.7H36.1v2.7h2.7Zm7.3,0H43.4v2.7h2.7Zm105.11-2.6h-2.7v2.7h2.7Zm7.3-.1h-2.7v2.7h2.7Zm-116-1H39.8v2.7h2.7Zm112.41-2.6h-2.7v2.7h2.7Zm-108.81-1H43.4v2.7h2.7Zm112.41-2.6h-2.7v2.7h2.7Z"/><path class="cls-2" d="M0,341.7H.1v.1H0Zm140,.1V294.6a86.05,86.05,0,0,0-4-26.2h1.7v-2h-2.1v.9c-.5-1.5-.9-2.5-1.4-3.8v-.8h-.3a92.15,92.15,0,0,0-4.1-8.3h1.4v-2.5h-2.9l-.8-1.2v-2.6h-1.8l-1.6-2.1v-1.7h-1.4l-2-2.2v-1.4h3.5v-3.6h3.6v-3.5h3.6V237h3.4v-3.4h-3.4V230h3.5v-3.6h3.6v-3.5h2.1l1.5,1.6v1.9h1.6l2.1,2.7v.7h.5a59.14,59.14,0,0,1,4.8,7.8h-1.5v2.5h2.6v-.4a72.9,72.9,0,0,1,6.3,19.8h-1.2V261h1.5a82.36,82.36,0,0,1,1.1,13.7v47.2ZM54.9,296.5v-3.1H51.6v3.3h3V300H51.3v-3H48v3.3h3.1v3.3H47.8v-3H44.5v3.3h3v3.3H44.2v-3.1H40.9v3.3h3v2.8H40.6v-2.5H37.3v2.5H33v-2H30.7v2h-.4V294.6c0-17.1,7.4-31.5,22-37.8-3.1,5.7-3.8,12.3-3.8,20.9v15h2.3v-2.4h4.4v2.9h3v3.3Zm-6.6,13.7V308h2.2v2.2Zm7.7-.5v-1.2h1.1v1.2Zm-19.4-5.1H34.2v2.3h2.4Zm15.3,2v-2.2h2.2v2.2Zm7.6-.5v-1.2h1.2v1.2ZM40.1,301H37.8v2.4h2.3Zm-7.2.3h-2v2h2Zm22.5,1.8v-2.3h2.3v2.3Zm7.7-.6v-1.1h1.1v1.1Zm-26.8-4.7h-2v2h2Zm7.4-.3H41.4v2.3h2.3Zm15.3,2v-2.2h2.2v2.2Zm7.7-.5v-1.2h1.1V299Zm-19.4-5.1H44.9v2.3h2.4Zm-7.5.1h-2v2h2Zm-6.9-.1h-2v2h2Zm29.7,2v-2.2h2.2v2.2Zm7.6-.5v-1.1h1.2v1.1Zm-11.7-2.5v-2.6h3.3v2.6Zm82.21-1H140v.9h.7ZM36.3,290.4h-2v2h2Zm29.8,2v-2.1h2.3v2.1Zm-22.4-2.2h-2v2h2Zm30.1,1.6v-1.1h1.1v1.1Zm70.41-3.5h-.9v.9h.9ZM39.8,286.6h-2v2h2Zm7.5,0h-2v2h2Zm-14.7.2H31.2v1.4h1.4Zm108.21-2.2h-1.2v1.2h1.2Zm7,.1h-.9v.9h.9ZM43.7,282.8h-2v2h2Zm-7.7.5H34.6v1.4H36ZM144.41,281h-1.2v1.2h1.2Zm7,.2h-.9v.9h.9Zm-104.11-2h-2v2h2Zm-7.8.3H38.1v1.4h1.4Zm101.41-2.2h-1.4v1.5h1.4Zm7,.2h-1.2v1.1h1.2Zm7,.1H154v.9h.9ZM43.4,275.7H42v1.4h1.4Zm-7.7.3h-1v1h1Zm108.81-2.2H143v1.4h1.5Zm7,.1h-1.2v1.2h1.2Zm7,.1h-.9v.9h.9ZM47,272.2H45.7v1.3H47Zm-7.7,0h-1v1h1Zm101.81-2.1h-1.8v1.7h1.8Zm7,.1h-1.5v1.5h1.5Zm7,.1h-1.2v1.2h1.2ZM43.2,268.4h-1v1h1Zm101.41-1.9h-1.7v1.7h1.7Zm7,.1h-1.4v1.5h1.4Zm7,.2h-1.2v1.1h1.2Zm-17.4-4h-2v2h2Zm7,.1h-1.7v1.8h1.7Zm7,.2h-1.5v1.4h1.5Zm-17.4-4h-2.3v2.3h2.3Zm7,.1h-2v2h2Zm7,.2H150v1.7h1.8Zm-17.4-4h-2.6v2.5h2.6Zm7,.1h-2.3v2.3h2.3Zm6.9.2h-2v2h2Zm7,.1h-1.7v1.7h1.7Zm-17.4-4h-2.5v2.6h2.5Zm7,.2h-2.3v2.2h2.3Zm7,.1h-2v2h2Zm-17.4-4h-2.8V251h2.8Zm7,.2h-2.6v2.5h2.6Zm7,.1h-2.3v2.3h2.3Zm7,.1h-2v2h2Zm-24.4-4.1H128v3.1h3.1Zm7,.2h-2.9v2.8h2.9Zm7,.1h-2.6v2.6h2.6Zm6.9.1h-2.2v2.3H152Zm-24.3-4.1h-3.4v3.4h3.4Zm6.9.2h-3.1V244h3.1Zm7,.1h-2.8v2.8h2.8Zm7,.1h-2.5v2.6h2.5Zm-29.3-.5-2.1-2v-1.3h3.4v3.3Zm11.9-3.4h-3.4v3.3h3.4Zm7,.1h-3.1v3.1h3.1Zm7,.1h-2.8v2.9h2.8Zm-24.4-.4v-3.3h3.3V237Zm-5.5-.1-1.5-1.2v-1.9h3.1v3.1Zm26.5-3.2h-3.1v3.1h3.1Zm7,.2h-2.9v2.8h2.9Zm-24.4-.4v-3.4h3.3v3.4Zm13.9-3.5H135v3.4h3.3Zm-20.9,3.3v-3h3v3Zm27.9-3.1h-3.1v3.1h3.1Zm-34.9,3v-2.8h2.8v2.8Zm17.5-3.3v-3.3h3.4v3.3Zm14-3.4h-3.4v3.4h3.4Zm-21,3.3v-3.1H124v3.1Zm-7-.2v-2.8h2.8v2.8Zm-7-.1V227h2.6v2.5Zm-6.9-2.1v-.3h2.2v1.3Zm31.5-1.1V223h3.3v3.3Zm-7-.1v-3.1h3.1v3.1Zm-7-.1v-2.8h2.8v2.8Zm-7-.2v-2.5H113v2.5Zm-7-.1v-2.3h2.3v2.3Zm-7-.1v-2h2v2Zm38.6-2.9v-3.4H137l1.4,1.3v2.1Zm-7-.2v-3h3v3Zm-7-.1v-2.8h2.8v2.8Zm-7-.1v-2.6h2.5v2.6Zm-7-.2V220h2.2v2.2Zm-7-.1v-2h2v2Zm-7-.2v-1.6h1.7v1.6Zm-7-.1v-1.4h1.4v1.4Zm-7-.1v-1.2h1.2v1.2Zm-7-.3v-.7H73v.7Zm59.51-2.3V216h1.3l1.8,1.4v1.7Zm-7-.2v-2.8h2.8v2.8Zm-7-.1v-2.5h2.6v2.5Zm-7-.1v-2.3h2.3v2.3Zm-6.9-.2v-2h1.9v2Zm-7-.1v-1.7h1.7v1.7Zm-7-.2v-1.4h1.4v1.4Zm-7-.1V217h1.1v1.1Zm-7-.1v-.9h.9v.9Zm52.41-2.7v-2.6l2.9,1.9v.8Zm-6.9-.1v-2.5h2.5v2.5Zm-7-.1v-2.3h2.3v2.3Zm-7-.1v-2h2v2Zm-7-.2v-1.7h1.7v1.7Zm-7-.1v-1.4h1.5v1.4Zm-6.9-.2v-1.1h1.1v1.1Zm-7-.1v-.9h.8v.9Zm45.51-2.7v-.8l1.5.8Zm-7-.2v-2.2H120v2.2Zm-7-.1v-2h2v2Zm-7-.2v-1.6h1.7v1.6Zm-7-.1v-1.4h1.4v1.4Zm-7-.1v-1.2H91V211Zm-7-.2V210h.91v.8Zm31.41-3v-1.51l2.1.81v.7Zm-6.8-.1V206H109v1.7Zm-7-.2v-1.4h1.4v1.4Zm-7-.1v-1.11h1.1v1.11Zm-7-.1v-.9h.9v.9Zm10.5-3.4v-1l1.2.1v.9Zm-6.9-.21v-.9h.8v.9Z"/><path class="cls-2" d="M140,190.51V158.7l19.9-20.9v32.8ZM39.3,140.5v3.6H35.7v3.6H32.1v3.6H28.5v3.6H24.9v3.8H0l19.9-20.9H22v2.1h2.4v-2.1h4.5v2.3h2.9v-2.3h4.1v2.6h3.3v-2.6h3.7v2.7ZM21.2,155H17.9v3.4h3.3Zm7.4,3.4v-3.3h3.3v3.3Zm-14.8-3.2H10.9v2.9h2.9Zm22.1,2.9v-3h3v3ZM6.4,155.4H4v2.5H6.4Zm36.8,2.5v-2.6h2.6v2.6Zm7.3-.2v-2.2h2.2v2.2Zm7.4-.2v-1.8h1.8v1.8Zm7.3-.2v-1.4h1.4v1.4Zm7.3-.2v-1h1v1Zm-47.7-5.7H21.5v3.4h3.3Zm7.4,3.3v-3.3h3.3v3.3Zm-14.8-3.1H14.5v3h2.9Zm22.1,2.9v-3h2.9v3ZM10,151.8H7.6v2.6H10Zm36.8,2.5v-2.6h2.6v2.6Zm7.3-.2v-2.2h2.2v2.2Zm7.3-.2v-1.8h1.8v1.8Zm7.4-.2v-1.4h1.4v1.4Zm7.3-.2v-1h1v1Zm-47.7-5.7H25.1v3.4h3.3Zm7.4,3.3v-3.3h3.3v3.3ZM21,148H18.1v2.9H21Zm22,2.9V148h3v2.9Zm-29.4-2.7H11.2v2.5h2.4Zm36.8,2.5v-2.5h2.5v2.5Zm7.3-.1v-2.2h2.2v2.2Zm7.3-.2v-1.8h1.8v1.8Zm7.3-.2v-1.4h1.4v1.4Zm7.4-.2v-1h1v1ZM32,144.2H28.7v3.4H32Zm7.4,3.3v-3.3h3.3v3.3Zm7.2-.1v-3h3v3Zm-22-3H21.7v2.9h2.9Zm29.3,2.8v-2.6h2.6v2.6Zm-36.7-2.6H14.8v2.5h2.4Zm44,2.4v-2.2h2.2V147Zm7.4-.2V145h1.8v1.8Zm7.3-.2v-1.4h1.4v1.4Zm7.31-.2v-1h1v1ZM35.6,140.6H32.3V144h3.3Zm7.4,3.3v-3.3h3.3v3.3Zm7.2-.1v-2.9h2.9v2.9Zm-22-3H25.3v2.9h2.9Zm29.3,2.8V141h2.6v2.6ZM20.8,141H18.4v2.5h2.4Zm44,2.4v-2.2H67v2.2Zm7.3-.2v-1.8h1.8v1.8Zm7.4-.2v-1.4h1.4V143Zm7.31-.2v-1h1v1ZM46.6,140.3v-2.5h3.3v2.5Zm7.1-.1v-2.4h3v2.4Zm7.3-.1v-2.3h2.6v2.3Zm7.4-.2v-2.1h2.2v2.1Zm7.3-.2v-1.8h1.8v1.8Zm7.3-.2v-1.4h1.4v1.4Zm7.31-.2v-1h1v1Z"/><path class="cls-2" d="M29.6,126.71V89.11H49.5v17.7Zm4-8.5H30.9v2.7h2.7Zm3.6-3.6H34.5v2.7h2.7Zm3.7-3.7H38.2v2.7h2.7Zm-7.5.2H31.1v2.3h2.3Zm11.1-3.8H41.8V110h2.7Zm-7.4.1H34.7v2.4h2.4Zm11.1-3.8H45.5v2.7h2.7Zm-7.5.2H38.4v2.3h2.3Zm-7.5.2h-2v2h2Zm11.2-3.9H42v2.4h2.4Zm-7.5.2h-2v2h2ZM48,96.51H45.7v2.3H48Zm-7.5.2h-2v2h2Zm-7.5.2H31.4v1.6H33ZM44.2,93h-2v2h2Zm-7.5.21H35.1v1.6h1.6Zm11.1-3.8H45.9v2h1.9Zm-7.5.2H38.7v1.6h1.6Zm-7.5.1H31.6V91h1.2ZM140,89.11V57.5l19.9-20.9V69.2ZM49.4,43.4V40.1H47l-1.1,1.1v2.3h3.3V47H45.8V43.7H43.4l-1.1,1.1v2.3h3.4v3.5H42.2V47.2H39.9l-1.1,1.1v2.4h3.3v3.4H38.7V50.8H36.3l-1.1,1.1v2.3h3.3v3.3H35.1V54.3H32.8l-1.2,1.2v2h-2V19.9L49.5,0V40h3.3v3.4ZM42.6,57.2V54.3h2.9v2.9Zm7.2,0V54.7h2.5v2.5Zm7.4-.3V55h2v1.9Zm7.4-.2V55.2h1.5v1.5Zm7.4-.3v-.9h.9v.9ZM46,53.9v-3h3v3Zm7.4-.3V51.2h2.5v2.4Zm7.4-.2v-2h1.9v2Zm7.4-.3V51.7h1.4v1.4Zm7.3-.2v-1h1v1ZM32.9,50.3H31.7v1.3h1.2Zm16.7,0V47.4h2.9v2.9Zm7.4-.2V47.6h2.4v2.5Zm7.4-.3V47.9h1.9v1.9Zm7.3-.2V48.1h1.5v1.5Zm7.4-.3v-.9h1v.9ZM36.5,46.7H35.3v1.2h1.2Zm16.7,0V43.8h2.9v2.9Zm7.3-.2V44H63v2.5Zm7.4-.3V44.3h2v1.9Zm7.4-.2V44.5h1.5V46Zm7.4-.3v-.9h.9v.9ZM33.1,42.8H31.5v1.6h1.6Zm7.1.2H39v1.3h1.2Zm16.5.2v-3h3v3Zm7.4-.3V40.5h2.5v2.4Zm7.4-.2v-2h1.9v2Zm7.4-.3V41h1.4v1.4Zm7.31-.2v-1h1v1Zm-49.51-3H35.1v1.6h1.6Zm7.1.2H42.6v1.2h1.2Zm9.1.5V36.6h3.5v3.3Zm7.4-.3V36.7h2.9v2.9Zm7.4-.2V36.9h2.4v2.5Zm7.3-.3V37.2h2v1.9Zm7.4-.2V37.4h1.5v1.5Zm7.41-.3v-.9h.9v.9ZM33.2,35.3H31.3v2h1.9Zm7.2.2H38.8v1.6h1.6Zm7.1.2H46.3V37h1.2Zm-10.6-4h-2v2h2Zm7.1.2H42.4v1.6H44Zm-10.6-4H31.1v2.3h2.3Zm7.2.1h-2v2h2Zm7.1.2H46.1v1.6h1.6Zm-10.6-4H34.7v2.4h2.4Zm7.1.2h-2v2h2Zm-10.6-4H30.9v2.7h2.7Zm7.1.2H38.4v2.3h2.3Zm7.2.1h-2v2h2Zm-10.6-4H34.6v2.7h2.7Zm7.1.2H42v2.4h2.4Zm-3.5-3.8H38.2v2.7h2.7Zm7.1.2H45.7v2.3H48ZM44.6,9.4H41.9v2.7h2.7Zm3.6-3.6H45.5V8.5h2.7Z"/></g></g></svg>