<?xml version="1.0" encoding="UTF-8" standalone="no"?>
<svg width="421px" height="297px" viewBox="0 0 421 297" version="1.1" xmlns="http://www.w3.org/2000/svg" xmlns:xlink="http://www.w3.org/1999/xlink" xmlns:sketch="http://www.bohemiancoding.com/sketch/ns">
    <!-- Generator: Sketch 3.3.2 (12043) - http://www.bohemiancoding.com/sketch -->
    <title>map</title>
    <desc>Created with Sketch.</desc>
    <defs>
        <path id="path-1" d="M0.00456144116,0.596607024 L44.4084426,0.596607024 L44.4084426,31.3954375 L0.00456144116,31.3954375"></path>
        <path id="path-3" d="M0.00456144116,0.596607024 L44.4084426,0.596607024 L44.4084426,31.3954375 C44.4084426,31.3954375 38.6536261,31.3954375 35.69104,31.3954375 C23.5881432,31.3954375 0.00456144116,31.3954375 0.00456144116,31.3954375"></path>
    </defs>
    <g id="Page-1" stroke="none" stroke-width="1" fill="none" fill-rule="evenodd" sketch:type="MSPage">
        <g id="Ground-Floor" sketch:type="MSLayerGroup" transform="translate(17.000000, 79.000000)">
            <path d="M83.0132287,105.183816 L83.0132287,81 L65,81 L65,98.8228789 L65,134 L130.37976,134 L131,105.183816 L83.0132287,105.183816 Z" id="Toilet-1-Women" stroke="#979797" fill="#CBDBDA" sketch:type="MSShapeGroup"></path>
            <path d="M163.576412,105.308214 L163.576412,81 L178.994202,81 L178.994202,134 L120.98815,134 L120.98815,105.308214 L163.576412,105.308214 Z" id="Toilet-2-Men" stroke="#979797" fill="#CBDBDA" sketch:type="MSShapeGroup"></path>
            <rect id="Reception" stroke="#979797" fill="#8BEFD9" sketch:type="MSShapeGroup" x="82" y="81" width="68.4632491" height="27.7815681"></rect>
            <g id="Lawn" transform="translate(75.626621, 0.000000)" fill="#B1FF91" sketch:type="MSShapeGroup">
                <path d="M133.023579,46.1227267 C119.097851,43.0890177 114.552087,34.1501875 114.552087,34.1501875 L114.552087,55 L157.926178,55 L157.926178,46.1227272 C157.926178,46.1227272 146.949306,49.1564357 133.023579,46.1227267 Z" id="Lawn-1"></path>
                <rect id="Lawn-2" x="0" y="0" width="114.552087" height="33.9160608"></rect>
            </g>
            <g id="infopoint" transform="translate(87.000000, 88.000000)">
                <circle id="Oval-3" fill="#FFFFFF" sketch:type="MSShapeGroup" cx="5.5" cy="7.5" r="5.5"></circle>
                <text id="i" sketch:type="MSTextLayer" font-family="Sonar" font-size="9" font-weight="420" fill="#671990">
                    <tspan x="4.38784381" y="10.7004423">i</tspan>
                </text>
            </g>
            <path d="M248.489342,81 L248.489342,134 L303.014378,134 L303.014378,81 L248.489342,81 Z" id="HS1" stroke="#979797" fill="#850000" sketch:type="MSShapeGroup"></path>
            <path d="M179,133.5 L223.580032,133.5" id="Line" stroke="#979797" stroke-linecap="square" sketch:type="MSShapeGroup"></path>
            <path d="M223.030457,102.046265 L223.030457,134 L249.463184,134 L249.463184,102.046265 L223.030457,102.046265 Z" id="Rectangle-5" stroke="#979797" sketch:type="MSShapeGroup"></path>
            <path d="M75.6266206,32.9160608 L75.6266206,61.8321217 L0.0655339273,62.013059 L0.0655339273,82 L178.062757,81.9999994 L178.062757,103.033683 L249.432828,103.033683 L249.432828,81.9999994 L302.972242,81.9999994 L302.972242,69.9222635 L249.122983,69.9222635 L249.122983,54.2271513 L190.178708,54.2271513 L190.178708,33.0604663 L75.6266206,32.9160608 Z" id="Foyer" stroke="#979797" sketch:type="MSShapeGroup"></path>
            <g id="Staircase-Inside-1" transform="translate(141.243836, 64.280746)" stroke="#979797" sketch:type="MSShapeGroup">
                <rect id="Rectangle-12" fill="#D8D8D8" x="0" y="0" width="33.3646856" height="8.89724948"></rect>
                <path d="M5.00470284,8.34117139 L5.00470284,0.556078093" id="Line" stroke-linecap="square"></path>
                <path d="M8.34117139,8.34117139 L8.34117139,0.556078093" id="Line" stroke-linecap="square"></path>
                <path d="M11.6776399,8.34117139 L11.6776399,0.556078093" id="Line" stroke-linecap="square"></path>
                <path d="M15.0141085,8.34117139 L15.0141085,0.556078093" id="Line" stroke-linecap="square"></path>
                <path d="M18.3505771,8.34117139 L18.3505771,0.556078093" id="Line" stroke-linecap="square"></path>
                <path d="M21.6870456,8.34117139 L21.6870456,0.556078093" id="Line" stroke-linecap="square"></path>
                <path d="M25.0235142,8.34117139 L25.0235142,0.556078093" id="Line" stroke-linecap="square"></path>
                <path d="M28.3599827,8.34117139 L28.3599827,0.556078093" id="Line" stroke-linecap="square"></path>
            </g>
            <g id="Staircase-Inside-2" transform="translate(85.636026, 64.280746)" stroke="#979797" sketch:type="MSShapeGroup">
                <rect id="Rectangle-12" fill="#D8D8D8" x="0" y="0" width="33.3646856" height="8.89724948"></rect>
                <path d="M5.00470284,8.34117139 L5.00470284,0.556078093" id="Line" stroke-linecap="square"></path>
                <path d="M8.34117139,8.34117139 L8.34117139,0.556078093" id="Line" stroke-linecap="square"></path>
                <path d="M11.6776399,8.34117139 L11.6776399,0.556078093" id="Line" stroke-linecap="square"></path>
                <path d="M15.0141085,8.34117139 L15.0141085,0.556078093" id="Line" stroke-linecap="square"></path>
                <path d="M18.3505771,8.34117139 L18.3505771,0.556078093" id="Line" stroke-linecap="square"></path>
                <path d="M21.6870456,8.34117139 L21.6870456,0.556078093" id="Line" stroke-linecap="square"></path>
                <path d="M25.0235142,8.34117139 L25.0235142,0.556078093" id="Line" stroke-linecap="square"></path>
                <path d="M28.3599827,8.34117139 L28.3599827,0.556078093" id="Line" stroke-linecap="square"></path>
            </g>
            <path d="M146.804616,81 L146.804616,108.790005 L166.823429,108.790005 L166.823428,81 L146.804616,81 Z" id="Wheelchair-Toilet-1" stroke="#979797" fill="#CBDBDA" sketch:type="MSShapeGroup"></path>
            <path d="M0,62.0162015 L0,82.963089 L17.794499,82.9630892 L17.7944984,62.0162015 L0,62.0162015 Z" id="Elevator" stroke="#979797" fill="#D8D8D8" sketch:type="MSShapeGroup"></path>
            <g id="Staircase-Outside" transform="translate(233.626621, 37.000000)" stroke="#979797" sketch:type="MSShapeGroup">
                <rect id="Rectangle-11" fill="#D8D8D8" x="0" y="0" width="15.5701866" height="17.794499"></rect>
                <path d="M0.556078093,5.00470284 L15.0141085,5.00470284" id="Line" stroke-linecap="square"></path>
                <path d="M0.556078093,7.22901521 L15.0141085,7.22901521" id="Line" stroke-linecap="square"></path>
                <path d="M0.556078093,2.78039046 L13.9019523,2.78039046" id="Line" stroke-linecap="square"></path>
            </g>
            <g id="Table-group" transform="translate(205.000000, 9.000000)" stroke="#979797" fill="#D8D8D8" sketch:type="MSShapeGroup">
                <g id="Table-ouside" transform="translate(0.524582, 10.570187)">
                    <rect id="Rectangle-15" x="0" y="0" width="20.0188113" height="1.11215619"></rect>
                    <rect id="Rectangle-16" x="4.44862474" y="1.11215619" width="1.11215619" height="4.44862474"></rect>
                    <rect id="Rectangle-17" x="14.4580304" y="1.11215619" width="1.11215619" height="4.44862474"></rect>
                </g>
                <g id="Table-ouside-2" transform="translate(0.524582, 20.579592)">
                    <rect id="Rectangle-15" x="0" y="0" width="20.0188113" height="1.11215619"></rect>
                    <rect id="Rectangle-16" x="4.44862474" y="1.11215619" width="1.11215619" height="4.44862474"></rect>
                    <rect id="Rectangle-17" x="14.4580304" y="1.11215619" width="1.11215619" height="4.44862474"></rect>
                </g>
                <g id="Table-ouside-3" transform="translate(0.524582, 0.560781)">
                    <rect id="Rectangle-15" x="0" y="0" width="20.0188113" height="1.11215619"></rect>
                    <rect id="Rectangle-16" x="4.44862474" y="1.11215619" width="1.11215619" height="4.44862474"></rect>
                    <rect id="Rectangle-17" x="14.4580304" y="1.11215619" width="1.11215619" height="4.44862474"></rect>
                </g>
            </g>
            <g id="HS3-+-Hall-3" transform="translate(0.000000, 81.000000)">
                <path d="M66,0.0548361338 L0,0 L0,53 L66,53 L66,0.0548361338 Z" id="HS3" stroke="#979797" fill="#913BBE" sketch:type="MSShapeGroup"></path>
                <text id="Hall-5" sketch:type="MSTextLayer" font-family="Sonar" font-size="9" font-weight="normal" fill="#FFFFFF">
                    <tspan x="23" y="42">Hall 5</tspan>
                </text>
            </g>
        </g>
        <g id="Floor-1" sketch:type="MSLayerGroup" transform="translate(17.000000, 18.000000)" stroke="#979797">
            <rect id="Rectangle-18" sketch:type="MSShapeGroup" x="0" y="0" width="192.40302" height="50.0470284"></rect>
            <path d="M0.517253405,29.4721389 L191.499993,29.4721389" id="Line" stroke-linecap="square" sketch:type="MSShapeGroup"></path>
            <path d="M47.2666379,29.4721389 L47.2666379,0.568428389" id="Line" stroke-linecap="square" sketch:type="MSShapeGroup"></path>
            <path d="M112.883853,29.4721389 L112.883853,0.629064738" id="Line" stroke-linecap="square" sketch:type="MSShapeGroup"></path>
            <g id="Staircase-Inside-3" transform="translate(85.636026, 35.588998)" sketch:type="MSShapeGroup">
                <rect id="Rectangle-12" fill="#D8D8D8" x="0" y="0" width="33.3646856" height="8.89724948"></rect>
                <path d="M5.00470284,8.34117139 L5.00470284,0.556078093" id="Line" stroke-linecap="square"></path>
                <path d="M8.34117139,8.34117139 L8.34117139,0.556078093" id="Line" stroke-linecap="square"></path>
                <path d="M11.6776399,8.34117139 L11.6776399,0.556078093" id="Line" stroke-linecap="square"></path>
                <path d="M15.0141085,8.34117139 L15.0141085,0.556078093" id="Line" stroke-linecap="square"></path>
                <path d="M18.3505771,8.34117139 L18.3505771,0.556078093" id="Line" stroke-linecap="square"></path>
                <path d="M21.6870456,8.34117139 L21.6870456,0.556078093" id="Line" stroke-linecap="square"></path>
                <path d="M25.0235142,8.34117139 L25.0235142,0.556078093" id="Line" stroke-linecap="square"></path>
                <path d="M28.3599827,8.34117139 L28.3599827,0.556078093" id="Line" stroke-linecap="square"></path>
            </g>
            <g id="Staircase-Inside-4" transform="translate(141.243836, 35.588998)" sketch:type="MSShapeGroup">
                <rect id="Rectangle-12" fill="#D8D8D8" x="0" y="0" width="33.3646856" height="8.89724948"></rect>
                <path d="M5.00470284,8.34117139 L5.00470284,0.556078093" id="Line" stroke-linecap="square"></path>
                <path d="M8.34117139,8.34117139 L8.34117139,0.556078093" id="Line" stroke-linecap="square"></path>
                <path d="M11.6776399,8.34117139 L11.6776399,0.556078093" id="Line" stroke-linecap="square"></path>
                <path d="M15.0141085,8.34117139 L15.0141085,0.556078093" id="Line" stroke-linecap="square"></path>
                <path d="M18.3505771,8.34117139 L18.3505771,0.556078093" id="Line" stroke-linecap="square"></path>
                <path d="M21.6870456,8.34117139 L21.6870456,0.556078093" id="Line" stroke-linecap="square"></path>
                <path d="M25.0235142,8.34117139 L25.0235142,0.556078093" id="Line" stroke-linecap="square"></path>
                <path d="M28.3599827,8.34117139 L28.3599827,0.556078093" id="Line" stroke-linecap="square"></path>
            </g>
            <path d="M0,28.9985352 L0,50 L17.9805908,50 L17.9805908,28.9985352 L0,28.9985352 Z" id="Elevator-2" fill="#D8D8D8" sketch:type="MSShapeGroup"></path>
            <path d="M17.008667,0 L17.008667,30 L51.9999997,30 L52,0 L17.008667,0 Z" id="Rectangle-29" fill="#CBDBDA" sketch:type="MSShapeGroup"></path>
            <rect id="Rectangle-30" fill="#CBDBDA" sketch:type="MSShapeGroup" x="112.327775" y="0.028217011" width="35.0329198" height="30"></rect>
        </g>
        <g id="Sbahn-tracks-&amp;-logo" sketch:type="MSLayerGroup" transform="translate(351.000000, 0.000000)">
            <rect id="Rectangle-27" fill="#D8D8D8" sketch:type="MSShapeGroup" x="10" y="0" width="8" height="297"></rect>
            <g id="S-Bahn-Logo" transform="translate(0.000000, 178.000000)" sketch:type="MSShapeGroup">
                <g id="Group">
                    <path d="M13.9493976,27.9650843 C6.23253012,27.9650843 -0.0420843373,21.6904699 -0.0420843373,13.9735181 C-0.0420843373,6.2566506 6.23253012,-0.0180481928 13.9493976,-0.0180481928 C21.6663494,-0.0180481928 27.9410482,6.2566506 27.9410482,13.9735181 C27.9412169,21.6904699 21.6663494,27.9650843 13.9493976,27.9650843 L13.9493976,27.9650843 Z" id="Shape" fill="#006F35"></path>
                    <path d="M10.4072289,7.77472289 C10.4072289,6.56026506 11.5204819,5.52291566 13.468759,5.52291566 C16.9097229,5.52291566 19.8446627,7.36990361 21.7928554,9.46990361 L21.7928554,5.80122892 C19.5410482,4.05544578 16.7072289,3.01809639 13.5445783,3.01809639 C9.74939759,3.01809639 5.52409639,5.34589157 5.52409639,9.67231325 C5.52409639,17.9205904 18.0481928,14.9603494 18.0481928,19.7421928 C18.0481928,21.007253 16.3783976,22.196494 14.3036988,22.196494 C10.9133373,22.196494 7.54827711,20.1470964 5.70128916,17.4904699 L5.70128916,21.8927952 C7.64948193,23.6385783 11.2169518,25.0301446 14.3036988,25.0301446 C19.8446627,25.0301446 23.1339036,21.0830723 23.1339036,17.6927108 C23.133988,9.29279518 10.4072289,12.8853976 10.4072289,7.77472289 L10.4072289,7.77472289 Z" id="Shape" fill="#FFFFFF"></path>
                </g>
            </g>
        </g>
        <g id="Ways-and-Arrows" sketch:type="MSLayerGroup" transform="translate(387.000000, 45.000000)" font-weight="normal" font-family="Sonar" sketch:alignment="middle" font-size="9" fill="#000000">
            <text id="Party-Venue" sketch:type="MSTextLayer" transform="translate(7.000000, 215.000000) rotate(-90.000000) translate(-7.000000, -215.000000) ">
                <tspan x="-15.3549805" y="219">Party Venue</tspan>
            </text>
            <text id="Hotel-Griebnitzsee" sketch:type="MSTextLayer" transform="translate(7.500000, 36.500000) rotate(-90.000000) translate(-7.500000, -36.500000) ">
                <tspan x="-28.0297852" y="40.5">Hotel Griebnitzsee</tspan>
            </text>
        </g>
        <text id="First-floor" sketch:type="MSTextLayer" font-family="Sonar" font-size="9" font-weight="420" fill="#000000">
            <tspan x="17" y="12">First floor</tspan>
        </text>
        <text id="Ground-floor" sketch:type="MSTextLayer" font-family="Sonar" font-size="9" font-weight="420" fill="#000000">
            <tspan x="17" y="135">Ground floor</tspan>
        </text>
        <text id="Rails-Girls-" sketch:type="MSTextLayer" font-family="Sonar" font-size="9" font-weight="normal" sketch:alignment="middle" fill="#000000">
            <tspan x="79.4182129" y="30">Rails Girls </tspan>
            <tspan x="77.5" y="42" line-spacing="11">Workshop</tspan>
        </text>
        <text id="Child" sketch:type="MSTextLayer" font-family="Sonar" font-size="9" font-weight="normal" sketch:alignment="middle" fill="#000000">
            <tspan x="176.44751" y="29">Child</tspan>
            <tspan x="177.064941" y="41">Care</tspan>
        </text>
        <text id="Hall-1" sketch:type="MSTextLayer" font-family="Sonar" font-size="9" font-weight="normal" fill="#FFFFFF">
            <tspan x="284" y="205">Hall 1</tspan>
        </text>
        <text id="Reception" sketch:type="MSTextLayer" font-family="Sonar" font-size="9" font-weight="bold" fill="#671990">
            <tspan x="117" y="177">Reception</tspan>
        </text>
        <g id="elevator-sings" sketch:type="MSLayerGroup" transform="translate(20.000000, 147.000000)" stroke="#000000" fill="#D8D8D8">
            <polygon id="Triangle-1" sketch:type="MSShapeGroup" points="3 1 6 9 0 9 "></polygon>
            <polygon id="Triangle-2" sketch:type="MSShapeGroup" transform="translate(9.000000, 4.000000) scale(1, -1) translate(-9.000000, -4.000000) " points="9 0 12 8 6 8 "></polygon>
        </g>
        <g id="elevator-sings-2" sketch:type="MSLayerGroup" transform="translate(20.000000, 53.000000)" stroke="#000000" fill="#D8D8D8">
            <polygon id="Triangle-1" sketch:type="MSShapeGroup" points="3 1 6 9 0 9 "></polygon>
            <polygon id="Triangle-2" sketch:type="MSShapeGroup" transform="translate(9.000000, 4.000000) scale(1, -1) translate(-9.000000, -4.000000) " points="9 0 12 8 6 8 "></polygon>
        </g>
        <text id="Elevator" sketch:type="MSTextLayer" font-family="Sonar" font-size="9" font-weight="normal" fill="#000000">
            <tspan x="39.5" y="265.832122">Elevator</tspan>
        </text>
        <rect id="Elevator-3" stroke="#979797" fill="#D8D8D8" sketch:type="MSShapeGroup" x="17" y="250.832122" width="17.794499" height="21.1309675"></rect>
        <g id="elevator-sings-3" sketch:type="MSLayerGroup" transform="translate(20.000000, 257.000000)" stroke="#000000" fill="#D8D8D8">
            <polygon id="Triangle-1" sketch:type="MSShapeGroup" points="3 1 6 9 0 9 "></polygon>
            <polygon id="Triangle-2" sketch:type="MSShapeGroup" transform="translate(9.000000, 4.000000) scale(1, -1) translate(-9.000000, -4.000000) " points="9 0 12 8 6 8 "></polygon>
        </g>
        <rect id="wc-color-legende" stroke="#979797" fill="#CBDBDA" sketch:type="MSShapeGroup" x="17" y="226.832122" width="17.794499" height="21.1309675"></rect>
        <text id="WC" sketch:type="MSTextLayer" font-family="Sonar" font-size="9" font-weight="normal" fill="#000000">
            <tspan x="40" y="242">WC</tspan>
        </text>
        <g id="Wheelchair_symbol" sketch:type="MSLayerGroup" transform="translate(169.000000, 168.000000)" fill="#000000">
            <path d="M4.02455357,2.49316938 C4.64474961,2.43461108 5.12660132,1.8881703 5.12660132,1.24902875 C5.12660132,0.561092757 4.57795516,0 3.9052795,0 C3.23260384,0 2.68398195,0.561092757 2.68398195,1.24902875 C2.68398195,1.45882132 2.741217,1.67348961 2.83664111,1.85401543 L3.27181192,8.11632969 L7.75371215,8.11757033 L9.59200311,12.5224946 L12.0055318,11.5544961 L11.6317935,10.6443611 L10.2810802,11.1429999 L8.50242624,6.94350116 L4.33523389,6.97213518 L4.2780231,6.17906718 L7.29473991,6.18029541 L7.29473991,5.00685898 L4.16294643,5.00560593 L4.02455357,2.49316938 L4.02455357,2.49316938 Z" id="Shape" sketch:type="MSShapeGroup"></path>
            <path d="M8.53217197,11.4741769 C7.77571817,13.0034419 6.19242527,14.0109425 4.50359084,14.0109425 C2.02309783,14.0109425 0,11.9419486 0,9.40518305 C0,7.62404293 1.05553669,5.9688652 2.63060462,5.23513711 L2.73253106,6.59543905 C1.80092682,7.19579812 1.22663529,8.27905229 1.22663529,9.41451268 C1.22663529,11.254757 2.69424495,12.7556361 4.49364324,12.7556361 C6.13989713,12.7556361 7.54369662,11.4635818 7.73512714,9.80605929 L8.53217197,11.4741769 L8.53217197,11.4741769 Z" id="Shape" sketch:type="MSShapeGroup"></path>
        </g>
        <g id="Wheelchair_symbol-2-+-Rectangle-33" sketch:type="MSLayerGroup" transform="translate(51.000000, 30.000000)">
            <g id="Wheelchair_symbol-2" transform="translate(4.000000, 2.000000)" fill="#000000" sketch:type="MSShapeGroup">
                <g id="Shape">
                    <g>
                        <g>
                            <path d="M4.02455357,2.49316938 C4.64474961,2.43461108 5.12660132,1.8881703 5.12660132,1.24902875 C5.12660132,0.561092757 4.57795516,0 3.9052795,0 C3.23260384,0 2.68398195,0.561092757 2.68398195,1.24902875 C2.68398195,1.45882132 2.741217,1.67348961 2.83664111,1.85401543 L3.27181192,8.11632969 L7.75371215,8.11757033 L9.59200311,12.5224946 L12.0055318,11.5544961 L11.6317935,10.6443611 L10.2810802,11.1429999 L8.50242624,6.94350116 L4.33523389,6.97213518 L4.2780231,6.17906718 L7.29473991,6.18029541 L7.29473991,5.00685898 L4.16294643,5.00560593 L4.02455357,2.49316938 L4.02455357,2.49316938 Z"></path>
                            <path d="M8.53217197,11.4741769 C7.77571817,13.0034419 6.19242527,14.0109425 4.50359084,14.0109425 C2.02309783,14.0109425 0,11.9419486 0,9.40518305 C0,7.62404293 1.05553669,5.9688652 2.63060462,5.23513711 L2.73253106,6.59543905 C1.80092682,7.19579812 1.22663529,8.27905229 1.22663529,9.41451268 C1.22663529,11.254757 2.69424495,12.7556361 4.49364324,12.7556361 C6.13989713,12.7556361 7.54369662,11.4635818 7.73512714,9.80605929 L8.53217197,11.4741769 L8.53217197,11.4741769 Z"></path>
                        </g>
                    </g>
                </g>
            </g>
            <rect id="Rectangle-33" stroke="#979797" sketch:type="MSShapeGroup" x="0" y="0" width="18" height="18"></rect>
        </g>
        <text id="Women" sketch:type="MSTextLayer" font-family="Sonar" font-size="9" font-weight="normal" fill="#000000">
            <tspan x="98" y="203">Women</tspan>
        </text>
        <text id="Women" sketch:type="MSTextLayer" font-family="Sonar" font-size="9" font-weight="normal" fill="#000000">
            <tspan x="36" y="27.8321217">Women</tspan>
        </text>
        <text id="All" sketch:type="MSTextLayer" font-family="Sonar" font-size="9" font-weight="normal" sketch:alignment="middle" fill="#000000">
            <tspan x="142.714355" y="29">All</tspan>
            <tspan x="132.732178" y="41">Gender</tspan>
        </text>
        <text id="Men" sketch:type="MSTextLayer" font-family="Sonar" font-size="9" font-weight="normal" fill="#000000">
            <tspan x="157" y="203">Men</tspan>
        </text>
        <text id="Emergency,-accessabi" sketch:type="MSTextLayer" font-family="Sonar" font-size="9" font-weight="normal" sketch:alignment="right">
            <tspan x="226.655762" y="30" fill="#000000">Emergency, accessability, support. </tspan>
            <tspan x="268.254395" y="42" fill="#000000">If you need help call us: </tspan>
            <tspan x="283.279297" y="54" font-weight="420" fill="#671990">+49 30 57700332</tspan>
        </text>
        <path d="M1,0 L421,0" id="Dividing-Line" stroke="#979797" fill="#D8D8D8" sketch:type="MSShapeGroup"></path>
        <g id="final_flag_sticker" sketch:type="MSLayerGroup" transform="translate(34.500000, 167.500000)">
            <g id="Page-1" sketch:type="MSShapeGroup">
                <g id="eurucamp">
                    <path d="M32.9346494,17.6699293 L0.0594740854,20.9886837 C0.0594740854,20.9886837 2.10328354,15.1860103 2.10328354,10.2139127 C2.10328354,5.24181519 0.0594740854,0.0617187279 0.0594740854,0.0617187279 L32.9346494,3.37976325 L23.9428673,10.3175573 L32.9346494,17.6699293" id="Fill-1" fill="#48C4A9"></path>
                    <path d="M4.03724085,0.463518728 L23.1347195,18.6588117 L32.9346494,17.6699293 L23.9428674,10.3175573 L32.9346494,3.37976325 L4.03724085,0.463518728" id="Fill-2" fill="#8BEFD9"></path>
                    <path d="M13.0773018,4.33386077 C9.36681856,4.33386077 6.68978506,6.97182686 6.68978506,10.6604361 C6.68978506,14.3753113 9.189096,16.8088279 13.203247,16.8088279 C15.5017455,16.8088279 17.7736555,15.937788 18.8847713,14.0672173 L15.9817362,12.0440194 C15.2491555,13.1457749 14.3899299,13.5802301 13.3298917,13.5802301 C12.1439085,13.5802301 11.0579817,12.863947 10.9313369,11.5570322 L19.213628,11.531476 C19.2640061,11.1729795 19.2640061,10.8407491 19.2640061,10.5078088 C19.2640061,6.84475583 16.9913963,4.33386077 13.0773018,4.33386077 L13.0773018,4.33386077 L13.0773018,4.33386077 Z M10.9824146,9.01882718 C11.2343049,7.94262794 12.0935305,7.32785971 13.1024909,7.32785971 C14.1128506,7.32785971 14.9461875,7.94262794 15.2246661,9.01882718 L10.9824146,9.01882718 L10.9824146,9.01882718 Z" id="Fill-3" fill="#FFFFFF"></path>
                </g>
            </g>
        </g>
        <circle id="Oval-3" fill="#F938CF" sketch:type="MSShapeGroup" cx="26" cy="284" r="5"></circle>
        <text id="Activity-Meeting-Poi" sketch:type="MSTextLayer" font-family="Sonar" font-size="9" font-weight="normal" fill="#000000">
            <tspan x="39.5" y="286.162109">Activity Meeting Point</tspan>
        </text>
        <circle id="Oval-3-Copy-4" fill="#913BBE" sketch:type="MSShapeGroup" cx="146.5" cy="149.5" r="7.5"></circle>
        <circle id="Oval-3-Copy-5" fill="#913BBE" sketch:type="MSShapeGroup" cx="206.5" cy="237.5" r="7.5"></circle>
        <circle id="Oval-3-Copy-3" fill="#913BBE" sketch:type="MSShapeGroup" cx="26" cy="284" r="5"></circle>
        <text id="1" sketch:type="MSTextLayer" font-family="Sonar" font-size="17" font-weight="420" fill="#FFFFFF">
            <tspan x="144" y="155">1</tspan>
        </text>
        <text id="2" sketch:type="MSTextLayer" font-family="Sonar" font-size="16" font-weight="420" fill="#FFFFFF">
            <tspan x="202" y="241">2</tspan>
        </text>
        <text id="Leasure-area" sketch:type="MSTextLayer" font-family="Sonar" font-size="9" font-weight="normal" fill="#979797">
            <tspan x="247" y="100">Leisure area</tspan>
        </text>
        <polygon id="Triangle-7" stroke="#979797" fill="#D8D8D8" sketch:type="MSShapeGroup" points="218.5 219 222 233 215 233 "></polygon>
        <polygon id="Triangle-7-Copy" stroke="#979797" fill="#D8D8D8" sketch:type="MSShapeGroup" transform="translate(395.500000, 223.000000) scale(1, -1) translate(-395.500000, -223.000000) " points="395.5 216 399 230 392 230 "></polygon>
        <polygon id="Triangle-7-Copy-2" stroke="#979797" fill="#D8D8D8" sketch:type="MSShapeGroup" points="395.5 133 399 147 392 147 "></polygon>
        <path d="M348.736133,195.271763 L336.598285,195.271763 L336.598285,236.771763 L218.355198,236.771763 L218.355198,233.916451" id="Line" stroke="#979797" stroke-linecap="square" sketch:type="MSShapeGroup"></path>
        <path d="M383.795729,195.5 L395.45729,195.5 L395.45729,215.933081" id="Line" stroke="#979797" stroke-linecap="square" sketch:type="MSShapeGroup"></path>
        <path d="M383.405852,188.5 L395.405851,188.5 L395.405852,147" id="Line" stroke="#979797" stroke-linecap="square" sketch:type="MSShapeGroup"></path>
        <path d="M140.930029,97.7794027 C145.219959,93.5243636 154.882871,86.8919617 166.032379,83.3894026 C181.071611,78.6649071 198.589335,78.953299 207.139793,78.953299 L207.139793,85.9954817 C202.634315,85.9954817 185.382955,85.0778079 171.430298,89.2375705 C161.508965,92.1954579 153.980766,98.1040085 151.587378,100.467694 C145.232682,106.743527 145,112 145,112 L134,112 C134,112 135.741921,103.753682 140.930029,97.7794027 Z" id="Rectangle-36" fill="#D8D8D8" sketch:type="MSShapeGroup"></path>
        <g id="jrubyconf_logo" sketch:type="MSLayerGroup" transform="translate(271.000000, 170.000000)">
            <path d="M21.101683,8.60319682 C21.2735733,7.45938743 21.4431829,6.31428654 21.6137047,5.16607086 L17.4599044,4.66291932 C17.385933,4.65403079 17.2772947,4.68411504 17.2186041,4.73015307 L16.255912,5.48415866 L20.7112996,11.1644608 C20.8413767,10.3108581 20.9731263,9.45725535 21.101683,8.60319682" id="Fill-15" fill="#FFFFFF" sketch:type="MSShapeGroup"></path>
            <path d="M30.0830846,8.27424526 L28.2781223,5.97317972 L26.8584498,5.80118288 C26.5662135,7.75665936 26.2552752,9.70955284 25.9721618,11.6660169 L30.0600493,8.46432305 C30.1187399,8.41851293 30.1290031,8.33289436 30.0830846,8.27424526" id="Fill-16" fill="#FFFFFF" sketch:type="MSShapeGroup"></path>
            <path d="M30.6330423,6.35493067 C30.5870478,6.29612963 30.4889008,6.24097516 30.4147774,6.23193469 L28.2781223,5.97317972 L30.0830846,8.27424526 C30.1290031,8.33289436 30.1187399,8.41851293 30.0600493,8.46432305 L25.9721618,11.6660169 C25.9003191,12.1628629 25.8296167,12.6597089 25.7620314,13.1571627 C25.700604,13.6110095 25.6068664,14.0427489 25.4704032,14.4494181 L32.6012282,8.8642309 L30.6330423,6.35493067" id="Fill-17" fill="#FFFFFF" sketch:type="MSShapeGroup"></path>
            <path d="M13.1912317,8.05681816 L19.1682401,15.6772507 C19.2359775,15.6078898 19.304095,15.5386049 19.3716044,15.4693959 C19.9617788,14.8628487 20.2740095,14.1269241 20.3935192,13.2956566 C20.4959996,12.5847262 20.6028894,11.8745555 20.7112996,11.1644608 L16.255912,5.48415866 L13.214343,7.86658844 C13.1557285,7.91270243 13.1453132,7.99816906 13.1912317,8.05681816" id="Fill-18" fill="#FFFFFF" sketch:type="MSShapeGroup"></path>
            <path d="M20.0834933,4.17800066 L20.1811841,3.35714116 L16.2796315,2.88445373 L15.1085575,3.80187152 C15.0498669,3.84760566 15.0395277,3.9333002 15.0854462,3.9919493 L16.255912,5.48415866 L17.2186041,4.73015307 C17.2772947,4.68411504 17.385933,4.65403079 17.4599044,4.66291932 L21.6137047,5.16607086 C21.6433541,4.96566111 21.6730795,4.76585913 21.7028809,4.56522146 L21.6668455,4.56544938 L20.0834933,4.17800066" id="Fill-19" fill="#FFFFFF" sketch:type="MSShapeGroup"></path>
            <mask id="mask-2" sketch:name="Clip 21" fill="white">
                <use xlink:href="#path-1"></use>
            </mask>
            <g id="Clip-21"></g>
            <path d="M27.0434922,4.64240733 C27.026843,4.69140819 27.0137669,4.74755027 27.0042639,4.81265685 C26.9564447,5.14221618 26.9077894,5.4717755 26.8584498,5.80118288 L28.2781223,5.97317972 L27.2117334,4.61376651 L27.0434922,4.64240733" id="Fill-20" fill="#FFFFFF" sketch:type="MSShapeGroup" mask="url(#mask-2)"></path>
            <path d="M19.1128186,0.665360179 L16.2796315,2.88445373 L20.1811841,3.35714116 L20.4931867,0.736164533 L19.3541188,0.598202401 C19.2800714,0.58908596 19.1715852,0.619474095 19.1128186,0.665360179" id="Fill-22" fill="#FFFFFF" sketch:type="MSShapeGroup" mask="url(#mask-2)"></path>
            <path d="M35.6658324,6.29172335 L32.5272568,2.29021375 C32.4812623,2.23164062 32.3831153,2.17633421 32.3089919,2.1671418 L29.0518948,1.77270381 L28.5820664,4.37924608 L27.2117334,4.61376651 L28.2781223,5.97317972 L30.4147774,6.23193469 C30.4889008,6.24097516 30.5870478,6.29612963 30.6330423,6.35493067 L32.6012282,8.8642309 L35.6427972,6.48195307 C35.7014117,6.43599102 35.711979,6.35044842 35.6658324,6.29172335" id="Fill-24" fill="#FFFFFF" sketch:type="MSShapeGroup" mask="url(#mask-2)"></path>
            <path d="M23.8660684,16.708624 C23.051471,17.3220845 22.2361134,17.9364566 21.4123171,18.5380657 L22.1403991,19.4664232 C22.1863937,19.5251483 22.2720727,19.5354043 22.3306873,19.4895182 L33.7485827,10.546746 C33.8071972,10.5009358 33.8177645,10.4150894 33.771618,10.3565162 L32.6012282,8.8642309 L25.4704032,14.4494181 C25.1739096,15.3341687 24.675268,16.099266 23.8660684,16.708624" id="Fill-25" fill="#FFFFFF" sketch:type="MSShapeGroup" mask="url(#mask-2)"></path>
            <mask id="mask-4" sketch:name="Clip 27" fill="white">
                <use xlink:href="#path-3"></use>
            </mask>
            <g id="Clip-27"></g>
            <path d="M13.5298427,2.64811001 L9.52558156,5.78431746 C9.46704306,5.83027952 9.45655175,5.91597406 9.50269833,5.97447122 L18.0259032,16.8413442 C18.4087601,16.4534397 18.7894884,16.0656871 19.1682401,15.6772507 L13.1912317,8.05681816 C13.1453132,7.99816906 13.1557285,7.91270243 13.214343,7.86658844 L16.255912,5.48415866 L15.0854462,3.9919493 C15.0395277,3.9333002 15.0498669,3.84760566 15.1085575,3.80187152 L16.2796315,2.88445373 L13.7711429,2.58072432 C13.6970195,2.57191176 13.5883812,2.60199601 13.5298427,2.64811001" id="Fill-26" fill="#FFFFFF" sketch:type="MSShapeGroup" mask="url(#mask-4)"></path>
            <path d="M21.101683,8.60319682 C21.2734972,7.45938743 21.4432589,6.31428654 21.6137047,5.16614683 L17.4598283,4.66291932 C17.385857,4.65403079 17.2773707,4.68411504 17.2185281,4.73015307 L16.255912,5.48415866 L20.7113756,11.1644608 C20.8414527,10.3108581 20.9731263,9.45725535 21.101683,8.60319682" id="Fill-41" fill="#FFFFFF" sketch:type="MSShapeGroup" mask="url(#mask-4)"></path>
            <path d="M30.0830846,8.27424526 L28.2781223,5.97317972 L26.8584498,5.80118288 C26.5662135,7.75665936 26.2552752,9.70947687 25.9721618,11.6660169 L30.0600493,8.46432305 C30.1187399,8.41851293 30.1290031,8.33281839 30.0830846,8.27424526" id="Fill-42" fill="#FFFFFF" sketch:type="MSShapeGroup" mask="url(#mask-4)"></path>
            <path d="M30.6330423,6.35493067 C30.5870478,6.29612963 30.4889008,6.24097516 30.4147774,6.23193469 L28.2781223,5.97317972 L30.0830846,8.27424526 C30.1290031,8.33281839 30.1187399,8.41851293 30.0600493,8.46432305 L25.9721618,11.6660169 C25.9003191,12.1628629 25.8296167,12.6597089 25.7620314,13.1571627 C25.700604,13.6110095 25.6068664,14.0427489 25.4704032,14.4494181 L32.6012282,8.86415493 L30.6330423,6.35493067" id="Fill-43" fill="#FFFFFF" sketch:type="MSShapeGroup" mask="url(#mask-4)"></path>
            <path d="M13.1912317,8.05681816 L19.1683161,15.6772507 C19.2359775,15.6078898 19.304171,15.5386049 19.3716044,15.4693959 C19.9617788,14.8628487 20.2740855,14.1269241 20.3935952,13.2956566 C20.4960756,12.5847262 20.6029654,11.8745555 20.7113756,11.1644608 L16.255912,5.48415866 L13.214343,7.86658844 C13.1557285,7.91270243 13.1453132,7.99824503 13.1912317,8.05681816" id="Fill-44" fill="#FFFFFF" sketch:type="MSShapeGroup" mask="url(#mask-4)"></path>
            <path d="M20.0835693,4.17800066 L20.1812602,3.35706519 L16.2797075,2.88445373 L15.1085575,3.80187152 C15.0497909,3.84760566 15.0395277,3.9333002 15.0854462,3.9919493 L16.255912,5.48415866 L17.2185281,4.73015307 C17.2773707,4.68411504 17.385857,4.65403079 17.4598283,4.66291932 L21.6137047,5.16614683 C21.6433541,4.96566111 21.6730795,4.7659351 21.7029569,4.56514549 L21.6668455,4.56544938 L20.0835693,4.17800066" id="Fill-45" fill="#FFFFFF" sketch:type="MSShapeGroup" mask="url(#mask-4)"></path>
            <path d="M27.0434922,4.6424833 C27.026843,4.69148417 27.0137669,4.74755027 27.0042639,4.81265685 C26.9564447,5.14221618 26.9077894,5.4717755 26.8584498,5.80118288 L28.2781223,5.97317972 L27.2117334,4.61376651 L27.0434922,4.6424833" id="Fill-46" fill="#FFFFFF" sketch:type="MSShapeGroup" mask="url(#mask-4)"></path>
            <path d="M19.1127426,0.665360179 L16.2797075,2.88445373 L20.1812602,3.35706519 L20.4932627,0.736164533 L19.3540428,0.598278371 C19.2800714,0.58908596 19.1715852,0.619474095 19.1127426,0.665360179" id="Fill-48" fill="#FFFFFF" sketch:type="MSShapeGroup" mask="url(#mask-4)"></path>
            <path d="M35.6658324,6.29172335 L32.5272568,2.29021375 C32.4812623,2.23164062 32.3831153,2.17625824 32.3089919,2.16721777 L29.0518948,1.77270381 L28.5820664,4.37924608 L27.2117334,4.61376651 L28.2781223,5.97317972 L30.4147774,6.23193469 C30.4889008,6.24097516 30.5870478,6.29612963 30.6330423,6.35493067 L32.6012282,8.86415493 L35.6427972,6.48195307 C35.7014117,6.43591505 35.711979,6.35044842 35.6658324,6.29172335" id="Fill-50" fill="#FFFFFF" sketch:type="MSShapeGroup" mask="url(#mask-4)"></path>
            <path d="M23.8660684,16.708624 C23.051471,17.3220845 22.2361134,17.9364566 21.4123171,18.5380657 L22.1403991,19.4664232 C22.1863937,19.5251483 22.2720727,19.5354043 22.3306873,19.4895182 L33.7485827,10.546746 C33.8071972,10.5009358 33.8177645,10.4150894 33.771618,10.3565162 L32.6012282,8.86415493 L25.4704032,14.4494181 C25.1739096,15.3341687 24.675268,16.099266 23.8660684,16.708624" id="Fill-51" fill="#FFFFFF" sketch:type="MSShapeGroup" mask="url(#mask-4)"></path>
            <path d="M13.5299187,2.64811001 L9.52558156,5.78431746 C9.46704306,5.83027952 9.45655175,5.91597406 9.50269833,5.97447122 L18.0258272,16.8413442 C18.4088362,16.4534397 18.7894884,16.0656871 19.1683161,15.6772507 L13.1912317,8.05681816 C13.1453132,7.99824503 13.1557285,7.91270243 13.214343,7.86658844 L16.255912,5.48415866 L15.0854462,3.9919493 C15.0395277,3.9333002 15.0497909,3.84760566 15.1085575,3.80187152 L16.2797075,2.88445373 L13.7712189,2.58072432 C13.6970955,2.57191176 13.5883812,2.60199601 13.5299187,2.64811001" id="Fill-52" fill="#FFFFFF" sketch:type="MSShapeGroup" mask="url(#mask-4)"></path>
        </g>
        <circle id="Oval-3-Copy-6" fill="#913BBE" sketch:type="MSShapeGroup" cx="236.5" cy="70.5" r="7.5"></circle>
        <text id="3" sketch:type="MSTextLayer" font-family="Sonar" font-size="15" font-weight="420" fill="#FFFFFF">
            <tspan x="233" y="74">3</tspan>
        </text>
    </g>
</svg>