<svg xmlns="http://www.w3.org/2000/svg" viewBox="0 0 165.11 1030.1"><defs><style>.cls-1{fill:#ef5255;}.cls-2{fill:#79cfe8;}</style></defs><title>register</title><g id="Layer_2" data-name="Layer 2"><g id="Layer_1-2" data-name="Layer 1"><path class="cls-1" d="M2.8,1030.1V975.3c0-30.4,20-52.2,46.6-52.2,16.8,0,32.2,10.3,41.21,25.1l52.2-32.5v37.4l-45.2,27.1v18.7h45.2v31.2Zm68.6-54.4c0-12.6-9.2-21-20-21s-20,8.4-20,21v23.2h40Z"/><path class="cls-1" d="M2.8,885.21V792.8H31.2V854H57V802.2H86.21V854H114V790h28.8v95.21Z"/><path class="cls-1" d="M73,765.21c-43.4,0-73-33.41-73-76,0-12.2,2.4-29.8,8.2-42.8H40c-6.4,10.4-9.6,25.8-9.6,38.2,0,28.8,17.3,48.2,43,48.2,25,0,42.41-18.4,42.41-46.8a61,61,0,0,0-2.1-16.4H88.61v23.6h-27V638.6H134c7,11.6,12.2,33.8,12.2,51.6C146.21,733.6,115.41,765.21,73,765.21Z"/><path class="cls-1" d="M2.8,599.21V567.4h140v31.81Z"/><path class="cls-1" d="M135.11,531.61h-33.3c7.2-11.1,13-24.1,13-41.4,0-10.61-3.2-25.41-12.4-25.41C82.6,464.8,92,533,45.2,533,19.2,533,.4,512,.4,480.2c0-12.8,3.1-28.2,8.2-38.8H40.7C34.6,451.3,30,465,30,476.8c0,14.8,5.4,24.81,12.8,24.81,19.6,0,9.6-69.61,57-69.61,26.2,0,45.4,21.2,45.4,53.2C145.21,507.61,140,521.41,135.11,531.61Z"/><path class="cls-1" d="M32.4,377v37.61H2.8V307.8H32.4v37.6H142.81V377Z"/><path class="cls-1" d="M2.8,275.81V183.4H31.2v61.21H57V192.8H86.21v51.81H114v-64h28.8v95.21Z"/><path class="cls-1" d="M2.8,145.31V90.51c0-30.41,20-52.21,46.6-52.21,16.8,0,32.2,10.3,41.21,25.1l52.2-32.5V68.3L97.61,95.41v18.7h45.2v31.2Zm68.6-54.4c0-12.6-9.2-21-20-21s-20,8.41-20,21v23.2h40Z"/><path class="cls-2" d="M142.81,1030.1V998.9l19.9-20.9v30.7ZM52.3,982.9v3.6H48.7v3.6H45.1v3.5H41.6v3.6H38v1.7H34.3v-1.1H31.4V975.7c0-11.8,8-19.9,17.9-20.9v27.9h2.8V980h3.7v2.9ZM42,998.9v-1.3h2.5v1.3Zm7.8,0v-.6H51v.6Zm71-18v3.6h-3.6v3.6h-3.5v3.5h-3.6v3.7h-3.5v3.4h-3.7v-3h-3.3v3.2h-2V980.2l16.9-10.2v8h3.3v2.7h2.8V978h3.7v2.9Zm-10.3,17.2v-2.5H113v2.5Zm7.8-.6v-1.2h1.2v1.2ZM37.8,994.2H35V997h2.8Zm7.8,2.4V994h2.5v2.6Zm7.7-.7v-1.2h1.3v1.2Zm53-3.7h-2.8v2.9h2.8Zm7.8,2.4v-2.5h2.5v2.5Zm7.8-.7v-1.2h1.2v1.2ZM41.4,990.6H38.6v2.8h2.8Zm-7.6.4h-2v2h2Zm15.3,2v-2.5h2.6V993Zm7.8-.7v-1.2h1.2v1.2Zm53-3.6h-2.8v2.7h2.8Zm7.7,2.3v-2.5h2.6V991Zm7.8-.6v-1.3h1.2v1.3ZM44.9,987.1H42.2v2.8h2.7Zm-7.1.3h-2v2h2Zm14.9,2v-2.5h2.5v2.5Zm7.8-.6v-1.2h1.2v1.2Zm53-3.7h-2.8v2.8h2.8Zm7.7,2.4v-2.6h2.5v2.6Zm7.8-.7v-1.2h1.2v1.2ZM48.5,983.5H45.7v2.8h2.8Zm7.8,2.4v-2.6h2.5v2.6Zm-22.5-2.3h-2v2h2Zm7.5,0h-2v2h2ZM64,985.2V984h1.3v1.2Zm53-3.7h-2.7v2.8H117Zm7.8,2.4v-2.5h2.5v2.5Zm7.7-.7V982h1.3v1.2Zm-72.71-.9V980h2.5v2.3Zm-22-2.3h-2v2h2Zm7.4-.2h-2v2h2Zm22.4,1.9v-1.3h1.2v1.3Zm60.71-1.4V978h2.6v2.3Zm7.8-.6v-1.2h1.2v1.2ZM41.3,976.2h-2v2h2Zm7.5,0h-2v2h2Zm-15.3.3H32.1v1.4h1.4Zm11.7-4.1h-2v2h2Zm-7.7.5H36.1v1.4h1.4Zm11.3-4.1h-2v2h2Zm-7.8.4H39.7v1.3H41Zm3.9-3.9H43.5v1.4h1.4Zm-7.7.3h-1v1h1Zm11.3-3.8H47.2v1.3h1.3Zm-7.7,0h-1v1h1Zm3.9-3.8h-1v1h1Zm98.11-4.9V915.7l19.9-30.91V921.2Zm-36.3-29.3v4.1H103v3.6h-3.3v3.7h-2.9V939h-3v3.9h-3.5v3.6h3l-2.7,1.7a58,58,0,0,0-8-10.3h2.61v-2.8H82.4v2.6c-1.1-1.1-2.2-2.1-3.3-3.1h2.8v-3.4H78.6v-3.5h3.5V931h3.31v-3.3h-3.2v-3.5h3.5v3.3H89v-3.4h-3.3v-3.5h3.5v3.3h3.4v-3.4h-3.3v-3.4h3.5v3.19h3.3V917h-3.2v-3.5h2.9l.6.5v2.79h2.8l1,1.11v2.2H102c.7.9,1.3,1.7,1.9,2.6v1.2h2.4V922l2.5-1.6h.2v3.4Zm-12.6,22.3v-2.8h3.3v.8Zm5.7-3.5H97v-3h3v2.7Zm-11.1-3.4h-2.2v2.2h2.2Zm11.7-.6v-2.7h2.7v2.7Zm6.8-.6v-1.3h2Zm-14.9-2.4h-2.2v2.1h2.2Zm11.5-.8v-2.4H106v2.4Zm6.4-.2V933h1.6v1.6Zm-21.3-3.1h-2.8v2.8h2.8Zm-13.91-.2h3.7v2.8C77.5,933.3,75.6,931.9,74.8,931.3Zm20.81.6h-2.1v2.2h2.1Zm11.1-.8v-2.2h2.2v2.2ZM74.3,931l-2.5-1.6V928h2.9v3Zm18-3h-2.8v2.7h2.8Zm6.8.2h-2.3v2.4h2.3Zm13.7,2.1v-1.1h1.1v1.1ZM75.3,927.4v-2.9h2.9v2.9Zm20.61-3h-2.8v2.8h2.8ZM68.5,927.1v-2.3h2.3v2.3Zm34.21-2.6h-2.4V927h2.4Zm7,2.3v-1.9h1.9v1.9ZM61.9,925h1.5v.5Zm17-1.2v-2.9h2.9v2.9Zm20.51-3h-2.8v2.81h2.8ZM72,923.5v-2.3h2.4v2.3Zm-6.8-.2v-1.8H67v1.8Zm-6.9-.3v-1.3h1.3V923Zm54.21-.1v-1.61h1.6v1.61Zm-61-.1V922h.8v.8Zm31-2.51v-3h2.91v3ZM75.6,920v-2.4H78V920Zm34-.21,2.1-1.39v1.5ZM68.8,919.7v-1.8h1.8v1.8Zm-6.9-.3v-1.2h1.3v1.2Zm-6.9-.2v-.91h.9v.91Zm60.31-.6v-1.1h1.1v1.1ZM86,916.7v-2.91h2.9v2.91Zm-6.81-.3v-2.3h2.3v2.3Zm-6.9-.3v-1.81h1.8v1.81Zm-6.8-.2v-1.3h1.2v1.3Zm-7-.2v-.91h.9v.91Zm31.11-2.6v-2.9h1.9l1,.69v2.21Zm-6.9-.21V910.5H85.1v2.39Zm-6.81-.29v-1.81h1.8v1.81Zm-6.9-.31V911.1h1.3v1.19Zm-6.9-.19v-.9H63v.9Zm24.21-2.81V907.2l2.4,1.29v.8ZM79.5,909v-1.8h1.7V909Zm-6.9-.3v-1.21h1.2v1.21Zm-6.9-.21v-.79h.8v.79Zm10.5-3.29v-1.31l1.2.2v1.11Zm-7-.21v-.9h.9v.9Z"/><path class="cls-2" d="M142.81,885.21V790l19.9-19.9v95.2ZM146,863.8h-1v1h1Zm3.6-3.6h-1v1h1Zm-3.6-3.8h-1.2v1.3H146Zm7.2.2h-1v1h1Zm-101-19.5v3.5H48.7v3.6H45.1v3.6H41.6v3.5H38V854H34.2v-2.1H31.6V854h-.4V792.8l18.1-19.9v64H52v-2.8h3.8v3ZM42,854v-2.3h2.5V854Zm65.21-16.9v3.5h-3.5v3.6h-3.6v3.6h-3.5v3.5H93V854h-3.8v-2.1H86.6V854h-.39V802.2l18.1-19.9v54.6H107v-2.8h3.8v3ZM97,854v-2.3h2.5V854Zm52.6-1.2h-1.2V854h1.2Zm7.3.1h-1v1h1Zm-107.11.7v-1.2H51v1.2Zm55,0v-1.2H106v1.2Zm-67-5.2H35.1l-.1,2.7h2.8Zm55,0H90v2.7h2.8ZM45.5,850.7v-2.5h2.6v2.5Zm55,0v-2.5h2.6v2.5Zm45.7-1.8h-1.6v1.6h1.6Zm7.1.2h-1.2v1.3h1.2Zm7.2.2h-1v1h1Zm-107.21.8v-1.3h1.2v1.3Zm55,0v-1.3h1.2v1.3Zm-19.8-3.2h-1v1h1ZM41.4,844.8H38.6v2.8h2.8Zm55,0h-2.8v2.8h2.8ZM49.1,847.1v-2.5h2.5v2.5Zm55,0v-2.5h2.5v2.5Zm45.7-1.8h-1.6v1.6h1.6Zm7.1.2h-1.2v1.2h1.2Zm-45,1v-1.2h1.2v1.2ZM33.5,844.9h-1v1h1Zm58.71-1.7h-1v1h1Zm-47.31-2H42.2l-.1,2.8h2.8Zm55,0h-2.8V844h2.8ZM52.7,843.6v-2.5h2.5v2.5Zm55,0v-2.5h2.5v2.5Zm38.7-2.2h-2v2h2Zm7.1.2h-1.6v1.6h1.6Zm7.1.2h-1.2v1.3h1.2ZM37.2,841.2h-1v1h1Zm51.41-1.8h-1.2v1.3h1.2Zm7.2.2h-1v1h1ZM48.5,837.7H45.7v2.7h2.8Zm55,0h-2.8v2.7h2.8Zm7.7,2.3v-2.5h2.5V840Zm38.8-2.2h-2v2h2Zm7.1.2h-1.6v1.6h1.6ZM33.6,837.4H32.4v1.3h1.2Zm7.2.2h-1v1h1Zm51.41-1.8H91V837h1.2Zm7.3.1h-1v1h1Zm47-1.9h-2.3v2.3h2.3Zm7.2.1h-2v2h2Zm7.1.2h-1.6v1.6h1.6ZM37.2,833.8H36V835h1.2Zm7.3.1h-1v1h1Zm44.31-2h-1.6v1.6h1.6Zm7.1.2h-1.2v1.3h1.2Zm7.2.2h-1v1h1Zm47.1-2h-2.4v2.4h2.4Zm7.1.2h-2v2h2ZM33.8,829.9H32.2v1.6h1.6Zm7.1.2H39.7v1.3h1.2Zm7.2.2h-1v1h1Zm44.31-2h-1.6v1.6h1.6Zm7.1.2h-1.2v1.2h1.2Zm47.2-2H144v2.7h2.7Zm7.1.2h-2.3V829h2.3Zm7.2.1h-2v2h2ZM37.4,826.3H35.8v1.6h1.6Zm7.1.2H43.3v1.2h1.2Zm44.41-2.1H87v2h1.9Zm7.2.2h-1.6v1.6h1.6Zm7.1.2H102v1.3h1.2Zm47.2-2h-2.7v2.7h2.7Zm7.1.2h-2.4v2.4h2.4ZM33.9,822.4H32v2h1.9Zm7.2.2H39.5v1.6h1.6Zm7.1.2H47v1.3h1.2Zm44.41-2h-2v2h2Zm7.1.2h-1.6v1.6h1.6Zm47-1.7H144V822h2.7Zm7.3-.1h-2.7v2.7H154Zm7.1.2h-2.3v2.3h2.3ZM37.6,818.8h-2v2h2Zm7.1.2H43.1v1.6h1.6Zm44.41-2h-2.3v2.3h2.3Zm7.2.1h-2v2h2Zm7.1.2h-1.6v1.6h1.6Zm47-1.7h-2.7v2.7h2.7Zm7.3-.1H155v2.7h2.7ZM34.1,815H31.8v2.3h2.3Zm7.2.1h-2v2h2Zm7.1.2H46.8v1.6h1.6Zm44.41-2h-2.4v2.4h2.4Zm7.1.2h-2v2h2Zm46.8-1.5H144v2.7h2.7Zm7.3,0h-2.7v2.7H154Zm7.3-.1h-2.7v2.7h2.7ZM37.8,811.3H35.4v2.4h2.4Zm7.1.2h-2v2h2Zm44.41-2H86.6v2.7h2.71Zm7.1.2h-2.3V812h2.3Zm7.2.1h-2v2h2Zm46.8-1.5h-2.7V811h2.7Zm7.3,0H155V811h2.7ZM34.3,807.5H31.6v2.7h2.7Zm7.1.2H39.1V810h2.3Zm7.2.1h-2v2h2Zm44.41-2h-2.7v2.7H93Zm7.1.2h-2.4v2.4h2.4Zm46.6-1.2H144v2.7h2.7Zm7.3-.1h-2.7v2.7H154Zm7.3,0h-2.7v2.7h2.7ZM38,803.8H35.3v2.7H38Zm7.1.2H42.7v2.4h2.4Zm44.21-1.8H86.6v2.7h2.71Zm7.3,0h-2.7v2.7h2.7Zm7.1.2h-2.3v2.3h2.3Zm46.7-1.3h-2.7v2.7h2.7Zm7.3-.1H155v2.7h2.7ZM34.3,800.2H31.6v2.7h2.7Zm7.3,0H38.9v2.7h2.7Zm7.1.2H46.4v2.3h2.3ZM93,798.5h-2.7v2.7H93Zm7.3,0h-2.7v2.7h2.7Zm46.4-1H144v2.7h2.7Zm7.3,0h-2.7v2.7H154Zm7.3-.1h-2.7v2.7h2.7ZM38,796.5H35.3v2.7H38Zm7.3,0H42.6v2.7h2.7Zm51.31-1.6h-2.7v2.7h2.7Zm7.3,0h-2.7v2.7h2.7Zm46.5-1.1h-2.7v2.7h2.7Zm7.3,0H155v2.7h2.7ZM34.3,792.9H31.6v2.7h2.7Zm7.3,0H38.9v2.7h2.7Zm7.3,0H46.2v2.7h2.7Zm51.41-1.7h-2.7v2.7h2.7Zm46.4-.9H144V793h2.7Zm7.3-.1h-2.7v2.7H154Zm7.3,0h-2.7v2.7h2.7ZM38,789.2H35.3v2.7H38Zm7.3,0H42.6v2.7h2.7Zm58.61-1.6h-2.7v2.7h2.7Zm46.5-1h-2.7v2.7h2.7Zm7.3-.1H155v2.7h2.7ZM41.6,785.6H38.9v2.7h2.7Zm7.3,0H46.2v2.7h2.7ZM154,783h-2.7v2.7H154Zm7.3-.1h-2.7v2.7h2.7Zm-116-1H42.6v2.7h2.7Zm112.41-2.6H155V782h2.7Zm-108.81-1H46.2V781h2.7Zm112.41-2.6h-2.7v2.7h2.7Z"/><path class="cls-2" d="M143.31,726.1l-16.5,16.5c11.8-12.8,19.4-30.9,19.4-52.4,0-1.5,0-3-.1-4.6h.3v-.9H146c-.1-1.9-.2-3.9-.4-5.9h.9v-1.1h-1.1a124.25,124.25,0,0,0-2.7-15.8h.7V660h-1.2c-.3-1.4-1.9-6.8-2.4-8.2h.4v-2.5H139c-1-2.6-2.1-5.1-3.3-7.6H137v-3h-3v-.1l19.9-20.9.8,1.5V621h.8c.6,1.3,1.1,2.6,1.7,4h-2.4v2.8h2.8v-1.7l.8,2.5v2.5h.8c.5,1.5.9,3,1.3,4.6h-1.9v2.2h2.2v-1.1l.3,1.1c.6,2.8,1.2,5.6,1.7,8.4h-.5V648h.8a142.21,142.21,0,0,1,2,22.3C165.11,694.3,156.91,712.5,143.31,726.1ZM65.5,731.3V730h1.4v1.3Zm7.3-.1v-1.1h1v1.1Zm-14.6-1v-.4h1.7v1A7,7,0,0,1,58.2,730.2Zm-3.8-2.1V726h2.2v2.1Zm7.4-.1v-1.8h1.7V728Zm7.3-.2v-1.4h1.3v1.4Zm7.3-.2v-1h1v1Zm-25.7-2.8v-2.5h2.5v2.5Zm7.3-.2v-2.1h2.1v2.1Zm7.3-.2v-1.8h1.8v1.8Zm7.3-.2v-1.4H74v1.4Zm7.3-.2v-1H81v1Zm-35.1-1.9h1.5v1.3Zm2.1-.7v-2.9h2.9v2.9Zm7.3-.2v-2.5h2.6v2.5Zm7.4-.2v-2.1h2.1V721Zm7.3-.2v-1.7h1.7v1.7Zm7.3-.2v-1.3h1.4v1.3Zm7.3-.1v-1h1v1Zm-42.3-2.2h1.7v1.9Zm1.9-.2v-3.4h3.4v3.4Zm7.4-.2v-3h2.9v3Zm7.3-.2v-2.6h2.5v2.6Zm7.3-.2v-2.2h2.2v2.2Zm7.3-.2v-1.8h1.8v1.8Zm7.4-.2v-1.4h1.3v1.4Zm7.3-.2v-1h1v1ZM47.3,666.7a68.69,68.69,0,0,0,1.3,13.2h-1v2h1.5a47.67,47.67,0,0,0,2.8,8.3H50.7v2.7h2.5l.8,1.5v2.3h1.4c.6.9,1.3,1.9,2,2.8v1H53.8V704H50.3v3.6H46.7v3.6H43.1v3.5H39.6v1.5c-.4-.6-.8-1.1-1.2-1.8h1v-3H36.6l-1-2V708H35a36.56,36.56,0,0,1-1.8-4.6h2.2v-2.2H33.1V703a57.18,57.18,0,0,1-2.3-10.8h.5v-1.3h-.6a58.79,58.79,0,0,1-.3-6h.7V684h-.7c.1-12.3,3.2-27.2,9.6-37.6l19.9-19.9C52.5,636.9,47.3,654.3,47.3,666.7Zm-.6,47.8v-3.3h3.4v3.3Zm7.3-.2v-2.9h3v2.9Zm7.4-.2v-2.5h2.5v2.5Zm7.3-.2v-2.1h2.1v2.1Zm7.3-.2v-1a12.09,12.09,0,0,0,1.8.5v.5Zm-33.1-5.9H39.8v3.1h3.1Zm7.4,3.1v-3.3h3.3v3.3Zm7.3-.2v-2.9h2.9v2.9Zm7.3-.1V708h1.6l1.1.7v1.9Zm-18.4-6.4H43.3v3.2h3.2Zm7.3,3.2V704h3.4v3.4Zm-14.6-2.9H36.4v2.7h2.8Zm22,2.7v-3h.5l2.4,2.1v.9ZM50,700.7H46.9v3.1H50Zm7.4,3.1v-3.3h.8l2.5,2.8v.5Zm-14.7-2.9H40v2.7h2.7Zm10.9-3.8H50.5v3.1h3.1Zm-7.3.2H43.6V700h2.7Zm-7.4.3H36.7v2.2h2.2Zm10.9-3.8H47.1v2.7h2.7Zm-7.3.2H40.2v2.3h2.3Zm-7.4.2H33.3V696h1.8Zm72.41-19.9-18.9,18.9V669.6h19.1ZM46.1,690.4H43.8v2.3h2.3Zm-7.4.3H36.9v1.8h1.8Zm10.9-3.8H47.4v2.2h2.2Zm-7.3.2H40.5v1.8h1.8Zm-7.4.2H33.5v1.4h1.4Zm10.9-3.8H44v1.8h1.8Zm-7.3.2H37.1v1.4h1.4Zm111.31-2.4H149v.8h.9ZM42,680.2H40.7v1.3H42Zm-7.3.2h-.9v.9h.9Zm118.61-2.6h-.9v.9h.9ZM45.6,676.6H44.2V678h1.4Zm-7.3.3h-1v.9h1ZM150,674.2h-1.2v1.2H150Zm6.7.2h-.8v.8h.8ZM41.8,673.3h-.9v.9h.9Zm104.81-2.7h-1.4V672h1.4Zm6.8.2h-1.1v1.1h1.1Zm6.8.1h-.9v.9h.9ZM45.4,669.7h-.9v.9h.9Zm104.71-2.5h-1.4v1.4h1.4Zm6.8.1h-1.2v1.2h1.2Zm6.7.2h-.8v.8h.8Zm-16.8-3.9h-1.7v1.7h1.7Zm6.7.1h-1.4v1.4h1.4Zm6.8.2h-1.1V665h1.1Zm-10.1-3.8h-1.7v1.7h1.7Zm6.8.2h-1.4v1.4H157Zm6.8.1h-1.2v1.2h1.2Zm-16.9-3.9h-2v2h2Zm6.8.2H152v1.7h1.7Zm6.7.1H159v1.4h1.4Zm-16.9-3.9h-2.2v2.2h2.2Zm6.8.2h-1.9V655h1.9Zm6.8.1h-1.7v1.7h1.7Zm6.7.2h-1.4v1.4h1.4ZM147,649.5h-2.2v2.2H147Zm6.8.1h-2v2h2Zm6.8.2h-1.7v1.7h1.7Zm-17-3.9h-2.4v2.4l2.5.1Zm6.8.1h-2.2v2.2h2.2Zm6.8.2h-1.9v1.9h1.9Zm-16.9-3.9h-2.7V645h2.7Zm6.8.1h-2.5v2.5h2.5Zm6.8.2h-2.2v2.2h2.2Zm6.8.1h-2v2h2Zm-16.9-3.9H141v2.8h2.8Zm6.7.2h-2.4v2.4l2.5.1Zm6.8.1h-2.2v2.2h2.2Zm-95.71-.5,2.1-2.2v2.2Zm6.1,0v-2.9h2.9v2.9Zm7.3-.1v-2.6h2.5v2.6Zm7.3-.2v-2.2h2.2v2.2Zm58.11-3.1h-3v3h3Zm-50.8,2.9v-1.8h1.8v1.8Zm57.6-2.7h-2.7v2.7h2.7Zm6.8.1h-2.5V638H154Zm-57.1,2.4v-1.4h1.4v1.4Zm7.4-.2v-1h1v1ZM64.8,635.3l2.4-2.6v2.6Zm6.4-.2v-3h3v3Zm7.3-.2v-2.6h2.6v2.6Zm65.41-3.1h-3v3h3Zm-58,2.9v-2.2H88v2.2Zm64.8-2.8h-2.8v2.8h2.8Zm6.7.2H155v2.4l2.5.1Zm-64.2,2.4v-1.8H95v1.8Zm7.3-.2v-1.4h1.4v1.4Zm7.3-.2v-1h1v1ZM68.2,631.7l2.6-2.8v2.8Zm6.6-.2v-2.9h2.9v2.9Zm7.3-.2v-2.5h2.61v2.5Zm65.21-3h-3v3h3Zm6.8.2h-2.7v2.7h2.7Zm-64.7,2.6V629h2.2v2.1Zm7.3-.2v-1.7h1.8v1.7Zm7.4-.1v-1.5h1.4v1.5Zm7.3-.2v-1.1h1v1.1ZM71.5,628.2l2.9-3v3Zm6.8-.2v-3h3v3Zm72.51-3.1h-3v3h3Zm-65.1,2.9v-2.6h2.5v2.6Zm7.3-.2v-2.2h2.2v2.2Zm7.3-.2v-1.8h1.8v1.8Zm7.3-.2v-1.4H109v1.4Zm7.4-.2v-1h1v1ZM74.9,624.6l3-3.1v3.1Zm7-.2v-3h3v3Zm72.31-3h-3v3h3Zm-65,2.8v-2.6h2.6v2.6Zm7.3-.2v-2.2h2.2V624Zm7.4-.2V622h1.8v1.8Zm7.3-.2v-1.4h1.4v1.4Zm7.3-.2v-1h1v1ZM78.3,621l3.2-3.3V621Zm7.2-.2v-2.9h2.91v2.9Zm7.31-.2v-2.5h2.6v2.5Zm7.3-.1v-2.2h2.2v2.2Zm7.3-.2v-1.8h1.8v1.8Zm7.4-.2v-1.4h1.4v1.4Zm7.3-.2v-1h1v1Z"/><path class="cls-2" d="M142.81,599.21V567.4l19.9-20.9v32.8ZM42.1,549.2v3.6H38.5v3.6H34.9V560H31.3v3.6H27.7v3.8H2.8l19.9-20.9h2.1v2.1h2.4v-2.1h4.5v2.3h2.9v-2.3h4.1v2.6H42v-2.6h3.7v2.7ZM24,563.7H20.7v3.4H24Zm7.4,3.4v-3.3h3.3v3.3Zm-14.8-3.2H13.7v2.9h2.9Zm22.1,2.9v-3h3v3ZM9.2,564.1H6.8v2.5H9.2ZM46,566.6V564h2.6v2.6Zm7.3-.2v-2.2h2.2v2.2Zm7.4-.2v-1.8h1.8v1.8ZM68,566v-1.4h1.4V566Zm7.3-.2v-1h1v1Zm-47.7-5.7H24.3v3.4h3.3Zm7.4,3.3v-3.3h3.3v3.3Zm-14.8-3.1H17.3v3h2.9Zm22.1,2.9v-3h2.9v3Zm-29.5-2.7H10.4v2.6h2.4ZM49.6,563v-2.6h2.6V563Zm7.3-.2v-2.2h2.2v2.2Zm7.3-.2v-1.8H66v1.8Zm7.4-.2V561H73v1.4Zm7.3-.2v-1h1v1Zm-47.7-5.7H27.9v3.4h3.3Zm7.4,3.3v-3.3h3.3v3.3Zm-14.8-3.1H20.9v2.9h2.9Zm22,2.9v-2.9h3v2.9Zm-29.4-2.7H14v2.5h2.4Zm36.8,2.5v-2.5h2.5v2.5Zm7.3-.1v-2.2h2.2v2.2Zm7.3-.2v-1.8h1.8v1.8Zm7.3-.2v-1.4h1.4v1.4Zm7.4-.2v-1h1v1Zm-47.7-5.8H31.5v3.4h3.3Zm7.4,3.3v-3.3h3.3v3.3Zm7.2-.1v-3h3v3Zm-22-3H24.5V556h2.9Zm29.3,2.8v-2.6h2.6v2.6ZM20,553.3H17.6v2.5H20Zm44,2.4v-2.2h2.2v2.2Zm7.4-.2v-1.8h1.8v1.8Zm7.3-.2v-1.4h1.4v1.4Zm7.31-.2v-1h1v1ZM38.4,549.3H35.1v3.4h3.3Zm7.4,3.3v-3.3h3.3v3.3Zm7.2-.1v-2.9h2.9v2.9Zm-22-3H28.1v2.9H31Zm29.3,2.8v-2.6h2.6v2.6Zm-36.7-2.6H21.2v2.5h2.4Zm44,2.4v-2.2h2.2v2.2Zm7.3-.2v-1.8h1.8v1.8Zm7.4-.2v-1.4h1.41v1.4Zm7.31-.2v-1h1v1ZM49.4,549v-2.5h3.3V549Zm7.1-.1v-2.4h3v2.4Zm7.3-.1v-2.3h2.6v2.3Zm7.4-.2v-2.1h2.2v2.1Zm7.3-.2v-1.8h1.8v1.8Zm7.31-.2v-1.4h1.4v1.4Zm7.3-.2v-1h1v1Z"/><path class="cls-2" d="M152,438.4v-3.6h3.6V433l1.2,2h-1.1v3.2h2.9l.9,1.8v1.5h.7c.6,1.5,1.2,3,1.7,4.6h-2.2v2.3H162v-1.9a68.57,68.57,0,0,1,2.4,10.7h-.7v1.5h.9a76.63,76.63,0,0,1,.5,8.6c0,21.41-5.2,34.61-10.1,44.41l-19.9,19.9c4.9-10.2,10.1-24,10.1-46.41a72.12,72.12,0,0,0-2.5-19h1.5v-2.3H142a67.56,67.56,0,0,0-3.3-7.8h2.4v-3.3h-3.2v1.8l-1.2-2h1.1v-3.5h3.5v-3.6h3.6v-3.6h3.5v-3.5ZM68.2,525.11l.8-.7A5,5,0,0,1,68.2,525.11Zm.8-.7a42.51,42.51,0,0,0,8.5-11v.2h1.4v-1.4h-.7c5.4-10.1,8.11-20.91,11.11-30.31H90v-2.1c.5-1.3.9-2.5,1.4-3.6v2.2h2.2v-2.2h-2.2a26.77,26.77,0,0,1,4.7-8.4h1.2v-1.1a7.65,7.65,0,0,1,5.1-1.9,8.26,8.26,0,0,1,6.2,2.8l-.5,1.3h-2.6v2.5h1.7l-3,8.3H102V482h1.4c-.9,2.8-2.1,5.8-3.2,8.5h-1.6v2.1h.7a47.9,47.9,0,0,1-8,12.11C84.4,511.81,75.4,518.71,69,524.41Zm12-15.8v1.5h1.6v-1.5Zm5.21-2V505H84.5v1.6Zm3.6-3.5v-1.8h-1.7v1.8ZM40.4,500v1.21l-1.2-.5V500Zm53-.39v-1.9h-1.8v1.9Zm-7.2-.11v-1.69H84.5v1.69ZM37.6,495.71v2.9H36.3l-1.6-2V496h-.4a24.14,24.14,0,0,1-2.2-4.9h1.6V489H31.6v.6A49.2,49.2,0,0,1,30,476.8c0-11.8,4.6-25.5,10.7-35.4l19.9-19.9c-6.6,9.7-11.7,24.1-11.7,34.8a41.09,41.09,0,0,0,2.3,15H49.4v2h2.1v-1.2c.4.9.8,1.8,1.3,2.7v3h2.1l.5.6v2.3H52.5v-2.5H49.3v3.2h2.5v2.9H48.9v-2.6H45.7V485h2.6v2.9H45.4v-2.6H42.1v3.2h2.6v2.91H41.8V488.8H38.6v3.3h2.6V495H38.3v-2.59H35v3.3Zm6.3,2H42.7V496.5h1.2ZM97,496.11v-2h-1.9v2Zm-7.2-.11v-1.79H88V496ZM47.4,494.11H46.3V493h1.1Zm46.11-1.61v-2h-2v2ZM51,490.6H49.8v-1.2H51ZM97.11,489v-2.1H95V489Zm-7.2-.1V487h-2v1.9ZM37.3,487.6v-2.2H35.1v2.2Zm17.2-.6H53.4v-1.2h1.1Zm46.21-1.5v-2.2h-2.2v2.2Zm-7.2-.1v-2.1h-2v2.1ZM40.8,484v-2.1H38.7V484Zm-7.2-.1V482H31.7v1.9Zm112.61-1.5v1h.9v-1Zm-49.1-.5v-2.2H95v2.2ZM44.4,480.4v-2.1H42.3v2.1Zm-7.3-.1v-1.9H35.3v1.9Zm112.61-1.4v.9h1v-.9Zm-48.9-.5v-2.3h-2.3v2.3ZM48,476.9v-2.2H45.8v2.2Zm-7.3-.2v-1.8H38.8v1.8Zm-7.3-.1v-1h-.9v1Zm112.51-1.5v1.4h1.4v-1.4Zm7.4.2v.9h.9v-.9Zm-56.1-.4v-2.4h-2.3v2.4Zm7.2,0v-2.4H102v2.4ZM44.3,473.2v-1.9H42.4v1.9ZM37,473v-.9H36v.9Zm112.51-1.5v1.4h1.4v-1.4Zm7.4.2v1h.9v-1Zm-56.1-.4v-2.4h-2.4v2.4Zm-53-1.7v-1.9H46v1.9Zm97.91-1.9v1.9h1.9v-1.9ZM40.6,469.5v-1h-1v1ZM153,467.9v1.4h1.5v-1.4Zm7.4.3v.9h.9v-.9Zm-56-.4v-2.5h-2.5v2.5Zm44.9-3.6V466h1.8v-1.8ZM44.1,465.9v-1h-.9v1Zm112.51-1.5v1.4H158v-1.4Zm7.4.2v.9h.9v-.9Zm-18.5-4.2v2.3h2.3v-2.3Zm7.3.2v1.9h1.9v-1.9ZM47.7,462.3v-.9h-1v.9Zm112.51-1.5v1.4h1.4v-1.4Zm-18.5-4.2v2.7h2.7v-2.7Zm7.3.2v2.3h2.4v-2.3Zm7.4.2v1.9h1.9V457Zm-11.1-4v2.8H148V453Zm7.3.2v2.4h2.3v-2.4Zm7.4.3v1.8h1.8v-1.8Zm-18.5-4.3v3.2h3.2v-3.2Zm7.3.3v2.7h2.8v-2.7Zm7.4.2V452h2.3v-2.3Zm-18.5-.7h-3.3v-3.3h3.3Zm7.4-3.3v3.2h3.1v-3.2Zm7.3.2v2.7h2.7v-2.7Zm-11.1-3.7v3.3H138v-3.3Zm-7.1,3.1h-2.9v-2.9h2.9Zm14.4-3.2v3.2h3.2v-3.2Zm7.4.2v2.8h2.7v-2.8Zm-14.5-.4v-3.3h3.3v3.3Zm-6.9-.2v-2.9h2.9v2.9Zm17.6-3.1v3.1h3.2v-3.1Zm-24.6.4h2.6v2.5h-2.6Zm20.8-4v3.4h-3.3V435Zm-10.3,3.2v-3h3v3Zm-6.9-.2v-2.6h2.6V438Zm-6.9-.2v-2.2h2.1v2.2Zm-6.7-2.1h1.5v.7Zm31-.9v-3.3H152v3.3Zm-6.9-.2v-3h3v3Zm-6.9-.2v-2.6h2.5v2.6Zm-7-.2V432H130v2.2Zm-6.9-.2v-1.8h1.8V434Zm-7-1.6h1.5v1.5h-1.5Zm38.3-1.2v-2.6l2.1,2.6Zm-6.9-.2v-2.9h2.9V431Zm-7-.2v-2.5h2.6v2.5Zm-6.9-.2v-2.1h2.2v2.1Zm-7-.1v-1.9h1.9v1.9Zm-6.9-.2v-1.5H119v1.5Zm-7-.1V429h1.2v1.2Zm-7-1.1h.9v.9h-.9Zm45.3-1.6v-2.3l2.4,2.3Zm-6.9-.2v-2.6h2.6v2.6Zm-6.9-.2v-2.2h2.1v2.2Zm-7-.2v-1.8h1.8v1.8Zm-7-.1v-1.6h1.6v1.6Zm-6.9-.2v-1.2h1.2v1.2Zm-7-1.1h.9v.9h-.9Zm38.4-1.8v-1.3l1.7,1.3Zm-7-.2v-2.2h2.2v2.2Zm-6.9-.1v-1.9h1.8v1.9Zm-7-.2v-1.5h1.5v1.5Zm-7-.2v-1.2h1.2V423Zm-6.9-1h.9v.9h-.9Zm24.4-2.2v-1.9H137v1.9Zm-5.4-1.7v1.5h-1.5v-1.5Zm-7.3.2v1.2h-1.2v-1.2Zm-7.3.1v.9h-.9v-.9Zm16.6-2.3v-.4l1.4.4Zm-6.9-1.4H126v1.2h-1.2Zm-6.1.2v.9h-.9v-.9Z"/><path class="cls-2" d="M32.4,414.61V377H52.3v17.71Zm4-8.5H33.7v2.7h2.7Zm3.6-3.6H37.3v2.7H40Zm3.7-3.7H41v2.7h2.7Zm-7.5.2H33.9v2.3h2.3Zm11.1-3.8H44.6v2.7h2.7Zm-7.4.1H37.5v2.4h2.4ZM51,391.5H48.3v2.71H51Zm-7.5.21H41.2V394h2.3Zm-7.5.2H34v2h2ZM47.2,388H44.8v2.41h2.4Zm-7.5.21h-2v2h2Zm11.1-3.8H48.5v2.3h2.3Zm-7.5.19h-2v2h2Zm-7.5.2H34.2v1.61h1.6ZM47,380.9H45v2h2Zm-7.5.2H37.9v1.61h1.6Zm11.1-3.8H48.7v2h1.9Zm-7.5.2H41.5v1.6h1.6Zm-7.5.1H34.4v1.3h1.2Zm107.21-.6V345.4l19.9-20.9v32.6ZM52.2,331.3V328H49.8l-1.1,1.1v2.3H52v3.5H48.6v-3.3H46.2l-1.1,1.1V335h3.4v3.5H45v-3.4H42.7l-1.1,1.1v2.4h3.3V342H41.5v-3.3H39.1L38,339.8v2.3h3.3v3.3H37.9v-3.2H35.6l-1.2,1.2v2h-2V307.8l19.9-19.9v40h3.3v3.4Zm-6.8,13.8v-2.9h2.9v2.9Zm7.2,0v-2.5h2.5v2.5Zm7.4-.3v-1.9h2v1.9Zm7.4-.2v-1.5h1.5v1.5Zm7.4-.3v-.9h.9v.9Zm-26-2.5v-3h3v3Zm7.4-.3v-2.4h2.5v2.4Zm7.4-.2v-2h1.9v2ZM71,341v-1.4h1.4V341Zm7.3-.2v-1h1v1Zm-42.6-2.6H34.5v1.3h1.2Zm16.7,0v-2.9h2.9v2.9Zm7.4-.2v-2.5h2.4V338Zm7.4-.3v-1.9h1.9v1.9Zm7.3-.2V336H76v1.5Zm7.4-.3v-.9h1v.9Zm-42.6-2.6H38.1v1.2h1.2Zm16.7,0v-2.9h2.9v2.9Zm7.3-.2v-2.5h2.5v2.5Zm7.4-.3v-1.9h2v1.9Zm7.4-.2v-1.5h1.5v1.5Zm7.4-.3v-.9h.91v.9Zm-49.6-2.9H34.3v1.6h1.6Zm7.1.2H41.8v1.3H43Zm16.5.2v-3h3v3Zm7.4-.3v-2.4h2.5v2.4Zm7.4-.2v-2h1.9v2Zm7.41-.3v-1.4H83.1v1.4Zm7.3-.2v-1h1v1Zm-49.51-3H37.9v1.6h1.6Zm7.1.2H45.4v1.2h1.2Zm9.1.5v-3.3h3.5v3.3Zm7.4-.3v-2.9H66v2.9Zm7.4-.2v-2.5h2.4v2.5Zm7.3-.3v-1.9h2V327Zm7.41-.2v-1.5h1.5v1.5Zm7.4-.3v-.9h.9v.9ZM36,323.2H34.1v2H36Zm7.2.2H41.6V325h1.6Zm7.1.2H49.1v1.3h1.2Zm-10.6-4h-2v2h2Zm7.1.2H45.2v1.6h1.6Zm-10.6-4H33.9v2.3h2.3Zm7.2.1h-2v2h2Zm7.1.2H48.9v1.6h1.6Zm-10.6-4H37.5v2.4h2.4Zm7.1.2H45v2h2Zm-10.6-4H33.7V311h2.7Zm7.1.2H41.2v2.3h2.3Zm7.2.1h-2v2h2Zm-10.6-4H37.4v2.7h2.7Zm7.1.2H44.8v2.4h2.4ZM43.7,301H41v2.7h2.7Zm7.1.2H48.5v2.3h2.3Zm-3.4-3.9H44.7V300h2.7Zm3.6-3.6H48.3v2.7H51Z"/><path class="cls-2" d="M142.81,275.81V180.6l19.9-19.9v95.21Zm3.2-21.4h-1v1h1Zm3.6-3.6h-1v1h1ZM146,247h-1.2v1.3H146Zm7.2.2h-1v1h1Zm-101-19.5v3.5H48.7v3.6H45.1v3.6H41.6v3.5H38v2.7H34.2v-2.1H31.6v2.1h-.4V183.4l18.1-19.9v64H52v-2.8h3.8v3ZM42,244.61v-2.3h2.5v2.3Zm65.21-16.9v3.5h-3.5v3.6h-3.6v3.6h-3.5v3.5H93v2.7h-3.8v-2.1H86.6v2.1h-.39V192.8l18.1-19.9v54.61H107v-2.8h3.8v3ZM97,244.61v-2.3h2.5v2.3Zm52.6-1.2h-1.2v1.2h1.2Zm7.3.1h-1v1h1Zm-107.11.7V243H51v1.2Zm55,0V243H106v1.2Zm-67-5.2H35.1l-.1,2.7h2.8Zm55,0H90v2.7h2.8Zm-47.31,2.3v-2.5h2.6v2.5Zm55,0v-2.5h2.6v2.5Zm45.7-1.8h-1.6v1.6h1.6Zm7.1.2h-1.2V241h1.2Zm7.2.2h-1v1h1Zm-107.21.8v-1.3h1.2v1.3Zm55,0v-1.3h1.2v1.3Zm-19.8-3.2h-1v1h1Zm-47.11-2.1H38.6v2.8h2.8Zm55,0h-2.8v2.8h2.8Zm-47.31,2.3v-2.5h2.5v2.5Zm55,0v-2.5h2.5v2.5Zm45.7-1.8h-1.6v1.6h1.6Zm7.1.2h-1.2v1.2h1.2Zm-45,1v-1.2h1.2v1.2Zm-78.41-1.6h-1v1h1Zm58.71-1.7h-1v1h1Zm-47.31-2H42.2l-.1,2.8h2.8Zm55,0h-2.8v2.8h2.8Zm-47.21,2.4v-2.5h2.5v2.5Zm55,0v-2.5h2.5v2.5Zm38.7-2.2h-2v2h2Zm7.1.2h-1.6v1.6h1.6Zm7.1.2h-1.2v1.3h1.2Zm-123.41-.6h-1v1h1ZM88.61,230h-1.2v1.3h1.2Zm7.2.2h-1v1h1Zm-47.31-1.9H45.7V231h2.8Zm55,0h-2.8V231h2.8Zm7.7,2.3v-2.5h2.5v2.5Zm38.8-2.2h-2v2h2Zm7.1.2h-1.6v1.6h1.6ZM33.6,228H32.4v1.3h1.2Zm7.2.2h-1v1h1Zm51.41-1.8H91v1.2h1.2Zm7.3.09h-1v1h1Zm47-1.89h-2.3v2.3h2.3Zm7.2.1h-2v2h2Zm7.1.2h-1.6v1.59h1.6Zm-123.61-.5H36v1.2h1.2Zm7.3.09h-1v1h1Zm44.31-2h-1.6v1.61h1.6Zm7.1.21h-1.2V224h1.2Zm7.2.2h-1v1h1Zm47.1-2h-2.4v2.39h2.4Zm7.1.2h-2v2h2ZM33.8,220.5H32.2v1.61h1.6Zm7.1.21H39.7V222h1.2Zm7.2.2h-1v1h1Zm44.31-2h-1.6v1.59h1.6Zm7.1.19h-1.2v1.2h1.2Zm47.2-2H144v2.7h2.7Zm7.1.2h-2.3v2.3h2.3Zm7.2.1h-2v2h2ZM37.4,216.9H35.8v1.6h1.6Zm7.1.2H43.3v1.2h1.2ZM88.91,215H87v2h1.9Zm7.2.21h-1.6v1.59h1.6Zm7.1.19H102v1.31h1.2Zm47.2-2h-2.7v2.7h2.7Zm7.1.2h-2.4V216h2.4ZM33.9,213H32v2h1.9Zm7.2.2H39.5v1.6h1.6Zm7.1.2H47v1.31h1.2Zm44.41-2h-2v2h2Zm7.1.2h-1.6v1.6h1.6Zm47-1.7H144v2.7h2.7Zm7.3-.1h-2.7v2.7H154Zm7.1.2h-2.3v2.3h2.3ZM37.6,209.4h-2v2h2Zm7.1.2H43.1v1.6h1.6Zm44.41-2h-2.3v2.3h2.3Zm7.2.1h-2v2h2Zm7.1.2h-1.6v1.6h1.6Zm47-1.7h-2.7v2.7h2.7Zm7.3-.1H155v2.7h2.7ZM34.1,205.6H31.8v2.3h2.3Zm7.2.1h-2v2h2Zm7.1.2H46.8v1.6h1.6Zm44.41-2h-2.4v2.4h2.4Zm7.1.2h-2v2h2Zm46.8-1.5H144v2.7h2.7Zm7.3,0h-2.7v2.7H154Zm7.3-.1h-2.7v2.7h2.7ZM37.8,201.9H35.4v2.4h2.4Zm7.1.2h-2v2h2Zm44.41-2H86.6v2.7h2.71Zm7.1.2h-2.3v2.3h2.3Zm7.2.1h-2v2h2Zm46.8-1.5h-2.7v2.7h2.7Zm7.3,0H155v2.7h2.7ZM34.3,198.1H31.6v2.7h2.7Zm7.1.2H39.1v2.3h2.3Zm7.2.1h-2v2h2Zm44.41-2h-2.7v2.7H93Zm7.1.2h-2.4V199h2.4Zm46.6-1.2H144v2.7h2.7Zm7.3-.1h-2.7V198H154Zm7.3,0h-2.7V198h2.7ZM38,194.4H35.3v2.7H38Zm7.1.2H42.7V197h2.4Zm44.21-1.8H86.6v2.7h2.71Zm7.3,0h-2.7v2.7h2.7Zm7.1.2h-2.3v2.3h2.3Zm46.7-1.3h-2.7v2.7h2.7Zm7.3-.1H155v2.7h2.7ZM34.3,190.8H31.6v2.7h2.7Zm7.3,0H38.9v2.7h2.7Zm7.1.2H46.4v2.3h2.3ZM93,189.1h-2.7v2.7H93Zm7.3,0h-2.7v2.7h2.7Zm46.4-1H144v2.7h2.7Zm7.3,0h-2.7v2.7H154Zm7.3-.1h-2.7v2.7h2.7ZM38,187.1H35.3v2.7H38Zm7.3,0H42.6v2.7h2.7Zm51.31-1.6h-2.7v2.7h2.7Zm7.3,0h-2.7v2.7h2.7Zm46.5-1.1h-2.7v2.7h2.7Zm7.3,0H155v2.7h2.7ZM34.3,183.5H31.6v2.7h2.7Zm7.3,0H38.9v2.7h2.7Zm7.3,0H46.2v2.7h2.7Zm51.41-1.7h-2.7v2.7h2.7Zm46.4-.9H144v2.7h2.7Zm7.3-.1h-2.7v2.7H154Zm7.3,0h-2.7v2.7h2.7ZM38,179.8H35.3v2.7H38Zm7.3,0H42.6v2.7h2.7Zm58.61-1.6h-2.7v2.7h2.7Zm46.5-1h-2.7v2.7h2.7Zm7.3-.1H155v2.7h2.7ZM41.6,176.2H38.9v2.7h2.7Zm7.3,0H46.2v2.7h2.7ZM154,173.6h-2.7v2.7H154Zm7.3-.1h-2.7v2.7h2.7Zm-116-1H42.6v2.7h2.7Zm112.41-2.6H155v2.7h2.7Zm-108.81-1H46.2v2.7h2.7Zm112.41-2.6h-2.7V169h2.7Z"/><path class="cls-2" d="M142.81,145.31v-31.2l19.9-20.9v30.7ZM52.3,98.11v3.6H48.7v3.6H45.1v3.5H41.6v3.6H38v1.7H34.3V113H31.4V90.91c0-11.8,8-19.91,17.9-20.91V97.91h2.8v-2.7h3.7v2.9Zm-10.3,16v-1.3h2.5v1.3Zm7.8,0v-.6H51v.6Zm71-18v3.6h-3.6v3.6h-3.5v3.5h-3.6v3.7h-3.5v3.4h-3.7v-3h-3.3v3.2h-2V95.41l16.9-10.2v8h3.3v2.7h2.8v-2.7h3.7v2.9Zm-10.3,17.2v-2.5H113v2.5Zm7.8-.6v-1.2h1.2v1.2Zm-80.51-3.3H35v2.8h2.8Zm7.8,2.4v-2.6h2.5v2.6Zm7.7-.7v-1.2h1.3v1.2Zm53-3.7h-2.8v2.9h2.8Zm7.8,2.4v-2.5h2.5v2.5Zm7.8-.7v-1.2h1.2v1.2Zm-80.51-3.3H38.6v2.8h2.8Zm-7.6.4h-2v2h2Zm15.3,2v-2.5h2.6v2.5Zm7.8-.7v-1.2h1.2v1.2Zm53-3.6h-2.8v2.7h2.8Zm7.7,2.3v-2.5h2.6v2.5Zm7.8-.6v-1.3h1.2v1.3Zm-80.51-3.3H42.2v2.8h2.7Zm-7.1.3h-2v2h2Zm14.9,2v-2.5h2.5v2.5Zm7.8-.6v-1.2h1.2V104Zm53-3.7h-2.8v2.8h2.8Zm7.7,2.4v-2.6h2.5v2.6Zm7.8-.7v-1.2h1.2V102ZM48.5,98.71H45.7v2.8h2.8Zm7.8,2.4v-2.6h2.5v2.6Zm-22.5-2.3h-2v2h2Zm7.5,0h-2v2h2Zm22.7,1.6v-1.2h1.3v1.2Zm53-3.7h-2.7v2.8H117Zm7.8,2.4v-2.5h2.5v2.5Zm7.7-.7v-1.2h1.3v1.2Zm-72.71-.9v-2.3h2.5v2.3Zm-22-2.3h-2v2h2Zm7.4-.2h-2v2h2Zm22.4,1.9v-1.3h1.2v1.3Zm60.71-1.4v-2.3h2.6v2.3Zm7.8-.6v-1.2h1.2v1.2ZM41.3,91.41h-2v2h2Zm7.5,0h-2v2h2Zm-15.3.3H32.1v1.4h1.4Zm11.7-4.1h-2v2h2Zm-7.7.5H36.1v1.4h1.4ZM48.8,84h-2v2h2Zm-7.8.4H39.7v1.3H41Zm3.9-3.91H43.5v1.41h1.4Zm-7.7.31h-1v1h1ZM48.5,77H47.2v1.31h1.3Zm-7.7,0h-1v1h1Zm3.9-3.79h-1v1h1Zm98.11-4.91V30.9L162.71,0V36.4ZM106.51,39v4.1H103v3.6h-3.3v3.7h-2.9v3.8h-3v3.9h-3.5v3.6h3l-2.7,1.7a58,58,0,0,0-8-10.3h2.61V50.3H82.4v2.6c-1.1-1.1-2.2-2.1-3.3-3.1h2.8V46.4H78.6V42.9h3.5v3.3h3.31V42.9h-3.2V39.4h3.5v3.3H89V39.3h-3.3V35.8h3.5v3.3h3.4V35.7h-3.3V32.3h3.5v3.2h3.3V32.2h-3.2V28.7h2.9l.6.5V32h2.8l1,1.1v2.2H102c.7.9,1.3,1.7,1.9,2.6v1.2h2.4V37.2l2.5-1.6h.2V39ZM93.91,61.3V58.5h3.3v.8Zm5.7-3.5H97v-3h3v2.7Zm-11.1-3.4h-2.2v2.2h2.2Zm11.7-.6V51.1h2.7v2.7Zm6.8-.6V51.9h2Zm-14.9-2.4h-2.2v2.1h2.2Zm11.5-.8V47.6H106V50Zm6.4-.2V48.2h1.6v1.6Zm-21.3-3.1h-2.8v2.8h2.8ZM74.8,46.5h3.7v2.8C77.5,48.5,75.6,47.1,74.8,46.5Zm20.81.6h-2.1v2.2h2.1Zm11.1-.8V44.1h2.2v2.2ZM74.3,46.2l-2.5-1.6V43.2h2.9v3Zm18-3h-2.8v2.7h2.8Zm6.8.2h-2.3v2.4h2.3Zm13.7,2.1V44.4h1.1v1.1ZM75.3,42.6V39.7h2.9v2.9Zm20.61-3h-2.8v2.8h2.8ZM68.5,42.3V40h2.3v2.3Zm34.21-2.6h-2.4v2.5h2.4Zm7,2.3V40.1h1.9V42ZM61.9,40.2h1.5v.5Zm17-1.2V36.1h2.9V39Zm20.51-3h-2.8v2.8h2.8ZM72,38.7V36.4h2.4v2.3Zm-6.8-.2V36.7H67v1.8Zm-6.9-.3V36.9h1.3v1.3Zm54.21-.1V36.5h1.6v1.6Zm-61-.1v-.8h.8V38Zm31-2.5v-3h2.91v3Zm-6.9-.3V32.8H78v2.4Zm34-.2,2.1-1.4v1.5ZM68.8,34.9V33.1h1.8v1.8Zm-6.9-.3V33.4h1.3v1.2ZM55,34.4v-.9h.9v.9Zm60.31-.6V32.7h1.1v1.1ZM86,31.9V29h2.9v2.9Zm-6.81-.3V29.3h2.3v2.3Zm-6.9-.3V29.5h1.8v1.8Zm-6.8-.2V29.8h1.2v1.3Zm-7-.2V30h.9v.9Zm31.11-2.6V25.4h1.9l1,.7v2.2Zm-6.9-.2V25.7H85.1v2.4Zm-6.81-.3V26h1.8v1.8ZM69,27.5V26.3h1.3v1.2Zm-6.9-.2v-.9H63v.9Zm24.21-2.8V22.4l2.4,1.3v.8Zm-6.81-.3V22.4h1.7v1.8Zm-6.9-.3V22.7h1.2v1.2Zm-6.9-.2v-.8h.8v.8Zm10.5-3.3V19.1l1.2.2v1.1Zm-7-.2v-.9h.9v.9Z"/></g></g></svg>