<svg xmlns="http://www.w3.org/2000/svg" viewBox="0 0 165.11 1105.9"><defs><style>.cls-1{fill:#ef5255;}.cls-2{fill:#79cfe8;}</style></defs><title>schedule</title><g id="Layer_2" data-name="Layer 2"><g id="Layer_1-2" data-name="Layer 1"><path class="cls-1" d="M135.11,1104.5h-33.3c7.2-11.1,13-24.1,13-41.4,0-10.6-3.2-25.41-12.4-25.41-19.81,0-10.41,68.21-57.21,68.21-26,0-44.8-21-44.8-52.8,0-12.81,3.1-28.21,8.2-38.81H40.7c-6.1,9.9-10.7,23.61-10.7,35.41,0,14.8,5.4,24.8,12.8,24.8,19.6,0,9.6-69.61,57-69.61,26.2,0,45.4,21.2,45.4,53.21C145.21,1080.5,140,1094.3,135.11,1104.5Z"/><path class="cls-1" d="M73.4,982C33.6,982,0,951.8,0,908c0-13.4,3.1-29.8,8.9-39.2H41.1c-6.9,8-11.1,21.6-11.1,35.4,0,29.2,18.6,44.61,42,44.61,24.11,0,43.61-16.21,43.61-45.81,0-12.1-3.4-24.8-8.9-34.2h31.6c5.1,9.1,7.9,26,7.9,39C146.21,952,113,982,73.4,982Z"/><path class="cls-1" d="M2.8,833.4V801.8h54V749.39H2.8v-31.6h140v31.6h-56V801.8h56v31.6Z"/><path class="cls-1" d="M2.8,676.8V584.39H31.2V645.6H57V593.8H86.21v51.8H114v-64h28.8V676.8Z"/><path class="cls-1" d="M2.8,546.3V499.1c0-40.4,27.2-73.21,70.2-73.21,43.61,0,69.81,32.81,69.81,73.21v47.2Zm110.71-47.2c0-23-13.6-41.2-40.51-41.2-26.5,0-39.9,18.2-39.9,41.2v15.6h80.41Z"/><path class="cls-1" d="M82.8,398H2.8V366.4H81c27.21,0,35.81-14.6,35.81-29.4s-8.6-29.4-35.81-29.4H2.8V276h80c45.41,0,63.41,25.3,63.41,61C146.21,372.5,128.21,398,82.8,398Z"/><path class="cls-1" d="M2.8,236V204.4H113V143.8h29.8V236Z"/><path class="cls-1" d="M2.8,115.11V22.7H31.2V83.91H57V32.1H86.21V83.91H114v-64h28.8v95.21Z"/><path class="cls-2" d="M37.6,1068.6v2.9H36.3l-1.6-2v-.6h-.4a24.14,24.14,0,0,1-2.2-4.9h1.6v-2.1H31.6v.6a49.2,49.2,0,0,1-1.6-12.8c0-11.8,4.6-25.51,10.7-35.41l19.9-19.9c-6.6,9.7-11.7,24.1-11.7,34.8a41.11,41.11,0,0,0,2.3,15H49.4v2h2.1V1045c.4.9.8,1.8,1.3,2.7v3h2.1l.5.6v2.3H52.5v-2.5H49.3v3.2h2.5v2.9H48.9v-2.6H45.7v3.3h2.6v2.9H45.4v-2.6H42.1v3.2h2.6v2.9H41.8v-2.6H38.6v3.3h2.6v2.9H38.3v-2.6H35v3.3Zm-4-11.8v-1.9H31.7v1.9Zm-.2-7.3v-1h-.9v1Zm3.9,11v-2.2H35.1v2.2Zm-.2-7.3v-1.9H35.3v1.9Zm-.1-7.3v-.9H36v.9Zm3.8,11v-2.1H38.7v2.1Zm-.1-7.3v-1.8H38.8v1.8Zm-.3,23.3v1.2l-1.2-.5v-.7Zm.2-30.5v-1h-1v1Zm3.8,10.9v-2.1H42.3v2.1Zm-.1-7.21v-1.89H42.4v1.89Zm-.4,24.51H42.7v-1.2h1.2Zm.2-31.81v-1h-.9v1Zm3.9,11v-2.21H45.8v2.21Zm-.2-7.3v-1.91H46v1.91Zm-.4,24.5H46.3v-1.1h1.1Zm.3-31.81v-.9h-1v.9ZM51,1063.5H49.8v-1.2H51Zm3.5-3.6H53.4v-1.2h1.1ZM68.2,1098l.8-.7A5,5,0,0,1,68.2,1098Zm.8-.7a42.51,42.51,0,0,0,8.5-11v.2h1.4v-1.4h-.7c5.4-10.1,8.1-20.9,11.1-30.3H90v-2.1c.5-1.3.91-2.5,1.41-3.6v2.2h2.2v-2.2h-2.2a26.82,26.82,0,0,1,4.7-8.41h1.2v-1.1a7.7,7.7,0,0,1,5.1-1.9,8.27,8.27,0,0,1,6.2,2.81l-.5,1.29h-2.6v2.51h1.7l-3,8.3H102v2.3h1.4c-.9,2.8-2.1,5.8-3.2,8.5h-1.6v2.1h.7a48,48,0,0,1-8,12.1C84.4,1084.7,75.4,1091.6,69,1097.3Zm12-15.8v1.5h1.6v-1.5Zm5.21-9.1v-1.7H84.5v1.7Zm0,7.1v-1.6H84.5v1.6Zm3.7-17.7v-1.9h-2v1.9Zm-.11,7.1v-1.8H88v1.8Zm0,7.1v-1.8H88.11v1.8Zm3.7-17.7v-2.1h-2v2.1Zm0,7.1v-2h-2v2Zm-.09,7.1v-1.9h-1.8v1.9Zm3.8-24.7v-2.4h-2.3v2.4Zm-.1,7v-2.2H95v2.2Zm0,7.1v-2.1H95v2.1ZM97,1069v-2h-1.9v2Zm3.8-24.8v-2.41h-2.4v2.41Zm0,7.1V1049h-2.3v2.3Zm-.1,7.1v-2.2h-2.2v2.2Zm3.7-17.71v-2.5h-2.5v2.5Zm0,7.11v-2.4H102v2.4Zm-.9-45.81h.9v.9h-.9Zm3.6-3.6h.9v.9h-.9Zm3.4,4.7v-1.2h1.2v1.2Zm.2-8.2h.9v.9h-.9Zm3.2,10.4h1.5v1.5h-1.5Zm.2-5.8v-1.2h1.2v1.2Zm1-8.2v.9h-.9v-.9Zm2.4,11.9v-1.5H119v1.5Zm.1-7.3v-1.2h1.2v1.2Zm0,12.7h1.5v.7Zm1.1-20.8v.9h-.9v-.9Zm2.2,19.1v-1.8h1.8v1.8Zm.1-7.2v-1.6h1.6v1.6Zm1.4-8.5v1.2h-1.2v-1.2Zm1.9,19.5v-2.2h2.1v2.2Zm.1-7.3v-1.9h1.9v1.9Zm.2-7.3v-1.5h1.5v1.5Zm.2-8.5H126v1.2h-1.2Zm2.8,24.3h2.6v2.5h-2.6Zm.2-4.8v-2.2H130v2.2Zm.2-7.3V998h1.8v1.8Zm1.7-8.8v1.5h-1.5V991Zm1.5,19.9v-2.6h2.6v2.6Zm3,7.3h-2.9v-2.9h2.9Zm-2.8-14.7v-2.1h2.2v2.1Zm.2-7.2v-1.9h1.8v1.9Zm.1-7.3v-.4l1.4.4Zm6,32.9h-3.3v-3.3h3.3Zm-3.1-7.3v-2.9h2.9v2.9Zm.2-7.3v-2.6h2.5v2.6Zm.2-7.3v-2.2h2.1v2.2Zm.1-7.3v-1.9H137v1.9Zm16.9,18.6v-3.6h3.6v-1.8l1.2,2h-1.1v3.2h2.9l.9,1.8v1.5h.7c.6,1.5,1.2,3,1.7,4.6h-2.2v2.3H162v-1.9a68.57,68.57,0,0,1,2.4,10.7h-.7v1.5h.9a76.63,76.63,0,0,1,.5,8.6c0,21.41-5.2,34.61-10.1,44.41l-19.9,19.9c4.9-10.2,10.1-24,10.1-46.4a72.25,72.25,0,0,0-2.5-19h1.5v-2.3H142a68.32,68.32,0,0,0-3.3-7.8h2.4v-3.3h-3.2v1.8l-1.2-2h1.1V1022h3.5v-3.6h3.6v-3.6h3.5v-3.5Zm-10.7,3.8v3.3H138v-3.3Zm-3.2-4v-3h3v3Zm.2-7.4v-2.5h2.6v2.5Zm.2-7.3v-2.2h2.2v2.2Zm3,18.4v-3.3h3.3v3.3Zm0,7.3v3.2h3.2v-3.2Zm.2-14.6v-3h3v3Zm0,22v2.7h2.7v-2.7Zm.2-29.3v-2.6h2.6v2.6Zm6.5,7.7v3.4h-3.3v-3.4Zm-3.3,10.7v3.2h3.1v-3.2Zm.2-14.7V1001h2.9v2.9Zm0,22v2.8H148v-2.8Zm.2-29.3v-1.3l1.7,1.3Zm0,36.7v2.3h2.3v-2.3Zm.2,7.3v1.91h1.9v-1.91Zm.2,7.41v1.4h1.4V1048Zm.3,7.3v1h.9v-1Zm2.4-47.61v-3.3H152v3.3Zm0,7.3v3.2h3.2V1015Zm.2-14.6v-2.3l2.4,2.3Zm0,22v2.7h2.8v-2.7Zm.2,7.3V1032h2.4v-2.31Zm.3,7.4v1.81h1.8v-1.81Zm.2,7.31v1.4h1.4v-1.4Zm.2,7.4v.9h1v-.9Zm2.5-47.71v-2.6l2.1,2.6Zm0,7.4v3.1h3.2v-3.1Zm.2,7.3v2.7h2.7v-2.7Zm.2,7.3v2.4h2.3v-2.4Zm.2,7.41v1.89h1.9v-1.89Zm.2,7.29v1.41h1.5v-1.41Zm.3,7.41v.9h.9v-.9Zm2.7-33v2.8h2.7v-2.8Zm.2,7.4v2.3h2.3v-2.3Zm.2,7.3v1.9h1.9v-1.9Zm.2,7.4v1.4H158v-1.4Zm.3,7.3v1h.9v-1Zm3.1-18.2v1.8h1.8v-1.8Zm.2,7.3v1.4h1.4v-1.4Zm.2,7.4v.91h.9v-.91Zm3.6-3.59v.9h.9v-.9Z"/><path class="cls-2" d="M46.9,886.29A54.46,54.46,0,0,0,50.3,906H48.5v2.5H51v-.9l.8,1.7v3h1.6l1.7,2.5v1.3h1a20.94,20.94,0,0,0,2.4,2.8v.6H55.1v-3.3H51.6v3.5h3.3v3.4H51.5v-3.4H48v3.6H44.4v3.5h3.4v3.4H44.4v-3.3H40.9v3.5h3.3v3.4H40.8v-3.4H37.3v1l-.8-1.2H37v-3.1H34.8a48.46,48.46,0,0,1-3-8.1H33v-2.1H31.3a62.73,62.73,0,0,1-1.3-12.7c0-13.8,4.2-27.4,11.1-35.4L61,848.89C53.2,857.39,46.9,872.49,46.9,886.29ZM32.7,910H31.2v1.6h1.5Zm-.2-6.8H31.4v1h1.1Zm4.3,17H34.2v2.6h2.6Zm-.3-6.9h-2v2.1h2Zm-.2-6.8H34.7V908h1.6Zm-.3-6.9H35v1.1h1Zm4.6,24h-3v3h3Zm-.2-6.9H37.8v2.5h2.6Zm-.3-6.9H38v2.1h2.1Zm-.2-6.9H38.3v1.6h1.6Zm-.3-6.8h-1v1h1ZM39.1,934h1.5v1.8Zm5.1-14H41.1v3h3.1Zm-.3-6.9H41.4v2.6h2.5Zm-.2-6.9H41.6v2.1h2.1Zm-.3-6.8H41.9v1.5h1.5Zm-.2-6.9H42.1v1h1.1Zm-.7,45.2H44v1.4Zm2.1-.6v-2.9h3v2.9Zm3.1-20.7h-3v3.1h3Zm-.2-6.9H44.9v2.6h2.6Zm-.3-6.8h-2v2h2Zm-.2-6.9H45.4v1.6H47Zm-.3-6.9h-1V890h1Zm1.3,37.7v-3.3h3.3v3.3Zm3.3-13.7H48.2v3h3.1Zm-3.1,20.7v-3h2.9v3Zm.2,6.91v-2.61h2.5v2.61ZM51.7,930v-3h3v3Zm.2,6.9v-2.5h2.6v2.5Zm.3,6.9v-2.1h2.1v2.1Zm3.1-17.4v-2.9h2.9v2.9Zm.2,6.9v-2.5H58v2.5Zm.2,6.9v-2h2.1v2Zm.2,5.9v-.59h1.7v1.2Zm3-23.2v-3h.6l2.3,2.1v.9Zm.2,6.9v-2.5h2.5v2.5Zm.2,6.9v-2.1h2.1v2.1Zm.2,6.9V941.9h1.7v1.69Zm3.1-17.4v-2.5h1.5l1.1.7v1.8Zm.3,6.9V931h2v2.1Zm.1,7v-1.7h1.8v1.7Zm.2,6.91v-1.31h1.4V947Zm3.2-17.41v-2.1h2.1v2.1Zm.2,6.91v-1.71h1.7v1.71Zm.2,6.9v-1.31h1.3v1.31Zm3.4-10.51v-1.7h1.7v1.7Zm.2,7V938.5h1.3v1.39Zm.1,6.9v-1h1v1Zm3.2-17.4v-.9l1.7.6v.3Zm.2,6.9V935h1.4v1.3Zm.2,7v-1h1v1Zm3.4-10.5v-1.4h1.3v1.4Zm.2,6.9v-1h1v1Zm3.5-3.6v-1h1v1Zm3.6-3.5v-1h1v1Zm57.71,11-16.3,16.31c12.4-13,20-31,20-52.11a109.48,109.48,0,0,0-4.3-30.1h1.6v-2.2h-2.3a34.62,34.62,0,0,0-2.9-6.7l19.9-19.9c3.2,6.5,5.4,17,6.3,27.2h-.7v1h.8c.3,3.7.5,7.4.5,10.8C165.11,912.49,155.71,930.39,142.51,943.59Zm1.2-75.6H141v2.6h2.7Zm3.7-3.7h-2.7V867h2.7Zm-.3,7.5h-2.2v2.3h2.2Zm-.2,7.5h-1.8v1.9h1.8Zm-.2,7.6h-1.3v1.4h1.3Zm4.3-26.3h-2.6v2.7H151Zm-.2,7.6h-2.2v2.2h2.2Zm-.2,7.5h-1.8v1.8h1.8Zm-.2,7.5H149v1.4h1.4Zm-.2,7.6h-1v.9h1Zm4.5-33.8H152v2.6h2.7Zm-.2,7.5h-2.3v2.2h2.3Zm-.2,7.5h-1.9v1.9h1.9Zm-.3,7.6h-1.4v1.3H154Zm-.2,7.5h-.9v.9h.9Zm4.5-33.8h-2.6V856h2.6Zm-.2,7.5h-2.2v2.3h2.2Zm-.2,7.6h-1.8v1.8h1.8Zm-.2,7.5h-1.4v1.4h1.4Zm-.2,7.5h-1v1h1Zm3.7-26.2h-1.7v2.2h2.3Zm.4,7.5h-1.8v1.8h1.8Zm-.2,7.5H160v1.4h1.4Zm-.3,7.6h-.9v.9h.9Z"/><path class="cls-2" d="M42.1,699.59v3.6H38.5v3.6H34.9v3.6H31.3V714H27.7v3.4H24v-3.3H20.7v3.7H2.8l19.9-20.9h2.1V699h2.4v-2.1h4.5v2.3h2.9v-2.3h4.1v2.6H42v-2.6h3.7v2.7Zm0,84v3.6H38.5v3.6H34.9v3.6H31.3V798H27.7v3.4H24v-3.3H20.7v3.7H2.8l19.9-20.9h2.1V783h2.4v-2.1h4.5v2.3h2.9v-2.3h4.1v2.6H42v-2.6h3.7v2.7ZM9.2,714.49H6.8V717H9.2Zm0,84H6.8V801H9.2Zm3.6-87.61H10.4v2.6h2.4Zm0,84H10.4v2.6h2.4Zm3.8-80.61H13.7v2.9h2.9Zm0,84H13.7v2.9h2.9Zm-.2-91H14v2.5h2.4Zm0,84H14v2.5h2.4Zm3.8-80.61H17.3v3h2.9Zm0,84H17.3v3h2.9Zm-.2-91H17.6v2.5H20Zm0,84H17.6v2.5H20Zm3.8-80.61H20.9V710h2.9Zm0,84H20.9V794h2.9Zm-.2-91H21.2v2.5h2.4Zm0,84H21.2v2.5h2.4Zm4-73.61H24.3v3.4h3.3Zm0,84H24.3v3.4h3.3Zm-.2-91H24.5v2.9h2.9Zm0,84H24.5v2.9h2.9Zm3.8-80.61H27.9v3.4h3.3Zm0,84H27.9v3.4h3.3Zm-.2-91H28.1v2.9H31Zm0,84H28.1v2.9H31Zm.4-66.51v-3.3h3.3v3.3Zm0,84v-3.3h3.3v3.3Zm3.4-98.11H31.5v3.4h3.3Zm0,84H31.5v3.4h3.3Zm.2-73.51v-3.3h3.3v3.3Zm0,84v-3.3h3.3v3.3Zm3.4-98.11H35.1v3.4h3.3Zm0,84H35.1v3.4h3.3Zm.2-73.51v-3.3h3.3v3.3Zm0,84v-3.3h3.3v3.3Zm.1-77v-3h3v3Zm0,84v-3h3v3Zm3.5-94.61v-3.3h3.3v3.3Zm0,84v-3.3h3.3v3.3Zm.1-77v-3h2.9v3Zm0,84v-3h2.9v3ZM45.8,703v-3.3h3.3V703Zm0,7v-2.9h3V710Zm0,77v-3.3h3.3V787Zm0,7v-2.9h3V794Zm.2-77v-2.6h2.6V717Zm0,84v-2.6h2.6V801Zm3.4-101.61v-2.5h3.3v2.5Zm0,7.1v-3h3v3Zm0,76.91v-2.5h3.3v2.5Zm0,7.1v-3h3v3Zm.2-77.11v-2.6h2.6v2.6Zm0,84v-2.6h2.6v2.6ZM53,702.89V700h2.9v2.9Zm0,84V784h2.9v2.9Zm.2-77.11v-2.5h2.5v2.5Zm0,84v-2.5h2.5v2.5Zm.1-77v-2.2h2.2v2.2Zm0,84v-2.2h2.2v2.2Zm3.2-101.51v-2.4h3v2.4Zm.2,7v-2.6h2.6v2.6Zm.2,6.9V711h2.2v2.2Zm3.4-10.5v-2.6h2.6v2.6Zm.2,7v-2.2h2.2v2.2Zm.2,6.9v-1.8h1.8v1.8Zm3.1-17.4v-2.3h2.6v2.3Zm.2,6.9v-2.2h2.2v2.2Zm.2,6.9v-1.8H66V713Zm3.4-10.5v-2.2h2.2v2.2Zm.2,7v-1.8h1.8v1.8Zm.2,6.9V715h1.4v1.4ZM71.2,699v-2.1h2.2V699Zm.2,6.9v-1.8h1.8v1.8Zm.2,6.9v-1.4H73v1.4Zm3.3-10.5v-1.8h1.8v1.8Zm.2,7v-1.4h1.4v1.4Zm.2,6.9v-1h1v1Zm3.2-17.4V697h1.8v1.8Zm.2,6.9v-1.4h1.4v1.4Zm.2,6.9v-1h1v1Zm3.4-10.5v-1.4h1.41v1.4Zm.2,7v-1h1v1Zm3.3-10.5v-1.4h1.41v1.4Zm.2,6.9v-1h1v1Zm20.61,82.21v-3.3h-3.5v3.4h3.3v3.5H103V788h-3.5v3.4h3.4v3.5h-3.5v-3.4H96V795h3.3v3.4h-3.4v-3.3h-3.5v3.4h3.3v3.3h-3.4v-3.2H88.8v3.2h-2V749.39h19.91V784.3H110v3.4Zm-16.2-33.31h-2.3v2.4h2.3Zm0,7.5h-2.3v2.4h2.3Zm0,7.51h-2.3v2.39h2.3Zm0,7.5h-2.3v2.4h2.3Zm0,7.5h-2.3v2.4h2.3Zm0,7.6h-2.3v2.4h2.3Zm-.8-90.11v-1h1v1Zm4.5,48.8h-2.3v2.4h2.3Zm0,7.5h-2.3v2.4h2.3Zm0,7.51h-2.3v2.39h2.3Zm0,7.5h-2.3v2.4h2.3Zm0,7.5h-2.3v2.4h2.3Zm0,7.6h-2.3v2.4h2.3Zm-1-89.91v-1h1v1Zm4.8,56h-2.4v2.5h2.4Zm0,7.5h-2.4v2.5h2.4Zm0,7.51h-2.4v2.5h2.4Zm0,7.5h-2.4v2.5h2.4Zm0,7.6h-2.4V787h2.4Zm3.7-33.71h-2.4v2.4h2.4Zm0,7.5h-2.4v2.4h2.4Zm0,7.5h-2.4v2.41h2.4Zm0,7.51h-2.4v2.4h2.4Zm0,7.6h-2.4v2.4h2.4Zm-1.9,20.7v-2.9h2.9v2.9Zm5.6-47.11h-2.4v2.4h2.4Zm0,7.51h-2.4v2.39h2.4Zm0,7.5h-2.4v2.4h2.4Zm0,7.6h-2.4v2.4h2.4Zm-2.1,21.1v-3h3v3Zm3.6-3.6v-2.9h2.9v2.9Zm.2,6.9V799h2.5v2.5Zm3.1-17.3v-3.3h3.5v3.3Zm.3,6.8v-2.9h2.9V791Zm.2,6.9v-2.4h2.5v2.4Zm3.3-10.4v-3h3v3Zm.3,6.9v-2.5h2.4v2.5Zm.2,6.8v-1.9h2v1.9Zm3.1-17.3V781h2.9v2.9Zm.2,6.9v-2.5h2.5v2.5Zm.3,6.9v-2h1.9v2Zm3.3-10.5v-2.4h2.5v2.4Zm.3,6.9v-1.9h1.9v1.9Zm.2,6.9v-1.5h1.5V801Zm3.1-17.3v-2.5h2.4v2.5Zm.2,6.8v-1.9h2v1.9Zm.3,6.9V796h1.4v1.4Zm3.3-10.4v-2h1.9v2Zm.2,6.9v-1.5h1.5v1.5Zm.3,6.8v-.9h.9v.9Zm3-17.3v-1.9h2v1.9Zm.3,6.9v-1.5H134v1.5Zm.2,6.9v-1h1v1Zm3.4-10.5v-1.4h1.4v1.4Zm.2,6.9v-.9h1v.9Zm3.3-10.4v-1.5h1.5v1.5Zm.3,6.8v-.9h.9v.9Zm2.9-40.61v-31.6l19.9-20.9v32.6Zm0,84V801.8l19.9-20.9v32.6Zm.6-46.9v-1h1v1Zm3.6-3.6V782h.9v.9Z"/><path class="cls-2" d="M52.2,628.7v3.5H48.7v3.6H45.1v3.6H41.6v3.5H38v2.7H34.2v-2.1H31.6v2.1h-.4V584.39l18.1-19.9v64H52v-2.8h3.8v3ZM34.3,584.5H31.6v2.7h2.7Zm0,7.29H31.6v2.71h2.7Zm0,7.31H31.6v2.7h2.7Zm-.2,7.5H31.8v2.3h2.3Zm-.2,7.4H32v2h1.9Zm-.1,7.5H32.2v1.6h1.6Zm-.2,7.5H32.4v1.3h1.2Zm-.1,7.5h-1v1h1Zm4.3,3.5H35.1l-.1,2.7h2.8Zm.2-59.21H35.3v2.71H38Zm0,7.3H35.3v2.7H38Zm0,7.31H35.3v2.7H38Zm-.2,7.5H35.4v2.4h2.4Zm-.2,7.5h-2v2h2Zm-.2,7.5H35.8v1.6h1.6Zm-.2,7.5H36v1.2h1.2Zm0,7.4h-1v1h1Zm4.2,3.6H38.6v2.8h2.8Zm.2-59.21H38.9v2.7h2.7Zm0,7.31H38.9v2.7h2.7Zm0,7.29H38.9v2.71h2.7Zm-.2,7.51H39.1v2.3h2.3Zm-.1,7.4h-2v2h2Zm-.2,7.5H39.5v1.6h1.6Zm-.2,7.5H39.7V623h1.2Zm-.1,7.5h-1v1h1ZM42,645.6v-2.3h2.5v2.3Zm2.9-12.8H42.2l-.1,2.8h2.8Zm.4-59.31H42.6v2.7h2.7Zm0,7.3H42.6v2.71h2.7Zm0,7.3H42.6v2.7h2.7Zm-.2,7.51H42.7V598h2.4Zm-.2,7.5h-2v2h2Zm-.2,7.5H43.1v1.6h1.6Zm-.2,7.5H43.3v1.2h1.2Zm0,7.4h-1v1h1Zm1,16.8v-2.5h2.6v2.5Zm3-13H45.7V632h2.8Zm.4-59.41H46.2v2.7h2.7Zm0,7.3H46.2v2.7h2.7Zm0,7.31H46.2v2.7h2.7Zm-.2,7.5H46.4v2.3h2.3Zm-.1,7.4h-2v2h2Zm-.2,7.5H46.8v1.6h1.6Zm-.2,7.5H47v1.3h1.2Zm-.1,7.5h-1v1h1Zm1,16.8v-2.5h2.5v2.5Zm.7,6.5V644H51v1.2Zm2.9-10v-2.5h2.5v2.5Zm.6,6.5v-1.3h1.2v1.3Zm53.91-13v3.5h-3.5v3.6h-3.6v3.6h-3.5v3.5H93v2.7H89.21v-2.1H86.6v2.1h-.39V593.8l18.1-19.91V628.5H107v-2.8h3.8v3ZM89.3,593.8H86.6v2.7h2.7Zm0,7.3H86.6v2.7h2.7Zm-.19,7.5H86.8v2.3h2.31Zm-.2,7.4H87v2h1.91Zm-.11,7.5H87.21v1.6H88.8Zm-.19,7.5h-1.2v1.3h1.2Zm-.11,7.5h-1v1h1Zm4.31,1.5H90v2.7h2.81ZM93,590.09H90.3v2.7H93Zm0,7.31H90.3v2.7H93Zm-.19,7.5h-2.4v2.4h2.4Zm-.2,7.5h-2v2h2Zm-.2,7.5H90.8v1.6h1.61Zm-.2,7.5H91v1.2h1.21Zm0,7.4h-1v1h1Zm4.2,1.6h-2.8v2.8h2.8Zm.2-49.9h-2.7v2.7h2.7Zm0,7.3h-2.7v2.7h2.7Zm-.2,7.5h-2.3v2.3h2.3Zm-.1,7.4h-2v2h2Zm-.2,7.5h-1.6v1.6h1.6Zm-.2,7.5h-1.2V625h1.2Zm-.1,7.5h-1v1h1ZM97,645.6v-2.3h2.5v2.3Zm2.9-12.8h-2.8v2.8h2.8Zm.4-50h-2.7v2.71h2.7Zm0,7.3h-2.7v2.7h2.7Zm-.2,7.51h-2.4V600h2.4Zm-.2,7.5h-2v2h2Zm-.2,7.5h-1.6v1.6h1.6Zm-.2,7.5h-1.2v1.2h1.2Zm0,7.4h-1v1h1Zm1,14.8v-2.5h2.6v2.5Zm3-13h-2.8V632h2.8Zm.4-50.11h-2.7v2.7h2.7Zm0,7.31h-2.7v2.7h2.7Zm-.2,7.5h-2.3v2.3h2.3Zm-.1,7.4h-2v2h2Zm-.2,7.5h-1.6v1.6h1.6Zm-.2,7.5H102v1.3h1.2Zm-.1,7.5h-1v1h1Zm1,14.8v-2.5h2.5v2.5Zm.7,6.5V644H106v1.2Zm2.9-10v-2.5h2.5v2.5Zm.6,6.5v-1.3h1.2v1.3Zm2.9-10.1v-2.5h2.5v2.5Zm.7,6.5v-1.2h1.2v1.2Zm30.9,38.7V581.59l19.9-19.9V656.9Zm3.9-94.91H144v2.7h2.7Zm0,7.2H144v2.7h2.7Zm0,7.31H144v2.7h2.7Zm0,7.2H144v2.7h2.7Zm0,7.3H144v2.7h2.7Zm0,7.2H144v2.7h2.7Zm-.2,7.5h-2.3v2.3h2.3Zm-.1,7.4h-2v2h2Zm-.2,7.5h-1.6v1.6h1.6ZM146,648h-1.2v1.3H146Zm0,7.4h-1v1h1Zm4.4-77.21h-2.7v2.7h2.7Zm0,7.2h-2.7v2.7h2.7Zm0,7.31h-2.7v2.7h2.7Zm0,7.2h-2.7v2.7h2.7Zm0,7.3h-2.7v2.7h2.7Zm0,7.2h-2.7v2.7h2.7Zm-.2,7.5h-2.4v2.4h2.4Zm-.2,7.5h-2v2h2Zm-.2,7.5h-1.6v1.6h1.6Zm-.2,7.5h-1.2v1.2h1.2Zm0,7.4h-1v1h1Zm4.4-77.21h-2.7v2.7H154Zm0,7.2h-2.7v2.71H154Zm0,7.3h-2.7v2.7H154Zm0,7.21h-2.7V599H154Zm0,7.3h-2.7v2.7H154Zm0,7.2h-2.7v2.7H154Zm-.2,7.5h-2.3v2.3h2.3Zm-.1,7.4h-2v2h2Zm-.2,7.5h-1.6v1.6h1.6Zm-.2,7.5h-1.2V642h1.2Zm-.1,7.5h-1v1h1Zm4.5-77.31H155v2.7h2.7Zm0,7.2H155v2.7h2.7Zm0,7.3H155v2.7h2.7Zm0,7.21H155v2.7h2.7Zm0,7.3H155v2.7h2.7Zm0,7.2H155v2.7h2.7Zm-.2,7.5h-2.4V617h2.4Zm-.2,7.5h-2v2h2Zm-.2,7.5h-1.6v1.6h1.6Zm-.2,7.5h-1.2v1.2h1.2Zm0,7.4h-1v1h1Zm4.4-77.21h-2.7V570h2.7Zm0,7.2h-2.7v2.7h2.7Zm0,7.3h-2.7v2.71h2.7Zm0,7.21h-2.7v2.7h2.7Zm0,7.3h-2.7V599h2.7Zm0,7.2h-2.7v2.7h2.7Zm-.2,7.5h-2.3v2.3h2.3Zm-.1,7.4h-2v2h2Zm-.2,7.5h-1.6v1.6h1.6Zm-.2,7.5h-1.2v1.3h1.2Zm-.1,7.5h-1v1h1Z"/><path class="cls-2" d="M2.8,546.2h.1v.1H2.8ZM57.7,501v-3.1H54.4v3.3h3v3.3H54.1v-3H50.8v3.3h3.1v3.3H50.6v-3H47.3v3.3h3v3.3H47v-3.1H43.7v3.3h3v2.8H43.4v-2.5H40.1v2.5H35.8v-2H33.5v2h-.4V499.1c0-17.1,7.4-31.5,22-37.8-3.1,5.7-3.8,12.3-3.8,20.9v15h2.3v-2.4H58v2.9h3V501Zm-22-2.6h-2v2h2Zm0,7.4h-2v2h2Zm-.3-14.5H34v1.4h1.4Zm4,17.8H37v2.3h2.4Zm-.3-14.2h-2v2h2Zm0,7.4h-2v2h2Zm-.3-14.5H37.4v1.4h1.4Zm-.3-7.3h-1v1h1Zm4.1,10.6h-2v2h2Zm0,7.4h-2v2h2Zm.3,7H40.6v2.4h2.3ZM42.3,484H40.9v1.4h1.4Zm-.2-7.3h-1v1h1ZM46.5,502H44.2v2.3h2.3Zm0-14.7h-2v2h2Zm0,7.4h-2v2h2Zm-.3-14.5H44.8v1.4h1.4Zm-.2-7.3H45v1h1Zm4.1,25.5H47.7v2.3h2.4Zm0-14.7h-2v2h2Zm0,7.4h-2v2h2Zm-.3-14.4H48.5V478h1.3Zm1.3,38v-2.2h2.2v2.2Zm3.6-3.6v-2.2h2.2v2.2Zm3.5-3.5v-2.3h2.3v2.3Zm.6,6.6V513h1.1v1.2Zm2.5-16.8v-2.6h3.3v2.6Zm.5,6.6v-2.2H64V504Zm.5,6.6v-1.2h1.2v1.2Zm3.1-10.2v-2.2h2.2v2.2Zm.5,6.6v-1.1H67V507Zm3-10.1v-2.1h2.3v2.1Zm.6,6.6v-1.2h1.1v1.2Zm3.5-3.6v-1.1h1.2v1.1Zm1.9-74v-.7h.9v.7Zm1.7,70.41v-1.1h1.1v1.1Zm1.9-73.81v-.9h.9v.9Zm3.4,3.7V425h1.2v1.2Zm.2-7.3V418h.8v.9Zm3.4,3.7v-1.1h1.1v1.1Zm.1-7.3v-.8h.9v.8Zm3.31,11v-1.4H90.3v1.4Zm.2-7.3v-1.1h1.1V419Zm.1-7.2v-.9h.9v.9Zm3.29,10.9v-1.4h1.41v1.4Zm.11-7.2v-1.2h1.2v1.2Zm.2-7.3v-.9h.8v.9Zm3.1,18.2v-1.6h1.7v1.6Zm.1-7.2v-1.4h1.5v1.4Zm.2-7.3v-1.1h1.1v1.1Zm3.1,18.3v-2h2v2Zm.2-7.3v-1.7h1.7v1.7Zm.1-7.3v-1.4H101v1.4Zm.1-7.2v-1l1.2.1v.9Zm3.1,23.5v-.3H105v1.3Zm.1-5.3v-2h2v2Zm.1-7.3v-1.7h1.7v1.7Zm.2-7.3v-1.4h1.4V412Zm3.1,18.3V428h2.3v2.3Zm.2-7.3v-2h1.9v2Zm.1-7.3v-1.6h1.7v1.6Zm3.1,18.31v-2.51h2.6V434Zm.2-7.31v-2.2h2.2v2.2Zm.1-7.2v-2h2v2Zm.2-7.3v-1.7h1.6v1.7Zm3,25.51v-2.81H116v2.81Zm.1-7.31v-2.5h2.5v2.5Zm.1-7.2v-2.3h2.3v2.3Zm.2-7.3v-2h2v2Zm4.5,25.51-1.5-1.2v-1.91h3.1v3.11Zm-1.4-7.31v-2.8h2.8v2.8Zm.2-7.2v-2.6h2.5v2.6Zm.1-14.6v-1.5l2.1.8v.7Zm0,7.3v-2.3h2.3v2.3Zm5.1,25.51-2.1-2v-1.3h3.4v3.31Zm-1.9-7.31v-3h3v3Zm.1-7.2v-2.8h2.8v2.8Zm.1-7.3v-2.5H123v2.5Zm.2-7.3v-2.2h2.2V416Zm22.2,130.31V499.1a86.05,86.05,0,0,0-4-26.2h1.7v-2h-2.1v.9c-.5-1.5-.9-2.5-1.4-3.8v-.8h-.3a92.15,92.15,0,0,0-4.1-8.3H134v-2.5h-2.9l-.8-1.2v-2.6h-1.8l-1.6-2.1v-1.7h-1.4l-2-2.2v-1.4H127v-3.61h3.6v-3.5h3.6v3.41h3.4v-3.41h-3.4V434.5h3.5v-3.61h3.6v-3.5h2.1l1.5,1.6v1.9h1.6l2.1,2.7v.7h.5a59.79,59.79,0,0,1,4.8,7.8h-1.5v2.51H155v-.4a72.9,72.9,0,0,1,6.3,19.8h-1.2v1.5h1.5a82.36,82.36,0,0,1,1.1,13.7v47.2Zm-19.2-104.8v-3.3h3.3v3.3Zm.1-7.21v-3.1h3.1v3.1Zm.2-7.3v-2.8h2.8V427Zm.1-7.3v-2.5h2.5v2.5Zm6.5,25.51h-3.4v3.4h3.4Zm-3.3-7.2v-3.41h3.3V438Zm.1-7.31v-3.1h3.1v3.1Zm.1-7.3v-2.8h2.8v2.8Zm.2-7.2v-.8l1.5.8ZM134,441.7h-3.4V445H134Zm-3.3-7.31v-3.3h3.4v3.3Zm3.2,14.51h-3.1V452h3.1Zm-3-29.11v-2.6l2.9,1.9v.8Zm0,7.3v-3h3v3Zm3.4,3.7v-3.3h3.3v3.3Zm3.1,14.61h-3.1v3.1h3.1Zm-3-21.81v-3.1h1.3l1.8,1.4v1.7Zm2.9,29h-2.8v2.9h2.8Zm-.1,7.3h-2.6v2.5h2.6Zm3.9-25.4h-3.3v3.39h3.3Zm-3.2-7.21v-3.4h1.9l1.4,1.3v2.1Zm3.1,14.5h-3.1v3.11H141Zm-.1,7.31H138v2.8h2.9Zm-.2,7.2h-2.5v2.6h2.5Zm-.1,7.3h-2.3v2.3h2.3Zm4.1-32.61h-3.4v3.4h3.4Zm-.1,7.21h-3.1v3.09h3.1Zm-.2,7.3h-2.8v2.8h2.8Zm-.1,7.3h-2.6v2.5h2.6Zm-.1,7.2h-2.3v2.3h2.3Zm-.2,7.3h-2v2h2Zm-.1,7.3h-1.8v1.7h1.8Zm-.2,7.2h-1.4v1.5h1.4Zm-.1,7.3h-1.2v1.2h1.2Zm-.1,7.3h-.7v.9h.7Zm4.6-61.71H145v3.1h3.1Zm-.1,7.21h-2.8v2.89H148Zm-.1,7.3h-2.6v2.6h2.6Zm-.2,7.3h-2.3v2.2h2.3Zm-.1,7.2h-2v2h2Zm-.2,7.3h-1.7v1.7h1.7Zm-.1,7.3h-1.5v1.4h1.5Zm-.1,7.2H146v1.2h1.2Zm-.2,7.3h-.9v.9h.9Zm4.6-54.41h-2.9v2.81h2.9Zm-.2,7.21h-2.5v2.6h2.5Zm-.1,7.3H149v2.3h2.3Zm-.2,7.3h-2v2h2Zm-.1,7.2h-1.7v1.8H151Zm-.1,7.3h-1.5v1.5h1.5Zm-.2,7.3h-1.2v1.1h1.2Zm-.1,7.2h-.9v.9h.9Zm4.2-39.9h-2.2v2.3h2.2Zm-.1,7.3h-2v2h2Zm-.1,7.3h-1.8v1.7h1.8Zm-.2,7.2H153v1.5h1.4Zm-.1,7.3h-1.2v1.2h1.2Zm-.1,7.3h-.9v.9h.9Zm4.1-32.7h-2v2h2Zm-.2,7.3h-1.7V462h1.7Zm-.1,7.3h-1.5V469H158Zm-.1,7.2h-1.2V476h1.2Zm-.2,7.3h-.9v.9h.9Zm3.7-10.8h-1.2v1.1h1.2Zm-.1,7.2h-.9v.9h.9Z"/><path class="cls-2" d="M33.9,259.09v3.61H30.3v3.6H26.7v3.6H23.1v3.6H19.5V276H15.8v-2.4H12.5V276H8.4v-2.2H5.5V276H2.8l19.9-19.91h.8v2.61h2.9v-2.61h4.1V259h3.3v-2.91h3.7v3Zm.5,89.81v3.6H30.8v3.6H27.2v3.6H23.6v3.6H20v3.1H16.3v-3H13v3H8.9v-2.8H6v2.8H2.8l19.9-20.9H24v3h2.9v-3H31v3.3h3.3v-3.3H38v3.4ZM12,270.2H9.1v3H12Zm.5,89.8H9.6v3h2.9Zm3.1-93.4H12.7v2.9h2.9Zm.5,89.8H13.2v2.9h2.9ZM19.4,270H16.1v3.4h3.3Zm-.2-7H16.3v2.9h2.9Zm.7,96.8H16.6v3.4h3.3Zm-.2-7H16.8v2.9h2.9ZM23,266.4H19.7v3.4H23Zm-.2-7H19.9v2.9h2.9Zm.7,96.8H20.2v3.4h3.3Zm-.2-7H20.4v2.9h2.9ZM23.2,276v-2.4h3.3V276Zm3.4-13.2H23.3v3.4h3.3ZM23.7,366.4v-3H27v3Zm3.4-13.8H23.8V356h3.3Zm-.3-79.3V270h3.3v3.3Zm3.4-14.1H26.9v3.4h3.3ZM27.3,363.1v-3.3h3.3v3.3ZM30.7,349H27.4v3.4h3.3Zm-.3-79.3v-3.3h3.3v3.3Zm.1,6.3v-2.3h3V276Zm.4,83.5v-3.3h3.3v3.3Zm.1,6.9v-2.9h3v2.9Zm3-100.3v-3.3h3.3v3.3Zm.1,7v-3H37v3Zm.4,82.8v-3.3h3.3v3.3Zm.1,7v-3h2.9v3Zm3-100.4v-3.3h3.3v3.3Zm0,7v-2.9h3v2.9Zm.2,6.5v-2.1h2.6V276Zm.3,76.3V349h3.3v3.3Zm0,7v-2.9h3v2.9Zm.2,7v-2.6h2.6v2.6Zm2.9-107.4v-2.81h3.3v2.81Zm0,7.1v-3h3v3Zm.2,6.9v-2.6H44v2.6Zm.3,75.8v-3.2H45v3.2Zm0,7.1v-3h3v3Zm.2,6.9v-2.6h2.6v2.6Zm2.9-100.3v-2.9h2.9v2.9Zm.2,6.9v-2.5h2.5v2.5Zm.1,6.7v-1.9h2.2V276Zm.2,76.2v-2.9h2.9v2.9Zm.2,6.9v-2.5H48v2.5Zm.1,7v-2.2h2.2v2.2Zm2.7-107.31v-2.7h3v2.7Zm.2,7v-2.6h2.6v2.6Zm.2,6.9v-2.2h2.2v2.2Zm.1,75.9v-2.9h3v2.9Zm.2,7V353h2.6v2.6Zm.2,6.9v-2.2h2.2v2.2Zm2.9-100.3v-2.6h2.6v2.6Zm.2,7V267h2.2v2.2Zm.2,6.8v-1.7h1.8V276Zm.1,76v-2.6h2.6V352Zm.2,7v-2.2H55V359Zm.2,6.9v-1.8h1.8v1.8Zm2.6-107.2v-2.61h2.6v2.61Zm.2,6.9v-2.2H58v2.2Zm.2,6.9v-1.8h1.8v1.8Zm.1,76v-2.6h2.6v2.6Zm.2,6.9v-2.2h2.2v2.2Zm.2,6.9v-1.8h1.8v1.8ZM59.4,262v-2.21h2.2V262Zm.2,7v-1.8h1.8V269Zm.2,6.9v-1.4h1.4v1.4Zm.1,75.9v-2.2h2.2v2.2Zm.2,7V357h1.8v1.8Zm.2,6.9v-1.4h1.4v1.4ZM63,258.5v-2.21h2.2v2.21Zm.2,6.9v-1.8H65v1.8Zm.2,6.9v-1.4h1.4v1.4Zm.1,76v-2.2h2.2v2.2Zm.2,6.9v-1.8h1.8v1.8Zm.2,6.9v-1.4h1.4v1.4Zm2.8-100.31V260h1.8v1.79Zm.2,7v-1.4h1.4v1.4Zm.2,6.9v-1h1v1Zm.1,75.9v-1.8H69v1.8Zm.2,7v-1.4h1.4v1.4Zm.2,6.9v-1h1v1Zm2.7-107.21V256.5h1.8v1.79Zm.2,6.91v-1.4h1.4v1.4Zm.2,6.9v-1h1v1Zm.1,76v-1.8h1.8v1.8ZM71,355v-1.4h1.4V355Zm.2,6.9v-1h1v1Zm2.9-100.3v-1.4h1.4v1.4Zm.2,7v-1h1v1Zm.3,82.8V350H76v1.4Zm.2,7v-1h1v1Zm2.8-100.31V256.7H79v1.39Zm.2,6.91v-1h1v1Zm.3,82.9v-1.4h1.4v1.4Zm.2,6.9v-1h1v1Zm3.1-93.4v-1h1v1Zm.5,89.8v-1h1v1Zm3-93.3v-1h1v1Zm.5,89.8v-1h1v1Zm5.09-73.4v-1h1v1Zm3.5-3.5v-1h1v1Zm3.41,3.7v-1.3h1.3v1.3Zm.1-7.2v-1h1v1Zm3.3,10.2v-.9h1.5v1.2Zm.1-6.6v-1.2h1.3v1.2Zm.2-7.1v-1h1v1Zm3.2,10.8v-1.5h1.5v1.5Zm.2-7.2v-1.2h1.2v1.2Zm.1-7.2v-.91h1v.91Zm3.1,18v-1.7h1.8v1.7Zm.1-7.1v-1.6h1.6v1.6Zm.2-7.2v-1.3h1.2v1.3Zm3.1,16.3v-.4h2.1V281Zm.1-5.5v-1.8H113v1.8Zm.2-7.1V266h1.5v1.6Zm.1-7.2v-1.31h1.2v1.31Zm3.1,18v-2.1h2.1v2.1Zm.1-7.2v-1.8h1.8v1.8Zm.2-7.2v-1.5h1.5V264Zm3.1,18v-2.3h2.3V282Zm.1-7.1v-2.1h2.1v2.1Zm.2-7.2v-1.8h1.8v1.8Zm.1-7.2V259h1.5v1.5Zm4.1,25.2-1.1-.7v-1.9H124v2.6Zm-1-7.2v-2.3h2.4v2.3Zm.2-7.2v-2h2v2Zm.1-7.1v-1.8h1.8v1.8Zm5.8,25.2a31.55,31.55,0,0,0-2.9-2.2v-.8h3v3Zm-2.7-7.2v-2.7h2.6v2.7Zm.1-7.2v-2.3h2.4V275Zm.2-7.2v-2h2v2Zm2.9,22h3.3v3.1Zm.1-3.9v-3h3v3Zm.2-7.2V276H131v2.7Zm.1-7.2v-2.4h2.4v2.4Zm.2-7.2v-2.1h1.5l.5.3v1.8Zm19.4,99.9-17.5,17.5c12.1-12.1,15.6-29.2,15.6-44.7a90.78,90.78,0,0,0-2.2-20h.8v-2h-1.4a49.47,49.47,0,0,0-2.9-8.2h1v-2.7h-2.3l-1-2v-1.7h-1.1a43.09,43.09,0,0,0-5.5-7.2H135v3.3h3.3v-3.3H135v-3.6h3.5v-3.5H142v-3.5h3.5v-3.5H149v-3.5h.1a32.69,32.69,0,0,1,3,3.5h-3v3.4h3.3v-3a25.2,25.2,0,0,1,2.4,3.3h-2v3h3v-1.5l1.3,2.2h-.6v2.7h2a59.76,59.76,0,0,1,3.4,8.2h-1.6v2h2.1v-.5a77.2,77.2,0,0,1,2,9.3h-.3v1.4h.5c.2,2,.4,3.9.4,5.8h-.7v1.1h.8v1.6C165.11,339.9,158.91,353.4,148.11,364.2Zm-16.5-74.7v-3.2h3.3v3.2Zm.2-7.1v-3h2.9v3Zm.1-7.2v-2.7h2.7v2.7Zm.2-7.2v-2.4h2.3V268Zm3,18v-3.2h3.3V286Zm.2-7.2v-2.9h2.9v2.9Zm.1-7.2V269h2.7v2.6Zm3.2,10.9v-3.3h3.3v3.3Zm3.3,7.2h-3.3V293h3.3Zm-.2,7.2h-3v3h3Zm-2.9-21.6v-3h3v3Zm.2-7.2V267l1.5,1.1Zm6.4,18.1h-3.3v3.3h3.3Zm-3.2-7.2v-3.3h3.2V279Zm3,14.4h-3v3h3Zm-2.9-21.6v-2.4c1,.8,2,1.6,2.9,2.4Zm2.8,28.8h-2.7v2.6h2.7Zm-.2,7.2h-2.4v2.3h2.4Zm4-25.1h-3.3V286h3.3Zm-3.2-7.2v-3.3c1.1,1,2.2,2.1,3.3,3.2v.1Zm3,14.3h-3v3h3Zm-.1,7.2h-2.7v2.7h2.7Zm-.2,7.2h-2.3v2.4h2.3Zm-.1,7.2h-2.1v2.1h2.1Zm-.2,7.2h-1.7v1.8h1.7Zm-.2,7.2h-1.4v1.4h1.4Zm-.1,7.2h-1.1v1.1h1.1Zm4.5-46.7h-3v3h3Zm-.2,7.2h-2.7v2.7h2.7Zm-.2,7.2h-2.3v2.4h2.3Zm-.1,7.2h-2.1V310h2.1Zm-.2,7.2h-1.7v1.7h1.7Zm-.1,7.2h-1.4v1.4h1.4Zm-.2,7.2h-1.1v1.1h1.1Zm4.3-39.5h-2.7v2.7h2.7Zm-.1,7.2h-2.4v2.4h2.4Zm-.2,7.2h-2v2.1h2Zm-.2,7.2h-1.7v1.7h1.7Zm-.1,7.2h-1.4v1.4H155Zm-.2,7.2h-1.1v1.1h1.1Zm4.2-32.3h-2.4V296H159Zm-.2,7.2h-2v2h2Zm-.1,7.2h-1.8v1.7h1.8Zm-.2,7.2h-1.4v1.4h1.4Zm-.2,7.2h-1v1.1h1Zm3.9-17.9h-1.8v1.7h1.8Zm-.2,7.2h-1.4v1.4H162Zm-.2,7.2h-1v1h1Z"/><path class="cls-2" d="M42.1,186.2v3.6H38.5v3.6H34.9V197H31.3v3.6H27.7V204H24v-3.3H20.7v3.7H2.8l19.9-20.9h2.1v2.1h2.4v-2.1h4.5v2.3h2.9v-2.3h4.1v2.6H42v-2.6h3.7v2.7ZM9.2,201.1H6.8v2.5H9.2Zm3.6-3.6H10.4v2.6h2.4Zm3.8,3.4H13.7v2.9h2.9Zm-.2-7H14v2.5h2.4Zm3.8,3.4H17.3v3h2.9Zm-.2-7H17.6v2.5H20Zm3.8,3.4H20.9v2.9h2.9Zm-.2-7H21.2v2.5h2.4Zm4,10.4H24.3v3.4h3.3Zm-.2-7H24.5V193h2.9Zm3.8,3.4H27.9v3.4h3.3Zm-.2-7H28.1v2.9H31Zm.4,17.5v-3.3h3.3V204Zm3.4-14.1H31.5v3.4h3.3Zm.2,10.5v-3.3h3.3v3.3Zm3.4-14.1H35.1v3.4h3.3Zm.2,10.5v-3.3h3.3v3.3Zm.1,7v-3h3v3Zm3.5-10.6v-3.3h3.3v3.3Zm.1,7v-3h2.9v3Zm3.5-10.6v-3.3h3.3v3.3Zm0,7v-2.9h3v2.9Zm.2,7V201h2.6v2.6ZM49.4,186v-2.5h3.3V186Zm0,7.1v-3h3v3Zm.2,6.9v-2.6h2.6V200ZM53,189.5v-2.9h2.9v2.9Zm.2,6.9v-2.5h2.5v2.5Zm.1,7v-2.2h2.2v2.2Zm3.2-17.5v-2.4h3v2.4Zm.2,7v-2.6h2.6v2.6Zm.2,6.9v-2.2h2.2v2.2Zm3.4-10.5v-2.6h2.6v2.6Zm.2,7v-2.2h2.2v2.2Zm.2,6.9v-1.8h1.8v1.8Zm3.1-17.4v-2.3h2.6v2.3Zm.2,6.9v-2.2h2.2v2.2Zm.2,6.9v-1.8H66v1.8Zm3.4-10.5v-2.2h2.2v2.2Zm.2,7v-1.8h1.8v1.8ZM68,203v-1.4h1.4V203Zm3.2-17.4v-2.1h2.2v2.1Zm.2,6.9v-1.8h1.8v1.8Zm.2,6.9V198H73v1.4Zm3.3-10.5v-1.8h1.8v1.8Zm.2,7v-1.4h1.4v1.4Zm.2,6.9v-1h1v1Zm3.2-17.4v-1.8h1.8v1.8Zm.2,6.9v-1.4h1.4v1.4Zm.2,6.9v-1h1v1Zm3.4-10.5v-1.4h1.41v1.4Zm.2,7v-1h1v1Zm3.3-10.5v-1.4h1.41v1.4Zm.2,6.9v-1h1v1Zm3.61-3.6v-1h1v1Zm3.5-3.5v-1h1v1Zm49.7,51V143.8l19.9-19.9v92.2Zm4.1-92.11h-2.7v2.7h2.7Zm0,7.3h-2.7v2.7h2.7Zm0,7.2h-2.7v2.7h2.7Zm0,7.4h-2.7v2.7h2.7Zm-.2,7.5h-2.3v2.3h2.3Zm-.2,7.4h-1.9v2h1.9Zm-.1,7.5h-1.6v1.6h1.6Zm-.2,7.5H145V197h1.2Zm-.1,7.5h-1v1h1Zm4.5-63h-2.7v2.7h2.7Zm0,7.3h-2.7v2.7h2.7Zm0,7.2h-2.7v2.7h2.7Zm0,7.4h-2.7v2.7h2.7Zm-.2,7.5H148V172h2.4Zm-.2,7.5h-2v2h2Zm-.2,7.5h-1.6v1.6H150Zm-.2,7.5h-1.2v1.2h1.2Zm0,7.4h-1v1h1Zm4.4-62.9h-2.7v2.7h2.7Zm0,7.3h-2.7v2.7h2.7Zm0,7.2h-2.7v2.7h2.7Zm0,7.4h-2.7v2.7h2.7ZM154,166h-2.3v2.3H154Zm-.1,7.4h-2v2h2Zm-.2,7.5h-1.6v1.6h1.6Zm-.2,7.5h-1.2v1.3h1.2Zm-.1,7.5h-1v1h1Zm4.5-63h-2.7v2.7h2.7Zm0,7.3h-2.7v2.7h2.7Zm0,7.2h-2.7v2.7h2.7Zm0,7.4h-2.7v2.7h2.7Zm-.2,7.5h-2.4v2.4h2.4Zm-.2,7.5h-2v2h2Zm-.2,7.5h-1.6v1.6h1.6Zm-.2,7.5h-1.2V186h1.2Zm0,7.4h-1v1h1Zm4.4-62.9h-2.7V132h2.7Zm0,7.3h-2.7v2.7h2.7Zm0,7.2h-2.7v2.7h2.7Zm0,7.4h-2.7v2.7h2.7Zm-.2,7.5H159V161h2.3Zm-.1,7.4h-2v2h2Zm-.2,7.5h-1.6v1.6H161Zm-.2,7.5h-1.2v1.3h1.2Zm-.1,7.5h-1v1h1Z"/><path class="cls-2" d="M52.2,67v3.5H48.7v3.6H45.1v3.61H41.6v3.5H38v2.7H34.2V81.8H31.6v2.11h-.4V22.7L49.3,2.8v64H52V64h3.8v3ZM34.3,22.8H31.6v2.7h2.7Zm0,7.3H31.6v2.7h2.7Zm0,7.3H31.6v2.7h2.7Zm-.2,7.5H31.8v2.3h2.3Zm-.2,7.4H32v2h1.9Zm-.1,7.5H32.2v1.6h1.6Zm-.2,7.5H32.4v1.3h1.2Zm-.1,7.5h-1v1h1Zm4.3,3.5H35.1L35,81h2.8ZM38,19.1H35.3v2.7H38Zm0,7.3H35.3v2.7H38Zm0,7.3H35.3v2.7H38Zm-.2,7.5H35.4v2.4h2.4Zm-.2,7.5h-2v2h2Zm-.2,7.5H35.8v1.6h1.6Zm-.2,7.5H36v1.2h1.2Zm0,7.4h-1v1h1Zm4.2,3.61H38.6V77.5h2.8Zm.2-59.21H38.9v2.7h2.7Zm0,7.3H38.9v2.7h2.7Zm0,7.3H38.9v2.7h2.7Zm-.2,7.5H39.1v2.3h2.3ZM41.3,45h-2v2h2Zm-.2,7.5H39.5v1.6h1.6ZM40.9,60H39.7v1.3h1.2Zm-.1,7.5h-1v1h1ZM42,83.91v-2.3h2.5v2.3ZM44.9,71.1H42.2l-.1,2.8h2.8Zm.4-59.3H42.6v2.7h2.7Zm0,7.3H42.6v2.7h2.7Zm0,7.3H42.6v2.7h2.7Zm-.2,7.5H42.7v2.4h2.4Zm-.2,7.5h-2v2h2Zm-.2,7.5H43.1v1.6h1.6Zm-.2,7.5H43.3v1.2h1.2Zm0,7.4h-1v1h1Zm1,16.81V78.1h2.6v2.51Zm3-13H45.7v2.7h2.8Zm.4-59.4H46.2v2.7h2.7Zm0,7.3H46.2v2.7h2.7Zm0,7.3H46.2v2.7h2.7Zm-.2,7.5H46.4v2.3h2.3Zm-.1,7.4h-2v2h2Zm-.2,7.5H46.8v1.6h1.6Zm-.2,7.5H47V54h1.2Zm-.1,7.5h-1v1h1Zm1,16.8V74.5h2.5V77Zm.7,6.5V82.3H51v1.2Zm2.9-10V71h2.5v2.5Zm.6,6.5V78.71h1.2V80Zm53.91-13v3.5h-3.5v3.6h-3.6v3.61h-3.5v3.5H93v2.7H89.21V81.8H86.6v2.11h-.39V32.1l18.1-19.9V66.8H107V64h3.8v3ZM89.3,32.1H86.6v2.7h2.7Zm0,7.3H86.6v2.7h2.7Zm-.19,7.5H86.8v2.3h2.31Zm-.2,7.4H87v2h1.91Zm-.11,7.5H87.21v1.6H88.8Zm-.19,7.5h-1.2v1.3h1.2Zm-.11,7.5h-1v1h1Zm4.31,1.5H90V81h2.81ZM93,28.4H90.3v2.7H93Zm0,7.3H90.3v2.7H93Zm-.19,7.5h-2.4v2.4h2.4Zm-.2,7.5h-2v2h2Zm-.2,7.5H90.8v1.6h1.61Zm-.2,7.5H91v1.2h1.21Zm0,7.4h-1v1h1Zm4.2,1.61h-2.8V77.5h2.8Zm.2-49.91h-2.7v2.7h2.7Zm0,7.3h-2.7v2.7h2.7Zm-.2,7.5h-2.3v2.3h2.3Zm-.1,7.4h-2v2h2Zm-.2,7.5h-1.6v1.6h1.6Zm-.2,7.5h-1.2v1.3h1.2Zm-.1,7.5h-1v1h1ZM97,83.91v-2.3h2.5v2.3Zm2.9-12.81h-2.8v2.8h2.8Zm.4-50h-2.7v2.7h2.7Zm0,7.3h-2.7v2.7h2.7Zm-.2,7.5h-2.4v2.4h2.4Zm-.2,7.5h-2v2h2Zm-.2,7.5h-1.6v1.6h1.6Zm-.2,7.5h-1.2v1.2h1.2Zm0,7.4h-1v1h1Zm1,14.81V78.1h2.6v2.51Zm3-13h-2.8v2.7h2.8Zm.4-50.1h-2.7v2.7h2.7Zm0,7.3h-2.7v2.7h2.7Zm-.2,7.5h-2.3v2.3h2.3Zm-.1,7.4h-2v2h2Zm-.2,7.5h-1.6v1.6h1.6Zm-.2,7.5H102V56h1.2Zm-.1,7.5h-1v1h1Zm1,14.8V74.5h2.5V77Zm.7,6.5V82.3H106v1.2Zm2.9-10V71h2.5v2.5Zm.6,6.5V78.71h1.2V80Zm2.9-10.1V67.4h2.5v2.5Zm.7,6.51v-1.2h1.2v1.2Zm30.9,38.7V19.9L162.71,0V95.21Zm3.9-94.91H144v2.7h2.7Zm0,7.2H144v2.7h2.7Zm0,7.3H144v2.7h2.7Zm0,7.2H144v2.7h2.7Zm0,7.3H144v2.7h2.7Zm0,7.2H144v2.7h2.7Zm-.2,7.5h-2.3v2.3h2.3Zm-.1,7.4h-2v2h2Zm-.2,7.5h-1.6v1.61h1.6Zm-.2,7.51h-1.2v1.3H146Zm0,7.4h-1v1h1Zm4.4-77.21h-2.7v2.7h2.7Zm0,7.2h-2.7v2.7h2.7Zm0,7.3h-2.7v2.7h2.7Zm0,7.2h-2.7v2.7h2.7Zm0,7.3h-2.7v2.7h2.7Zm0,7.2h-2.7v2.7h2.7Zm-.2,7.5h-2.4v2.4h2.4Zm-.2,7.5h-2v2h2Zm-.2,7.51h-1.6V76.8h1.6Zm-.2,7.5h-1.2v1.2h1.2Zm0,7.4h-1v1h1ZM154,12.9h-2.7v2.7H154Zm0,7.2h-2.7v2.7H154Zm0,7.3h-2.7v2.7H154Zm0,7.2h-2.7v2.7H154Zm0,7.3h-2.7v2.7H154Zm0,7.2h-2.7v2.7H154Zm-.2,7.5h-2.3v2.3h2.3Zm-.1,7.4h-2v2h2Zm-.2,7.5h-1.6v1.6h1.6Zm-.2,7.5h-1.2v1.3h1.2Zm-.1,7.51h-1v1h1Zm4.5-77.31H155v2.7h2.7Zm0,7.2H155v2.7h2.7Zm0,7.3H155v2.7h2.7Zm0,7.2H155v2.7h2.7Zm0,7.3H155v2.7h2.7Zm0,7.2H155v2.7h2.7Zm-.2,7.5h-2.4v2.4h2.4Zm-.2,7.5h-2v2h2Zm-.2,7.5h-1.6v1.6h1.6Zm-.2,7.5h-1.2v1.2h1.2Zm0,7.41h-1v1h1Zm4.4-77.21h-2.7V8.3h2.7Zm0,7.2h-2.7v2.7h2.7Zm0,7.3h-2.7v2.7h2.7Zm0,7.2h-2.7V30h2.7Zm0,7.3h-2.7v2.7h2.7Zm0,7.2h-2.7v2.7h2.7Zm-.2,7.5h-2.3v2.3h2.3Zm-.1,7.4h-2v2h2Zm-.2,7.5h-1.6v1.6h1.6Zm-.2,7.5h-1.2V73h1.2Zm-.1,7.51h-1v1h1Z"/></g></g></svg>