<svg xmlns="http://www.w3.org/2000/svg" viewBox="0 0 165.11 793.81"><defs><style>.cls-1{fill:#ef5255;}.cls-2{fill:#79cfe8;}</style></defs><title>sign in</title><g id="Layer_2" data-name="Layer 2"><g id="Layer_1-2" data-name="Layer 1"><path class="cls-1" d="M135.11,792.41h-33.3c7.2-11.1,13-24.11,13-41.41,0-10.6-3.2-25.4-12.4-25.4-19.81,0-10.4,68.21-57.21,68.21-26,0-44.8-21-44.8-52.81,0-12.8,3.1-28.2,8.2-38.8H40.7C34.6,712.1,30,725.8,30,737.6c0,14.8,5.4,24.8,12.8,24.8,19.6,0,9.6-69.6,57-69.6,26.2,0,45.4,21.2,45.4,53.2C145.21,768.4,140,782.21,135.11,792.41Z"/><path class="cls-1" d="M2.8,661.41V629.6h140v31.81Z"/><path class="cls-1" d="M73,596.11c-43.4,0-73-33.4-73-76,0-12.2,2.4-29.8,8.2-42.8H40c-6.4,10.4-9.6,25.8-9.6,38.2,0,28.8,17.3,48.21,43,48.21,25,0,42.41-18.41,42.41-46.81a61,61,0,0,0-2.1-16.4H88.61v23.6h-27V469.5H134c7,11.6,12.2,33.8,12.2,51.6C146.21,564.51,115.41,596.11,73,596.11Z"/><path class="cls-1" d="M2.8,430.11V399.5L91,340.3H2.8V309.9h140v30.4L54.2,399.71h88.61v30.4Z"/><path class="cls-1" d="M2.8,213.91v-31.8h140v31.8Z"/><path class="cls-1" d="M2.8,141.11v-30.6L91,51.3H2.8V20.9h140V51.3L54.2,110.71h88.61v30.4Z"/><path class="cls-2" d="M152,699.2v-3.6h3.6v-1.8l1.2,2h-1.1V699h2.9l.9,1.8v1.5h.7c.6,1.5,1.2,3,1.7,4.6h-2.2v2.3H162v-1.9a68.57,68.57,0,0,1,2.4,10.7h-.7v1.5h.9a76.63,76.63,0,0,1,.5,8.6c0,21.4-5.2,34.6-10.1,44.4l-19.9,19.91c4.9-10.2,10.1-24,10.1-46.41a72.12,72.12,0,0,0-2.5-19h1.5v-2.3H142a67.56,67.56,0,0,0-3.3-7.8h2.4v-3.3h-3.2v1.8l-1.2-2h1.1v-3.5h3.5v-3.6h3.6v-3.6h3.5v-3.5ZM68.2,785.91l.8-.7A5,5,0,0,1,68.2,785.91Zm.8-.7a42.68,42.68,0,0,0,8.5-11v.19h1.4V773h-.7c5.4-10.1,8.11-20.9,11.11-30.3H90v-2.1c.5-1.3.9-2.5,1.4-3.6v2.2h2.2V737h-2.2a26.77,26.77,0,0,1,4.7-8.4h1.2v-1.1a7.65,7.65,0,0,1,5.1-1.9,8.26,8.26,0,0,1,6.2,2.8l-.5,1.3h-2.6v2.5h1.7l-3,8.3H102v2.3h1.4c-.9,2.8-2.1,5.8-3.2,8.5h-1.6v2.1h.7a48,48,0,0,1-8,12.1C84.4,772.61,75.4,779.51,69,785.21ZM81,769.4v1.5h1.6v-1.5Zm5.21-2v-1.6H84.5v1.6Zm3.6-3.5v-1.8h-1.7v1.8ZM40.4,760.8V762l-1.2-.5v-.7Zm53-.4v-1.9h-1.8v1.9Zm-7.2-.1v-1.7H84.5v1.7ZM37.6,756.5v2.9H36.3l-1.6-2v-.6h-.4a24.14,24.14,0,0,1-2.2-4.9h1.6v-2.1H31.6v.6A49.2,49.2,0,0,1,30,737.6c0-11.8,4.6-25.5,10.7-35.4l19.9-19.9C54,692,48.9,706.4,48.9,717.1a41.09,41.09,0,0,0,2.3,15H49.4v2h2.1v-1.2c.4.9.8,1.8,1.3,2.7v3h2.1l.5.6v2.3H52.5V739H49.3v3.2h2.5v2.9H48.9v-2.6H45.7v3.3h2.6v2.9H45.4v-2.6H42.1v3.2h2.6v2.9H41.8v-2.6H38.6v3.3h2.6v2.9H38.3v-2.6H35v3.3Zm6.3,2H42.7v-1.2h1.2ZM97,756.9v-2h-1.9v2Zm-7.2-.1V755H88v1.8ZM47.4,754.9H46.3v-1.1h1.1Zm46.11-1.6v-2h-2v2ZM51,751.4H49.8v-1.2H51Zm46.11-1.6v-2.1H95v2.1Zm-7.2-.1v-1.9h-2v1.9ZM37.3,748.4v-2.2H35.1v2.2Zm17.2-.6H53.4v-1.2h1.1Zm46.21-1.5v-2.2h-2.2v2.2Zm-7.2-.1v-2.1h-2v2.1ZM40.8,744.8v-2.1H38.7v2.1Zm-7.2-.1v-1.9H31.7v1.9Zm112.61-1.5v1h.9v-1Zm-49.1-.5v-2.2H95v2.2ZM44.4,741.2v-2.1H42.3v2.1Zm-7.3-.1v-1.9H35.3v1.9Zm112.61-1.4v.9h1v-.9Zm-48.9-.5v-2.3h-2.3v2.3ZM48,737.7v-2.2H45.8v2.2Zm-7.3-.2v-1.8H38.8v1.8Zm-7.3-.1v-1h-.9v1Zm112.51-1.5v1.4h1.4v-1.4Zm7.4.2v.9h.9v-.9Zm-56.1-.4v-2.4h-2.3v2.4Zm7.2,0v-2.4H102v2.4ZM44.3,734v-1.9H42.4V734Zm-7.3-.2v-.9H36v.9Zm112.51-1.5v1.4h1.4v-1.4Zm7.4.2v1h.9v-1Zm-56.1-.4v-2.4h-2.4v2.4Zm-53-1.7v-1.9H46v1.9Zm97.91-1.9v1.9h1.9v-1.9ZM40.6,730.3v-1h-1v1ZM153,728.7v1.4h1.5v-1.4Zm7.4.3v.9h.9V729Zm-56-.4v-2.5h-2.5v2.5Zm44.9-3.6v1.8h1.8V725ZM44.1,726.7v-1h-.9v1Zm112.51-1.5v1.4H158v-1.4Zm7.4.2v.9h.9v-.9Zm-18.5-4.2v2.3h2.3v-2.3Zm7.3.2v1.9h1.9v-1.9ZM47.7,723.1v-.9h-1v.9Zm112.51-1.5V723h1.4v-1.4Zm-18.5-4.2v2.7h2.7v-2.7Zm7.3.2v2.3h2.4v-2.3Zm7.4.2v1.9h1.9v-1.9Zm-11.1-4v2.8H148v-2.8Zm7.3.2v2.4h2.3V714Zm7.4.3v1.8h1.8v-1.8Zm-18.5-4.3v3.2h3.2V710Zm7.3.3V713h2.8v-2.7Zm7.4.2v2.3h2.3v-2.3Zm-18.5-.7h-3.3v-3.3h3.3Zm7.4-3.3v3.2h3.1v-3.2Zm7.3.2v2.7h2.7v-2.7Zm-11.1-3.7v3.3H138V703Zm-7.1,3.1h-2.9v-2.9h2.9Zm14.4-3.2v3.2h3.2v-3.2Zm7.4.2v2.8h2.7v-2.8Zm-14.5-.4v-3.3h3.3v3.3Zm-6.9-.2v-2.9h2.9v2.9Zm17.6-3.1v3.1h3.2v-3.1Zm-24.6.4h2.6v2.5h-2.6Zm20.8-4v3.4h-3.3v-3.4Zm-10.3,3.2v-3h3v3Zm-6.9-.2v-2.6h2.6v2.6Zm-6.9-.2v-2.2h2.1v2.2Zm-6.7-2.1h1.5v.7Zm31-.9v-3.3H152v3.3Zm-6.9-.2v-3h3v3Zm-6.9-.2v-2.6h2.5v2.6Zm-7-.2v-2.2H130V695Zm-6.9-.2V693h1.8v1.8Zm-7-1.6h1.5v1.5h-1.5Zm38.3-1.2v-2.6l2.1,2.6Zm-6.9-.2v-2.9h2.9v2.9Zm-7-.2v-2.5h2.6v2.5Zm-6.9-.2v-2.1h2.2v2.1Zm-7-.1v-1.9h1.9v1.9Zm-6.9-.2v-1.5H119v1.5Zm-7-.1v-1.2h1.2V691Zm-7-1.1h.9v.9h-.9Zm45.3-1.6V686l2.4,2.3Zm-6.9-.2v-2.6h2.6v2.6Zm-6.9-.2v-2.2h2.1v2.2Zm-7-.2v-1.8h1.8v1.8Zm-7-.1V686h1.6v1.6Zm-6.9-.2v-1.2h1.2v1.2Zm-7-1.1h.9v.9h-.9Zm38.4-1.8v-1.3l1.7,1.3Zm-7-.2v-2.2h2.2v2.2Zm-6.9-.1v-1.9h1.8v1.9Zm-7-.2v-1.5h1.5V684Zm-7-.2v-1.2h1.2v1.2Zm-6.9-1h.9v.9h-.9Zm24.4-2.2v-1.9H137v1.9Zm-5.4-1.7v1.5h-1.5v-1.5Zm-7.3.2v1.2h-1.2v-1.2Zm-7.3.1v.9h-.9v-.9Zm16.6-2.3v-.4l1.4.4Zm-6.9-1.4H126v1.2h-1.2Zm-6.1.2v.9h-.9v-.9Z"/><path class="cls-2" d="M142.81,661.41V629.6l19.9-20.9v32.8ZM42.1,611.4V615H38.5v3.6H34.9v3.6H31.3v3.6H27.7v3.8H2.8l19.9-20.9h2.1v2.1h2.4v-2.1h4.5V611h2.9v-2.3h4.1v2.6H42v-2.6h3.7v2.7ZM24,625.9H20.7v3.4H24Zm7.4,3.4V626h3.3v3.3Zm-14.8-3.2H13.7V629h2.9ZM38.7,629v-3h3v3ZM9.2,626.3H6.8v2.5H9.2ZM46,628.8v-2.6h2.6v2.6Zm7.3-.2v-2.2h2.2v2.2Zm7.4-.2v-1.8h1.8v1.8Zm7.3-.2v-1.4h1.4v1.4Zm7.3-.2v-1h1v1Zm-47.7-5.7H24.3v3.4h3.3Zm7.4,3.3v-3.3h3.3v3.3Zm-14.8-3.1H17.3v3h2.9Zm22.1,2.9v-3h2.9v3Zm-29.5-2.7H10.4v2.6h2.4Zm36.8,2.5v-2.6h2.6v2.6Zm7.3-.2v-2.2h2.2V625Zm7.3-.2V623H66v1.8Zm7.4-.2v-1.4H73v1.4Zm7.3-.2v-1h1v1Zm-47.7-5.7H27.9v3.4h3.3Zm7.4,3.3v-3.3h3.3V622Zm-14.8-3.1H20.9v2.9h2.9Zm22,2.9v-2.9h3v2.9Zm-29.4-2.7H14v2.5h2.4Zm36.8,2.5v-2.5h2.5v2.5Zm7.3-.1v-2.2h2.2v2.2Zm7.3-.2v-1.8h1.8v1.8Zm7.3-.2v-1.4h1.4v1.4Zm7.4-.2v-1h1v1Zm-47.7-5.8H31.5v3.4h3.3Zm7.4,3.3v-3.3h3.3v3.3Zm7.2-.1v-3h3v3Zm-22-3H24.5v2.9h2.9Zm29.3,2.8v-2.6h2.6v2.6ZM20,615.5H17.6V618H20Zm44,2.4v-2.2h2.2v2.2Zm7.4-.2v-1.8h1.8v1.8Zm7.3-.2v-1.4h1.4v1.4Zm7.31-.2v-1h1v1ZM38.4,611.5H35.1v3.4h3.3Zm7.4,3.3v-3.3h3.3v3.3Zm7.2-.1v-2.9h2.9v2.9Zm-22-3H28.1v2.9H31Zm29.3,2.8v-2.6h2.6v2.6Zm-36.7-2.6H21.2v2.5h2.4Zm44,2.4v-2.2h2.2v2.2Zm7.3-.2v-1.8h1.8v1.8Zm7.4-.2v-1.4h1.41v1.4Zm7.31-.2v-1h1v1ZM49.4,611.2v-2.5h3.3v2.5Zm7.1-.1v-2.4h3v2.4Zm7.3-.1v-2.3h2.6V611Zm7.4-.2v-2.1h2.2v2.1Zm7.3-.2v-1.8h1.8v1.8Zm7.31-.2V609h1.4v1.4Zm7.3-.2v-1h1v1Z"/><path class="cls-2" d="M143.31,557l-16.5,16.51c11.8-12.8,19.4-30.91,19.4-52.41,0-1.5,0-3-.1-4.6h.3v-.9H146c-.1-1.9-.2-3.9-.4-5.9h.9v-1.1h-1.1a124.25,124.25,0,0,0-2.7-15.8h.7v-1.9h-1.2c-.3-1.4-1.9-6.8-2.4-8.2h.4v-2.5H139c-1-2.6-2.1-5.1-3.3-7.6H137v-3h-3v-.1l19.9-20.9.8,1.5v1.8h.8c.6,1.3,1.1,2.6,1.7,4h-2.4v2.8h2.8V457l.8,2.5V462h.8c.5,1.5.9,3,1.3,4.6h-1.9v2.2h2.2v-1.1l.3,1.1c.6,2.8,1.2,5.6,1.7,8.4h-.5v1.7h.8a142.21,142.21,0,0,1,2,22.3C165.11,525.2,156.91,543.4,143.31,557ZM65.5,562.21V560.9h1.4v1.31Zm7.3-.1V561h1v1.11Zm-14.6-1v-.4h1.7v1A7.42,7.42,0,0,1,58.2,561.11ZM54.4,559v-2.1h2.2V559Zm7.4-.1v-1.8h1.7v1.8Zm7.3-.19V557.3h1.3v1.41Zm7.3-.21v-1h1v1Zm-25.7-2.79v-2.5h2.5v2.5Zm7.3-.21v-2.1h2.1v2.1Zm7.3-.2v-1.8h1.8v1.8Zm7.3-.2v-1.39H74v1.39Zm7.3-.2v-1H81v1ZM44.8,553h1.5v1.3Zm2.1-.7v-2.9h2.9v2.9Zm7.3-.2v-2.5h2.6v2.5Zm7.4-.2v-2.1h2.1v2.1Zm7.3-.19V550h1.7v1.71Zm7.3-.21v-1.3h1.4v1.3Zm7.3-.1v-1h1v1Zm-42.3-2.2h1.7v1.9Zm1.9-.2v-3.4h3.4V549Zm7.4-.2v-3h2.9v3Zm7.3-.2V546h2.5v2.6Zm7.3-.2v-2.2h2.2v2.2Zm7.3-.2v-1.8h1.8v1.8Zm7.4-.2v-1.4h1.3V548Zm7.3-.2v-1h1v1ZM47.3,497.6a68.69,68.69,0,0,0,1.3,13.2h-1v2h1.5a47.67,47.67,0,0,0,2.8,8.3H50.7v2.7h2.5l.8,1.5v2.3h1.4c.6.9,1.3,1.9,2,2.8v1H53.8v3.5H50.3v3.6H46.7v3.6H43.1v3.5H39.6v1.5c-.4-.6-.8-1.1-1.2-1.8h1v-3H36.6l-1-2v-1.4H35a36.56,36.56,0,0,1-1.8-4.6h2.2v-2.2H33.1v1.8a57.18,57.18,0,0,1-2.3-10.8h.5v-1.3h-.6a58.79,58.79,0,0,1-.3-6h.7v-.9h-.7c.1-12.3,3.2-27.2,9.6-37.6l19.9-19.9C52.5,467.8,47.3,485.2,47.3,497.6Zm-.6,47.8v-3.3h3.4v3.3Zm7.3-.2v-2.9h3v2.9Zm7.4-.2v-2.5h2.5V545Zm7.3-.2v-2.1h2.1v2.1Zm7.3-.2v-1a12.09,12.09,0,0,0,1.8.5v.5Zm-33.1-5.9H39.8v3.1h3.1Zm7.4,3.1v-3.3h3.3v3.3Zm7.3-.2v-2.9h2.9v2.9Zm7.3-.1v-2.6h1.6l1.1.7v1.9Zm-18.4-6.4H43.3v3.2h3.2Zm7.3,3.2v-3.4h3.4v3.4Zm-14.6-2.9H36.4v2.7h2.8Zm22,2.7v-3h.5l2.4,2.1v.9ZM50,531.6H46.9v3.1H50Zm7.4,3.1v-3.3h.8l2.5,2.8v.5Zm-14.7-2.9H40v2.7h2.7ZM53.6,528H50.5v3.1h3.1Zm-7.3.2H43.6v2.7h2.7Zm-7.4.3H36.7v2.2h2.2Zm10.9-3.8H47.1v2.7h2.7Zm-7.3.2H40.2v2.3h2.3Zm-7.4.2H33.3v1.8h1.8Zm72.41-19.9-18.9,18.9V500.5h19.1ZM46.1,521.3H43.8v2.3h2.3Zm-7.4.3H36.9v1.8h1.8Zm10.9-3.8H47.4V520h2.2Zm-7.3.2H40.5v1.8h1.8Zm-7.4.2H33.5v1.4h1.4Zm10.9-3.8H44v1.8h1.8Zm-7.3.2H37.1V516h1.4Zm111.31-2.4H149v.8h.9ZM42,511.1H40.7v1.3H42Zm-7.3.2h-.9v.9h.9Zm118.61-2.6h-.9v.9h.9ZM45.6,507.5H44.2v1.4h1.4Zm-7.3.3h-1v.9h1ZM150,505.1h-1.2v1.2H150Zm6.7.2h-.8v.8h.8ZM41.8,504.2h-.9v.9h.9Zm104.81-2.7h-1.4v1.4h1.4Zm6.8.2h-1.1v1.1h1.1Zm6.8.1h-.9v.9h.9ZM45.4,500.6h-.9v.9h.9Zm104.71-2.5h-1.4v1.4h1.4Zm6.8.1h-1.2v1.2h1.2Zm6.7.2h-.8v.8h.8Zm-16.8-3.9h-1.7v1.7h1.7Zm6.7.1h-1.4V496h1.4Zm6.8.2h-1.1v1.1h1.1Zm-10.1-3.8h-1.7v1.7h1.7Zm6.8.2h-1.4v1.4H157Zm6.8.1h-1.2v1.2h1.2Zm-16.9-3.9h-2v2h2Zm6.8.2H152v1.7h1.7Zm6.7.1H159v1.4h1.4Zm-16.9-3.9h-2.2V486h2.2Zm6.8.2h-1.9v1.9h1.9Zm6.8.1h-1.7v1.7h1.7Zm6.7.2h-1.4v1.4h1.4ZM147,480.4h-2.2v2.2H147Zm6.8.1h-2v2h2Zm6.8.2h-1.7v1.7h1.7Zm-17-3.9h-2.4v2.4l2.5.1Zm6.8.1h-2.2v2.2h2.2Zm6.8.2h-1.9V479h1.9Zm-16.9-3.9h-2.7v2.7h2.7Zm6.8.1h-2.5v2.5h2.5Zm6.8.2h-2.2v2.2h2.2Zm6.8.1h-2v2h2Zm-16.9-3.9H141v2.8h2.8Zm6.7.2h-2.4v2.4l2.5.1Zm6.8.1h-2.2v2.2h2.2Zm-95.71-.5,2.1-2.2v2.2Zm6.1,0v-2.9h2.9v2.9Zm7.3-.1v-2.6h2.5v2.6Zm7.3-.2V467h2.2v2.2Zm58.11-3.1h-3v3h3ZM89.61,469v-1.8h1.8V469Zm57.6-2.7h-2.7V469h2.7Zm6.8.1h-2.5v2.5H154Zm-57.1,2.4v-1.4h1.4v1.4Zm7.4-.2v-1h1v1ZM64.8,466.2l2.4-2.6v2.6Zm6.4-.2v-3h3v3Zm7.3-.2v-2.6h2.6v2.6Zm65.41-3.1h-3v3h3Zm-58,2.9v-2.2H88v2.2Zm64.8-2.8h-2.8v2.8h2.8Zm6.7.2H155v2.4l2.5.1Zm-64.2,2.4v-1.8H95v1.8Zm7.3-.2v-1.4h1.4v1.4Zm7.3-.2v-1h1v1ZM68.2,462.6l2.6-2.8v2.8Zm6.6-.2v-2.9h2.9v2.9Zm7.3-.2v-2.5h2.61v2.5Zm65.21-3h-3v3h3Zm6.8.2h-2.7v2.7h2.7ZM89.41,462v-2.1h2.2V462Zm7.3-.2v-1.7h1.8v1.7Zm7.4-.1v-1.5h1.4v1.5Zm7.3-.2v-1.1h1v1.1ZM71.5,459.1l2.9-3v3Zm6.8-.2v-3h3v3Zm72.51-3.1h-3v3h3Zm-65.1,2.9v-2.6h2.5v2.6Zm7.3-.2v-2.2h2.2v2.2Zm7.3-.2v-1.8h1.8v1.8Zm7.3-.2v-1.4H109v1.4Zm7.4-.2v-1h1v1ZM74.9,455.5l3-3.1v3.1Zm7-.2v-3h3v3Zm72.31-3h-3v3h3Zm-65,2.8v-2.6h2.6v2.6Zm7.3-.2v-2.2h2.2v2.2Zm7.4-.2v-1.8h1.8v1.8Zm7.3-.2v-1.4h1.4v1.4Zm7.3-.2v-1h1v1ZM78.3,451.9l3.2-3.3v3.3Zm7.2-.2v-2.9h2.91v2.9Zm7.31-.2V449h2.6v2.5Zm7.3-.1v-2.2h2.2v2.2Zm7.3-.2v-1.8h1.8v1.8Zm7.4-.2v-1.4h1.4V451Zm7.3-.2v-1h1v1Z"/><path class="cls-2" d="M142.81,430.11v-30.4l19.9-20.91v31.41Zm-40.5-48v3.6h-3.5v3.6h-3.6v3.5h-3.6v3.61h-3.5v3.3h-3.9v-3H81.3v3H54.2L85.41,378.8h13.7v3H102v-3h3.9v3.3Zm-10.6,17.61v-3.3h3.2v3.3Zm-15-2.6H74.5v2.2h2.2Zm22.51,2.1V396.8h2.4v2.41Zm-30-1.8H67.7v1.5h1.5Zm37.41,1.5v-1.8h1.8v1.8Zm-45-1.3h-1v1h1Zm52.61.89v-1h.9v1Zm-26.5-5.29h-2.8v2.9h2.8Zm7.5,2.79v-3.2h3.2V396ZM80.3,393.5H78.1v2.21h2.2Zm22.41,2.21v-2.5h2.5v2.5ZM72.8,393.8H71.2v1.61h1.6Zm37.41,1.5v-1.7h1.7v1.7Zm-45-1.3h-1v1h1Zm52.51.91V394h1v.91Zm-26.4-5.31h-2.9v2.9h2.9Zm7.5,2.9v-3.2H102v3.2Zm-15-2.6H81.6v2.31h2.21Zm22.5,2.2v-2.39h2.4v2.39ZM76.4,390.3H74.8v1.5h1.6Zm37.41,1.41V390h1.7v1.71Zm7.5-.31v-1h1v1ZM94.91,386H92v2.9h2.9Zm7.5,2.9v-3.2h3.1v3.2Zm-15-2.5h-2.2v2.2h2.2Zm22.4,2.2v-2.5h2.5v2.5ZM79.9,386.8H78.3v1.5h1.6Zm37.41,1.41V386.5h1.8v1.71Zm7.5-.41v-1h1v1Zm-26.4-5.3h-2.9v2.9h2.9Zm7.5,2.9v-3.2h3.2v3.2ZM91,382.8h-2.2V385H91Zm22.4,2.2v-2.5h2.5V385ZM83.5,383.2H81.9v1.5h1.6Zm37.41,1.4v-1.7h1.7v1.7Zm7.5-.4v-.9h1v.9Zm-18.9-2.4v-3h3.2v3Zm-15-2.5h-2.2v2.2h2.2Zm22.5,2.1V379h2.4v2.4Zm7.5-.3v-1.8h1.7v1.8ZM87.1,379.5H85.5V381h1.6ZM132,380.7v-1h.9v1ZM46.2,370.4H46v-1.3h1.3v.5Zm-7-.3v-.7h.7v.7ZM49.4,367v-1.6h1.7V367Zm-6.7-.4v-.8h.8v.8Zm10.1-3v-2h2v2Zm-6.6-.5v-1h1v1Zm10-2.8v-2.4h2.4v2.4Zm-6.6-.6v-1.3h1.3v1.3Zm-6.8-.3v-.7h.7v.7Zm20.1-.2v-1.7h2.5Zm-3.4-2.3v-2.8h2.8v2.8Zm6.9-.1v-3h3.3v.8ZM53,356.3v-1.6h1.6v1.6Zm-6.7-.4v-.8h.8v.8ZM71,353.7H69.9v-3.5h3.5v1.9Zm-8-.3v-3h3v3Zm-6.6-.5V351h1.9v1.9Zm-6.6-.5v-.9h.9v.9Zm34-7.3v-1.9H80.6v3.2h1.3l-1.6,1.1v-.8H77v3l-.7.5H73.4v-3.6h3.5V343h3.5v-2.7h3.81v2.4h3.1v-2.4H91ZM66.5,349.9v-3.1h3.1v3.1Zm-6.7-.4v-2.3h2.3v2.3Zm-6.6-.5v-1.2h1.2V349ZM70,346.4v-3.2h3.3v3.2Zm-6.9-.2v-2.8h2.8v2.8Zm-6.5-.6V344h1.6v1.6Zm16.9-2.7v-2.6h3.4v2.6Zm-6.9-.2v-2.4h3v2.4Zm-6.6-.5v-1.9h1.9v1.9Zm82.81-1.9V309.9l19.9-20.9v31.4ZM42.1,291.7v3.6H38.5v3.6H34.9v3.6H31.3v3.6H27.7v3.5H24v-3.4H20.7v3.7H2.8L23.7,289h1.1v2.1h2.4V289h4.5v2.3h2.9V289h4.1v2.6H42V289h3.7v2.7ZM31.4,309.5v-3.3h3.3v3.3Zm-14.8-3.1H13.7v2.9h2.9Zm22.1,2.9v-3h3v3ZM9.2,306.6H6.8v2.5H9.2ZM46,309.1v-2.6h2.6v2.6Zm7.3-.2v-2.2h2.2v2.2Zm7.4-.2v-1.8h1.8v1.8Zm7.3-.2v-1.4h1.4v1.4Zm7.3-.2v-1h1v1Zm-47.7-5.7H24.3V306h3.3Zm7.4,3.3v-3.3h3.3v3.3Zm-14.8-3.1H17.3v3h2.9Zm22.1,2.9v-3h2.9v3ZM12.8,303H10.4v2.6h2.4Zm36.8,2.5v-2.6h2.6v2.6Zm7.3-.2v-2.2h2.2v2.2Zm7.3-.2v-1.8H66v1.8Zm7.4-.2v-1.4H73v1.4Zm7.3-.2v-1h1v1ZM31.2,299H27.9v3.4h3.3Zm7.4,3.3V299h3.3v3.3Zm-14.8-3.1H20.9v2.9h2.9Zm22,2.9v-2.9h3v2.9Zm-29.4-2.7H14v2.5h2.4Zm36.8,2.5v-2.5h2.5v2.5Zm7.3-.1v-2.2h2.2v2.2Zm7.3-.2v-1.8h1.8v1.8Zm7.3-.2V300h1.4v1.4Zm7.4-.2v-1h1v1Zm-47.7-5.8H31.5v3.4h3.3Zm7.4,3.3v-3.3h3.3v3.3Zm7.2-.1v-3h3v3Zm-22-3H24.5v2.9h2.9Zm29.3,2.8v-2.6h2.6v2.6ZM20,295.8H17.6v2.5H20Zm44,2.4V296h2.2v2.2Zm7.4-.2v-1.8h1.8V298Zm7.3-.2v-1.4h1.4v1.4Zm7.31-.2v-1h1v1ZM38.4,291.8H35.1v3.4h3.3Zm7.4,3.3v-3.3h3.3v3.3ZM53,295v-2.9h2.9V295Zm-22-3H28.1v2.9H31Zm29.3,2.8v-2.6h2.6v2.6Zm-36.7-2.6H21.2v2.5h2.4Zm44,2.4v-2.2h2.2v2.2Zm7.3-.2v-1.8h1.8v1.8Zm7.4-.2v-1.4h1.41v1.4Zm7.31-.2v-1h1v1ZM49.4,291.5V289h3.3v2.5Zm7.1-.1V289h3v2.4Zm7.3-.1V289h2.6v2.3Zm7.4-.2V289h2.2v2.1Zm7.3-.2v-1.8h1.8v1.8Zm7.31-.2v-1.4h1.4v1.4Zm7.3-.2v-1h1v1Z"/><path class="cls-2" d="M142.81,213.91v-31.8l19.9-20.9V194Zm-100.71-50v3.6H38.5v3.6H34.9v3.6H31.3v3.6H27.7v3.8H2.8l19.9-20.9h2.1v2.1h2.4v-2.1h4.5v2.3h2.9v-2.3h4.1v2.6H42v-2.6h3.7v2.7ZM24,178.41H20.7v3.4H24Zm7.4,3.4v-3.3h3.3v3.3Zm-14.8-3.2H13.7v2.9h2.9Zm22.1,2.9v-3h3v3Zm-29.5-2.7H6.8v2.5H9.2Zm36.8,2.5v-2.6h2.6v2.6Zm7.3-.2v-2.2h2.2v2.2Zm7.4-.2v-1.8h1.8v1.8Zm7.3-.2v-1.4h1.4v1.4Zm7.3-.2v-1h1v1Zm-47.7-5.7H24.3v3.4h3.3Zm7.4,3.3v-3.3h3.3v3.3ZM20.2,175H17.3v3h2.9Zm22.1,2.9v-3h2.9v3Zm-29.5-2.7H10.4v2.6h2.4Zm36.8,2.5v-2.6h2.6v2.6Zm7.3-.2v-2.2h2.2v2.2Zm7.3-.2v-1.8H66v1.8Zm7.4-.2v-1.4H73v1.4Zm7.3-.2v-1h1v1Zm-47.7-5.7H27.9v3.4h3.3Zm7.4,3.3v-3.3h3.3v3.3Zm-14.8-3.1H20.9v2.9h2.9Zm22,2.9v-2.9h3v2.9Zm-29.4-2.7H14v2.5h2.4Zm36.8,2.5v-2.5h2.5v2.5Zm7.3-.1v-2.2h2.2V174Zm7.3-.2V172h1.8v1.8Zm7.3-.2v-1.4h1.4v1.4Zm7.4-.2v-1h1v1Zm-47.7-5.8H31.5V171h3.3Zm7.4,3.3v-3.3h3.3v3.3Zm7.2-.1v-3h3v3Zm-22-3H24.5v2.9h2.9Zm29.3,2.8V168h2.6v2.6ZM20,168H17.6v2.5H20Zm44,2.4v-2.2h2.2v2.2Zm7.4-.2v-1.8h1.8v1.8Zm7.3-.2v-1.4h1.4V170Zm7.31-.2v-1h1v1ZM38.4,164H35.1v3.4h3.3Zm7.4,3.3V164h3.3v3.3Zm7.2-.1v-2.9h2.9v2.9Zm-22-3H28.1v2.9H31ZM60.3,167v-2.6h2.6V167Zm-36.7-2.6H21.2v2.5h2.4Zm44,2.4v-2.2h2.2v2.2Zm7.3-.2v-1.8h1.8v1.8Zm7.4-.2V165h1.41v1.4Zm7.31-.2v-1h1v1Zm-40.21-2.5v-2.5h3.3v2.5Zm7.1-.1v-2.4h3v2.4Zm7.3-.1v-2.3h2.6v2.3Zm7.4-.2v-2.1h2.2v2.1Zm7.3-.2v-1.8h1.8v1.8Zm7.31-.2v-1.4h1.4v1.4Zm7.3-.2v-1h1v1Z"/><path class="cls-2" d="M142.81,141.11v-30.4l19.9-20.9v31.4Zm-40.5-48v3.6h-3.5v3.6h-3.6v3.5h-3.6v3.6h-3.5v3.3h-3.9v-3H81.3v3H54.2l31.21-20.9h13.7v3H102v-3h3.9v3.3Zm-10.6,17.6v-3.3h3.2v3.3Zm-15-2.6H74.5v2.2h2.2Zm22.51,2.1v-2.4h2.4v2.4Zm-30-1.8H67.7v1.5h1.5Zm37.41,1.5v-1.8h1.8v1.8Zm-45-1.3h-1v1h1Zm52.61.9v-1h.9v1Zm-26.5-5.3h-2.8v2.9h2.8Zm7.5,2.8v-3.2h3.2V107Zm-14.91-2.5H78.1v2.2h2.2Zm22.41,2.2v-2.5h2.5v2.5Zm-29.91-1.9H71.2v1.6h1.6Zm37.41,1.5v-1.7h1.7v1.7Zm-45-1.3h-1v1h1Zm52.51.9V105h1v.9Zm-26.4-5.3h-2.9v2.9h2.9Zm7.5,2.9v-3.2H102v3.2Zm-15-2.6H81.6v2.3h2.21Zm22.5,2.2v-2.4h2.4v2.4Zm-29.91-1.8H74.8v1.5h1.6Zm37.41,1.4V101h1.7v1.7Zm7.5-.3v-1h1v1ZM94.91,97H92v2.9h2.9Zm7.5,2.9v-3.2h3.1v3.2Zm-15-2.5h-2.2v2.2h2.2Zm22.4,2.2v-2.5h2.5v2.5ZM79.9,97.81H78.3v1.5h1.6Zm37.41,1.4v-1.7h1.8v1.7Zm7.5-.4v-1h1v1Zm-26.4-5.3h-2.9v2.9h2.9Zm7.5,2.9v-3.2h3.2v3.2ZM91,93.81h-2.2V96H91Zm22.4,2.2v-2.5h2.5V96ZM83.5,94.21H81.9v1.5h1.6Zm37.41,1.4v-1.7h1.7v1.7Zm7.5-.4v-.9h1v.9Zm-18.9-2.4v-3h3.2v3Zm-15-2.5h-2.2v2.2h2.2Zm22.5,2.1V90h2.4v2.4Zm7.5-.3v-1.8h1.7v1.8ZM87.1,90.51H85.5V92h1.6ZM132,91.71v-1h.9v1ZM46.2,81.41H46v-1.3h1.3v.5Zm-7-.3v-.7h.7v.7ZM49.4,78V76.41h1.7V78Zm-6.7-.39V76.8h.8v.81Zm10.1-3v-2h2v2Zm-6.6-.5v-1h1v1Zm10-2.81V68.9h2.4v2.4Zm-6.6-.59V69.4h1.3v1.31Zm-6.8-.31v-.69h.7v.69Zm20.1-.19V68.5h2.5ZM59.5,67.9V65.1h2.8v2.8Zm6.9-.1v-3h3.3v.8ZM53,67.3V65.7h1.6v1.6Zm-6.7-.4v-.8h.8v.8ZM71,64.7H69.9V61.2h3.5v1.9Zm-8-.3v-3h3v3Zm-6.6-.5V62h1.9v1.9Zm-6.6-.5v-.9h.9v.9Zm34-7.3V54.2H80.6v3.2h1.3l-1.6,1.1v-.8H77v3l-.7.5H73.4V57.6h3.5V54h3.5V51.3h3.81v2.4h3.1V51.3H91ZM66.5,60.9V57.8h3.1v3.1Zm-6.7-.4V58.2h2.3v2.3ZM53.2,60V58.8h1.2V60ZM70,57.4V54.2h3.3v3.2Zm-6.9-.2V54.4h2.8v2.8Zm-6.5-.6V55h1.6v1.6Zm16.9-2.7V51.3h3.4v2.6Zm-6.9-.2V51.3h3v2.4ZM60,53.2V51.3h1.9v1.9Zm82.81-1.9V20.9L162.71,0V31.4ZM42.1,2.7V6.3H38.5V9.9H34.9v3.6H31.3v3.6H27.7v3.5H24V17.2H20.7v3.7H2.8L23.7,0h1.1V2.1h2.4V0h4.5V2.3h2.9V0h4.1V2.6H42V0h3.7V2.7ZM31.4,20.5V17.2h3.3v3.3ZM16.6,17.4H13.7v2.9h2.9Zm22.1,2.9v-3h3v3ZM9.2,17.6H6.8v2.5H9.2ZM46,20.1V17.5h2.6v2.6Zm7.3-.2V17.7h2.2v2.2Zm7.4-.2V17.9h1.8v1.8Zm7.3-.2V18.1h1.4v1.4Zm7.3-.2v-1h1v1ZM27.6,13.6H24.3V17h3.3ZM35,16.9V13.6h3.3v3.3ZM20.2,13.8H17.3v3h2.9Zm22.1,2.9v-3h2.9v3ZM12.8,14H10.4v2.6h2.4Zm36.8,2.5V13.9h2.6v2.6Zm7.3-.2V14.1h2.2v2.2Zm7.3-.2V14.3H66v1.8Zm7.4-.2V14.5H73v1.4Zm7.3-.2v-1h1v1ZM31.2,10H27.9v3.4h3.3Zm7.4,3.3V10h3.3v3.3ZM23.8,10.2H20.9v2.9h2.9Zm22,2.9V10.2h3v2.9ZM16.4,10.4H14v2.5h2.4Zm36.8,2.5V10.4h2.5v2.5Zm7.3-.1V10.6h2.2v2.2Zm7.3-.2V10.8h1.8v1.8Zm7.3-.2V11h1.4v1.4Zm7.4-.2v-1h1v1ZM34.8,6.4H31.5V9.8h3.3Zm7.4,3.3V6.4h3.3V9.7Zm7.2-.1v-3h3v3Zm-22-3H24.5V9.5h2.9ZM56.7,9.4V6.8h2.6V9.4ZM20,6.8H17.6V9.3H20ZM64,9.2V7h2.2V9.2ZM71.4,9V7.2h1.8V9Zm7.3-.2V7.4h1.4V8.8ZM86,8.6v-1h1v1ZM38.4,2.8H35.1V6.2h3.3Zm7.4,3.3V2.8h3.3V6.1ZM53,6V3.1h2.9V6ZM31,3H28.1V5.9H31ZM60.3,5.8V3.2h2.6V5.8ZM23.6,3.2H21.2V5.7h2.4Zm44,2.4V3.4h2.2V5.6Zm7.3-.2V3.6h1.8V5.4Zm7.4-.2V3.8h1.41V5.2ZM89.61,5V4h1V5ZM49.4,2.5V0h3.3V2.5Zm7.1-.1V0h3V2.4Zm7.3-.1V0h2.6V2.3Zm7.4-.2V0h2.2V2.1Zm7.3-.2V.1h1.8V1.9Zm7.31-.2V.3h1.4V1.7Zm7.3-.2V.5h1v1Z"/></g></g></svg>