<?xml version="1.0" standalone="no"?>
<!DOCTYPE svg PUBLIC "-//W3C//DTD SVG 1.1//EN" "http://www.w3.org/Graphics/SVG/1.1/DTD/svg11.dtd" >
<svg xmlns="http://www.w3.org/2000/svg">
<metadata></metadata>
<defs>
<font id="sonarnormal" horiz-adv-x="1691" >
<font-face units-per-em="2048" ascent="1536" descent="-512" />
<missing-glyph horiz-adv-x="466" />
<glyph unicode="&#xfb01;" horiz-adv-x="931" d="M23 825v138h118v112q0 220 73 315t237 95h22v-144q-92 2 -128 -48.5t-36 -194.5v-135h486v-963h-168v825h-318v-825h-168v825h-118zM610 1329q0 56 28 87.5t73 31.5q47 0 74.5 -31.5t27.5 -87.5q0 -55 -28 -86t-74 -31q-45 0 -73 31t-28 86z" />
<glyph unicode="&#xfb02;" horiz-adv-x="933" d="M23 825v138h118v112q0 218 76.5 314t237.5 96h342v-1485h-168v1339h-140q-101 3 -140.5 -49t-39.5 -196v-131h160v-138h-160v-825h-168v825h-118z" />
<glyph horiz-adv-x="2048" />
<glyph horiz-adv-x="2048" />
<glyph unicode="&#xd;" horiz-adv-x="2048" />
<glyph unicode=" "  horiz-adv-x="466" />
<glyph unicode="&#x09;" horiz-adv-x="466" />
<glyph unicode="&#xa0;" horiz-adv-x="466" />
<glyph unicode="!" horiz-adv-x="495" d="M129 92q0 51 34 83t85 32q53 0 86 -32t33 -83q0 -49 -33 -80.5t-86 -31.5q-51 0 -85 31.5t-34 80.5zM154 1167v267h186v-267l-8 -839h-172z" />
<glyph unicode="&#x22;" horiz-adv-x="616" d="M92 1528h164l-12 -486h-140zM360 1528h164l-12 -486h-139z" />
<glyph unicode="#" horiz-adv-x="1257" d="M82 463v119h235l101 301h-211v121h252l149 438l123 -15v-22l-135 -401h270l148 438l123 -15v-22l-136 -401h175v-121h-215l-101 -301h189v-119h-230l-157 -471l-123 14v23l145 434h-270l-158 -471l-125 14v23l145 434h-194zM455 582h270l100 301h-270z" />
<glyph unicode="$" horiz-adv-x="976" d="M33 205l119 108q101 -142 221 -182l61 565q-60 39 -95.5 64t-84 68.5t-75.5 83.5t-46.5 97t-19.5 121q0 143 102.5 238.5t265.5 95.5q23 0 35 -2l31 279h110l-32 -297q141 -44 221 -170l-113 -103q-58 84 -125 119l-51 -471q51 -33 82.5 -55t76 -57.5t71.5 -69.5t54 -78 t39.5 -96t12.5 -111q0 -171 -114.5 -277t-297.5 -106h-16l-33 -313h-110l34 328q-191 39 -323 221zM281 1139q0 -77 45 -135.5t129 -116.5l47 432q-10 2 -29 2q-87 0 -139.5 -49.5t-52.5 -132.5zM481 113h4q103 0 168.5 62t65.5 163q0 89 -47.5 156.5t-134.5 130.5z" />
<glyph unicode="%" horiz-adv-x="1234" d="M82 1217q0 112 76.5 181.5t197.5 69.5q119 0 196 -69.5t77 -181.5q0 -110 -77.5 -182t-195.5 -72q-120 0 -197 72t-77 182zM154 4v23l815 1431l110 -26v-23l-815 -1432zM205 1217q0 -63 42.5 -105.5t108.5 -42.5t109 42.5t43 105.5t-42.5 103t-109.5 40t-109 -40 t-42 -103zM606 223q0 112 77 182t198 70q119 0 195.5 -70t76.5 -180q0 -112 -76.5 -184t-195.5 -72q-120 0 -197.5 72t-77.5 182zM729 223q0 -63 42 -104t110 -41q66 0 108.5 42t42.5 105t-42.5 103.5t-108.5 40.5q-69 0 -110.5 -40.5t-41.5 -105.5z" />
<glyph unicode="&#x26;" horiz-adv-x="1421" d="M96 371q0 142 83.5 250t271.5 202q-92 104 -129 183.5t-37 164.5q0 131 96 212t254 81q154 0 248 -79.5t94 -208.5q0 -111 -68 -200.5t-225 -174.5l336 -387q81 90 184 233l113 -96q-101 -138 -199 -250l244 -278v-23h-199l-159 184q-126 -116 -239.5 -164.5 t-236.5 -48.5q-196 0 -314 113.5t-118 286.5zM270 385q0 -118 75 -193t194 -75q176 0 368 178l-368 428q-149 -76 -209 -154.5t-60 -183.5zM453 1163q0 -52 31 -108t114 -154l2 -4q122 74 168.5 137t46.5 135q0 70 -51 116t-129 46q-84 0 -133 -46.5t-49 -121.5z" />
<glyph unicode="'" horiz-adv-x="348" d="M92 1528h164l-12 -486h-140z" />
<glyph unicode="(" horiz-adv-x="671" d="M195 524q0 530 258 1028l106 -51q-107 -223 -165 -477t-58 -500t58 -500.5t165 -478.5l-106 -51q-258 498 -258 1030z" />
<glyph unicode=")" horiz-adv-x="671" d="M115 -455q107 222 165 477t58 502q0 246 -58 499.5t-165 477.5l104 51q258 -493 258 -1028q0 -537 -258 -1030z" />
<glyph unicode="*" horiz-adv-x="616" d="M20 1282l39 115l193 -72l-8 203h127l-6 -205l192 74l39 -115l-199 -59l125 -160l-96 -70l-117 172l-116 -172l-99 70l125 160z" />
<glyph unicode="+" horiz-adv-x="1255" d="M172 672v131h385v399h139v-399h387v-131h-387v-402h-139v402h-385z" />
<glyph unicode="," horiz-adv-x="466" d="M125 92q0 44 30.5 74.5t75.5 30.5q47 0 78 -30t31 -75q0 -41 -29 -123l-82 -258l-102 8v23l55 260q-57 23 -57 90z" />
<glyph unicode="-" horiz-adv-x="655" d="M88 539v155h481v-155h-481z" />
<glyph unicode="." horiz-adv-x="475" d="M125 88q0 46 32 77.5t81 31.5t80.5 -31.5t31.5 -77.5q0 -47 -31.5 -77.5t-80.5 -30.5t-81 30.5t-32 77.5z" />
<glyph unicode="/" horiz-adv-x="544" d="M-10 8l655 1448l123 -29l-655 -1447z" />
<glyph unicode="0" horiz-adv-x="1187" d="M102 557q0 272 135.5 425t358.5 153q225 0 357 -152t132 -426q0 -273 -134.5 -425t-358.5 -152q-225 0 -357.5 151.5t-132.5 425.5zM285 557q0 -200 85.5 -313t223.5 -113t222.5 112t84.5 314q0 200 -85 313t-222 113q-140 0 -224.5 -111.5t-84.5 -314.5z" />
<glyph unicode="1" horiz-adv-x="720" d="M59 963v151h406v-1114h-176v963h-230z" />
<glyph unicode="2" horiz-adv-x="1028" d="M74 0v29l487 436q94 85 130 154.5t36 150.5q0 98 -62.5 157.5t-160.5 59.5q-107 0 -175 -70t-61 -200h-176q-6 130 52 227t153.5 144t212.5 47q182 0 290.5 -99t108.5 -262q0 -110 -44.5 -193.5t-159.5 -183.5l-285 -245h551v-152h-897z" />
<glyph unicode="3" horiz-adv-x="1126" d="M80 86l174 6q-5 -130 78 -217.5t215 -87.5q142 0 224.5 82t82.5 211q0 149 -94.5 230.5t-253.5 72.5v129q127 0 201.5 68.5t74.5 185.5q0 106 -60.5 167.5t-172.5 61.5q-120 0 -190 -68t-70 -186h-166q0 182 118 288t320 106q185 0 290 -97t105 -256q0 -227 -213 -315 q138 -41 212.5 -141.5t74.5 -245.5q0 -200 -134 -320t-349 -120q-189 0 -315 101.5t-146 266.5q-6 20 -6 78z" />
<glyph unicode="4" horiz-adv-x="1089" d="M-10 37v86l733 1020h143v-957h195v-149h-195v-350h-174v350h-702zM209 186h483v486q0 25 0.5 54.5t1 54.5t1 46t1.5 34v13l-20 -30t-42 -62t-38 -55z" />
<glyph unicode="5" horiz-adv-x="1085" d="M12 -49l88 117q44 -127 149.5 -199t229.5 -72q159 0 253.5 95.5t94.5 250.5q0 160 -95 252t-259 92q-132 0 -256 -53l-16 15l186 665h557v-151h-440l-107 -367q74 18 142 18q206 0 335.5 -124t129.5 -343t-142.5 -358t-382.5 -139q-151 0 -277 77t-190 224z" />
<glyph unicode="6" horiz-adv-x="1161" d="M63 463q0 110 46 218t153 249l397 526l175 -29v-18l-332 -420l-64 -78q93 35 189 35q128 0 234.5 -56.5t171.5 -168t65 -258.5q0 -135 -63.5 -247t-183.5 -179.5t-273 -67.5q-226 0 -370.5 138.5t-144.5 355.5zM233 463q0 -152 97 -251t248 -99q152 0 249 98.5t97 251.5 q0 154 -97 253t-249 99q-151 0 -248 -99t-97 -253z" />
<glyph unicode="7" horiz-adv-x="1103" d="M53 963v151h1034v-22l-686 -1172l-135 -239h-192v22l577 963q42 70 187 297h-785z" />
<glyph unicode="8" horiz-adv-x="1101" d="M84 395q0 136 80 240t211 149q-103 42 -164 127.5t-61 194.5q0 155 113 258.5t288 103.5q174 0 287.5 -103.5t113.5 -258.5q0 -109 -61.5 -194.5t-165.5 -127.5q133 -45 214 -149t81 -240q0 -183 -132 -304.5t-337 -121.5q-207 0 -337 121t-130 305zM256 401 q0 -122 85.5 -206t209.5 -84t210.5 84t86.5 206q0 124 -86.5 208.5t-210.5 84.5q-125 0 -210 -84.5t-85 -208.5zM311 1102q0 -98 70 -167t170 -69q99 0 168 69t69 167t-68.5 165.5t-168.5 67.5q-101 0 -170.5 -67.5t-69.5 -165.5z" />
<glyph unicode="9" horiz-adv-x="1161" d="M63 641q0 101 37.5 191t104.5 157t165.5 106.5t213.5 39.5q226 0 370 -138.5t144 -355.5q0 -110 -46 -218t-153 -249l-397 -528l-174 30v19l331 420q54 65 64 78q-85 -35 -188 -35q-128 0 -234.5 56.5t-172 168t-65.5 258.5zM238 641q0 -154 97 -253t249 -99 q151 0 247.5 99t96.5 253q0 153 -97 251.5t-247 98.5q-152 0 -249 -98.5t-97 -251.5z" />
<glyph unicode=":" horiz-adv-x="483" d="M135 82q0 44 30.5 73t76.5 29t77 -29t31 -73t-31 -73t-77 -29t-76.5 29t-30.5 73zM135 883q0 44 30.5 73t76.5 29t77 -29t31 -73t-31 -72.5t-77 -28.5t-76.5 28.5t-30.5 72.5z" />
<glyph unicode=";" horiz-adv-x="466" d="M125 92q0 44 30.5 74.5t75.5 30.5q47 0 78 -30t31 -75q0 -41 -29 -123l-82 -258l-102 8v23l55 260q-57 23 -57 90zM125 883q0 44 30 73t76 29t77.5 -29t31.5 -73t-31.5 -72.5t-77.5 -28.5t-76 28.5t-30 72.5z" />
<glyph unicode="&#x3c;" horiz-adv-x="1255" d="M156 727v29l936 428v-148l-664 -297l664 -295v-147z" />
<glyph unicode="=" horiz-adv-x="1255" d="M174 465v131h907v-131h-907zM174 879v131h907v-131h-907z" />
<glyph unicode="&#x3e;" horiz-adv-x="1255" d="M162 297v147l663 295l-663 297v148l936 -428v-29z" />
<glyph unicode="?" horiz-adv-x="950" d="M25 1049q-6 189 112 302t332 113q104 0 188 -33.5t136.5 -90.5t80 -128.5t27.5 -150.5q0 -160 -102 -272.5t-277 -135.5v-274h-164v383q173 0 274 82t101 217q0 112 -69 188t-193 76q-133 0 -205 -74t-67 -202h-174zM322 92q0 48 34 79.5t86 31.5q51 0 85 -32t34 -79 q0 -49 -34 -80.5t-85 -31.5q-53 0 -86.5 31.5t-33.5 80.5z" />
<glyph unicode="@" horiz-adv-x="2127" d="M84 492q0 153 43 295.5t130.5 265.5t209 214.5t289.5 144t362 52.5q196 0 367.5 -60.5t297 -169.5t197.5 -269.5t72 -350.5q0 -256 -151 -400t-402 -144q-145 0 -196 94q-121 -92 -261 -92q-168 0 -282.5 109.5t-114.5 297.5q0 191 121 304.5t307 113.5q181 0 352 -111 v-489q0 -60 24 -86.5t75 -26.5q182 0 293.5 113t111.5 315q0 219 -107.5 390.5t-292 264.5t-411.5 93q-172 0 -320 -47t-255.5 -129t-184 -191.5t-114 -237t-37.5 -263.5q0 -254 108.5 -447t301 -296t440.5 -103q198 0 393 73l29 -104q-190 -72 -422 -72q-211 0 -391 67 t-308.5 188.5t-201 300t-72.5 393.5zM807 487q0 -130 73 -205t181 -75q113 0 213 80v10v410q-104 55 -203 55q-116 0 -190 -73t-74 -202z" />
<glyph unicode="A" horiz-adv-x="1294" d="M10 0v23l629 1458h18l627 -1458v-23h-184l-99 258h-712l-99 -258h-180zM346 401h598l-246 594q-29 69 -57 150l-55 -150z" />
<glyph unicode="B" horiz-adv-x="1087" d="M162 0v1434h309q213 0 339 -97.5t126 -263.5q0 -107 -51.5 -188.5t-151.5 -118.5q126 -39 193 -133.5t67 -224.5q0 -188 -141.5 -298t-396.5 -110h-293zM336 147h117q168 0 262 70t94 197q0 124 -79.5 194t-240.5 70h-153v-531zM336 815h139q137 0 209 61.5t72 180.5 q0 113 -83.5 176t-226.5 63h-110v-481z" />
<glyph unicode="C" horiz-adv-x="1480" d="M78 709q0 117 30.5 226.5t93.5 205.5t152 168t214.5 113.5t271.5 41.5q299 0 493 -200l-114 -121q-163 166 -385 166q-135 0 -245 -50t-179.5 -134t-106.5 -190.5t-37 -223.5q0 -115 36 -219.5t103 -187t173 -131t237 -48.5q276 0 447 180l112 -123 q-113 -108 -252 -160.5t-317 -52.5q-139 0 -257.5 40.5t-204 111t-146 164.5t-90 201.5t-29.5 222.5z" />
<glyph unicode="D" horiz-adv-x="1380" d="M172 0v1434h348q363 0 569.5 -190.5t206.5 -524.5q0 -332 -209.5 -525.5t-572.5 -193.5h-342zM348 152h170q276 0 433 149.5t157 415.5t-157 416.5t-433 150.5h-170v-1132z" />
<glyph unicode="E" horiz-adv-x="1003" d="M172 0v1434h680v-150h-504v-436h375v-150h-375v-548h545v-150h-721z" />
<glyph unicode="F" horiz-adv-x="927" d="M172 0v1434h653v-148h-475v-428h350v-147h-350v-711h-178z" />
<glyph unicode="G" horiz-adv-x="1628" d="M82 707q0 158 57 298t157.5 241.5t245.5 160.5t314 59q178 0 315.5 -60.5t251.5 -184.5l-123 -115q-181 205 -448 205q-165 0 -298.5 -77.5t-209.5 -216t-76 -310.5q0 -259 164.5 -421.5t421.5 -162.5q196 0 332.5 102t167.5 289h-461v143h647q-10 -327 -197 -507.5 t-499 -180.5q-225 0 -399.5 97t-268.5 264.5t-94 376.5z" />
<glyph unicode="H" horiz-adv-x="1486" d="M172 0v1434h178v-586h787v586h180v-1434h-180v696h-787v-696h-178z" />
<glyph unicode="I" horiz-adv-x="524" d="M172 0v1434h182v-1434h-182z" />
<glyph unicode="J" horiz-adv-x="745" d="M-2 109l100 118q38 -53 86 -80.5t95 -27.5q133 0 133 160v1155h180v-1131q0 -162 -83.5 -248t-225.5 -86q-175 0 -285 140z" />
<glyph unicode="K" horiz-adv-x="1255" d="M172 0v1434h178v-629h4q43 47 84 88l520 541h199v-19l-653 -663l694 -729v-23h-215l-537 580q-22 24 -45 51.5t-35 42.5l-12 16h-4v-690h-178z" />
<glyph unicode="L" horiz-adv-x="868" d="M172 0v1434h182v-1278h402v-156h-584z" />
<glyph unicode="M" horiz-adv-x="1806" d="M63 0v23l242 1456l21 2l456 -938q23 -48 67 -145.5t52 -114.5q82 177 121 258l457 940l20 -2l244 -1456v-23h-172l-121 848l-27 199l-84 -179l-430 -899h-18l-426 889q-47 95 -84 180q-5 -37 -15 -104t-12 -86l-118 -848h-173z" />
<glyph unicode="N" horiz-adv-x="1683" d="M172 1462l25 2l1015 -1005q26 -25 129 -133q-2 66 -2 209v899h174v-1479l-22 -2l-1008 1010q-48 46 -143 151q6 -318 6 -336v-778h-172z" />
<glyph unicode="O" d="M84 715q0 161 55 299t153.5 237.5t241.5 156t312 56.5q225 0 399.5 -97.5t268.5 -267t94 -382.5q0 -159 -55.5 -297t-154 -237.5t-241.5 -156.5t-311 -57q-169 0 -312 57t-241.5 156t-153.5 236.5t-55 296.5zM270 717q0 -259 161 -425.5t415 -166.5t414.5 166.5 t160.5 425.5t-160.5 425.5t-414.5 166.5t-415 -166.5t-161 -425.5z" />
<glyph unicode="P" horiz-adv-x="1030" d="M172 0v1434h328q230 0 355.5 -104.5t125.5 -291.5q0 -188 -126.5 -295.5t-354.5 -107.5h-152v-635h-176zM348 780h148q305 0 305 254q0 123 -79 188.5t-235 65.5h-139v-508z" />
<glyph unicode="Q" horiz-adv-x="1708" d="M84 715q0 161 55 299t153.5 237.5t241.5 156t312 56.5q225 0 399.5 -97.5t268.5 -267t94 -382.5q0 -176 -65.5 -323.5t-184.5 -248.5q44 -22 88.5 -32.5t67.5 -11.5t73 -1l-2 -143q-42 -3 -78 -3q-61 0 -107 9q-75 15 -186 88q-170 -82 -368 -82q-169 0 -312 57 t-241.5 156t-153.5 236.5t-55 296.5zM268 717q0 -261 161.5 -428.5t416.5 -167.5q121 0 227 41q-56 39 -105 57t-85 18q-1 0 -3 -1q-37 0 -79 -3v144q48 6 91 6q19 0 36 -1q59 -4 128.5 -36.5t157.5 -101.5q99 80 154 202.5t55 270.5q0 260 -161.5 427t-415.5 167 q-256 0 -417 -167t-161 -427z" />
<glyph unicode="R" horiz-adv-x="1054" d="M172 0v1434h295q227 0 349 -104.5t122 -289.5q0 -136 -69 -231t-197 -135q24 -43 61 -119l254 -555h-196l-285 645h-35h-127v-645h-172zM344 786h115q303 0 303 252q0 123 -78 188.5t-233 65.5h-107v-506z" />
<glyph unicode="S" horiz-adv-x="968" d="M31 205l119 108q75 -105 155 -152.5t176 -47.5q103 0 169.5 62t66.5 163q0 72 -33.5 133t-87 106t-118.5 87.5t-130 88t-118.5 96t-87 123t-33.5 158.5q0 142 103.5 238t266.5 96q242 0 365 -190l-115 -103q-50 76 -111 113t-141 37q-87 0 -140.5 -49.5t-53.5 -132.5 q0 -64 33.5 -118t87 -95.5t118.5 -82.5t130 -87.5t118.5 -100t87 -131t33.5 -170.5q0 -173 -114 -279t-298 -106q-275 0 -448 236z" />
<glyph unicode="T" horiz-adv-x="1038" d="M59 1282v152h922v-152h-371v-1282h-182v1282h-369z" />
<glyph unicode="U" horiz-adv-x="1353" d="M156 543v891h178v-879q0 -430 334 -430q165 0 257.5 105.5t92.5 316.5v887h180v-883q0 -284 -138.5 -433t-393.5 -149q-252 0 -381 147.5t-129 426.5z" />
<glyph unicode="V" horiz-adv-x="1132" d="M10 1413v21h187l311 -914q6 -16 26 -74.5t33 -91.5l62 166l311 914h182v-21l-549 -1444h-16z" />
<glyph unicode="W" horiz-adv-x="2013" d="M10 1413v21h178l316 -914l61 -172q41 112 66 172l370 944h15l368 -944q51 -137 64 -180l65 180l312 914h178v-21l-541 -1444h-18l-369 944q-8 19 -19 48.5t-26 70t-24 64.5l-68 -183l-369 -944h-18z" />
<glyph unicode="X" horiz-adv-x="1083" d="M33 0v23l413 741l-364 649v21h199l41 -91l227 -436l219 436l43 91h195v-21l-369 -661l414 -729v-23h-195l-45 92l-274 512l-269 -514l-43 -90h-192z" />
<glyph unicode="Y" horiz-adv-x="1116" d="M10 1413v21h195l284 -486l72 -131q53 99 74 131l280 486h191v-21l-455 -743v-670h-182v670z" />
<glyph unicode="Z" horiz-adv-x="1122" d="M39 0v63l706 1111q9 15 37 54.5t39 55.5q-49 -2 -141 -2h-565v152h970v-23l-741 -1165l-65 -96q51 2 135 2h655v-152h-1030z" />
<glyph unicode="[" horiz-adv-x="636" d="M172 -506v2060h285v-96l-150 -12v-1843l150 -13v-96h-285z" />
<glyph unicode="\" horiz-adv-x="466" d="M-100 1436l118 20l514 -1448l-116 -20z" />
<glyph unicode="]" horiz-adv-x="636" d="M180 -410l150 13v1843l-150 12v96h285v-2060h-285v96z" />
<glyph unicode="^" horiz-adv-x="1019" d="M147 535l363 321l362 -321l-79 -76l-285 196l-285 -196z" />
<glyph unicode="_" horiz-adv-x="972" d="M61 -129h822v-137h-822v137z" />
<glyph unicode="`" horiz-adv-x="1024" d="M336 1436v41l133 53l219 -363l-90 -41z" />
<glyph unicode="a" horiz-adv-x="1011" d="M47 322q0 158 116 251t283 93q164 0 291 -86v51q0 227 -245 227q-149 0 -287 -82l-60 113q79 45 176.5 70.5t190.5 25.5q184 0 281.5 -86t97.5 -256v-643h-137l-11 70q-129 -90 -297 -90q-191 0 -295 93t-104 249zM203 324q0 -97 71 -157.5t193 -60.5q155 0 268 78v248 q-116 107 -270 107q-121 0 -191.5 -60t-70.5 -155z" />
<glyph unicode="b" horiz-adv-x="1144" d="M137 121v1364h166v-281q0 -87 -6 -321q134 102 303 102q113 0 204 -40t149.5 -108.5t90 -157.5t31.5 -190q0 -102 -32.5 -193.5t-93.5 -162t-157 -112t-214 -41.5q-116 0 -231 36t-210 105zM303 199q116 -80 275 -80t246 105t87 257q0 97 -35.5 178.5t-113 135 t-184.5 53.5q-149 0 -275 -111v-538z" />
<glyph unicode="c" horiz-adv-x="1032" d="M59 481q0 102 33 193t94.5 160.5t156 110t210.5 40.5q122 0 212.5 -39t168.5 -129l-115 -98q-58 67 -122 97t-144 30t-144 -30t-104 -80.5t-61 -115t-21 -137.5q0 -99 37 -180t113.5 -132.5t181.5 -51.5q171 0 276 129l113 -94q-148 -174 -395 -174q-115 0 -209 40.5 t-154.5 109.5t-93.5 159.5t-33 191.5z" />
<glyph unicode="d" horiz-adv-x="1144" d="M70 483q0 101 32.5 191.5t92 160t151.5 110t203 40.5q169 0 297 -92q-4 156 -4 311v281h166v-1485h-150l-8 74q-131 -94 -305 -94q-113 0 -204.5 40.5t-149.5 110.5t-89.5 160t-31.5 192zM236 481q0 -151 87 -256.5t244 -105.5q154 0 275 78v540q-126 111 -275 111 q-106 0 -183 -53.5t-112.5 -135t-35.5 -178.5z" />
<glyph unicode="e" horiz-adv-x="1079" d="M66 479q0 101 33 191.5t94 161t155 112t209 41.5q94 0 176.5 -30.5t146 -87t100 -144t36.5 -195.5q0 -15 -1 -32t-1 -19h-787v-10q0 -89 28.5 -159t76 -112t106 -63.5t123.5 -21.5q98 0 178.5 41.5t126.5 121.5l121 -75q-58 -103 -173.5 -161t-256.5 -58q-118 0 -213 40 t-155 108.5t-91.5 158.5t-31.5 192zM236 594h620q-18 128 -103.5 198t-197.5 70q-113 0 -203.5 -70.5t-115.5 -197.5z" />
<glyph unicode="f" horiz-adv-x="522" d="M23 825v138h118v112q0 218 76.5 314t239.5 96h22l-2 -144h-7q-87 0 -124 -51q-37 -52 -37 -196v-131h152v-138h-152v-825h-168v825h-118z" />
<glyph unicode="g" horiz-adv-x="1144" d="M70 477q0 102 32.5 193t93.5 161t156.5 111t212.5 41q122 0 238 -37t205 -108v-871q0 -202 -123 -313t-328 -111q-200 0 -407 111l69 125q173 -98 334 -98q140 0 217.5 73.5t77.5 206.5q0 15 1 55.5t1 61.5q-139 -101 -303 -101q-113 0 -204.5 40.5t-150.5 110t-90.5 159 t-31.5 190.5zM236 483q0 -73 21 -138t61 -116t104.5 -81.5t144.5 -30.5q152 0 275 106v541q-124 82 -275 82q-107 0 -184 -52.5t-112 -133t-35 -177.5z" />
<glyph unicode="h" horiz-adv-x="1067" d="M137 0v1485h168v-651q57 73 140.5 112t179.5 39q144 0 232.5 -87.5t88.5 -240.5v-657h-168v625q0 106 -56 164.5t-147 58.5q-113 0 -191.5 -79t-78.5 -202v-567h-168z" />
<glyph unicode="i" horiz-adv-x="442" d="M121 1329q0 56 27.5 87.5t72.5 31.5q46 0 73.5 -31.5t27.5 -87.5q0 -55 -27.5 -86t-73.5 -31q-45 0 -72.5 31t-27.5 86zM137 0v963h168v-963h-168z" />
<glyph unicode="j" horiz-adv-x="442" d="M121 1329q0 56 27.5 87.5t72.5 31.5q46 0 73.5 -31.5t27.5 -87.5q0 -55 -27.5 -86t-73.5 -31q-45 0 -72.5 31t-27.5 86zM137 -436v1399h168v-1399h-168z" />
<glyph unicode="k" horiz-adv-x="901" d="M137 0v1485h166v-905q36 30 53 47q173 188 181 196l120 140h183v-23l-410 -442l447 -473v-25h-199l-242 266l-106 121q-16 12 -27 14v-401h-166z" />
<glyph unicode="l" horiz-adv-x="442" d="M137 0v1485h168v-1485h-168z" />
<glyph unicode="m" horiz-adv-x="1617" d="M137 0v963h158l6 -123q52 70 130 107.5t167 37.5q96 0 166.5 -43.5t105.5 -124.5q51 78 136 123t184 45q141 0 224 -86.5t83 -241.5v-657h-168v625q0 106 -51 164.5t-133 58.5q-102 0 -173 -79t-71 -202v-567h-168v625q0 106 -51 164.5t-133 58.5q-102 0 -173 -79 t-71 -202v-567h-168z" />
<glyph unicode="n" horiz-adv-x="1067" d="M137 0v963h158l6 -134q57 75 142 115.5t182 40.5q144 0 232.5 -87.5t88.5 -240.5v-657h-168v625q0 106 -56 164.5t-147 58.5q-113 0 -191.5 -79t-78.5 -202v-567h-168z" />
<glyph unicode="o" horiz-adv-x="1146" d="M66 481q0 216 144 360t363 144t363.5 -144t144.5 -360q0 -214 -144.5 -357.5t-363.5 -143.5t-363 143t-144 358zM223 481q0 -158 99 -261t251 -103t251.5 103.5t99.5 260.5q0 158 -99.5 262.5t-251.5 104.5t-251 -104t-99 -263z" />
<glyph unicode="p" horiz-adv-x="1144" d="M137 -436v1399h150l8 -78q137 98 303 98q113 0 205 -41t150.5 -111t90 -161t31.5 -193q0 -135 -55 -248t-166 -183.5t-258 -70.5q-167 0 -299 95q6 -234 6 -314v-192h-166zM303 223q122 -108 275 -108q81 0 145.5 30.5t105 82t61.5 116.5t21 137q0 97 -35.5 177.5 t-113 133t-184.5 52.5q-161 0 -275 -82v-539z" />
<glyph unicode="q" horiz-adv-x="1144" d="M70 479q0 102 32.5 193t93.5 161t156.5 111t212.5 41q122 0 237.5 -38t205.5 -109v-1274h-166v196q0 162 4 318q-135 -98 -299 -98q-113 0 -204.5 40t-150.5 109t-90.5 159t-31.5 191zM236 483q0 -151 87 -257.5t244 -106.5q152 0 275 106v541q-119 82 -275 82 q-107 0 -184 -52.5t-112 -133.5t-35 -179z" />
<glyph unicode="r" horiz-adv-x="724" d="M137 0v963h158l6 -154q111 176 295 176q45 0 88 -14l-39 -160q-50 16 -92 16q-106 0 -177 -81.5t-71 -223.5v-522h-168z" />
<glyph unicode="s" horiz-adv-x="817" d="M45 117l82 110q52 -57 128 -90t153 -33q81 0 132.5 35.5t51.5 102.5q0 47 -27 83.5t-70 62t-95 48.5t-104 49.5t-95 58t-70 81t-27 112.5q0 116 87.5 182t218.5 66q174 0 290 -96l-79 -111q-41 40 -98 61t-113 21q-66 0 -109 -28.5t-43 -81.5q0 -36 21 -65.5t55.5 -49.5 t78.5 -41t90 -39.5t90 -46.5t78.5 -60.5t55.5 -82.5t21 -111q0 -132 -98 -203t-249 -71q-106 0 -200 36.5t-156 100.5z" />
<glyph unicode="t" horiz-adv-x="536" d="M27 825v138h116v297h168v-297h152v-138h-152v-471q0 -129 24.5 -177t78.5 -48q42 0 65 10l17 -137q-66 -16 -121 -16q-117 0 -174.5 81.5t-57.5 266.5v491h-116z" />
<glyph unicode="u" horiz-adv-x="1067" d="M121 307v656h168v-623q0 -105 55.5 -163t147.5 -58q113 0 191.5 78t78.5 200v566h168v-963h-158l-8 135q-57 -74 -141.5 -114.5t-180.5 -40.5q-144 0 -232.5 87t-88.5 240z" />
<glyph unicode="v" horiz-adv-x="944" d="M10 942v21h172l168 -412q46 -115 125 -328q88 236 125 328l170 412h164v-21l-404 -942h-114z" />
<glyph unicode="w" horiz-adv-x="1644" d="M10 942v21h170l160 -412q20 -51 42 -109t44.5 -119.5t32.5 -86.5q57 175 114 319l160 408h113l155 -408q27 -71 115 -319q83 220 121 315l158 412h161v-21l-382 -942h-119l-148 393l-125 340l-120 -344l-146 -389h-113z" />
<glyph unicode="x" horiz-adv-x="976" d="M27 0v25l358 464l-346 449v25h194l91 -123l168 -217l167 217l93 123h178v-25l-342 -440l366 -473v-25h-194l-90 123l-189 242l-184 -242l-88 -123h-182z" />
<glyph unicode="y" horiz-adv-x="983" d="M8 942v21h176l181 -414q31 -72 124 -311q51 129 132 311l186 414h168v-21l-559 -1188l-78 -178h-174v21l233 481z" />
<glyph unicode="z" horiz-adv-x="978" d="M25 0v23l585 716q18 26 72 84h-119h-467v140h862v-23l-587 -721q-22 -28 -70 -80q19 0 57.5 1t55.5 1h538v-141h-927z" />
<glyph unicode="{" horiz-adv-x="681" d="M88 444v117q70 0 100.5 43.5t30.5 128.5v461q0 111 14.5 179t52.5 110t97.5 57.5t157.5 15.5h22v-116h-16q-66 -2 -102 -11t-58 -39t-28.5 -75.5t-6.5 -130.5v-455q0 -85 -18.5 -139t-67.5 -88q51 -30 68.5 -83t17.5 -143v-411q0 -68 4.5 -109.5t15.5 -72.5t34.5 -45.5 t55.5 -21t85 -7.5h16v-117h-22q-98 0 -157.5 15.5t-97.5 58t-52.5 110.5t-14.5 179v417q0 87 -30 129.5t-101 42.5z" />
<glyph unicode="|" horiz-adv-x="477" d="M172 -424v1909h135v-1909h-135z" />
<glyph unicode="}" horiz-adv-x="681" d="M119 -391h16q66 1 102 10t58 39.5t28.5 76t6.5 130.5v452q0 86 18 140t66 86q-50 33 -67 85.5t-17 141.5v414q0 85 -6.5 130.5t-28.5 75.5t-58 39t-102 11h-16v116h22q98 0 157.5 -15.5t97.5 -57.5t52.5 -110t14.5 -179v-418q0 -87 30 -129.5t101 -42.5v-117 q-70 0 -100.5 -43.5t-30.5 -128.5v-460q0 -111 -14.5 -179t-52.5 -110.5t-97.5 -58t-157.5 -15.5h-22v117z" />
<glyph unicode="~" horiz-adv-x="995" d="M182 647q89 68 178 68q37 0 138.5 -18.5t138.5 -18.5q42 0 121 37l55 -111q-91 -67 -180 -67q-36 0 -137 18t-138 18q-46 0 -120 -36z" />
<glyph unicode="&#xa1;" horiz-adv-x="497" d="M129 870q0 49 34 80t87 31q51 0 85 -31t34 -80q0 -47 -34 -79.5t-85 -32.5q-52 0 -86.5 32t-34.5 80zM158 -297l10 930h166l10 -930v-127h-186v127z" />
<glyph unicode="&#xa2;" horiz-adv-x="1032" d="M59 965q0 135 55.5 247.5t169 183.5t265.5 72l31 273h110l-31 -281q153 -26 275 -160l-115 -98q-80 96 -176 119l-78 -721q164 6 266 129l113 -94q-147 -172 -393 -172l-33 -313h-110l34 321q-182 33 -282.5 169.5t-100.5 324.5zM221 965q0 -129 61.5 -226t174.5 -127 l78 719q-152 -6 -233 -110t-81 -256z" />
<glyph unicode="&#xa3;" horiz-adv-x="976" d="M47 0v133q70 28 99.5 81t29.5 157v276h-129v152h129v282q0 176 103 279.5t272 103.5q232 0 360 -186l-114 -109q-50 76 -108 112t-134 36q-91 0 -146 -59.5t-55 -174.5v-284h312v-152h-312v-252q0 -88 -19.5 -143.5t-62.5 -95.5h631v-156h-856z" />
<glyph unicode="&#xa5;" horiz-adv-x="1116" d="M10 1413v21h195l284 -486l72 -131q53 99 74 131l280 486h191v-21l-442 -723h380v-131h-393v-197h393v-131h-393v-231h-182v231h-397v131h397v197h-397v131h385z" />
<glyph unicode="&#xa6;" horiz-adv-x="477" d="M172 205h135v-512h-135v512zM172 717v512h135v-512h-135z" />
<glyph unicode="&#xa7;" horiz-adv-x="958" d="M80 758q0 178 186 262q-92 82 -92 190q0 117 88.5 187.5t218.5 70.5q175 0 291 -98l-86 -108q-87 81 -205 81q-65 0 -109 -32.5t-44 -87.5q0 -42 30.5 -77.5t79 -63t107 -54.5t117.5 -59t107.5 -70t79 -95t30.5 -126q0 -172 -181 -260q88 -81 88 -189q0 -118 -90 -189 t-225 -71q-212 0 -350 123l86 113q52 -52 123 -81.5t141 -29.5q69 0 114.5 33.5t45.5 87.5q0 45 -30.5 82.5t-79 65t-107 54t-117.5 57.5t-107.5 67.5t-79 92t-30.5 124.5zM229 774q0 -41 20.5 -75t62 -62t80 -48t100.5 -49t98 -48q63 26 102 71t39 99q0 34 -16 64.5 t-39.5 52.5t-63 46t-73 40t-83.5 40t-81 41q-65 -24 -105.5 -69.5t-40.5 -102.5z" />
<glyph unicode="&#xa8;" horiz-adv-x="1024" d="M221 1262q0 45 32 74.5t77 29.5q46 0 78 -29.5t32 -74.5q0 -44 -32 -74.5t-78 -30.5q-45 0 -77 30.5t-32 74.5zM584 1262q0 45 32 74.5t78 29.5t77.5 -29.5t31.5 -74.5q0 -44 -31.5 -74.5t-77.5 -30.5t-78 30.5t-32 74.5z" />
<glyph unicode="&#xa9;" d="M88 717q0 212 92.5 381t266.5 267.5t401 98.5q169 0 312 -57.5t240.5 -157.5t151.5 -237.5t54 -294.5t-54 -294t-151.5 -237t-240.5 -157.5t-312 -57.5q-170 0 -313.5 58t-241 158t-151.5 237t-54 293zM150 717q0 -193 84.5 -348t245 -246.5t368.5 -91.5q207 0 367.5 91 t245.5 246.5t85 348.5t-85 349.5t-245.5 248.5t-367.5 92q-208 0 -368.5 -91.5t-245 -248t-84.5 -350.5zM436 719q0 117 47.5 212.5t145 155.5t227.5 60q104 0 180.5 -32.5t143.5 -108.5l-101 -91q-89 107 -223 107q-131 0 -202.5 -88.5t-71.5 -216.5q0 -126 73.5 -213.5 t202.5 -87.5q141 0 232 108l100 -86q-126 -147 -336 -147q-98 0 -178 35t-132 94t-80 136t-28 163z" />
<glyph unicode="&#xaa;" horiz-adv-x="675" d="M35 1038q0 101 73 160t181 59q105 0 180 -47v25q0 137 -150 137q-87 0 -180 -49l-45 88q115 59 246 59q123 0 188.5 -57t65.5 -170v-409h-109l-10 40q-82 -55 -180 -55q-126 0 -193 59.5t-67 159.5zM47 612v138h549v-138h-549zM160 1040q0 -55 40.5 -88.5t112.5 -33.5 q89 0 156 45v139q-68 59 -160 59q-70 0 -109.5 -33t-39.5 -88z" />
<glyph unicode="&#xab;" horiz-adv-x="1028" d="M72 537v28l366 465l101 -76l-306 -401l306 -403l-101 -78zM461 537v28l360 430l101 -73l-299 -369l292 -373l-100 -74z" />
<glyph unicode="&#xac;" horiz-adv-x="817" d="M68 557v137h673v-338h-168v201h-505z" />
<glyph unicode="&#xad;" horiz-adv-x="655" d="M88 539v155h481v-155h-481z" />
<glyph unicode="&#xae;" d="M88 717q0 212 92.5 381t266.5 267.5t401 98.5q169 0 312 -57.5t240.5 -157.5t151.5 -237.5t54 -294.5t-54 -294t-151.5 -237t-240.5 -157.5t-312 -57.5q-170 0 -313.5 58t-241 158t-151.5 237t-54 293zM150 717q0 -193 84.5 -348t245 -246.5t368.5 -91.5q207 0 367.5 91 t245.5 246.5t85 348.5t-85 349.5t-245.5 248.5t-367.5 92q-208 0 -368.5 -91.5t-245 -248t-84.5 -350.5zM571 238v954h240q193 0 288 -79t95 -210q0 -93 -50.5 -162t-152.5 -102q14 -22 39 -74l148 -327h-146l-168 380q-16 -2 -49 -2h-115v-378h-129zM700 723h111 q131 0 190.5 48.5t59.5 131.5q0 82 -63 131t-193 49h-105v-360z" />
<glyph unicode="&#xaf;" horiz-adv-x="1024" d="M279 1186v131h466v-131h-466z" />
<glyph unicode="&#xb0;" horiz-adv-x="710" d="M82 1292q0 112 76.5 181t197.5 69q120 0 197.5 -69.5t77.5 -180.5q0 -110 -78 -182t-197 -72q-120 0 -197 72t-77 182zM178 1292q0 -73 49.5 -121.5t128.5 -48.5q77 0 128 49t51 121t-50.5 119t-128.5 47q-79 0 -128.5 -46.5t-49.5 -119.5z" />
<glyph unicode="&#xb1;" horiz-adv-x="1255" d="M172 0v131h911v-131h-911zM172 678v131h385v393h139v-393h387v-131h-387v-395h-139v395h-385z" />
<glyph unicode="&#xb2;" horiz-adv-x="688" d="M20 881v16l340 348q70 75 99.5 132t29.5 114q0 72 -44.5 115t-110.5 43q-76 0 -123 -52.5t-41 -148.5h-141q-10 143 80 227t231 84q132 0 212.5 -71.5t80.5 -188.5q0 -79 -35.5 -149t-120.5 -156l-198 -197h370v-116h-629z" />
<glyph unicode="&#xb3;" horiz-adv-x="698" d="M45 1141l133 4q-3 -74 42 -121t118 -47q77 0 122.5 44.5t45.5 115.5q0 83 -54.5 127t-144.5 36v97q71 -2 114.5 35t43.5 100q0 58 -33 91.5t-94 33.5q-64 0 -101.5 -36.5t-37.5 -100.5h-127q-2 111 72 175t204 64q118 0 183 -59.5t65 -153.5q0 -133 -123 -184 q83 -26 126.5 -85.5t43.5 -146.5q0 -122 -83 -195t-218 -73q-125 0 -205.5 66.5t-89.5 173.5q-2 8 -2 39z" />
<glyph unicode="&#xb4;" horiz-adv-x="1024" d="M336 1167l219 363l133 -53v-41l-262 -310z" />
<glyph unicode="&#xb6;" horiz-adv-x="1189" d="M90 1038q0 187 125.5 291.5t355.5 104.5h179v-1434h-177v635q-228 0 -355.5 108t-127.5 295zM846 0v1434h172v-1434h-172z" />
<glyph unicode="&#xb7;" horiz-adv-x="626" d="M205 684q0 44 31 74t77 30t77.5 -30t31.5 -74t-31.5 -73t-77.5 -29t-77 29t-31 73z" />
<glyph unicode="&#xb8;" horiz-adv-x="1024" d="M313 -367l62 72q45 -65 121 -65q44 0 73 28t29 72q0 43 -31 70.5t-80 27.5q-48 0 -92 -14l-18 20l92 201l104 -14l-57 -109h8q80 0 134.5 -51.5t54.5 -134.5q0 -79 -58 -136t-149 -57q-127 0 -193 90z" />
<glyph unicode="&#xb9;" horiz-adv-x="460" d="M37 1626v115h274v-860h-137v745h-137z" />
<glyph unicode="&#xba;" horiz-adv-x="757" d="M45 1145q0 140 95 232.5t239 92.5q145 0 240.5 -92.5t95.5 -232.5q0 -138 -96 -231t-240 -93t-239 92.5t-95 231.5zM70 612v138h620v-138h-620zM174 1145q0 -93 57.5 -154t147.5 -61q91 0 148 61t57 154q0 94 -56.5 154.5t-148.5 60.5q-90 0 -147.5 -60.5t-57.5 -154.5z " />
<glyph unicode="&#xbb;" horiz-adv-x="1028" d="M109 922l98 73l360 -430v-28l-354 -431l-100 74l293 373zM489 150l306 403l-306 401l101 76l366 -465v-28l-364 -465z" />
<glyph unicode="&#xbc;" horiz-adv-x="1544" d="M113 1319v115h274v-861h-137v746h-137zM223 4v23l815 1431l111 -26v-23l-815 -1432zM774 201h420v-201h135v201h115v114h-115v555h-139l-416 -589v-80zM928 315l207 295l59 88v-383h-266z" />
<glyph unicode="&#xbd;" horiz-adv-x="1634" d="M113 1319v115h274v-861h-137v746h-137zM223 4v23l815 1431l111 -26v-23l-815 -1432zM889 0v16l340 349q71 75 100 131.5t29 113.5q0 72 -45 115t-111 43q-76 0 -123 -52.5t-41 -148.5h-141q-10 143 80 227.5t231 84.5q132 0 212.5 -72t80.5 -189q0 -80 -35.5 -149.5 t-119.5 -155.5l-199 -196h371v-117h-629z" />
<glyph unicode="&#xbe;" horiz-adv-x="1781" d="M121 850l133 4q-3 -74 42 -121t118 -47q77 0 122.5 44.5t45.5 115.5q0 83 -54.5 127.5t-144.5 36.5v96q71 -2 114.5 35t43.5 100q0 58 -33 91.5t-94 33.5q-64 0 -102 -36.5t-38 -100.5h-127q-2 111 72.5 175t204.5 64q118 0 183 -59.5t65 -153.5q0 -133 -123 -184 q170 -54 170 -231q0 -122 -83.5 -195.5t-217.5 -73.5q-125 0 -205.5 66.5t-89.5 173.5q-2 8 -2 39zM463 4v23l815 1431l111 -26v-23l-816 -1432zM1014 201h420v-201h135v201h114v114h-114v555h-139l-416 -589v-80zM1167 315l207 295l60 88v-383h-267z" />
<glyph unicode="&#xbf;" horiz-adv-x="950" d="M49 -51q0 159 101 270.5t278 134.5v260h164v-366q-173 0 -274 -82t-101 -217q0 -112 69 -188t193 -76q134 0 206 74.5t67 201.5h174q6 -189 -112.5 -302.5t-332.5 -113.5q-104 0 -188 34t-136.5 91t-80 128.5t-27.5 150.5zM387 870q0 49 34.5 80t86.5 31q53 0 87 -31 t34 -80t-34 -80.5t-87 -31.5q-52 0 -86.5 31.5t-34.5 80.5z" />
<glyph unicode="&#xc0;" horiz-adv-x="1294" d="M10 0v23l629 1458h18l627 -1458v-23h-184l-99 258h-712l-99 -258h-180zM346 401h598l-246 594q-29 69 -57 150l-55 -150zM369 1896v41l133 54l219 -363l-90 -41z" />
<glyph unicode="&#xc1;" horiz-adv-x="1294" d="M10 0v23l629 1458h18l627 -1458v-23h-184l-99 258h-712l-99 -258h-180zM346 401h598l-246 594q-29 69 -57 150l-55 -150zM571 1628l220 363l133 -54v-41l-262 -309z" />
<glyph unicode="&#xc2;" horiz-adv-x="1294" d="M10 0v23l629 1458h18l627 -1458v-23h-184l-99 258h-712l-99 -258h-180zM334 1651l313 315l314 -315l-74 -66l-242 187l-242 -187zM346 401h598l-246 594q-29 69 -57 150l-55 -150z" />
<glyph unicode="&#xc3;" horiz-adv-x="1294" d="M10 0v23l629 1458h18l627 -1458v-23h-184l-99 258h-712l-99 -258h-180zM346 401h598l-246 594q-29 69 -57 150l-55 -150zM379 1741q85 67 172 67q35 0 100 -20.5t101 -20.5q42 0 110 35l56 -110q-84 -66 -173 -66q-33 0 -98 20.5t-102 20.5q-39 0 -111 -37z" />
<glyph unicode="&#xc4;" horiz-adv-x="1294" d="M10 0v23l629 1458h18l627 -1458v-23h-184l-99 258h-712l-99 -258h-180zM346 401h598l-246 594q-29 69 -57 150l-55 -150zM356 1722q0 45 32 75t77 30q46 0 78 -30t32 -75q0 -44 -32 -74t-78 -30q-45 0 -77 30t-32 74zM719 1722q0 45 32 75t78 30t77.5 -30t31.5 -75 q0 -44 -31.5 -74t-77.5 -30t-78 30t-32 74z" />
<glyph unicode="&#xc5;" horiz-adv-x="1294" d="M10 0v23l629 1458h18l627 -1458v-23h-184l-99 258h-712l-99 -258h-180zM346 401h598l-246 594q-29 69 -57 150l-55 -150zM440 1712q0 84 58.5 137.5t148.5 53.5t148.5 -53.5t58.5 -137.5t-58.5 -138t-148.5 -54t-148.5 54t-58.5 138zM539 1712q0 -43 30.5 -73.5 t77.5 -30.5t78 30.5t31 73.5q0 44 -31 73.5t-78 29.5t-77.5 -29.5t-30.5 -73.5z" />
<glyph unicode="&#xc6;" horiz-adv-x="1746" d="M4 0v23l922 1411h673v-150h-501v-426h377v-149h-377v-559h540v-150h-710v236h-586l-143 -236h-195zM428 373h500v780l-101 -160z" />
<glyph unicode="&#xc7;" horiz-adv-x="1480" d="M78 709q0 117 30.5 226.5t93.5 205.5t152 168t214.5 113.5t271.5 41.5q299 0 493 -200l-114 -121q-163 166 -385 166q-135 0 -245 -50t-179.5 -134t-106.5 -190.5t-37 -223.5q0 -115 36 -219.5t103 -187t173 -131t237 -48.5q276 0 447 180l112 -123q-210 -204 -543 -213 l-24 -47h8q80 0 134.5 -51.5t54.5 -134.5q0 -79 -58 -136t-149 -57q-127 0 -193 90l62 72q45 -65 120 -65q45 0 74 28t29 72q0 43 -31 70.5t-80 27.5q-48 0 -92 -14l-18 20l59 129q-125 11 -231 56.5t-182 115.5t-130 160.5t-80 193t-26 210.5z" />
<glyph unicode="&#xc8;" horiz-adv-x="1003" d="M172 0v1434h680v-150h-504v-436h375v-150h-375v-548h545v-150h-721zM258 1886v41l133 53l219 -362l-90 -41z" />
<glyph unicode="&#xc9;" horiz-adv-x="1003" d="M172 0v1434h680v-150h-504v-436h375v-150h-375v-548h545v-150h-721zM459 1618l219 362l133 -53v-41l-262 -309z" />
<glyph unicode="&#xca;" horiz-adv-x="1003" d="M172 0v1434h680v-150h-504v-436h375v-150h-375v-548h545v-150h-721zM221 1640l314 316l313 -316l-74 -65l-242 186l-241 -186z" />
<glyph unicode="&#xcb;" horiz-adv-x="1003" d="M172 0v1434h680v-150h-504v-436h375v-150h-375v-548h545v-150h-721zM244 1712q0 45 31.5 75t76.5 30q46 0 78.5 -30t32.5 -75q0 -44 -32.5 -74t-78.5 -30q-45 0 -76.5 30t-31.5 74zM606 1712q0 45 32.5 75t78.5 30t77 -30t31 -75q0 -44 -31 -74t-77 -30t-78.5 30 t-32.5 74z" />
<glyph unicode="&#xcc;" horiz-adv-x="524" d="M-14 1886v41l133 53l219 -362l-90 -41zM172 0v1434h182v-1434h-182z" />
<glyph unicode="&#xcd;" horiz-adv-x="524" d="M172 0v1434h182v-1434h-182zM188 1618l220 362l133 -53v-41l-262 -309z" />
<glyph unicode="&#xce;" horiz-adv-x="524" d="M-49 1640l313 316l314 -316l-74 -65l-242 186l-242 -186zM172 0v1434h182v-1434h-182z" />
<glyph unicode="&#xcf;" horiz-adv-x="524" d="M-29 1712q0 45 32 75t77 30q46 0 78 -30t32 -75q0 -44 -32 -74t-78 -30q-45 0 -77 30t-32 74zM172 0v1434h182v-1434h-182zM334 1712q0 45 32 75t78 30t77.5 -30t31.5 -75q0 -44 -31.5 -74t-77.5 -30t-78 30t-32 74z" />
<glyph unicode="&#xd0;" horiz-adv-x="1388" d="M25 649v152h153v633h348q363 0 570 -191t207 -524q0 -332 -210 -525.5t-573 -193.5h-342v649h-153zM354 152h170q276 0 433 149.5t157 415.5t-157 416.5t-433 150.5h-170v-483h308v-152h-308v-497z" />
<glyph unicode="&#xd1;" horiz-adv-x="1683" d="M172 1462l25 2l1015 -1005q26 -25 129 -133q-2 66 -2 209v899h174v-1479l-22 -2l-1008 1010q-48 46 -143 151q6 -318 6 -336v-778h-172zM565 1720q86 68 172 68q35 0 100 -20.5t101 -20.5q43 0 111 35l55 -111q-82 -65 -172 -65q-34 0 -99.5 20.5t-101.5 20.5 q-38 0 -110 -37z" />
<glyph unicode="&#xd2;" d="M84 715q0 161 55 299t153.5 237.5t241.5 156t312 56.5q225 0 399.5 -97.5t268.5 -267t94 -382.5q0 -159 -55.5 -297t-154 -237.5t-241.5 -156.5t-311 -57q-169 0 -312 57t-241.5 156t-153.5 236.5t-55 296.5zM270 717q0 -259 161 -425.5t415 -166.5t414.5 166.5 t160.5 425.5t-160.5 425.5t-414.5 166.5t-415 -166.5t-161 -425.5zM567 1896v41l133 54l220 -363l-91 -41z" />
<glyph unicode="&#xd3;" d="M84 715q0 161 55 299t153.5 237.5t241.5 156t312 56.5q225 0 399.5 -97.5t268.5 -267t94 -382.5q0 -159 -55.5 -297t-154 -237.5t-241.5 -156.5t-311 -57q-169 0 -312 57t-241.5 156t-153.5 236.5t-55 296.5zM270 717q0 -259 161 -425.5t415 -166.5t414.5 166.5 t160.5 425.5t-160.5 425.5t-414.5 166.5t-415 -166.5t-161 -425.5zM770 1628l219 363l133 -54v-41l-262 -309z" />
<glyph unicode="&#xd4;" d="M84 715q0 161 55 299t153.5 237.5t241.5 156t312 56.5q225 0 399.5 -97.5t268.5 -267t94 -382.5q0 -159 -55.5 -297t-154 -237.5t-241.5 -156.5t-311 -57q-169 0 -312 57t-241.5 156t-153.5 236.5t-55 296.5zM270 717q0 -259 161 -425.5t415 -166.5t414.5 166.5 t160.5 425.5t-160.5 425.5t-414.5 166.5t-415 -166.5t-161 -425.5zM532 1651l314 315l313 -315l-74 -66l-241 187l-242 -187z" />
<glyph unicode="&#xd5;" d="M84 715q0 161 55 299t153.5 237.5t241.5 156t312 56.5q225 0 399.5 -97.5t268.5 -267t94 -382.5q0 -159 -55.5 -297t-154 -237.5t-241.5 -156.5t-311 -57q-169 0 -312 57t-241.5 156t-153.5 236.5t-55 296.5zM270 717q0 -259 161 -425.5t415 -166.5t414.5 166.5 t160.5 425.5t-160.5 425.5t-414.5 166.5t-415 -166.5t-161 -425.5zM578 1741q85 67 172 67q35 0 99.5 -20.5t100.5 -20.5q43 0 111 35l55 -110q-84 -66 -172 -66q-34 0 -99 20.5t-102 20.5q-38 0 -110 -37z" />
<glyph unicode="&#xd6;" d="M84 715q0 161 55 299t153.5 237.5t241.5 156t312 56.5q225 0 399.5 -97.5t268.5 -267t94 -382.5q0 -159 -55.5 -297t-154 -237.5t-241.5 -156.5t-311 -57q-169 0 -312 57t-241.5 156t-153.5 236.5t-55 296.5zM270 717q0 -259 161 -425.5t415 -166.5t414.5 166.5 t160.5 425.5t-160.5 425.5t-414.5 166.5t-415 -166.5t-161 -425.5zM555 1722q0 45 32 75t77 30q46 0 78 -30t32 -75q0 -44 -32 -74t-78 -30q-45 0 -77 30t-32 74zM918 1722q0 45 32 75t78 30t77.5 -30t31.5 -75q0 -44 -31.5 -74t-77.5 -30t-78 30t-32 74z" />
<glyph unicode="&#xd7;" horiz-adv-x="1255" d="M174 348l361 387l-361 389l94 95l359 -385l358 385l92 -95l-360 -389l360 -387l-92 -94l-358 385l-359 -385z" />
<glyph unicode="&#xd8;" d="M84 715q0 161 55 299t153.5 237.5t241.5 156t312 56.5q283 0 485 -153l152 159l108 -32v-23l-174 -184q92 -99 141.5 -231t49.5 -283q0 -159 -55.5 -297t-154 -237.5t-241.5 -156.5t-311 -57q-286 0 -486 154l-151 -160l-109 33v22l174 183q-92 98 -141 230t-49 284z M270 717q0 -232 123 -389l821 862q-153 119 -368 119q-254 0 -415 -166.5t-161 -425.5zM475 244q146 -119 371 -119q254 0 414.5 166.5t160.5 425.5q0 234 -123 391z" />
<glyph unicode="&#xd9;" horiz-adv-x="1394" d="M156 543v891h178v-879q0 -430 334 -430q165 0 257.5 105.5t92.5 316.5v887h180v-883q0 -284 -138.5 -433t-393.5 -149q-252 0 -381 147.5t-129 426.5zM412 1876v41l133 53l219 -362l-90 -41z" />
<glyph unicode="&#xda;" horiz-adv-x="1394" d="M156 543v891h178v-879q0 -430 334 -430q165 0 257.5 105.5t92.5 316.5v887h180v-883q0 -284 -138.5 -433t-393.5 -149q-252 0 -381 147.5t-129 426.5zM612 1608l219 362l134 -53v-41l-263 -309z" />
<glyph unicode="&#xdb;" horiz-adv-x="1394" d="M156 543v891h178v-879q0 -430 334 -430q165 0 257.5 105.5t92.5 316.5v887h180v-883q0 -284 -138.5 -433t-393.5 -149q-252 0 -381 147.5t-129 426.5zM377 1630l313 316l314 -316l-74 -65l-242 186l-242 -186z" />
<glyph unicode="&#xdc;" horiz-adv-x="1394" d="M156 543v891h178v-879q0 -430 334 -430q165 0 257.5 105.5t92.5 316.5v887h180v-883q0 -284 -138.5 -433t-393.5 -149q-252 0 -381 147.5t-129 426.5zM397 1702q0 45 32 74.5t77 29.5q46 0 78 -29.5t32 -74.5q0 -44 -32 -74.5t-78 -30.5q-45 0 -77 30.5t-32 74.5z M760 1702q0 45 32 74.5t78 29.5t77.5 -29.5t31.5 -74.5q0 -44 -31.5 -74.5t-77.5 -30.5t-78 30.5t-32 74.5z" />
<glyph unicode="&#xdd;" horiz-adv-x="1116" d="M10 1413v21h195l284 -486l72 -131q53 99 74 131l280 486h191v-21l-455 -743v-670h-182v670zM487 1608l220 362l133 -53v-41l-262 -309z" />
<glyph unicode="&#xde;" horiz-adv-x="1030" d="M172 0v1434h176v-318h152q230 0 355.5 -104t125.5 -291q0 -188 -126.5 -296t-354.5 -108h-152v-317h-176zM348 463h148q305 0 305 254q0 123 -79 188.5t-235 65.5h-139v-508z" />
<glyph unicode="&#xdf;" horiz-adv-x="1048" d="M137 0v1073q0 212 103 312t288 100q164 0 259.5 -78.5t95.5 -208.5q0 -56 -21 -104.5t-52.5 -80.5t-68 -64.5t-68 -58t-52.5 -59t-21 -69.5q0 -41 21.5 -74t56.5 -56.5t76.5 -46.5t83.5 -50.5t77 -61t56.5 -85t21.5 -116.5q0 -131 -89 -209.5t-238 -78.5q-171 0 -295 96 l65 113q111 -84 223 -84q82 0 129.5 41t47.5 110q0 46 -21.5 82.5t-56 62t-76.5 49t-84 50t-76.5 58t-56 80.5t-21.5 110q0 51 20 96.5t50.5 76t66 63t66 58.5t50.5 61t20 73q0 69 -52 115t-137 46q-104 0 -161.5 -58.5t-57.5 -205.5l-4 -1077h-168z" />
<glyph unicode="&#xe0;" horiz-adv-x="1011" d="M47 322q0 158 116 251t283 93q164 0 291 -86v51q0 227 -245 227q-149 0 -287 -82l-60 113q79 45 176.5 70.5t190.5 25.5q184 0 281.5 -86t97.5 -256v-643h-137l-11 70q-129 -90 -297 -90q-191 0 -295 93t-104 249zM203 324q0 -97 71 -157.5t193 -60.5q155 0 268 78v248 q-116 107 -270 107q-121 0 -191.5 -60t-70.5 -155zM233 1436v41l134 53l219 -363l-90 -41z" />
<glyph unicode="&#xe1;" horiz-adv-x="1011" d="M47 322q0 158 116 251t283 93q164 0 291 -86v51q0 227 -245 227q-149 0 -287 -82l-60 113q79 45 176.5 70.5t190.5 25.5q184 0 281.5 -86t97.5 -256v-643h-137l-11 70q-129 -90 -297 -90q-191 0 -295 93t-104 249zM203 324q0 -97 71 -157.5t193 -60.5q155 0 268 78v248 q-116 107 -270 107q-121 0 -191.5 -60t-70.5 -155zM434 1167l219 363l133 -53v-41l-262 -310z" />
<glyph unicode="&#xe2;" horiz-adv-x="1011" d="M47 322q0 158 116 251t283 93q164 0 291 -86v51q0 227 -245 227q-149 0 -287 -82l-60 113q79 45 176.5 70.5t190.5 25.5q184 0 281.5 -86t97.5 -256v-643h-137l-11 70q-129 -90 -297 -90q-191 0 -295 93t-104 249zM199 1190l313 315l313 -315l-73 -66l-242 187l-242 -187 zM203 324q0 -97 71 -157.5t193 -60.5q155 0 268 78v248q-116 107 -270 107q-121 0 -191.5 -60t-70.5 -155z" />
<glyph unicode="&#xe3;" horiz-adv-x="1011" d="M47 322q0 158 116 251t283 93q164 0 291 -86v51q0 227 -245 227q-149 0 -287 -82l-60 113q79 45 176.5 70.5t190.5 25.5q184 0 281.5 -86t97.5 -256v-643h-137l-11 70q-129 -90 -297 -90q-191 0 -295 93t-104 249zM203 324q0 -97 71 -157.5t193 -60.5q155 0 268 78v248 q-116 107 -270 107q-121 0 -191.5 -60t-70.5 -155zM242 1280q86 68 172 68q35 0 99.5 -20.5t100.5 -20.5q44 0 111 34l55 -110q-84 -66 -172 -66q-34 0 -99 20.5t-101 20.5q-39 0 -111 -37z" />
<glyph unicode="&#xe4;" horiz-adv-x="1011" d="M47 322q0 158 116 251t283 93q164 0 291 -86v51q0 227 -245 227q-149 0 -287 -82l-60 113q79 45 176.5 70.5t190.5 25.5q184 0 281.5 -86t97.5 -256v-643h-137l-11 70q-129 -90 -297 -90q-191 0 -295 93t-104 249zM203 324q0 -97 71 -157.5t193 -60.5q155 0 268 78v248 q-116 107 -270 107q-121 0 -191.5 -60t-70.5 -155zM219 1262q0 45 32 74.5t77 29.5q46 0 78 -29.5t32 -74.5q0 -44 -32 -74.5t-78 -30.5q-45 0 -77 30.5t-32 74.5zM582 1262q0 45 32 74.5t78 29.5t77.5 -29.5t31.5 -74.5q0 -44 -31.5 -74.5t-77.5 -30.5t-78 30.5t-32 74.5z " />
<glyph unicode="&#xe5;" horiz-adv-x="1011" d="M47 322q0 158 116 251t283 93q164 0 291 -86v51q0 227 -245 227q-149 0 -287 -82l-60 113q79 45 176.5 70.5t190.5 25.5q184 0 281.5 -86t97.5 -256v-643h-137l-11 70q-129 -90 -297 -90q-191 0 -295 93t-104 249zM203 324q0 -97 71 -157.5t193 -60.5q155 0 268 78v248 q-116 107 -270 107q-121 0 -191.5 -60t-70.5 -155zM303 1270q0 84 58.5 137t148.5 53t148.5 -53t58.5 -137t-58.5 -138.5t-148.5 -54.5t-148.5 54.5t-58.5 138.5zM401 1270q0 -43 31 -74t78 -31q46 0 77 30.5t31 74.5t-30.5 73t-77.5 29t-78 -29t-31 -73z" />
<glyph unicode="&#xe6;" horiz-adv-x="1714" d="M47 322q0 158 116 251t283 93q164 0 291 -86v51q0 227 -245 227q-149 0 -287 -82l-60 113q79 45 176.5 70.5t190.5 25.5q255 0 328 -180q60 84 152.5 132t207.5 48q191 0 320 -122t129 -335q0 -15 -1 -32.5t-1 -18.5h-764v-12q0 -88 27.5 -157.5t74 -111.5t103.5 -63.5 t120 -21.5q98 0 177 41.5t124 121.5l119 -73q-58 -103 -172 -162t-252 -59q-215 0 -344 139q-90 -69 -195 -104t-206 -35q-196 0 -304 93t-108 249zM203 324q0 -97 71 -158.5t193 -61.5q187 0 321 121q-47 92 -53 207q-116 107 -270 107q-121 0 -191.5 -60t-70.5 -155z M889 592h606q-18 129 -101 199.5t-192 70.5q-113 0 -202 -71t-111 -199z" />
<glyph unicode="&#xe7;" horiz-adv-x="1032" d="M59 481q0 102 33 193t94.5 160.5t156 110t210.5 40.5q122 0 212.5 -39t168.5 -129l-115 -98q-58 67 -122 97t-144 30t-144 -30t-104 -80.5t-61 -115t-21 -137.5q0 -99 37 -180t113.5 -132.5t181.5 -51.5q171 0 276 129l113 -94q-133 -154 -344 -172l-31 -60h9 q80 0 134 -51.5t54 -134.5q0 -79 -58 -136t-149 -57q-126 0 -192 90l61 72q45 -65 121 -65q44 0 73 28t29 72q0 43 -30.5 70.5t-79.5 27.5q-48 0 -92 -14l-19 20l64 140q-136 12 -236.5 83.5t-149.5 178.5t-49 235z" />
<glyph unicode="&#xe8;" horiz-adv-x="1079" d="M66 479q0 101 33 191.5t94 161t155 112t209 41.5q94 0 176.5 -30.5t146 -87t100 -144t36.5 -195.5q0 -15 -1 -32t-1 -19h-787v-10q0 -89 28.5 -159t76 -112t106 -63.5t123.5 -21.5q98 0 178.5 41.5t126.5 121.5l121 -75q-58 -103 -173.5 -161t-256.5 -58q-118 0 -213 40 t-155 108.5t-91.5 158.5t-31.5 192zM236 594h620q-18 128 -103.5 198t-197.5 70q-113 0 -203.5 -70.5t-115.5 -197.5zM272 1436v41l134 53l219 -363l-90 -41z" />
<glyph unicode="&#xe9;" horiz-adv-x="1079" d="M66 479q0 101 33 191.5t94 161t155 112t209 41.5q94 0 176.5 -30.5t146 -87t100 -144t36.5 -195.5q0 -15 -1 -32t-1 -19h-787v-10q0 -89 28.5 -159t76 -112t106 -63.5t123.5 -21.5q98 0 178.5 41.5t126.5 121.5l121 -75q-58 -103 -173.5 -161t-256.5 -58q-118 0 -213 40 t-155 108.5t-91.5 158.5t-31.5 192zM236 594h620q-18 128 -103.5 198t-197.5 70q-113 0 -203.5 -70.5t-115.5 -197.5zM473 1167l219 363l133 -53v-41l-262 -310z" />
<glyph unicode="&#xea;" horiz-adv-x="1079" d="M66 479q0 101 33 191.5t94 161t155 112t209 41.5q94 0 176.5 -30.5t146 -87t100 -144t36.5 -195.5q0 -15 -1 -32t-1 -19h-787v-10q0 -89 28.5 -159t76 -112t106 -63.5t123.5 -21.5q98 0 178.5 41.5t126.5 121.5l121 -75q-58 -103 -173.5 -161t-256.5 -58q-118 0 -213 40 t-155 108.5t-91.5 158.5t-31.5 192zM236 594h620q-18 128 -103.5 198t-197.5 70q-113 0 -203.5 -70.5t-115.5 -197.5zM236 1190l313 315l313 -315l-74 -66l-241 187l-242 -187z" />
<glyph unicode="&#xeb;" horiz-adv-x="1079" d="M66 479q0 101 33 191.5t94 161t155 112t209 41.5q94 0 176.5 -30.5t146 -87t100 -144t36.5 -195.5q0 -15 -1 -32t-1 -19h-787v-10q0 -89 28.5 -159t76 -112t106 -63.5t123.5 -21.5q98 0 178.5 41.5t126.5 121.5l121 -75q-58 -103 -173.5 -161t-256.5 -58q-118 0 -213 40 t-155 108.5t-91.5 158.5t-31.5 192zM236 594h620q-18 128 -103.5 198t-197.5 70q-113 0 -203.5 -70.5t-115.5 -197.5zM256 1262q0 45 32 74.5t77 29.5q46 0 78 -29.5t32 -74.5q0 -44 -32 -74.5t-78 -30.5q-45 0 -77 30.5t-32 74.5zM618 1262q0 45 32.5 74.5t78.5 29.5 t77.5 -29.5t31.5 -74.5q0 -44 -31.5 -74.5t-77.5 -30.5t-78.5 30.5t-32.5 74.5z" />
<glyph unicode="&#xec;" horiz-adv-x="442" d="M-55 1436v41l133 53l219 -363l-90 -41zM137 0v963h168v-963h-168z" />
<glyph unicode="&#xed;" horiz-adv-x="442" d="M137 0v963h168v-963h-168zM147 1167l220 363l133 -53v-41l-262 -310z" />
<glyph unicode="&#xee;" horiz-adv-x="442" d="M-90 1190l313 315l314 -315l-74 -66l-242 187l-241 -187zM137 0v963h168v-963h-168z" />
<glyph unicode="&#xef;" horiz-adv-x="442" d="M-70 1262q0 45 32 74.5t77 29.5q46 0 78.5 -29.5t32.5 -74.5q0 -44 -32.5 -74.5t-78.5 -30.5q-45 0 -77 30.5t-32 74.5zM137 0v963h168v-963h-168zM293 1262q0 45 32 74.5t78 29.5t77.5 -29.5t31.5 -74.5q0 -44 -31.5 -74.5t-77.5 -30.5t-78 30.5t-32 74.5z" />
<glyph unicode="&#xf0;" horiz-adv-x="1150" d="M70 483q0 215 127.5 353.5t343.5 138.5q117 0 219 -45q-83 111 -228 221l-301 -92l-41 121l205 65q-106 67 -227 129l80 133q188 -95 334 -200l305 98l45 -129l-223 -70q372 -320 372 -690q0 -129 -42.5 -233t-114 -169t-163 -99.5t-192.5 -34.5q-224 0 -361.5 137 t-137.5 366zM227 481q0 -167 96 -265.5t250 -98.5q69 0 131 24.5t111 71t78 122t29 169.5q0 113 -62 244q-129 100 -297 100q-106 0 -184 -51.5t-115 -133.5t-37 -182z" />
<glyph unicode="&#xf1;" horiz-adv-x="1067" d="M137 0v963h158l6 -134q57 75 142 115.5t182 40.5q144 0 232.5 -87.5t88.5 -240.5v-657h-168v625q0 106 -56 164.5t-147 58.5q-113 0 -191.5 -79t-78.5 -202v-567h-168zM295 1280q86 68 172 68q35 0 100 -20.5t101 -20.5q43 0 110 34l56 -110q-84 -66 -172 -66 q-34 0 -99.5 20.5t-101.5 20.5q-39 0 -111 -37z" />
<glyph unicode="&#xf2;" horiz-adv-x="1146" d="M66 481q0 216 144 360t363 144t363.5 -144t144.5 -360q0 -214 -144.5 -357.5t-363.5 -143.5t-363 143t-144 358zM223 481q0 -158 99 -261t251 -103t251.5 103.5t99.5 260.5q0 158 -99.5 262.5t-251.5 104.5t-251 -104t-99 -263zM295 1436v41l133 53l219 -363l-90 -41z " />
<glyph unicode="&#xf3;" horiz-adv-x="1146" d="M66 481q0 216 144 360t363 144t363.5 -144t144.5 -360q0 -214 -144.5 -357.5t-363.5 -143.5t-363 143t-144 358zM223 481q0 -158 99 -261t251 -103t251.5 103.5t99.5 260.5q0 158 -99.5 262.5t-251.5 104.5t-251 -104t-99 -263zM496 1167l219 363l133 -53v-41l-262 -310z " />
<glyph unicode="&#xf4;" horiz-adv-x="1146" d="M66 481q0 216 144 360t363 144t363.5 -144t144.5 -360q0 -214 -144.5 -357.5t-363.5 -143.5t-363 143t-144 358zM223 481q0 -158 99 -261t251 -103t251.5 103.5t99.5 260.5q0 158 -99.5 262.5t-251.5 104.5t-251 -104t-99 -263zM260 1190l313 315l314 -315l-74 -66 l-242 187l-241 -187z" />
<glyph unicode="&#xf5;" horiz-adv-x="1146" d="M66 481q0 216 144 360t363 144t363.5 -144t144.5 -360q0 -214 -144.5 -357.5t-363.5 -143.5t-363 143t-144 358zM223 481q0 -158 99 -261t251 -103t251.5 103.5t99.5 260.5q0 158 -99.5 262.5t-251.5 104.5t-251 -104t-99 -263zM303 1280q86 68 172 68q35 0 100 -20.5 t101 -20.5q43 0 110 34l56 -110q-84 -66 -172 -66q-34 0 -99 20.5t-102 20.5q-39 0 -111 -37z" />
<glyph unicode="&#xf6;" horiz-adv-x="1146" d="M66 481q0 216 144 360t363 144t363.5 -144t144.5 -360q0 -214 -144.5 -357.5t-363.5 -143.5t-363 143t-144 358zM223 481q0 -158 99 -261t251 -103t251.5 103.5t99.5 260.5q0 158 -99.5 262.5t-251.5 104.5t-251 -104t-99 -263zM281 1262q0 45 31.5 74.5t76.5 29.5 q46 0 78.5 -29.5t32.5 -74.5q0 -44 -32.5 -74.5t-78.5 -30.5q-45 0 -76.5 30.5t-31.5 74.5zM643 1262q0 45 32.5 74.5t78.5 29.5t77 -29.5t31 -74.5q0 -44 -31 -74.5t-77 -30.5t-78.5 30.5t-32.5 74.5z" />
<glyph unicode="&#xf7;" horiz-adv-x="1255" d="M174 672v131h907v-131h-907zM512 385q0 46 33 77.5t80 31.5q49 0 80.5 -31.5t31.5 -77.5q0 -47 -31.5 -78t-80.5 -31q-48 0 -80.5 31t-32.5 78zM512 1090q0 47 32.5 77.5t80.5 30.5q49 0 80.5 -30.5t31.5 -77.5t-31.5 -77t-80.5 -30q-48 0 -80.5 30t-32.5 77z" />
<glyph unicode="&#xf8;" horiz-adv-x="1146" d="M66 481q0 216 144 360t363 144q172 0 304 -96l100 106l100 -32v-23l-116 -125q120 -139 120 -334q0 -214 -145 -357.5t-363 -143.5q-173 0 -307 94l-96 -103l-100 33v23l114 123q-118 134 -118 331zM221 481q0 -130 64 -225l497 530q-89 64 -211 64q-153 0 -251.5 -105 t-98.5 -264zM362 178q89 -61 209 -61q154 0 253.5 103t99.5 261q0 133 -64 228z" />
<glyph unicode="&#xf9;" horiz-adv-x="1067" d="M119 305v658h168v-625q0 -106 56 -164.5t146 -58.5q113 0 192 78.5t79 201.5v568h168v-963h-158l-6 133q-57 -75 -142 -115.5t-182 -40.5q-144 0 -232.5 87.5t-88.5 240.5zM248 1436v41l133 53l219 -363l-90 -41z" />
<glyph unicode="&#xfa;" horiz-adv-x="1067" d="M119 305v658h168v-625q0 -106 56 -164.5t146 -58.5q113 0 192 78.5t79 201.5v568h168v-963h-158l-8 131q-57 -74 -140.5 -114t-181.5 -40q-144 0 -232.5 87.5t-88.5 240.5zM449 1167l219 363l133 -53v-41l-262 -310z" />
<glyph unicode="&#xfb;" horiz-adv-x="1067" d="M119 305v658h168v-625q0 -106 56 -164.5t146 -58.5q113 0 192 78.5t79 201.5v568h168v-963h-158l-8 131q-57 -74 -140.5 -114t-181.5 -40q-144 0 -232.5 87.5t-88.5 240.5zM211 1190l313 315l314 -315l-74 -66l-242 187l-241 -187z" />
<glyph unicode="&#xfc;" horiz-adv-x="1067" d="M119 305v658h168v-625q0 -106 56 -164.5t146 -58.5q113 0 192 78.5t79 201.5v568h168v-963h-158l-8 131q-57 -74 -140.5 -114t-181.5 -40q-144 0 -232.5 87.5t-88.5 240.5zM231 1262q0 45 32 74.5t77 29.5q46 0 78.5 -29.5t32.5 -74.5q0 -44 -32.5 -74.5t-78.5 -30.5 q-45 0 -77 30.5t-32 74.5zM594 1262q0 45 32.5 74.5t78.5 29.5t77 -29.5t31 -74.5q0 -44 -31 -74.5t-77 -30.5t-78.5 30.5t-32.5 74.5z" />
<glyph unicode="&#xfd;" horiz-adv-x="983" d="M8 942l389 -864l-233 -481v-21h174l78 178l559 1188v21h-168l-186 -414q-81 -182 -132 -311q-93 239 -124 311l-181 414h-176v-21zM414 1167l219 363l133 -53v-41l-262 -310z" />
<glyph unicode="&#xfe;" horiz-adv-x="1144" d="M135 1485h166v-279q0 -157 -4 -317q130 96 301 96q149 0 259.5 -69.5t164 -181.5t53.5 -249t-54.5 -251t-165.5 -185.5t-259 -71.5q-163 0 -299 99q6 -228 6 -318v-182h-166zM303 223q123 -106 275 -106q81 0 145.5 30t105 81.5t61.5 116t21 136.5q0 97 -35.5 178.5 t-113 135t-184.5 53.5q-149 0 -275 -111v-514z" />
<glyph unicode="&#xff;" horiz-adv-x="983" d="M8 942l389 -864l-233 -481v-21h174l78 178l559 1188v21h-168l-186 -414q-81 -182 -132 -311q-93 239 -124 311l-181 414h-176v-21zM201 1262q0 45 31.5 74.5t76.5 29.5q46 0 78.5 -29.5t32.5 -74.5q0 -44 -32.5 -74.5t-78.5 -30.5q-45 0 -76.5 30.5t-31.5 74.5zM563 1262 q0 45 32.5 74.5t78.5 29.5t77 -29.5t31 -74.5q0 -44 -31 -74.5t-77 -30.5t-78.5 30.5t-32.5 74.5z" />
<glyph unicode="&#x152;" horiz-adv-x="2228" d="M84 715q0 216 94 387t264 266.5t385 95.5q189 0 338 -81t240 -228v279h676v-150h-504v-426h377v-149h-377v-559h543v-150h-715v276q-91 -145 -239.5 -226t-338.5 -81q-161 0 -299.5 56t-236 154t-152.5 236.5t-55 299.5zM268 717q0 -260 159.5 -427t412.5 -167 q222 0 375 128.5t190 342.5v242q-37 214 -191.5 344.5t-373.5 130.5q-253 0 -412.5 -167t-159.5 -427z" />
<glyph unicode="&#x153;" horiz-adv-x="1892" d="M66 483q0 214 142 358t357 144q134 0 242.5 -66.5t169.5 -179.5q60 118 164.5 182t238.5 64q123 0 223.5 -51.5t163 -157t62.5 -248.5q0 -39 -4 -51h-762v-12q0 -88 27.5 -157.5t73.5 -111.5t103.5 -63.5t121.5 -21.5q96 0 175.5 41.5t125.5 121.5l116 -73 q-56 -103 -170 -162t-252 -59q-147 0 -252 63t-161 172q-61 -107 -167.5 -169t-238.5 -62q-141 0 -255.5 65.5t-179 179.5t-64.5 254zM221 483q0 -156 97 -259t247 -103t246 103t96 259q0 158 -96 262.5t-246 104.5t-247 -104.5t-97 -262.5zM1069 592h606 q-18 129 -101 199.5t-192 70.5q-113 0 -202 -71t-111 -199z" />
<glyph unicode="&#x178;" horiz-adv-x="1116" d="M10 1413v21h195l284 -486l72 -131q53 99 74 131l280 486h191v-21l-455 -743v-670h-182v670zM272 1702q0 45 32 74.5t77 29.5q46 0 78.5 -29.5t32.5 -74.5q0 -44 -32.5 -74.5t-78.5 -30.5q-45 0 -77 30.5t-32 74.5zM635 1702q0 45 32 74.5t78 29.5t77.5 -29.5t31.5 -74.5 q0 -44 -31.5 -74.5t-77.5 -30.5t-78 30.5t-32 74.5z" />
<glyph unicode="&#x2c6;" horiz-adv-x="1024" d="M199 1190l313 315l313 -315l-73 -66l-242 187l-242 -187z" />
<glyph unicode="&#x2dc;" horiz-adv-x="1024" d="M242 1280q86 68 172 68q35 0 99.5 -20.5t100.5 -20.5q44 0 111 34l55 -110q-84 -66 -172 -66q-34 0 -99 20.5t-101 20.5q-39 0 -111 -37z" />
<glyph unicode="&#x2000;" horiz-adv-x="995" />
<glyph unicode="&#x2001;" horiz-adv-x="1991" />
<glyph unicode="&#x2002;" horiz-adv-x="995" />
<glyph unicode="&#x2003;" horiz-adv-x="1991" />
<glyph unicode="&#x2004;" horiz-adv-x="663" />
<glyph unicode="&#x2005;" horiz-adv-x="497" />
<glyph unicode="&#x2006;" horiz-adv-x="331" />
<glyph unicode="&#x2007;" horiz-adv-x="331" />
<glyph unicode="&#x2008;" horiz-adv-x="248" />
<glyph unicode="&#x2009;" horiz-adv-x="398" />
<glyph unicode="&#x200a;" horiz-adv-x="110" />
<glyph unicode="&#x2010;" horiz-adv-x="655" d="M88 539v155h481v-155h-481z" />
<glyph unicode="&#x2011;" horiz-adv-x="655" d="M88 539v155h481v-155h-481z" />
<glyph unicode="&#x2012;" horiz-adv-x="655" d="M88 539v155h481v-155h-481z" />
<glyph unicode="&#x2013;" horiz-adv-x="1024" d="M88 555v131h850v-131h-850z" />
<glyph unicode="&#x2014;" horiz-adv-x="2048" d="M98 555v131h1854v-131h-1854z" />
<glyph unicode="&#x2018;" horiz-adv-x="389" d="M74 1044v39l106 402h123l-70 -441h-159z" />
<glyph unicode="&#x2019;" horiz-adv-x="389" d="M94 1044l70 441h160v-39l-107 -402h-123z" />
<glyph unicode="&#x201a;" horiz-adv-x="389" d="M63 -199l70 441h160v-39l-107 -402h-123z" />
<glyph unicode="&#x201c;" horiz-adv-x="638" d="M74 1044v39l102 402h117l-70 -441h-149zM334 1044v39l102 402h115l-68 -441h-149z" />
<glyph unicode="&#x201d;" horiz-adv-x="638" d="M94 1044l70 441h149v-39l-102 -402h-117zM354 1044l68 441h149v-39l-100 -402h-117z" />
<glyph unicode="&#x201e;" horiz-adv-x="638" d="M86 -199l70 441h149v-39l-102 -402h-117zM346 -199l68 441h149v-39l-100 -402h-117z" />
<glyph unicode="&#x2022;" horiz-adv-x="843" d="M205 684q0 88 61.5 145.5t155.5 57.5t155.5 -57.5t61.5 -145.5t-61.5 -145.5t-155.5 -57.5t-155.5 57.5t-61.5 145.5z" />
<glyph unicode="&#x2026;" horiz-adv-x="1456" d="M125 82q0 46 30.5 75t77.5 29q46 0 76.5 -29.5t30.5 -74.5q0 -44 -30.5 -73t-76.5 -29q-47 0 -77.5 29t-30.5 73zM621 82q0 46 30.5 75t77.5 29q46 0 76.5 -29.5t30.5 -74.5q0 -44 -30.5 -73t-76.5 -29q-47 0 -77.5 29t-30.5 73zM1116 82q0 46 31 75t78 29q46 0 76 -29 t30 -75q0 -44 -30 -73t-76 -29q-47 0 -78 29t-31 73z" />
<glyph unicode="&#x202f;" horiz-adv-x="398" />
<glyph unicode="&#x2039;" horiz-adv-x="647" d="M72 537v28l366 465l101 -76l-306 -401l306 -403l-101 -78z" />
<glyph unicode="&#x203a;" horiz-adv-x="647" d="M109 150l305 403l-305 401l100 76l366 -465v-28l-366 -465z" />
<glyph unicode="&#x205f;" horiz-adv-x="497" />
<glyph unicode="&#x20ac;" horiz-adv-x="1589" d="M51 502v129h193q-4 29 -4 90q0 53 2 80h-191v129h211q66 251 267.5 392.5t461.5 141.5q239 0 451 -129l-64 -153q-185 127 -395 127q-186 0 -331.5 -100t-196.5 -279h825l-49 -129h-801q-4 -54 -4 -82q0 -59 4 -88h731l-49 -129h-659q47 -177 189.5 -277t338.5 -100 q113 0 222 40.5t196 119.5l100 -129q-224 -187 -534 -187q-267 0 -456 142t-249 391h-209z" />
<glyph unicode="&#x2122;" horiz-adv-x="1116" d="M16 1386v91h367v-91h-131v-423h-105v423h-131zM408 963v16l102 514h20l164 -307q23 -46 27 -56l29 56l165 307h21l100 -514v-16h-100l-43 251q-1 3 -4 18.5t-4 24.5q-1 -4 -21 -43l-133 -260h-22l-138 258l-16 33q-4 -24 -4 -31l-43 -251h-100z" />
<glyph unicode="&#xe000;" horiz-adv-x="962" d="M0 0v963h963v-963h-963z" />
</font>
</defs>
</svg>
