<svg id="island" xmlns="http://www.w3.org/2000/svg" viewBox="0 0 1100 160"><defs><style>.cls-1{fill:#78d0e9;}.cls-2{fill:#f95053;}.cls-3{fill:#fff;}</style></defs><title>IoR_text</title><path class="cls-1" d="M21.78,127.71H45.63L61.3,142.64H36.7Zm37.5-75.52h-2.7v-2.7h-2.7v-2.7h-2.7v-2.7h-2.7v-2.7H45.63V22.72L61.3,37.64v1.57H59.73V41H61.3v3.37H59.58v2.18H61.3v3.07h-2v2.48h2v2.77h-2ZM48.4,38.62V36.14H45.85v2.48Zm-2.55,5.55h2.48v2.47H45.85Zm2.4-11.1V30.89H46.08v2.18ZM46.08,49.64h2.25v2.25H46.08Zm2-22.12v-1.8H46.23v1.8Zm-1.87,27.6h2v2h-2Zm.15,5.48H48v1.65H46.38Zm.15,5.55h1.35v1.35H46.53Zm.15,5.47h1v1h-1Zm.15,5.47h.75v.75h-.75ZM51.1,41.32V38.84H48.55v2.48Zm-2.48,5.55H51.1v2.48H48.63ZM51,35.77V33.59H48.7v2.17ZM48.78,52.34H51v2.17H48.78Zm2-22.12v-1.8h-2v1.8Zm-1.87,27.6h1.95v1.95H48.93Zm.15,5.47h1.65v1.65H49.08Zm.15,5.47h1.35v1.35H49.23Zm.15,5.55h1.05v1H49.38Zm.15,5.47h.75v.75h-.75ZM53.8,44V41.54H51.25V44Zm-2.47,5.55H53.8V52H51.33Zm2.32-11.1V36.29H51.48v2.17ZM51.48,55h2.17v2.25H51.48Zm2-22v-1.8H51.63v1.8Zm-1.87,27.6H53.5v1.88H51.63ZM51.7,66h1.65v1.65H51.7Zm.15,5.48H53.2v1.35H51.85ZM52,76.94h1v1H52Zm.15,5.55h.75v.75h-.75ZM56.5,46.72V44.24H54v2.48ZM54,52.27H56.5v2.47H54Zm.08,5.4h2.25v2.25H54.1Zm2.25-16.5V39H54.18v2.17Zm-2.1,22H56.2v1.95H54.25ZM56.2,35.62v-1.8H54.33v1.8Zm-1.8,33h1.65v1.65H54.4Zm.15,5.55H55.9v1.35H54.55Zm.15,5.47h1.05v1.05H54.7Zm.15,5.48h.75v.75h-.75Zm4.35-35.7V46.94H56.65v2.47ZM56.73,55H59.2v2.48H56.73Zm.08,5.4H59v2.17H56.8Zm2.25-16.5V41.69H56.88v2.17Zm-2.1,22h2v2H57Zm2-27.52v-1.8H57v1.8Zm-1.8,33h1.65V73H57.1Zm.15,5.47H58.6v1.35H57.25Zm.15,5.55h1v1h-1Zm.15,5.47h.75v.75h-.75Zm1.88-30.15H61.3v2.48H59.43ZM59.5,63h1.8v2.25H59.5Zm.08,5.47H61.3v1.95H59.58ZM59.73,74H61.3v1.65H59.73Zm.15,5.47h1.35v1.35H59.88ZM60,85h1v1H60Zm.15,5.47h.75v.75h-.75Z"/><path class="cls-1" d="M142.38,134.61h2.7v2.7h1.35l-1.5.9v-.83h-2.4v2.17l-1.35.67h-1.12v.53c-1.12.45-2.25.9-3.45,1.27v-1.65h-1.72v1.72h1.42a51.29,51.29,0,0,1-8,1.8v-.52h-1.13v.67a57.57,57.57,0,0,1-6.45.38c-16,0-25.95-3.9-33.3-7.58L72.48,121.94c7.65,3.67,18,7.57,34.8,7.57a54.08,54.08,0,0,0,14.25-1.87v1.12h1.73v-1.65a50.74,50.74,0,0,0,5.85-2.47v1.8h2.48V124h-1.35l1.5-.9V124h2.63v2.63h2.7v2.7h2.7v2.63h2.63Zm-65-62.85.53.6A3.77,3.77,0,0,1,77.35,71.77Zm.53.6a31.88,31.88,0,0,0,8.25,6.38H86v1h1v-.53c7.57,4,15.67,6.08,22.72,8.33v.52h1.57c1,.38,1.88.68,2.7,1.05h-1.65v1.65H114V89.17a20.07,20.07,0,0,1,6.3,3.52v.9h.82a5.73,5.73,0,0,1,1.42,3.82,6.2,6.2,0,0,1-2.1,4.65l-1-.37v-2h-1.87V101l-6.22-2.25V97.12h-1.73v1c-2.1-.67-4.35-1.57-6.37-2.4v-1.2h-1.58v.53a36,36,0,0,1-9.07-6C87.33,83.92,82.15,77.17,77.88,72.37Zm11.85,9H88.6v1.2h1.13Zm1.5,3.9h1.2V84h-1.2ZM93.85,88H95.2V86.69H93.85Zm2.32-37h-.9l.38-.9h.52Zm.3,39.75H97.9V89.32H96.48Zm.07-5.4h1.28V84H96.55ZM99.4,48.82H97.23v-1l1.5-1.2h.45v-.3a18.11,18.11,0,0,1,3.67-1.65v1.2h1.58V44.32H104a36.9,36.9,0,0,1,9.6-1.2c8.85,0,19.12,3.45,26.55,8l14.92,14.92c-7.27-4.95-18.07-8.77-26.1-8.77A30.81,30.81,0,0,0,117.7,59V57.67h-1.5v1.58h.9c-.67.3-1.35.6-2,1h-2.25v1.57l-.45.38h-1.73V60h1.88v-2.4h-2.4v1.88H108V57.29h1.95v-2.4h-2.47v2h-2.18V54.67h2V52.19h-2.4v2h-2.17V52h1.95v-2.4H102.1v2H99.93V49.34h2V46.87H99.4Zm-1.5,4.73v-.9h.9v.9Zm1.2,39.82h1.5V91.94H99.1Zm.07-5.4h1.35V86.62H99.18Zm1.43-31.8v-.83h.82v.83Zm1.2,34.57h1.5v-1.5h-1.5Zm1.42-31.87V58h.9v.9Zm1.2,34.57H106V91.87h-1.57Zm.07-5.4h1.43v-1.5H104.5Zm1-39.45h1.65V46.94h-1.65Zm.45,12.9v-.83h.9v.83Zm1.13,34.65h1.65V94.49h-1.65Zm.07-5.4h1.58v-1.5h-1.58Zm1-39.52h1.58V49.64h-1.58Zm.08-5.4h1.42V44.39h-1.42Zm1.13,84.45h-.75v.68h.75Zm.38-36.82h1.65V91.87h-1.65Zm1.13-39.52h1.57V52.34h-1.57Zm.07-5.48h1.43V47.09H111ZM112,132.89h-.68v.75H112Zm.38-36.67h1.72V94.49h-1.72Zm1.13-39.6h1.65V55H113.5Zm.15-5.47H115V49.72h-1.35Zm.07-5.48h.75V45h-.75ZM114.85,130h-1v1h1Zm-.15,5.55H114v.67h.67Zm.3-42.07h1.8V91.79H115Zm0,5.4h1.8v-1.8H115Zm1.27-45.07h1.42V52.42h-1.42Zm.15-5.47h.67v-.75h-.67Zm1.13,84.37H116.5v1h1.05Zm-.15,5.55h-.75V139h.75Zm.3-42.07h1.8v-1.8h-1.8ZM119,56.47h1.42V55.12H119Zm1.42,73.42H119v1.42h1.42Zm-1.35-78.82h.75v-.75h-.75Zm1.2,84.3h-1v1.12h1Zm-.23,5.55h-.67v.68H120Zm.3-42h1.87V97h-1.87Zm2.7,33.67h-1.35v1.35H123Zm-1.27-78.9h.75V53h-.75Zm1.13,84.37h-1v1h1Zm-.15,5.55h-.68v.67h.68Zm3.15-13.87h-1.73v1.72h1.73Zm-.15,5.47H124.3v1.42h1.42Zm-1.27-78.82h.68v-.75h-.68Zm1.13,84.37h-1v1h1Zm3.15-13.87h-2v2h2Zm-.15,5.48h-1.73v1.8h1.73Zm-.15,5.55H127v1.42h1.43Zm3-8.33h-2.1v2h2.1Zm-.15,5.47h-1.8v1.73h1.8Zm-.22,5.55H129.7V142h1.35Zm3.22-13.87h-2.4v2.4h2.4Zm-.23,5.47h-2v2.1h2Zm-.15,5.55h-1.73v1.72h1.73Zm.52-13.87v-2.48h2.48v2.48Zm2.48,5.55h-2.4v2.32h2.4Zm-.15,5.47h-2v2h2Zm2.77-8.33h-2.48v-2.47h2.48Zm-2.33-5.32v-2.17h2.17v2.17Zm2.4,10.8h-2.4v2.4h2.4Zm-.15,5.55h-2.1v2h2.1Zm.3-10.87h2.48v2.47h-2.48Zm.15-5.17h2.17v2.17H139.9Zm2.32,13.2H139.9v2.4h2.32Zm-.3-18.45v2h-1.87v-2Zm3,15.6h-2.55v-2.47h2.55Zm-2.4-7.72h2.25v2.25h-2.25Zm.15-5.17h1.95v2h-1.95Zm.15-5.17h1.65v1.58h-1.65Zm1.57-5v1.13h-.52Zm.68,23.25h2.47v2.55h-2.47Zm.15-5.17h2.25v2.25h-2.25Zm.15-5.17h1.95v1.88h-1.95Zm.15-5.25h1.65v1.65h-1.65Zm.15-5.17H147v1.35h-1.35Zm1.2-5.25v1.13h-1.12V106Zm.9,28.72h1.95l-1.95,1.58Zm.15-5.17h2.17v2.17h-2.17Zm.15-5.25H150v2h-1.87Zm.15-5.17h1.57v1.65h-1.57Zm.07-5.25h1.42v1.42H148.3Zm.15-5.17h1.13v1.13h-1.12Zm.08-5.25h.9v.9h-.9Zm.82-5.25v.67h-.67v-.67Zm1.2,34h1.73l-1.73,1.8Zm.15-5.17h2v2h-2Zm.15-5.17h1.65v1.58h-1.65Zm.15-5.25h1.35V118H151Zm.08-5.25h1.2v1.2h-1.2Zm.15-5.17h.9v.9h-.9Zm.83-5.25v.67h-.68v-.67Zm1.35,28.8h1l-1,1.27Zm.15-5.25h1.65v1.65h-1.65Zm.07-5.17h1.43v1.35h-1.43Zm.15-5.25h1.13v1.13h-1.12Zm.15-5.25h.9v.9h-.9Zm.75-5.17v.68H154v-.68Zm1.65,18.3h1.42v1.42h-1.42Zm1.27-4h-1.12v-1.12h1.13Zm-.15-5.47h-.9v-.9h.9Zm-.08-5.47h-.67v-.68h.67Zm1.73,12.45h.3l-.3,1Zm1-5.17v.9h-.9v-.9Zm-.15-4.58h-.68V109H160Z"/><path class="cls-1" d="M170.73,127.71h69.15l14.92,14.92H185.65Zm37.35-75.52h-2.7v-2.7h-2.7v-2.7H200v-2.7h-2.7v-2.7h-2.55V38.62h2.47V36.14h-2.77V22.72L210.1,37.64v1.57h-1.57V41h1.57v3.37h-1.72v2.18h1.72v3.07h-1.95v2.48h1.95v2.77h-2Zm-12.75,78v-.75h-.75v.75Zm-.6-86h2.47v2.47h-2.47Zm2.32-11.1V30.89h-2.17v2.18Zm-2.17,16.57h2.25v2.25h-2.25Zm2-22.12v-1.8H195v1.8ZM195,55.12h2v2h-2Zm.15,5.48h1.65v1.65h-1.65Zm.15,5.55h1.35v1.35h-1.35Zm.15,5.47h1v1h-1Zm.15,5.47h.75v.75h-.75Zm4.27-35.77V38.84h-2.55v2.48ZM198.1,133v-.75h-.75V133Zm-.67-86.1h2.48v2.48h-2.48Zm2.33-11.1V33.59H197.5v2.17Zm-2.18,16.57h2.25v2.17h-2.25Zm2-22.12v-1.8h-1.95v1.8Zm-1.87,27.6h2v1.95h-2Zm.15,5.47h1.65v1.65h-1.65Zm.15,5.47h1.35v1.35H198Zm.15,5.55h1v1h-1Zm.15,5.47h.75v.75h-.75ZM201,130.26v-.9h-1v.9ZM202.6,44V41.54h-2.55V44Zm-1.8,91.65v-.75h-.75v.75Zm-.68-86.1h2.48V52h-2.48Zm2.33-11.1V36.29h-2.17v2.17ZM200.28,55h2.17v2.25h-2.17Zm2-22v-1.8h-1.87v1.8Zm-1.87,27.6h1.88v1.88h-1.87ZM200.5,66h1.65v1.65H200.5Zm.15,5.48H202v1.35h-1.35Zm.15,5.47h1v1h-1Zm.15,5.55h.75v.75H201Zm4.35-35.77V44.24h-2.55v2.48ZM203.65,133v-.9h-.9v.9Zm-.82-80.7h2.47v2.47h-2.47Zm.75,86.17v-.75h-.75v.75Zm-.68-80.77h2.25v2.25H202.9Zm2.25-16.5V39H203v2.17Zm-2.1,22H205v1.95h-1.95ZM205,35.62v-1.8h-1.87v1.8Zm-1.8,33h1.65v1.65H203.2Zm.15,5.55h1.35v1.35h-1.35Zm.15,5.47h1.05v1.05H203.5Zm.15,5.48h.75v.75h-.75Zm2.93,45.3v-1.2h-1.2v1.2Zm1.42-81V46.94h-2.55v2.47Zm-1.58,86.32v-.9h-1v.9ZM205.53,55H208v2.48h-2.48Zm.75,86.17v-.75h-.75v.75Zm-.67-80.77h2.17v2.17H205.6Zm2.25-16.5V41.69h-2.18v2.17Zm-2.1,22h1.95v2h-1.95Zm1.95-27.52v-1.8h-1.87v1.8Zm-1.8,33h1.65V73H205.9Zm.15,5.47h1.35v1.35h-1.35Zm.15,5.55h1v1h-1Zm.15,5.47h.75v.75h-.75Zm2.92,45.3v-1.2h-1.2v1.2Zm-1-75.45h1.87v2.48h-1.87Zm.9,80.77v-.9h-.9v.9ZM208.3,63h1.8v2.25h-1.8Zm.08,5.47h1.72v1.95h-1.72Zm.15,5.55h1.57v1.65h-1.57Zm.15,5.47H210v1.35h-1.35Zm.15,5.47h1.05v1h-1.05Zm.15,5.47h.75v.75H209Zm3.22,40v-1.42h-1.5v1.42Zm-.15,5.4v-1.2h-1.2v1.2Zm-.15,5.33v-.9h-1v.9Zm3-8v-1.5h-1.5v1.5Zm-.15,5.33v-1.2h-1.2v1.2Zm3-8v-1.72H216v1.72Zm-.08,5.4v-1.5h-1.5V136Zm-.15,5.32v-1.2h-1.2v1.2Zm3-7.95v-1.8h-1.8v1.8Zm-.15,5.32v-1.5h-1.5v1.5Zm3-7.95v-2h-2v2Zm-.15,5.32v-1.72H221.5v1.72Zm-.07,5.4V140h-1.5v1.5Zm3-8v-2h-2v2Zm-.15,5.33v-1.8h-1.8v1.8Zm2.85-2.62v-2h-2v2Zm.07-5.47v-2h-2v2Zm-.22,10.8v-1.73H227v1.73Zm2.92-2.55v-2h-2v2Zm.07-5.48v-2h-2v2Zm2.63-2.77v-2h-2v2Zm0,10.95v-2h-2v2Zm.08-5.47v-2h-2v2Zm2.7-2.7v-2h-2v2Zm.08,5.48v-2h-2v2Zm2.63-8.25v-2h-2v2Zm0,5.47v-2h-2v2Zm.07,5.47v-2h-2v2Zm2.7-8.17v-2h-2v2Zm0,5.48v-2h-2v2Zm2.7-2.78v-2h-2v2Zm0,5.47v-2h-2v2ZM248,139v-2h-2v2Zm2.7,2.7v-2h-2v2Z"/><path class="cls-1" d="M261.4,127.71h71.4l14.92,14.92h-71.4Zm16,2.4v-.75h-.75v.75Zm2.7,2.7v-.75h-.75v.75Zm2.85-2.7v-.9h-1v.9Zm-.15,5.4v-.75h-.75v.75Zm14.62-75.75h-2.62V57.14h-2.7v-2.7h-2.7V51.82h-2.62v-2.7h-2V46.27h1.57V44.32H284.8V44h45.9l14.92,13.57h-48v2h2.1v2.85h-2.25ZM284.8,52.12h1.73V54H284.8ZM297.48,101h-2.62V98.39h-2.7v-2.7h-2.7V93.07h-2.62v-2.7h-2V87.52h1.57v-2H284.8v-.3h38.85l14.92,13.57H297.63v2h2.1v2.85h-2.25ZM284.8,93.37h1.73v1.88H284.8Zm.9,39.45v-.9h-.9v.9Zm-.07,5.48v-.75h-.75v.75ZM285.1,58h.9v.9h-.9Zm0,41.25h.9v.9h-.9ZM289,49v-2l-2-.08V49Zm0,41.25v-2.1h-2v2.1Zm-1.72-35.47h1.87v2h-1.87Zm0,41.25h1.87v2h-1.87Zm1.35,34.27v-1.2h-1.2v1.2Zm-.15,5.33v-.9h-1v.9Zm-.15,5.4v-.75h-.75V141Zm-.6-80.4h1v.9h-1Zm0,41.25h1v.9h-1ZM290.13,87v-.75h-.75V87Zm1.58-35.32v-2.1h-2.1v2.1Zm0,41.25v-2.1h-2.1v2.1ZM290,57.44h1.88v1.87H290Zm0,41.25h1.88v1.88H290ZM291.33,133v-1.2h-1.2V133Zm-.15,5.33v-.9h-.9v.9Zm-.75-33.75h.9v.9h-.9Zm1.2-58.8V45h-.75v.75Zm1.27,44V89h-.75v.75Zm1.5-35.47v-2l-2.1-.08v2.1Zm0,41.25v-2.1h-2.1v2.1Zm-1.8-35.4h1.88V62H292.6Zm0,41.25h1.88v1.87H292.6Zm1.65,29v-1.5h-1.5v1.5Zm-.15,5.33v-1.2h-1.2v1.2Zm-.15,5.32v-.9h-1v.9Zm.45-92.55v-.75h-.75v.75Zm1.35,38.55v-.9h-1v.9Zm-.15,5.4v-.75h-.75v.75ZM297,57v-2.1h-2V57Zm0,41.25v-2.1h-2v2.1ZM295.3,104h1.88v1.88H295.3Zm1.65,29.1v-1.5h-1.5v1.5Zm-.15,5.32v-1.2h-1.2v1.2Zm.45-92.62v-.9h-1v.9Zm-.15,5.4v-.75h-.75v.75Zm1.35,38.55v-.9h-.9v.9Zm-.08,5.47v-.75h-.75v.75Zm1.43,35.25v-1.73h-1.73v1.73Zm-.08,5.4v-1.5h-1.5v1.5Zm-.15,5.33V140h-1.2v1.2Zm.38-92.7v-.9h-.9v.9ZM299.88,54v-.75h-.75V54Zm1.5,33.22V86h-1.2v1.2Zm-.15,5.33v-.9h-1v.9Zm-.15,5.4v-.75h-.75v.75Zm1.5,35.32v-1.8h-1.8v1.8Zm-.15,5.33v-1.5h-1.5v1.5ZM302.88,46v-1.2h-1.2V46Zm-.15,5.32v-.9h-1v.9Zm-.15,5.4v-.75h-.75v.75Zm1.5,33.22v-1.2h-1.2v1.2Zm-.15,5.32v-.9H303v.9Zm1.5,35.4v-2h-2v2Zm-.15,5.33v-1.72h-1.73V136Zm-.08,5.4v-1.5h-1.5v1.5Zm.38-92.7v-1.2h-1.2v1.2ZM305.42,54v-.9h-.9V54ZM307,87.29V85.87h-1.5v1.42Zm-.15,5.4v-1.2h-1.2v1.2ZM306.7,98v-.9h-1V98Zm1.5,35.4v-2h-2v2Zm-.15,5.32v-1.8h-1.8v1.8ZM308.5,46V44.62H307V46Zm-.15,5.4v-1.2h-1.2v1.2Zm-.15,5.32v-.9h-1v.9Zm1.5,33.3v-1.5h-1.5v1.5Zm-.15,5.33v-1.2h-1.2v1.2Zm1.27,35.25v-2h-2v2Zm.08,5.47v-2h-2v2Zm-.15,5.33v-1.72H309v1.72Zm.45-92.62v-1.5h-1.5v1.5ZM311,54.14v-1.2h-1.2v1.2Zm1.5,33.3V85.72h-1.73v1.72Zm-.08,5.4v-1.5H311v1.5Zm-.15,5.32V97h-1.2v1.2Zm1.27,35.25v-2h-2v2Zm.08,5.47v-2h-2v2Zm.38-92.7V44.47h-1.73v1.73Zm-.08,5.4v-1.5h-1.5v1.5Zm-.15,5.33v-1.2h-1.2v1.2Zm1.5,33.3v-1.8h-1.8v1.8Zm-.15,5.32V94h-1.5v1.5Zm1.13,35.1v-2h-2v2Zm0,5.47v-2h-2v2Zm.08,5.48v-2h-2v2ZM316.82,49v-1.8H315V49Zm-.15,5.32v-1.5h-1.5v1.5Zm1.5,33.3v-2h-2v2ZM318,92.92V91.19H316.3v1.72Zm-.08,5.4v-1.5h-1.5v1.5Zm1.13,35.1v-2h-2v2Zm0,5.47v-2h-2v2Zm.6-92.55v-2h-2v2Zm-.15,5.32V49.94H317.8v1.73Zm-.08,5.4v-1.5h-1.5v1.5Zm1.5,33.3v-2h-2v2Zm-.15,5.33v-1.8H319v1.8Zm.9,34.95v-2h-2v2Zm.08,5.47v-2h-2v2Zm0,5.48v-2h-2v2Zm.67-92.47v-2h-2v2Zm-.15,5.32v-1.8h-1.8v1.8Zm1.35,33.15v-2h-2v2Zm0,5.47V91h-2v2Zm-.15,5.33V96.67h-1.72v1.73Zm1,35v-2h-2v2Zm.08,5.47v-2h-2v2Zm.6-92.55v-2h-2v2Zm0,5.47v-2h-2v2ZM325,57.14V55.42h-1.72v1.72Zm1.42,33.22v-2h-2v2Zm0,5.48v-2h-2v2Zm.75,34.8v-2h-2v2Zm0,5.47v-2h-2v2Zm.08,5.48v-2h-2v2Zm.67-92.47v-2h-2v2Zm0,5.47v-2h-2v2Zm1.2,38.47V91h-2v2Zm0,5.47v-2h-2v2Zm.82,34.87v-2h-2v2Zm0,5.47v-2h-2v2Zm.68-92.55v-2h-2v2Zm0,5.47v-2h-2v2Zm0,5.47v-2h-2v2Zm1.27,38.55v-2h-2v2Zm.67,34.8v-2h-2v2Zm.08,5.47v-2h-2v2Zm0,5.48v-2h-2v2Zm.75-92.47v-2h-2v2Zm0,5.47v-2h-2v2Zm1.2,43.95v-2h-2v2Zm.75,34.87v-2h-2v2Zm.08,5.47v-2h-2v2Zm.67-87.07v-2h-2v2Zm0,5.47v-2h-2v2Zm2,78.82v-2h-2v2Zm.07,5.48v-2h-2v2Zm.75-87v-2h-2v2Zm1.95,84.3v-2h-2v2Zm.75-81.6v-2h-2v2Zm2,84.3v-2h-2v2Z"/><path class="cls-1" d="M422,125.24l-9.82-9.9a54.78,54.78,0,0,0,37.65,14.92,58,58,0,0,0,14-1.8v.23H465v-.53a66,66,0,0,0,6.45-2.33v.45H473v-1.2a54.62,54.62,0,0,0,8.63-4.95v1.2h2.17v-2.18h-.9a7.55,7.55,0,0,0,1.2-1v.6h2.4v-2.32h-.3l.45-.37v.15h2.55v-2.47h2.55v2.55h-2.47v2.55h2.55v-2.47h2.55v2.55h-2.47v2.55h2.55V119H497v2.55H494.5v2.55H497v-2.47h2.63v2.55h-2.55v2.55h2.55v-2.55h2.63v2.63h-2.55v2.55h2.1l-2.25,2v-1.87h-2.33v2.4H499l-2.1,1.65v-1.35h-2.17v2.17h1l-1.5,1v-.52h-2v1.72c-.52.38-1.12.67-1.72,1h-.75v.38a58.19,58.19,0,0,1-6.3,2.85v-.45H482v1a61.55,61.55,0,0,1-12,2.7v-.75h-.83v.83c-2,.15-3.45.22-5.25.22C446.27,144.44,434.95,138.36,422,125.24Zm-2.7-51.52H420v.75h-.75Zm.52-5.55v.07h.38v1h-.6Zm1.88-2.7H423v1.27h-1.28Zm.15,5.48h1v1h-1Zm.07,5.4h.75v.75h-.75Zm.83-16.27h.38v1.58H422ZM424,57.82l.38-.53h1.5v1.88H424Zm.15,4.87h1.58v1.58h-1.58Zm.15,5.48h1.28v1.27H424.3Zm.15,5.4h1v1h-1Zm.15,5.4h.67v.75h-.67Zm1.88-24.52h2.17v2.17h-2.17Zm.15,5.47h1.88v1.88h-1.87Zm.15,5.48h1.58v1.5h-1.58Zm.15,5.4h1.27v1.27h-1.27Zm.15,5.4h1v1h-1Zm.15,5.4H428v.75h-.75Zm12.3-19.35H442V59.62h-2.55v2.47H436.9V59.62h2.47V57h-2.62v2.48h-2.47V56.92h2.47V54.37h-2.62v2.48h-2.47V54.29h2.47V51.67H431.5v2.48h-2.55l-.07-2.25.22-.23h2.33v-2l1.2-.9h1.28V48A32.21,32.21,0,0,1,440,45.14v.68h1.5V44.69a30.67,30.67,0,0,1,35.85,16.2,22,22,0,0,0-14.1-4.65,31.52,31.52,0,0,0-8.78,1.27H453.1V58a29.36,29.36,0,0,0-6,2.85v-1h-2.25v2.25h.38l-.52.38v-.22h-2.62v2.47h-2.55Zm-10.42-5.1h2.25v2.17H429.1Zm.22,5.4h1.8v1.88h-1.8Zm.15,5.47H431v1.5h-1.5Zm.15,5.4h1.2v1.28h-1.2Zm.07,5.4h1v1h-1Zm.15,5.47h.75V85h-.75Zm2-24.52H434v2.17H431.8Zm.15,5.4h1.88V67h-1.87Zm.15,5.47h1.58v1.58H432.1Zm.15,5.4h1.28v1.28h-1.28Zm.15,5.47h.67l-.15,1h-.53Zm4.13-30V49.27h-2.25v2.25Zm-2.1,10.87h2.17v2.17h-2.17Zm.15,5.47h1.88v1.88h-1.87Zm.15,5.4h1.13l-.67,1.57h-.45Zm4.5-19.12V51.89H437v2.25ZM437,65h2.18v2.17H437Zm2-16.35V46.79h-1.87v1.88Zm2.85,8.1V54.52H439.6v2.25Zm-.22-5.47V49.42h-1.87v1.88Zm2.85,8.1V57.14h-2.25v2.25Zm-.15-5.47V52h-2v1.88Zm-.23-5.4V46.94h-1.5v1.57Zm2.85,8.1V54.67h-1.87v1.95Zm-.15-5.47V49.57h-1.58v1.58Zm-.22-5.48v-1.2h-1.12v1.2Zm3,13.57V57.37H447.7v1.88Zm-.15-5.47v-1.5h-1.58v1.5Zm-.22-5.48V47.17h-1.12v1.13Zm2.85,8.1v-1.5h-1.5v1.5Zm-.15-5.47V49.79h-1.2v1.13Zm-.22-5.47v-.75h-.75v.75Zm0,85.57v-.67H451V131Zm2.85-77.4v-1.2h-1.2v1.2Zm-.22-5.47v-.82h-.75v.82Zm0,85.5V133h-.67v.67Zm2.85-77.4V55H456v1.2Zm-.22-5.47V50h-.75v.75Zm.07,80.32v-.83h-.82v.83Zm-.07,5.17v-.67h-.68v.67Zm2.7-82.87v-.75h-.82v.75Zm0,80.32v-.83h-.82v.83Zm-.15,5.17v-.67h-.6v.67Zm2.85-7.65v-1h-1v1Zm-.08,5.1v-.83h-.9v.83Zm0-80.32v-.75h-.75V56Zm-.15,85.5v-.67h-.6v.67Zm2.85-7.72v-1h-1v1ZM464.8,139v-.83H464V139Zm-.08,5.1v-.6h-.6v.6Zm2.93-12.75v-1.2h-1.2v1.2Zm-.08,5.1v-1h-1v1Zm-.15,5.17v-.83h-.83v.83Zm2.92-12.83v-1.35h-1.42v1.35Zm-.08,5.17v-1.2h-1.2v1.2Zm-.15,5.1v-1h-1v1Zm2.85-7.65V130h-1.42v1.42Zm-.08,5.17v-1.27h-1.27v1.27Zm-.15,5.1v-1h-1v1Zm2.92-12.82v-1.58H474.1v1.58ZM475.6,134v-1.42h-1.42V134Zm-.08,5.1v-1.2h-1.27v1.2Zm2.85-12.75v-1.8h-1.8v1.8Zm-.08,5.1v-1.58h-1.58v1.58Zm-.08,5.17v-1.42H476.8v1.42Zm-.15,5.1v-1.2h-1.2v1.2Zm3-17.92v-2h-2v2ZM481,129v-1.8h-1.8V129Zm-.07,5.1v-1.58h-1.58v1.58Zm-.08,5.17v-1.42h-1.42v1.42Zm2.85-12.82v-2h-2v2Zm-.08,5.17v-1.8h-1.8v1.8Zm-.07,5.1v-1.58H481.9v1.58ZM486.4,124v-2.17h-2.17V124Zm-.08,5.1v-2h-2v2Zm-.08,5.17v-1.8h-1.8v1.8Zm-.08,5.1v-1.58h-1.65v1.58Zm2.92-17.92v-2.32h-2.32v2.32Zm-.07,5.1v-2.1h-2.17v2.1Zm-.08,5.17v-1.95h-2v1.95Zm-.08,5.1v-1.73h-1.8v1.73ZM491.72,124v-2.4H489.4V124Zm-.07,5.1V127h-2.18v2.17Zm-.08,5.17v-2h-2v2Zm.38-23.1h2.4v2.4h-2.4Zm2.4,15.45v-2.4H492v2.4Zm-.08,5.1v-2.17H492.1v2.17Zm0-24.15v.67h-.52Zm.3,6.22H497v2.4h-2.4Zm.07-5.1h2.18v2.17h-2.18ZM497,129.29v-2.4h-2.33v2.4Zm-.22-25.42v1.72h-1Zm.45,12.6h2.4v2.4h-2.4Zm.07-5.1h2.17v2.17h-2.17Zm.08-5.17h2v2h-2Zm.08-3.53a8.38,8.38,0,0,0,.9-1.58h1v1.8h-1.87Zm2.33,16.42h2.47v2.4h-2.47Zm.15-5.17h2.17v2.25H499.9Zm.08-5.1h2v2h-2Zm.08-5.17h1.88v1.88H500Zm.15-5.1h1.58v1.65H500.2Zm1.5-5.17v1.5h-.52Zm.6,33.45h2.1l-2.1,2.1Zm.08-5.1h2.4v2.4h-2.4Zm.15-5.17h2.17v2.25h-2.17Zm.08-5.1h2v2h-2Zm.08-5.17h1.88v1.88h-1.87Zm.15-5.1h1.58v1.65h-1.58ZM502.9,96h1.42v1.5H502.9Zm.08-5.1h1.27v1.28H503Zm.75-5.1h.38v1h-.6ZM505,124.34h1.58l-1.58,1.8Zm.15-5.17h2.17v2.25h-2.17Zm.08-5.1h2v2h-2Zm.08-5.17h1.8v1.88h-1.8Zm.07-5.1H507v1.65h-1.65Zm.15-5.17h1.42v1.5h-1.42Zm.08-5.1h1.27v1.27H505.6Zm.08-5.17h1v1h-1Zm.07-5.1h.9v.82h-.9Zm.15-5.17h.67v.67h-.67Zm1.8,43.72h.83l-.83,1.13Zm.15-5.1h2v2h-2Zm.07-5.17h1.8v1.8h-1.8Zm.08-5.1h1.65V108H508Zm.08-5.17h1.5v1.42h-1.5Zm.15-5.1h1.27v1.2h-1.27ZM508.3,91h1.05v1H508.3Zm.08-5.1h.9v.82h-.9Zm.15-5.17h.67v.67h-.67Zm2,33.45h1.8v1.65l-.08.15h-1.73Zm.08-5.1h1.65v1.58h-1.65Zm.08-5.17h1.5v1.42h-1.5Zm.15-5.1H512V100h-1.2Zm.07-5.17H512v1h-1.05Zm.08-5.1h.9v.83H511Zm.15-5.17h.67V84h-.67Zm2.1,28.27h1.13l-.67,1.65h-.45Zm.08-5.1h1.5v1.42h-1.5Zm.15-5.17h1.2v1.27h-1.2Zm.08-5.1h1v1h-1Zm.08-5.17h.9v.9h-.9Zm.08-5.1h.67v.68h-.67Zm2.33,18h1l-.3,1.27H516Zm.15-5.1h1v1.05h-1Zm.08-5.17h.9v.9h-.9Zm.08-5.1H517v.67h-.67Z"/><path class="cls-1" d="M527.88,127.71h23.25l15.67,14.92h-24Zm36.67-66.3h-2.7V58.64h-2.7v-2.7h-2.78v-2.7h-2.7v-2.7h-2.55V47.62h2v-2.1h-2v-.6H600l14.92,14.17H564.7v2.17h2.1v2.85h-2.25Zm0,44.7h-2.7v-2.78h-2.7v-2.7h-2.78v-2.7h-2.7v-2.7h-2.55V92.32h2v-2.1h-2v-.6h40.8l14.92,14.17H564.7V106h2.1v2.85h-2.25ZM551.42,53.54h1.95v1.95h-1.95Zm0,44.7h1.95v2h-1.95Zm.52-38.77h.9v1h-.9Zm0,44.7h.9v1h-.9Zm4-53.85v-2.1h-2.1v2.1Zm0,44.7v-2.1h-2.1V95ZM554.2,56.24h1.88v2H554.2Zm0,44.7h1.88v1.95H554.2Zm.45-38.7h1v.9h-1Zm0,44.7h1v.9h-1Zm4-53.85V51h-2.17v2.1Zm0,44.7v-2.1h-2.17v2.1ZM556.9,59h1.88v1.88H556.9Zm0,44.7h1.88v1.88H556.9Zm.45-38.77h1v.9h-1Zm0,44.7h1v.9h-1Zm1-18v-.75h-.75v.75Zm3.08-35.85v-2.1h-2.1v2.1Zm0,44.7v-2.1h-2.1v2.1Zm-1.8-38.77h2v1.95h-2Zm0,44.7h2v2h-2Zm1.28-59.55v-.75h-.75v.75Zm-.75,65.47h.9v1h-.9Zm1-17.92v-.75h-.75v.75Zm3-35.92v-2.1H562v2.1Zm0,44.7v-2.1H562v2.1Zm-1.8-38.77h2v1.95h-2Zm0,44.7h2v1.95h-2Zm.53,5.92h.9v1h-.9Zm.82-65.4v-.75h-.75v.75Zm.3,42.07v-.9h-1v.9Zm-.15,5.4v-.75H563v.75Zm1.28-30h1.72v.6h-1.72Zm0,44.7h1.72v2h-1.72Zm1.42-64.87V46h-1v.9Zm-1,70.87h1v.9h-1Zm.83-65.47v-.75h-.75v.75Zm.3,42.07v-.9h-.9v.9Zm-.07,5.48v-.75h-.75v.75Zm2.62-50.25v-.9h-.9v.9Zm-.07,5.47v-.75h-.75v.75Zm.45,36.75v-1.2h-1.2v1.2Zm-.15,5.33v-.9h-1v.9Zm-.15,5.4v-.75h-.75v.75Zm2.85-55.5v-1.2h-1.2v1.2ZM572,52.42v-.9h-1v.9Zm-.15,5.4v-.75h-.75v.75Zm.45,36.75v-1.2h-1.2v1.2Zm-.15,5.33V99h-.9v.9Zm2.7-50.1v-1.2h-1.2v1.2Zm.38,42.15V90.52h-1.5v1.42Zm-.52-36.82v-.9h-.9v.9ZM575,97.34v-1.2h-1.2v1.2Zm-.15,5.32v-.9h-1v.9Zm2.85-55.5V45.74h-1.5v1.42Zm-.15,5.4v-1.2h-1.2v1.2Zm.3,42.15v-1.5h-1.5v1.5Zm-.45-36.82V57h-1v.9Zm.3,42.15v-1.2h-1.2V100Zm2.7-50.1v-1.5h-1.5v1.5Zm.3,42.15V90.37H579v1.73Zm-.45-36.82v-1.2h-1.2v1.2Zm.38,42.22V96h-1.5v1.5Zm-.15,5.33v-1.2h-1.2v1.2Zm2.77-55.5V45.59h-1.72v1.73Zm-.08,5.4v-1.5h-1.5v1.5Zm.3,42.15v-1.8h-1.8v1.8ZM583.07,58v-1.2h-1.2V58Zm.3,42.15v-1.5h-1.5v1.5Zm2.7-50.1v-1.8h-1.8v1.8Zm.3,42.15v-2h-2v2Zm-.45-36.82v-1.5h-1.5v1.5Zm.3,42.15V95.84H584.5v1.72Zm-.07,5.4v-1.5h-1.5V103Zm2.77-55.5v-2h-2v2Zm-.15,5.32V51.07H587v1.73ZM589.15,95V93h-2v2Zm-.45-36.82v-1.5h-1.5v1.5Zm.3,42.15v-1.8h-1.8v1.8Zm2.7-50.1v-2h-2v2Zm-.15,5.32v-1.8h-1.8v1.8Zm.3,36.67v-2h-2v2Zm0,5.47v-2h-2v2ZM591.7,103v-1.72H590V103Zm2.7-55.57v-2h-2v2Zm0,5.47v-2h-2v2Zm-.15,5.32V56.54h-1.73v1.72ZM594.62,95V93h-2v2Zm0,5.47v-2h-2v2Zm2.55-50.25v-2h-2v2Zm0,5.47v-2h-2v2Zm.15,42v-2h-2v2Zm0,5.48v-2h-2v2Zm2.55-55.72v-2h-2v2Zm0,5.47v-2h-2v2Zm0,5.47v-2h-2v2Zm.23,42.07v-2h-2v2Zm2.55-50.25v-2h-2v2Zm0,5.47v-2h-2v2Zm.15,47.47v-2h-2v2Zm2.55-50.25v-2h-2v2Zm0,5.47v-2h-2v2Zm2.77-2.7v-2h-2v2Zm2.7,2.7v-2h-2v2Z"/><path class="cls-1" d="M666.47,127.71h23.4l15.67,14.92h-23Zm35.4-67.87h-2.7v-2.7h-2.7v-2.7h-2.62V51.82h-2.7v-2.7h-1.28V46.34h.83V44.17h16.57c8.85,0,14.92,6,15.67,13.42H702v2.1h2v2.77h-2.18Zm-12-7.72h1V54h-1Zm0,5.85h.45v.9h-.45Zm13.5,53.25h-2.7v-2.7H698v-2.62h-2.62v-2.7h-2.77v-2.62H690V97.79h2.25V95.32h-2.4v-1.5h14l7.65,12.67h-6V109h-2v2.1h2v2.78h-2.18Zm-12.9-7.72h1.88v1.88h-1.87Zm.45,5.85h.9v.9h-.9ZM693.4,49v-2.1h-2.1V49Zm-1.8,5.85h2v1.88h-2Zm.53,5.77h.9v1h-.9Zm2.77,39.75v-2.1h-2.17v2.1Zm-1.8,5.85H695v1.87H693.1Zm.53,5.85h.9v.9h-.9Zm2.47-60.37v-2.1H694v2.1Zm-.3-5.7v-1.5h-1.5V46Zm-1.5,11.47h1.88v1.95H694.3Zm.53,5.85h.9v.9h-.9Zm2.7,39.75v-2.1h-2V103Zm-1.72,5.77h1.88v2H695.8Zm.45,5.85h1v.9h-1Zm2.47-60.37v-2h-2.1v2ZM698.5,49v-1.5H697V49ZM697,60.14h1.88V62H697Zm.45,5.85h.9v.9h-.9Zm2.78,39.75v-2.1h-2.1v2.1Zm-1.8,5.77h2v1.88h-2Zm.52,5.85h.9v.9h-.9ZM701.42,57v-2.1h-2.1V57Zm-1.8,5.85h1.95v1.88h-1.95ZM701.35,46v-1.5h-1.5V46Zm0,5.62v-1.5h-1.5v1.5Zm-1.2,17h.9v1h-.9Zm2.78,39.75v-2h-2.1v2Zm-1.8,5.85H703v1.88h-1.87Zm.52,5.77h.9v1h-.9Zm.67-54.52H704v1.88h-1.73ZM704,49v-1.5h-1.5V49Zm.15,5.55V53h-1.5v1.5Zm-1.42,16.8h1v.9h-1Zm1,45.52h1.73v1.95h-1.73Zm.45,5.85h.9v.9h-.9Zm2.63-71.1v-1.5h-1.5v1.5Zm0,5.63v-1.5h-1.5v1.5Zm-.23-11.47v-1h-1v1Zm3.08,8.77V53h-1.5v1.5Zm-.37-5.77V47.69h-1v1.05Zm3.08,8.47v-1.5h-1.5v1.5Zm-.3-5.85v-1h-1v1Zm2.92,2.92V53.24h-1v1.05Zm-.23-5.77v-.75h-.75v.75ZM717.7,57V56h-1v1Zm0-5.77v-.75h-.75v.75Zm2.85,2.93v-.75h-.75v.75Zm3.67,73.57h28l23.17,14.92h-27.3Zm22-27.22h-3.07V97.87h-2.7V95.39h-2.77V93.22h-2.85V91h-2.92V88.34h-2.7v2.25l-1.28-2a43.47,43.47,0,0,0,7.72-6v1.95h2.1v-2.1h-1.95c.82-.83,1.57-1.65,2.32-2.47V82h2.55V79.57h2.63v2.63h-2.47v2.47h2.47v-2.4h2.63v2.63h-2.47v2.48H746V84.89h2.63v2.63h-2.47v2.55h2.55V87.59h2.55v2.63h-2.4v2.47h2.48v-2.4h2.63v2.17l-.37.45h-2.1V95l-.83.75H749v1.35c-.67.53-1.28,1-2,1.42h-.9v1.8h1.42l1.2,1.88v.15h-2.55ZM729.47,91h2.1v2.47H731Zm2.63,4.27v-2h2.25v2.25h-2ZM734.64,87V85.34H733V87Zm.45,8.77h2v2h-2Zm.45,5.1h1v1.5Zm1.8-11.17V88h-1.57v1.65Zm.6,8.63h1.8v1.8h-1.8Zm.15,4.8h1.2v1.2h-1.2Zm2.33-16V85h-2.1v2.1Zm.15-10.42v2.78h-2.1C739.07,78.74,740.12,77.32,740.57,76.72Zm-.45,15.6V90.74h-1.65v1.58Zm.6,8.33h1.65v1.65h-1.65Zm.08-24.3,1.2-1.87h1v2.18h-2.25ZM743,89.84v-2.1h-2v2.1Zm-.15,5.1V93.22h-1.8v1.72Zm-1.57,10.27h.82V106h-.82Zm2.17-28.12h2.17v2.17h-2.17Zm2.25,15.45v-2.1h-2.1v2.1Zm-2-20.55h1.72v1.72h-1.72Zm2,25.65v-1.8h-1.87v1.8Zm-1.72,5.25h1.42v1.43h-1.42ZM745.29,67v1.13h-.37Zm.9,12.75h2.18V82h-2.18Zm2.25,15.37v-2.1h-2.1v2.1Zm-2-20.55h1.72v1.8h-1.72Zm.15-5.1h1.35v1.35h-1.35Zm.23-5.17h1v1h-1Zm.08,40.65h1.2v1.2h-1.2Zm.07-45.75h.6v.6h-.6Zm1.88,23.25h2.25v2.17h-2.25Zm.23-5.17h1.8v1.8H749Zm.15,25.5,1,1.57h-1.12Zm.08-30.6h1.35v1.35h-1.35Zm.22-5.17h.9v1h-.9Zm.15-5.17h.67v.67h-.67Zm.45,45.22h.83v.83h-.83Zm1.42-22h2.17v2.17h-2.17Zm.22-5.1h1.73v1.73h-1.73Zm.23-5.17h1.35v1.35H752Zm.15-5.1h1v.9h-1Zm.15-5.25h.67v.68h-.67Zm2,23.32h2.17v1.42l-.53.75h-1.65Zm.15-5.17h1.8v1.8h-1.8Zm.23-5.1h1.35v1.35h-1.35Zm.22-5.17h.9v1h-.9Zm.15-5.17h.67v.67H755Zm2.1,18.15h1.58l-1,1.8h-.6Zm.22-5.1h1.35v1.27h-1.35Zm.23-5.17h.9V76h-.9Zm.15-5.17h.6v.6h-.6Zm2.48,7.88h1l-.15.9h-.82Zm.15-5.25H761v.67h-.67Z"/><path class="cls-1" d="M796.75,131.69l-13.12-13.12c9.08,9.07,21.9,11.7,33.52,11.7a68.09,68.09,0,0,0,15-1.65v.6h1.5v-1a37.12,37.12,0,0,0,6.15-2.17v.75h2V125l1.5-.75h1.27v-.83a32.34,32.34,0,0,0,5.4-4.12v2.55h-2.48v2.47H850v-2.47h2.7v2.63h2.63v2.63h2.63v2.62h2.63v2.63h2.63v.07a24.55,24.55,0,0,1-2.62,2.25v-2.25H858v2.48h2.25a19,19,0,0,1-2.48,1.8v-1.5h-2.25v2.25h1.13l-1.65,1V138h-2v1.5a44.77,44.77,0,0,1-6.15,2.55v-1.2h-1.5v1.57h.38a57.75,57.75,0,0,1-7,1.5v-.22h-1v.38c-1.5.15-2.92.3-4.35.3v-.52h-.83v.6h-1.2C815,144.44,804.85,139.79,796.75,131.69Zm11.47-85.27h-2.7v-2.7h-2.7V41h-2.7v-2.7h-2.7v-2.7H795.1V32.84h2.25V30.37H795.1V27.29h2.1V25.12h-2.1v-2.4l15.67,14.92v1h-2.25v2.17h2.25v3.07h-2.48v2.48h2.48v2.77h-2.55Zm-13.12-8h2.25v2.47H795.1Zm0,5.47h2.17v2.25H795.1Zm.08,5.48h2v1.95h-2Zm.15,5.47H797v1.65h-1.65Zm.15,5.55h1.35v1.35h-1.35Zm.15,5.47h1v1h-1Zm.15,5.47h.75v.75h-.75ZM800,35.54V33.07H797.5v2.47Zm-2.47,5.55H800v2.48h-2.47ZM799.9,30V27.82h-2.25V30Zm-2.17,16.57H800v2.17h-2.25Zm.15,5.47h1.95V54h-1.95Zm.15,5.47h1.65v1.65H798Zm.15,5.48h1.35v1.35h-1.35Zm.15,5.55h1.05v1h-1.05Zm.15,5.47h.75v.75h-.75Zm4.27-35.77V35.77H800.2v2.48Zm-2.47,5.55h2.47v2.47h-2.47Zm2.33-11.1V30.52h-2.17v2.18Zm-2.17,16.5h2.17v2.25h-2.17Zm.15,5.55h1.88v1.88h-1.87Zm.08,5.48h1.65v1.65h-1.65Zm.15,5.47h1.35V67H800.8Zm.15,5.47H802v1.05h-1.05Zm.15,5.55h.75v.75h-.75Zm4.35-35.77V38.47H802.9v2.48ZM803,46.49h2.47V49H803Zm.08,5.4h2.25v2.25H803Zm2.25-16.5V33.22h-2.18v2.17Zm-2.1,22h2v1.95h-2Zm.15,5.47H805v1.65h-1.65Zm.15,5.55h1.35v1.35H803.5Zm.15,5.47h1v1h-1Zm.15,5.47h.75v.75h-.75Zm4.35-35.7V41.17H805.6v2.47Zm-2.47,5.55h2.47v2.48h-2.47Zm.07,5.4h2.17v2.17h-2.17ZM808,38.09V35.92h-2.17v2.17Zm-2.1,22h2v2h-2Zm.15,5.48h1.65v1.65H806ZM806.2,71h1.35v1.35H806.2Zm.15,5.55h1v1h-1ZM806.5,82h.75v.75h-.75Zm1.88-30.15h2.4v2.47h-2.4Zm.08,5.32h2.17v2.25h-2.17Zm.08,5.47h2v2h-2Zm.15,5.55h1.65v1.65h-1.65Zm.15,5.47h1.35v1.35h-1.35Zm.15,5.48h1v1h-1Zm.15,5.47h.75v.75h-.75Zm11,46.8v-.83h-.82v.83Zm2.63,2.63v-.83h-.83v.83Zm2.78-2.55v-1h-1v1Zm-.15,5.17v-.83h-.83v.83Zm2.78-2.47v-1.05h-1.05v1.05Zm-.15,5.1v-.75h-.83v.75Zm2.92-7.65v-1.27h-1.35v1.27Zm-.15,5.17v-1h-1.05v1Zm-.15,5.1v-.75h-.75V142Zm2.92-7.65V133h-1.28v1.27Zm-.15,5.17v-1h-1v1Zm2.92-7.65v-1.58h-1.57v1.58Zm-.15,5.1v-1.27h-1.28v1.27Zm-.15,5.17v-1h-1v1Zm3-12.82v-1.8h-1.72v1.8Zm-.08,5.17v-1.58h-1.57v1.58Zm-.15,5.17v-1.35h-1.28v1.35Zm2.92-7.72v-1.72h-1.8v1.72Zm-.15,5.17v-1.5H840v1.5Zm-.15,5.17v-1.35h-1.28v1.35Zm3-12.82v-2h-2v2Zm-.08,5.1v-1.73h-1.8v1.73Zm-.15,5.17v-1.5h-1.5v1.5Zm3-12.83v-2.25H845v2.25Zm-.08,5.17v-2h-2v2Zm-.15,5.17v-1.8h-1.8v1.8Zm2.85-7.72v-2.25h-2.25v2.25Zm-.08,5.17v-2h-2v2Zm-.15,5.17v-1.8h-1.73v1.8Zm3-12.82v-2.47h-2.47V127Zm-.07-10.35v2.47h-2.33Zm0,15.45v-2.25h-2.25v2.25Zm-.15,5.17v-2h-2v2Zm.38-18h2.4v2.47h-2.4Zm2.47,10.35v-2.47h-2.47v2.47Zm-2.4-13.35a23.59,23.59,0,0,0,1.65-2.17h.6v2.25h-2.25Zm2.33,18.52v-2.25h-2.25v2.25Zm.22-12.9h2.4v2.47h-2.4Zm2.47,10.35v-2.47h-2.47v2.47Zm-2.4-15.52h2.25V119h-2.25Zm.15-4.28.53-.82h1.42v1.95h-2Zm2.4,12.08h2.47V127H858Zm.08-5.1h2.25v2.17h-2.25Zm.15-5.17h2v1.95h-2Zm.15-5.17h1.72v1.72h-1.72Zm1.35-5.17h.3v1.57h-.9Zm.9,23.32h2.47v2.4h-2.47Zm.15-5.17H863v2.18h-2.17Zm.08-5.17h2v2h-2Zm.15-5.17h1.72v1.8H861Zm.07-5.17h1.58v1.57h-1.58Zm.15-5.17h1.28v1.35h-1.28Zm.53-5.17h.67v1.13h-.9ZM875.57,46h-2.7v-2.7h-2.7v-2.7h-2.7v-2.7h-2.7v-2.7h-1.87V32.47h1.8V30h-1.8V26.92h1.65V24.74h-1.65v-2l14.92,14.92v.6h-2v2.17h2v3.07h-2.17V46h2.17v2.77h-2.25Zm-12.67-8h1.8v2.47h-1.8Zm0,5.47h1.72v2.25h-1.72Zm0,5.48h1.57v1.95h-1.57Zm0,5.47h1.42v1.65h-1.42Zm0,5.55h1.27v1.35h-1.27Zm.07,5.47H864v1.05H863Zm.15,5.48h.75v.75h-.75Zm.15,58.95h2.47c-.75.83-1.58,1.65-2.4,2.48h-.07Zm.15-5.17h2.25V127h-2.25Zm.08-5.17h2v2h-2Zm.15-5.17h1.72v1.8h-1.72Zm.07-5.17h1.58v1.58h-1.58Zm.15-5.17h1.35v1.35h-1.35Zm.08-5.17h1.13V100h-1.12Zm.08-5.17h1v1h-1Zm.15-5.17h.75v.75h-.75Zm3.22-53.32V32.69h-2.55v2.47Zm-2.47,5.55h2.47v2.48h-2.47Zm2.33-11.1V27.44H865v2.17Zm-2.17,16.57h2.25v2.17h-2.25Zm.15,5.47h2v1.95h-2Zm.15,5.47H867v1.65h-1.65Zm.15,5.48h1.35V64h-1.35Zm.15,5.55h1v1h-1Zm.15,5.47h.75v.75h-.75Zm.22,53.7h1.8c-.6.75-1.2,1.5-1.8,2.17Zm.15-5.17h1.95v2h-1.95Zm.07-5.17h1.8v1.8h-1.8Zm.15-5.1h1.5v1.5h-1.5Zm.08-5.25h1.35V108h-1.35Zm.08-5.17h1.2v1.2h-1.2Zm.15-5.17h.9v1h-.9Zm.08-5.17h.75v.75h-.75Zm3.3-53.25V35.39h-2.55v2.48Zm-2.47,5.55h2.47v2.47h-2.47Zm2.32-11.1V30.14h-2.17v2.17Zm-2.17,16.5h2.17v2.25h-2.17Zm.15,5.55h1.88v1.88h-1.87Zm.08,5.48h1.65v1.65H868Zm.15,5.47h1.35v1.35h-1.35Zm.15,5.47h1v1.05h-1Zm.15,5.55h.75v.75h-.75Zm.38,48.52h.82l-.82,1.13Zm.07-5.17h1.8v1.72h-1.8Zm.15-5.17h1.5V116H869Zm.08-5.17h1.35v1.35h-1.35Zm.08-5.17h1.2v1.13h-1.2Zm.15-5.17h.9v.9h-.9Zm.08-5.25h.75v.75h-.75Zm3.38-53.17V38.09h-2.55v2.48Zm-2.48,5.55h2.48v2.48h-2.48Zm.08,5.4h2.25v2.25h-2.25ZM872.64,35V32.84h-2.17V35Zm-2.1,22h2v2h-2Zm.15,5.47h1.65v1.65h-1.65Zm.15,5.55h1.35v1.35h-1.35Zm.15,5.47h1v1h-1Zm.15,5.47h.75v.75h-.75Zm.53,38.17h1.58v1.13l-.23.38h-1.35Zm.08-5.17h1.35v1.35h-1.35Zm.15-5.17H873v1.13h-1.12Zm.08-5.17h1v.9h-1Zm.08-5.17h.75v.75H872Zm3.45-53.17V40.79h-2.55v2.47ZM873,48.82h2.47v2.48H873Zm.08,5.4h2.17v2.17h-2.17Zm2.25-16.5V35.54h-2.17v2.18Zm-2.1,22h1.95v2h-1.95Zm.15,5.48H875v1.65h-1.65Zm.15,5.47h1.35V72h-1.35Zm.15,5.55h1v1h-1Zm.15,5.47h.75v.75h-.75Zm.67,27.75h1.13v1.13h-1.12Zm.08-5.17h1v.9h-1Zm.15-5.17h.68v.75h-.68Zm1-47.55h2.1V54h-2.1Zm.08,5.32h2v2.25h-2Zm.07,5.47h2v2h-2Zm.15,5.55h1.65v1.65H876Zm.15,5.48h1.35v1.35h-1.35Zm.15,5.47h1v1h-1Zm.15,5.47h.75V85h-.75Z"/><path class="cls-1" d="M892.9,127.71H941a39,39,0,0,0,10.5-1.42v1H953v-1.5a38.09,38.09,0,0,0,6.15-2.7V125h2.25v-2.33h-1.5l1.72-1.12v1h2.63V120h2.55v2.55h-2.47v2.63H967v-2.47h2.55v2.55H967v2.63h2.63v-2.47h2.55v2.47h-2.48v2.62h2.63V128h2.55v2.55h-2.47v2.62H975v-2.47h2.55v2.55H975v2.63h1.5a11.28,11.28,0,0,1-1.72,1.13v-.9h-2.25v2.18l-1.2.67h-1.28v.52a41.65,41.65,0,0,1-16,3.15h-46.2ZM925.74,57H923V54.37h-2.62v-2.7h-2.7V49h-2.47V46.19h2v-2.1h-2V42.67h21.15c6.45,0,11.25,4.5,11.25,11.1v1H925.89v2h2v2.85h-2.17Zm0,41.1H923V95.47h-2.62v-2.7h-2.7v-2.7h-2.47V87.29h2v-2.1h-2V83.77h22.95c7.95,0,13.35,4.8,13.35,12v.15H925.89v2h2v2.85h-2.17ZM915.54,52h1.88v1.88h-1.87Zm0,41.1h1.88v1.88h-1.87ZM916,57.82h.9v.9H916Zm0,41.1h.9v.9H916Zm4-50.1v-2h-2.1v2Zm0,41.1v-2h-2.1v2Zm-1.8-35.25h2v1.88h-2Zm0,41.1h2v1.88h-2Zm.52-35.25h.9v.9h-.9Zm0,41.1h.9v.9h-.9Zm3.9-50.1v-2.1h-2v2.1Zm0,41.1v-2.1h-2v2.1Zm-.37-47.32v-1.5h-1.5v1.5Zm0,41.4v-1.5h-1.5v1.5Zm-1.35-29.4h1.88v2h-1.87Zm0,41.1h1.88v1.95h-1.87Zm.45-35.25h1V64h-1Zm0,41.1h1v.9h-1Zm4-50v-2.1h-2.1v2.1Zm0,41.1v-2.1h-2.1v2.1Zm-.23-47.4v-1.5h-1.5v1.5ZM923.57,60h1.88v1.88h-1.87Zm1.5,29.32v-1.5h-1.5v1.5Zm-1.5,11.77h1.88V103h-1.87Zm.45,5.85h.9v.82H924Zm2.17-44.25h1.72v1.88h-1.72Zm0,41.1h1.72v1.88h-1.72Zm1.58-58.5v-1.5h-1.5v1.5Zm0,41.4v-1.5h-1.5v1.5Zm.15-35.85v-1.5h-1.5v1.5Zm0,41.4v-1.5h-1.5v1.5Zm2.7-44.32v-1.5h-1.5v1.5Zm0,5.63V52h-1.5v1.5Zm0,35.77v-1.5h-1.5v1.5Zm0,5.63v-1.5h-1.5v1.5Zm2.7-8.25v-1.5h-1.5v1.5Zm.15-35.85v-1.5H932v1.5Zm0,41.4v-1.5H932v1.5Zm-.37-47.17V44h-1v1.05Zm3.08,8.47V52h-1.5v1.5Zm0,35.77v-1.5h-1.5v1.5Zm0,5.63v-1.5h-1.5v1.5Zm-.22-47.25v-1h-1v1ZM939,92.24v-1.5h-1.5v1.5Zm-.37-5.77v-1h-1v1Zm.15-35.85V49.57h-1v1.05Zm-.22-5.77v-.75h-.75v.75Zm3.15,50.1v-1.5h-1.5v1.5Zm-.3-41.62v-1h-1v1Zm.08,35.77V88h-1v1Zm-.08-41.55v-.75h-.75v.75ZM944.34,92V91h-1v1Zm-.22-5.77v-.75h-.75v.75Zm.15-35.77v-.75h-.75v.75Zm.45,79.12v-.75h-.83v.75ZM947,94.72v-1h-1v1Zm0-5.78v-.75h-.75v.75Zm.38,43.35v-.83h-.75v.83Zm2.47-40.42v-.75h-.75v.75Zm.38,37.95v-1.2h-1.12v1.2Zm-.15,5.1v-.75h-.83v.75Zm2.85-2.48v-1.12h-1.2v1.13Zm-.23,5.17v-.82h-.75v.82Zm3.08-7.65v-1.5h-1.58V130Zm-.15,5.17v-1.2h-1.2v1.2Zm-.23,5.1v-.75h-.75v.75Zm3.22-12.75v-2h-1.87v2Zm-.15,5.17v-1.58h-1.58v1.58Zm-.23,5.17v-1.2h-1.12v1.2Zm3.08-7.65v-2h-2v2Zm-.22,5.1v-1.5h-1.5v1.5Zm-.15,5.17v-1.12h-1.2v1.13Zm2.17-66v-.6h-.9l-1.5-.9c.9-.75,1.8-1.65,1.95-1.8h.45v2.63h2.63v2.7C964.82,75.74,963.92,75.07,963.09,74.47Zm1,53.17v-2.25h-2.32v2.25Zm-.22,5.17v-1.87H962v1.87Zm-.15,5.17v-1.57h-1.57V138Zm-.45-67.5,1.57-1.8h.68v2.25h-2.25Zm3.52,59.85v-2.25h-2.33v2.25Zm-.22,5.17v-2h-1.87v2Zm-.15,5.17v-1.58h-1.58v1.58Zm-.75-64.2h2.78v2.7A23.62,23.62,0,0,0,965.72,76.49Zm.23-5.17h2.32v2.33h-2.32Zm.22-4.42.45-.67H968v1.88h-1.87Zm1,50.62h2.25v2.17h-2.25ZM969.47,133v-2.33h-2.25V133Zm-.15,5.17v-2h-1.95v2Zm-.07-58.12-.75-.9h2.63v2.55Zm-.6-6.07h2.25v2.25h-2.25Zm.23-5.1h1.88v1.8h-1.87Zm.15-5.17h1.5v1.42H969Zm1-5.17h.38v1.12h-.68Zm-.15,61.57H972v2.25h-2.17Zm2.33,15.52v-2.25h-2.33v2.25ZM970,115h1.87v1.88H970Zm1.72-5v1.43H971Zm-.53-28.12h2.63v2.62Zm.15-5.1h2.25V79h-2.25Zm.15-5.17h1.88v1.88h-1.87Zm.23-5.1h1.5v1.42h-1.5Zm.22-5.17h1v1h-1Zm.15-5.17h.75v.75h-.75Zm.38,66.75h2.25v2.25h-2.25Zm.15-5.17h2v1.88h-2Zm.23-5.17h1.5v1.58h-1.5Zm.08-5.25h1.35v1.27h-1.35Zm1-22.72h2.55v2.55Zm.08-5.17h2.32v2.33H974Zm.22-5.1h1.88v1.88h-1.87Zm.23-5.17h1.42v1.5h-1.42Zm.15-5.17h1.13V65h-1.12Zm.15-5.17h.75v.75h-.75Zm.45,66.82h2.17v2.17h-2.17Zm.15-5.17h1.88v1.88h-1.87Zm.15-5.25H977v1.58h-1.57Zm.15-5.17h1.28v1.28h-1.28Zm.15-5.17h1v1h-1Zm.15-5.25h.75v.75h-.75ZM976.67,82h2.25v2.25h-2.25Zm.23-5.17h1.88v1.88h-1.87Zm.15-5.1h1.5v1.42H977Zm.23-5.17h1v1.13h-1Zm.15-5.17h.75v.75h-.75Zm.23,71.92h2c-.82.75-1.35,1.2-2,1.72Zm.22-5.17H980v2.25h-2.17ZM978,123h1.88v1.88H978Zm.15-5.17h1.58v1.58h-1.58Zm.15-5.17h1.28v1.28h-1.28Zm.15-5.25h1v1h-1Zm.07-5.17h.75V103h-.75Zm1-22.65h1.88v1.13l-.45.75h-1.42Zm.22-5.1h1.5v1.43h-1.5Zm.15-5.17H981v1.05h-1.12Zm.22-5.17h.75v.75h-.75Zm.38,66.75h1.58c-.53.6-1,1.13-1.58,1.65Zm.15-5.17h1.95v1.88h-1.95Zm.22-5.17h1.5v1.57h-1.5Zm.08-5.25h1.27v1.28h-1.27Zm.15-5.17h1.05v1h-1.05Zm.15-5.25H982v.75h-.75Zm1.2-27.75h.67c-.22.6-.45,1.05-.67,1.58Zm.15-5.17h1.13V73h-1.12Zm.15-5.17h.75v.75h-.75Zm.6,61.57H984l-.68,1Zm.15-5.17h1.58v1.57h-1.58Zm.15-5.17h1.27v1.27h-1.27Zm.15-5.25h1v1h-1Zm.15-5.17h.75v.75h-.75Zm2.4,13.12h1.28V121l-.3.9h-1Zm.08-5.25h1v1h-1Zm.15-5.17h.75V111h-.75Z"/><path class="cls-1" d="M1018.67,127.71h23.7L1058,142.64h-24.45Zm23.7-42.07.45-.67h1.5v1.88h-2Zm.38,5h1.35v1.35h-1.35Zm.23,5.63h.9V97h-.9Zm1.95-14.1h2.25v2.25h-2.25Zm.3,5.63h1.65v1.72h-1.65Zm.22,5.62h1.2v1.2h-1.2Zm.22,5.55h.75v.75h-.75ZM1047.39,78v1.2h-.83Zm.07,1.27H1050v2.63h-2.55Zm.23,5.63h2.1v2h-2.1Zm.3,5.63h1.5V92H1048Zm.22,5.63h1.05v1h-1.05Zm1.8-22.2v2.63h-1.73Zm.07-.15,1.65-2.55h1v2.63h-2.62Zm0,2.85h2.63v2.55h-2.62Zm.08,5.4h2.47v2.47h-2.47Zm.3,5.63h1.88v1.88h-1.87Zm.3,5.62H1052v1.35h-1.27Zm.22,5.55h.83v.9H1051Zm1.8-29.17.67-1.12h2v2.7h-2.62Zm0,4.27h2.63v2.63h-2.62Zm0,5.32h2.63v2.63h-2.62Zm.15,5.55h2.25v2.25h-2.25Zm.3,5.63H1055v1.65h-1.72Zm.22,5.63h1.2v1.13h-1.2Zm.23,5.55h.75v.75h-.75Zm7-30.37h2.7v-2.7h-2.7v2.7h-2.62v-2.7h2.63V65.92h-2.62v2.63h-2.7V65.92h-.22l.22-.37v.3H1058V63.22h-1.12l1.2-1.87v1.8h2.63V60.59h-2.1l1.8-2.77h.23v-.37l1.57-2.33h1.05V53.39l.67-1.05h1.95V50h-.45l.82-1.27v.9h2.25V47.39h-1.35l5.55-8.62h1V37.34l.83-1.28.08-.07v.07h1.72V34.34h-.67l1.65-2.62v1.57h1.57V31.72h-1.57l5.85-9,9.07,11.7,1.35,1.73-2.33,3.52h-.6v1l-1.12,1.65h-1.65v1.8h.45l-1.2,1.8v-1h-2v2h1.28l-5.62,8.55h-1.2v1.8l-.52.82h-2.17v2.4h.6l-.83,1.2v-1h-2.47v2.48h1.5l-1.65,2.55v-2.4h-2.55v2.55h2.4l-1.8,2.77h-.68v.9l-1.12,1.72h-1.58v2.4l-.15.22h-2.47V71.24h-2.7v2.63h-2.7Zm-5.33,0h2.7v2.63h-2.7Zm.08,5.4H1058v2.55h-2.55Zm0,5.32H1058v2.55h-2.55Zm.22,5.63h2.1v2h-2.1Zm.3,5.63h1.5v1.5H1056Zm.23,5.55h1v1h-1Zm1.88-24.82h2.63v2.63h-2.62Zm0,5.32h2.63v2.63h-2.62Zm.07,5.4h2.48v1.2l-.83,1.27h-1.65Zm5.17-24.15V58h-2.55v2.55Zm0,5.32V63.29h-2.55v2.55Zm-2.55,10.72h2.63v2.63h-2.62Zm0,5.4h2.48l-1.73,2.55h-.75Zm5.25-13.42V65.92h-2.62v2.63Zm-2.62,5.4h2.63v2.63h-2.62Zm0,5.32H1065l-1.58,2.4ZM1066,57.74v-2.4h-2.47v2.4Zm.08,5.4V60.59h-2.55v2.55Zm2.7,2.7V63.29h-2.62v2.55Zm0,5.4V68.62h-2.62v2.62Zm-2.62,5.33h.67l-.67,1Zm2.55-16.12V58h-2.47v2.47Zm-.08-5.4V52.72h-2.33V55Zm2.78,8.1V60.67h-2.55v2.48Zm0,5.4V65.92h-2.55v2.63Zm-.08-10.8v-2.4h-2.4v2.4Zm-.08-5.4V50.09H1069v2.25Zm-.08-5.4v-2.1h-2.1v2.1Zm2.85,13.5V58h-2.48v2.4Zm-.08-5.4V52.72h-2.33V55Zm-.08-5.4V47.47h-2.17v2.17Zm-.08-5.4v-2h-2v2Zm2.85,13.5v-2.4h-2.4v2.4Zm-.07-5.4V50.09h-2.25v2.25Zm-.08-5.4v-2.1h-2.1v2.1Zm-.08-5.48V39.59h-2v1.88ZM1079.27,55V52.72H1077V55Zm-.07-5.4V47.47h-2.1v2.17Zm-.08-5.47v-2h-2v2Zm-.08-5.4V37h-1.8v1.8Zm2.85,13.57V50.17h-2.17v2.17Zm-.08-5.47v-2h-2v2Zm-.07-5.4V39.59h-1.87v1.88Zm-.08-5.47V34.34h-1.72V36Zm-.15-5.4v-1.5h-1.42v1.5Zm3,19v-2h-2.1v2Zm-.08-5.4V42.29h-1.95v1.88Zm-.07-5.48V37h-1.8v1.72Zm-.15-5.4v-1.5h-1.5v1.5Zm-.08-5.47V26.54h-1.35v1.27Zm2.92,13.57V39.67h-1.8v1.73Zm-.15-5.4V34.42h-1.58V36Zm-.08-5.48V29.17h-1.42v1.35Zm2.77,8.17V37H1088v1.65Zm-.07-5.47V31.79h-1.43v1.42Zm2.7,2.77V34.42h-1.5V36Z"/><path class="cls-2" d="M24,24.35H47.84v105H24Z"/><path class="cls-2" d="M74.69,123.57v-25c8.32,5.4,18.07,9.75,31,9.75,7.95,0,19-2.4,19-9.3,0-14.85-51.15-7.8-51.15-42.9,0-19.5,15.75-33.6,39.6-33.6,9.6,0,21.15,2.33,29.1,6.15V52.77c-7.42-4.57-17.7-8-26.55-8-11.1,0-18.6,4-18.6,9.6,0,14.7,52.2,7.2,52.2,42.75,0,19.65-15.9,34-39.9,34C92.69,131.14,82.34,127.24,74.69,123.57Z"/><path class="cls-2" d="M172.94,24.35h23.7V107h45.45v22.35H172.94Z"/><path class="cls-2" d="M263.61,24.35h69.3v21.3H287V65h38.85v21.9H287v20.85h48v21.6h-71.4Z"/><path class="cls-2" d="M397.11,77a54.9,54.9,0,1,1,54.9,54.9A54.8,54.8,0,0,1,397.11,77Zm85.65,0c0-17.85-13.5-31.8-30.75-31.8S421.26,59.15,421.26,77s13.5,31.95,30.75,31.95S482.76,94.84,482.76,77Z"/><path class="cls-2" d="M530.09,24.35h72.15v22.2h-48.9v22.8h40.8v21.9h-40.8v38.1H530.09Z"/><path class="cls-2" d="M668.68,24.35h41.1c22.8,0,39.15,15,39.15,34.95,0,12.6-7.72,24.15-18.82,30.9l24.37,39.15h-28l-20.32-33.9h-14v33.9h-23.4Zm40.8,51.45c9.45,0,15.75-6.9,15.75-15s-6.3-15-15.75-15h-17.4v30Z"/><path class="cls-2" d="M773.61,84.34v-60h23.7V83c0,20.4,11,26.85,22,26.85s22-6.45,22-26.85V24.35h23.7v60c0,34-19,47.55-45.75,47.55C792.73,131.89,773.61,118.39,773.61,84.34Z"/><path class="cls-2" d="M895.41,24.35h44.85c19,0,32.7,12.6,32.7,29.85,0,8-3.9,15.15-10,20.4,8.55,4.87,14.25,12.9,14.25,22.95,0,17.4-13.65,31.8-33.9,31.8H895.11Zm43.2,42.15a10.84,10.84,0,0,0,11.25-11.1c0-6.6-4.8-11.1-11.25-11.1H917.46v22.2Zm1.8,42.9c7.95,0,13.35-5.4,13.35-12,0-7.2-5.4-12-13.35-12H917.46v24Z"/><path class="cls-2" d="M1020.88,87.34l-40.8-63h29.4l23.25,39,23.25-39h29.4l-40.8,63v42h-23.7Z"/><path class="cls-3" d="M34.54,34.24h1.8V119h-1.8Z"/><path class="cls-3" d="M137.51,98c0,14.25-11.17,22.57-30,22.57a60.53,60.53,0,0,1-23.17-4.12v-2a58.33,58.33,0,0,0,23.17,4.28c17.85,0,28.12-7.65,28.12-20.77,0-14.25-12.22-17.47-25-20.77C97.61,73.83,84,70.46,84,55.31c0-14.17,11.77-22.95,30.52-22.95a47.88,47.88,0,0,1,17.17,3.3v2a46.45,46.45,0,0,0-17.17-3.45c-17.77,0-28.65,8.1-28.65,21.15,0,13.8,12.15,16.72,25.12,20.1S137.51,82.38,137.51,98Z"/><path class="cls-3" d="M183.41,34.24h1.8V117h46.27v1.8H183.41Z"/><path class="cls-3" d="M324.41,117.41v1.8H273.86V33.86h48.45v1.8H275.66V74.81h39.6v1.8h-39.6v40.8Z"/><path class="cls-3" d="M495.26,76.76c0,24.75-19.35,44.32-43.72,44.32s-43.72-19.57-43.72-44.32,19.35-44.17,43.72-44.17S495.26,52.09,495.26,76.76Zm-1.87,0c0-23.7-18.45-42.37-41.85-42.37s-41.85,18.67-41.85,42.37,18.45,42.52,41.85,42.52S493.38,100.53,493.38,76.76Z"/><path class="cls-3" d="M542.21,36.11l-.08,43h41.4V81h-41.4l-.07,38h-1.8l.15-84.67h51.22v1.8Z"/><path class="cls-3" d="M714.1,85.38,734.73,119h-2.1L712.15,85.61c-.9.07-1.87.07-2.85.07h-28.5V119H679v-85h30.3c16.57,0,28.2,10.65,28.2,25.87C737.5,73.54,728.05,83.51,714.1,85.38Zm-4.8-1.5c15.6,0,26.32-9.82,26.32-24.07S724.9,35.74,709.3,35.74h-28.5V83.88Z"/><path class="cls-3" d="M784.08,81.26V34.39h1.8V81.26c0,25.65,11.1,38.62,33,38.62s33-13,33-38.62v-47h1.8v47c0,26.55-11.85,40.35-34.8,40.35S784.08,107.81,784.08,81.26Z"/><path class="cls-3" d="M966.33,97.16c0,13-11.47,23.1-26.4,23.1H905V33h33.15c13.42,0,23.55,9.6,23.55,22.2,0,9.52-6.3,17.32-15.45,20.25C958.08,77.58,966.33,86.13,966.33,97.16ZM906.78,74.81h31.35c12.22,0,21.6-8.55,21.6-19.65,0-11.62-9.3-20.4-21.6-20.4H906.78Zm57.6,22.35c0-11.85-10.35-20.55-24.45-20.55H906.78v41.85h33.15C953.8,118.46,964.38,109.23,964.38,97.16Z"/><path class="cls-3" d="M1064.88,34.24l-31.72,50.4V119h-1.8V84.56L999.78,34.24h2.1L1032.25,83l30.52-48.75Z"/></svg>